<svg width="131" height="52" viewBox="0 0 131 52" fill="none" xmlns="http://www.w3.org/2000/svg">
<path d="M18.1826 28.1011C18.1974 28.1104 18.2145 28.1152 18.232 28.1152C18.2494 28.1152 18.2665 28.1104 18.2813 28.1011C20.8741 26.8769 23.3143 25.3527 25.552 23.5598C26.2548 22.9436 26.6904 22.0781 26.7666 21.1465C26.6476 19.6224 25.9513 18.2012 24.82 17.1731C22.1902 20.5064 19.9557 24.1333 18.1613 27.9811C18.1613 27.9811 18.128 28.0585 18.1826 28.1011ZM28.2813 23.2971C28.2813 23.2971 22.0146 26.6598 18.772 28.8545C18.7567 28.8681 18.7448 28.8851 18.7372 28.904C18.7296 28.923 18.7264 28.9434 18.728 28.9638C18.728 28.9638 18.7613 29.0185 18.8053 29.0185C19.9626 29.0185 24.3626 29.0185 24.4706 29.0078C24.9054 28.9749 25.3326 28.8755 25.7373 28.7131C26.7952 28.2958 27.6488 27.4827 28.1173 26.4465C28.5506 25.451 28.6089 24.3323 28.2813 23.2971ZM26.316 29.8158L18.936 29.5491V29.5611C18.918 29.5619 18.9005 29.5672 18.8851 29.5765C18.8697 29.5858 18.8569 29.5989 18.848 29.6145C18.8446 29.6324 18.8459 29.6509 18.8518 29.6682C18.8576 29.6854 18.8678 29.7009 18.8813 29.7131C20.0774 30.6291 21.3786 31.399 22.7573 32.0065C22.7573 32.0065 24.668 32.6545 26.316 29.8158ZM17.1786 27.4905L17.1893 27.5118C17.2546 27.5451 17.2986 27.4678 17.2986 27.4678C18.008 26.4425 21.1853 21.7145 21.84 18.8318C22.0319 18.0614 22.0319 17.2556 21.84 16.4851C21.6623 15.9287 21.3454 15.4269 20.9193 15.0274C20.4932 14.6279 19.972 14.3439 19.4053 14.2025C19.4053 14.2025 18.848 14.0611 18.248 13.9731C18.248 13.9731 16.064 16.7905 17.124 27.4131C17.1225 27.4304 17.1271 27.4477 17.1371 27.4618C17.1471 27.476 17.1618 27.4861 17.1786 27.4905ZM15.7 27.4905C15.744 27.5451 15.7866 27.5225 15.7866 27.5225C15.8067 27.5192 15.8247 27.5084 15.8371 27.4923C15.8494 27.4762 15.8552 27.456 15.8533 27.4358C16.9 16.8118 14.732 13.9998 14.732 13.9998L14.744 13.9891C14.4266 14.0211 13.5533 14.2185 13.5533 14.2185C12.9905 14.3615 12.4736 14.6457 12.0513 15.0442C11.629 15.4427 11.3153 15.9423 11.14 16.4958C10.934 17.2645 10.934 18.0738 11.14 18.8425C11.796 21.7331 14.9946 26.4971 15.7 27.4905ZM7.23195 28.7025C7.68058 28.8833 8.1567 28.9866 8.63995 29.0078C8.74929 29.0291 13.0293 29.0078 14.176 29.0078C14.2186 29.0078 14.252 28.9531 14.252 28.9531V28.9638C14.2853 28.9091 14.2306 28.8545 14.2306 28.8545C10.988 26.6665 4.70929 23.3091 4.70929 23.3091C4.3694 24.3605 4.44072 25.5016 4.90885 26.5024C5.37699 27.5033 6.20713 28.2895 7.23195 28.7025ZM14.0453 29.5651L6.67462 29.8158C7.47462 31.2465 8.82529 32.3491 10.224 32.0105C11.6075 31.406 12.9126 30.636 14.1106 29.7171C14.1653 29.6625 14.1426 29.6185 14.1426 29.6185V29.6305C14.1345 29.6113 14.121 29.5949 14.1037 29.5832C14.0864 29.5716 14.0661 29.5653 14.0453 29.5651ZM7.43328 23.5598C9.6782 25.3569 12.126 26.8846 14.7266 28.1118C14.7386 28.1118 14.7933 28.1345 14.8253 28.0905V28.1011C14.8381 28.0912 14.8471 28.0772 14.851 28.0615C14.8549 28.0458 14.8533 28.0292 14.8466 28.0145C13.0511 24.153 10.8106 20.5146 8.17062 17.1731C8.17062 17.1731 6.07462 19.1598 6.23329 21.1571C6.30003 22.0852 6.73147 22.949 7.43328 23.5598ZM27.5826 34.1171H28.5V37.9825H27.5826V34.1171ZM23.38 36.1331C23.3553 36.4194 23.4011 36.7074 23.5133 36.9719C23.6256 37.2364 23.8009 37.4693 24.024 37.6505C24.4025 37.9148 24.8632 38.035 25.3226 37.9891H26.808V37.3118H25.3666C24.6786 37.3118 24.3733 37.0611 24.3733 36.3625H26.808V35.6851H24.388V35.7078L24.3773 35.6851H24.392C24.3869 35.5598 24.4097 35.435 24.4587 35.3195C24.5076 35.2041 24.5815 35.1009 24.6751 35.0174C24.7687 34.9339 24.8796 34.8722 24.9998 34.8367C25.1201 34.8011 25.2467 34.7926 25.3706 34.8118H26.812V34.1331H25.3453C24.0013 34.1331 23.38 34.7718 23.38 36.1331ZM24.384 35.7118V35.6891H24.3693L24.384 35.7118ZM21.392 37.0865L20.4533 34.1171H19.416L18.5973 37.0865L17.636 34.1171H16.6866L18.084 37.9825H19.1546L19.9293 35.0998L20.8253 37.9825H21.8946L23.1933 34.1171H22.288L21.392 37.0865ZM15.516 34.1478H14.5826L12.8133 38.0145H13.7466L14.1186 37.0971H15.9306L16.3133 38.0145H17.2946L15.516 34.1478ZM14.4026 36.4145L15.0133 34.9291L15.6466 36.4145H14.4026ZM11.7 36.4318C11.7 37.1198 11.4813 37.4038 10.7666 37.4038C10.052 37.4038 9.83329 37.1091 9.83329 36.4318V34.1171H8.94529V36.4531C8.89291 36.8169 8.97904 37.1872 9.18662 37.4905C9.39313 37.6898 9.64115 37.8409 9.91292 37.9331C10.1847 38.0253 10.4735 38.0563 10.7586 38.0238C11.0438 38.0563 11.3325 38.0253 11.6043 37.9331C11.8761 37.8409 12.1241 37.6898 12.3306 37.4905C12.5346 37.1854 12.6234 36.8177 12.5813 36.4531V34.1171H11.7V36.4318ZM7.35195 35.6891H5.38662V34.1171H4.50262V37.9825H5.38662V36.3665H7.35195V37.9825H8.22529V34.1171H7.35195V35.6891Z" fill="white"/>
<g filter="url(#filter0_b_5572_19766)">
<path d="M42.175 18V8.34H48.153V9.418H43.407V12.568H47.313V13.632H43.407V16.922H48.153V18H42.175ZM49.0733 18L51.2013 14.5L49.0733 11H50.3753L51.9853 13.674L53.6093 11H54.8973L52.7413 14.472L54.8973 18H53.5813L51.9573 15.34L50.3613 18H49.0733ZM56.1577 21.08V11H57.3337V11.49C57.4831 11.3967 57.6697 11.3033 57.8937 11.21C58.1177 11.1073 58.3557 11.0233 58.6077 10.958C58.8691 10.8927 59.1211 10.86 59.3637 10.86C60.2597 10.86 60.9131 11.1447 61.3237 11.714C61.7344 12.2833 61.9397 13.184 61.9397 14.416C61.9397 15.3307 61.8324 16.0633 61.6177 16.614C61.4124 17.1553 61.0811 17.5473 60.6237 17.79C60.1757 18.0233 59.5924 18.14 58.8737 18.14C58.5937 18.14 58.3044 18.1213 58.0057 18.084C57.7164 18.0467 57.4924 18.014 57.3337 17.986V21.08H56.1577ZM58.7757 17.104C59.2704 17.104 59.6577 17.0153 59.9377 16.838C60.2177 16.6513 60.4137 16.362 60.5257 15.97C60.6471 15.5687 60.7077 15.0507 60.7077 14.416C60.7077 13.5013 60.5724 12.8573 60.3017 12.484C60.0311 12.1013 59.6531 11.91 59.1677 11.91C58.9531 11.91 58.7291 11.938 58.4957 11.994C58.2717 12.05 58.0571 12.1153 57.8517 12.19C57.6464 12.2647 57.4737 12.344 57.3337 12.428V16.978C57.4831 16.9967 57.6931 17.0247 57.9637 17.062C58.2437 17.09 58.5144 17.104 58.7757 17.104ZM63.6516 18V7.976H64.8416V18H63.6516ZM69.6065 18.14C68.8225 18.14 68.2065 18.0047 67.7585 17.734C67.3198 17.4633 67.0118 17.0573 66.8345 16.516C66.6572 15.9653 66.5685 15.2653 66.5685 14.416C66.5685 13.6133 66.6665 12.9507 66.8625 12.428C67.0585 11.896 67.3805 11.504 67.8285 11.252C68.2765 10.9907 68.8692 10.86 69.6065 10.86C70.3532 10.86 70.9505 10.9907 71.3985 11.252C71.8465 11.504 72.1685 11.896 72.3645 12.428C72.5605 12.9507 72.6585 13.6133 72.6585 14.416C72.6585 15.2653 72.5652 15.9653 72.3785 16.516C72.2012 17.0573 71.8932 17.4633 71.4545 17.734C71.0158 18.0047 70.3998 18.14 69.6065 18.14ZM69.6065 17.118C70.1292 17.118 70.5212 17.0293 70.7825 16.852C71.0438 16.6653 71.2165 16.3713 71.3005 15.97C71.3845 15.5687 71.4265 15.0507 71.4265 14.416C71.4265 13.7907 71.3705 13.2913 71.2585 12.918C71.1558 12.5447 70.9738 12.2787 70.7125 12.12C70.4512 11.9613 70.0825 11.882 69.6065 11.882C69.1398 11.882 68.7712 11.9613 68.5005 12.12C68.2392 12.2787 68.0525 12.5447 67.9405 12.918C67.8378 13.2913 67.7865 13.7907 67.7865 14.416C67.7865 15.0507 67.8285 15.5687 67.9125 15.97C67.9965 16.3713 68.1692 16.6653 68.4305 16.852C68.6918 17.0293 69.0838 17.118 69.6065 17.118ZM74.314 18V11H75.49V11.924C75.6673 11.8027 75.8867 11.672 76.148 11.532C76.4187 11.3827 76.7127 11.2427 77.03 11.112C77.3473 10.9813 77.6647 10.8927 77.982 10.846V12.036C77.674 12.1013 77.3613 12.1853 77.044 12.288C76.7267 12.3907 76.4327 12.5027 76.162 12.624C75.8913 12.7453 75.6673 12.8527 75.49 12.946V18H74.314ZM81.7012 18.14C80.9918 18.14 80.4318 18.0047 80.0212 17.734C79.6105 17.4633 79.3118 17.062 79.1252 16.53C78.9478 15.998 78.8592 15.3353 78.8592 14.542C78.8592 13.6647 78.9805 12.9553 79.2232 12.414C79.4658 11.8727 79.8065 11.4807 80.2452 11.238C80.6932 10.986 81.2252 10.86 81.8412 10.86C82.7932 10.86 83.5072 11.1213 83.9832 11.644C84.4685 12.1573 84.7112 12.9833 84.7112 14.122L84.6552 14.99H80.0772C80.0865 15.6807 80.2172 16.208 80.4692 16.572C80.7212 16.9267 81.1785 17.104 81.8412 17.104C82.1025 17.104 82.3918 17.0993 82.7092 17.09C83.0265 17.0713 83.3392 17.0527 83.6472 17.034C83.9645 17.0153 84.2305 16.9967 84.4452 16.978L84.4732 17.902C84.2492 17.9393 83.9738 17.9767 83.6472 18.014C83.3205 18.0513 82.9845 18.0793 82.6392 18.098C82.3032 18.126 81.9905 18.14 81.7012 18.14ZM80.0772 14.052H83.5072C83.5072 13.2307 83.3765 12.6567 83.1152 12.33C82.8538 11.994 82.4292 11.826 81.8412 11.826C81.2718 11.826 80.8332 11.9987 80.5252 12.344C80.2265 12.6893 80.0772 13.2587 80.0772 14.052ZM89.353 18V11H90.529V18H89.353ZM89.353 9.516V8.214H90.529V9.516H89.353ZM94.7939 18.154C94.3086 18.154 93.9212 18.0793 93.6319 17.93C93.3426 17.7807 93.1326 17.524 93.0019 17.16C92.8806 16.7867 92.8199 16.264 92.8199 15.592V12.022H91.8539V11H92.8199V8.9H94.0099V11H96.1519V12.022H94.0099V15.256C94.0099 15.732 94.0286 16.1053 94.0659 16.376C94.1126 16.6373 94.2012 16.824 94.3319 16.936C94.4719 17.0387 94.6866 17.09 94.9759 17.09C95.0692 17.09 95.1859 17.0853 95.3259 17.076C95.4752 17.0667 95.6246 17.0573 95.7739 17.048C95.9326 17.0293 96.0679 17.0153 96.1799 17.006L96.2499 18C96.0446 18.028 95.7972 18.0607 95.5079 18.098C95.2279 18.1353 94.9899 18.154 94.7939 18.154ZM103.212 18.14C102.428 18.14 101.812 18.0047 101.364 17.734C100.925 17.4633 100.617 17.0573 100.44 16.516C100.263 15.9653 100.174 15.2653 100.174 14.416C100.174 13.6133 100.272 12.9507 100.468 12.428C100.664 11.896 100.986 11.504 101.434 11.252C101.882 10.9907 102.475 10.86 103.212 10.86C103.959 10.86 104.556 10.9907 105.004 11.252C105.452 11.504 105.774 11.896 105.97 12.428C106.166 12.9507 106.264 13.6133 106.264 14.416C106.264 15.2653 106.171 15.9653 105.984 16.516C105.807 17.0573 105.499 17.4633 105.06 17.734C104.621 18.0047 104.005 18.14 103.212 18.14ZM103.212 17.118C103.735 17.118 104.127 17.0293 104.388 16.852C104.649 16.6653 104.822 16.3713 104.906 15.97C104.99 15.5687 105.032 15.0507 105.032 14.416C105.032 13.7907 104.976 13.2913 104.864 12.918C104.761 12.5447 104.579 12.2787 104.318 12.12C104.057 11.9613 103.688 11.882 103.212 11.882C102.745 11.882 102.377 11.9613 102.106 12.12C101.845 12.2787 101.658 12.5447 101.546 12.918C101.443 13.2913 101.392 13.7907 101.392 14.416C101.392 15.0507 101.434 15.5687 101.518 15.97C101.602 16.3713 101.775 16.6653 102.036 16.852C102.297 17.0293 102.689 17.118 103.212 17.118ZM107.919 18V11H109.095V11.476C109.254 11.3827 109.45 11.2893 109.683 11.196C109.926 11.1027 110.178 11.0233 110.439 10.958C110.71 10.8927 110.967 10.86 111.209 10.86C111.853 10.86 112.348 10.9767 112.693 11.21C113.039 11.434 113.277 11.798 113.407 12.302C113.538 12.806 113.603 13.4733 113.603 14.304V18H112.413V14.346C112.413 13.758 112.376 13.2867 112.301 12.932C112.236 12.5773 112.101 12.3207 111.895 12.162C111.699 12.0033 111.391 11.924 110.971 11.924C110.747 11.924 110.514 11.952 110.271 12.008C110.038 12.0547 109.819 12.1153 109.613 12.19C109.408 12.2647 109.235 12.3393 109.095 12.414V18H107.919Z" fill="white"/>
</g>
<g filter="url(#filter1_b_5572_19766)">
<path d="M41.6652 42L44.7972 29.706H49.1352L52.2492 42H49.7652L49.0812 39.516H44.7792L44.1312 42H41.6652ZM45.1752 37.518H48.7212L47.3352 31.722H46.5792L45.1752 37.518ZM53.4607 45.798V32.964H55.8367L55.8547 33.54C56.0227 33.432 56.2327 33.318 56.4847 33.198C56.7487 33.078 57.0307 32.976 57.3307 32.892C57.6307 32.808 57.9247 32.766 58.2127 32.766C59.4247 32.766 60.2947 33.156 60.8227 33.936C61.3507 34.704 61.6147 35.874 61.6147 37.446C61.6147 38.574 61.4827 39.486 61.2187 40.182C60.9547 40.878 60.5287 41.388 59.9407 41.712C59.3647 42.036 58.6027 42.198 57.6547 42.198C57.3547 42.198 57.0307 42.174 56.6827 42.126C56.3347 42.078 56.0587 42.03 55.8547 41.982V45.798H53.4607ZM57.2767 40.2C57.7567 40.2 58.1347 40.098 58.4107 39.894C58.6867 39.69 58.8787 39.384 58.9867 38.976C59.1067 38.556 59.1667 38.028 59.1667 37.392C59.1667 36.408 59.0287 35.73 58.7527 35.358C58.4887 34.974 58.1047 34.782 57.6007 34.782C57.4087 34.782 57.2047 34.806 56.9887 34.854C56.7727 34.902 56.5627 34.962 56.3587 35.034C56.1547 35.106 55.9867 35.178 55.8547 35.25V40.074C55.9987 40.086 56.2027 40.11 56.4667 40.146C56.7427 40.182 57.0127 40.2 57.2767 40.2ZM63.2517 45.798V32.964H65.6277L65.6457 33.54C65.8137 33.432 66.0237 33.318 66.2757 33.198C66.5397 33.078 66.8217 32.976 67.1217 32.892C67.4217 32.808 67.7157 32.766 68.0037 32.766C69.2157 32.766 70.0857 33.156 70.6137 33.936C71.1417 34.704 71.4057 35.874 71.4057 37.446C71.4057 38.574 71.2737 39.486 71.0097 40.182C70.7457 40.878 70.3197 41.388 69.7317 41.712C69.1557 42.036 68.3937 42.198 67.4457 42.198C67.1457 42.198 66.8217 42.174 66.4737 42.126C66.1257 42.078 65.8497 42.03 65.6457 41.982V45.798H63.2517ZM67.0677 40.2C67.5477 40.2 67.9257 40.098 68.2017 39.894C68.4777 39.69 68.6697 39.384 68.7777 38.976C68.8977 38.556 68.9577 38.028 68.9577 37.392C68.9577 36.408 68.8197 35.73 68.5437 35.358C68.2797 34.974 67.8957 34.782 67.3917 34.782C67.1997 34.782 66.9957 34.806 66.7797 34.854C66.5637 34.902 66.3537 34.962 66.1497 35.034C65.9457 35.106 65.7777 35.178 65.6457 35.25V40.074C65.7897 40.086 65.9937 40.11 66.2577 40.146C66.5337 40.182 66.8037 40.2 67.0677 40.2ZM81.8767 42.18C80.8447 42.18 79.9927 42.048 79.3207 41.784C78.6487 41.508 78.1207 41.106 77.7367 40.578C77.3647 40.038 77.1007 39.378 76.9447 38.598C76.7887 37.806 76.7107 36.894 76.7107 35.862C76.7107 34.77 76.7947 33.828 76.9627 33.036C77.1427 32.232 77.4307 31.572 77.8267 31.056C78.2347 30.528 78.7627 30.138 79.4107 29.886C80.0707 29.622 80.8807 29.49 81.8407 29.49C82.3327 29.49 82.8427 29.52 83.3707 29.58C83.9107 29.628 84.4207 29.694 84.9007 29.778C85.3927 29.862 85.8007 29.946 86.1247 30.03L86.0887 31.974C85.7527 31.914 85.3447 31.86 84.8647 31.812C84.3967 31.764 83.9167 31.728 83.4247 31.704C82.9327 31.668 82.4887 31.65 82.0927 31.65C81.4927 31.65 81.0007 31.728 80.6167 31.884C80.2447 32.04 79.9567 32.292 79.7527 32.64C79.5607 32.976 79.4287 33.414 79.3567 33.954C79.2847 34.482 79.2487 35.118 79.2487 35.862C79.2487 36.81 79.3147 37.602 79.4467 38.238C79.5907 38.862 79.8607 39.324 80.2567 39.624C80.6647 39.924 81.2467 40.074 82.0027 40.074C82.1947 40.074 82.3987 40.068 82.6147 40.056C82.8427 40.044 83.0587 40.026 83.2627 40.002C83.4787 39.978 83.6587 39.954 83.8027 39.93V37.248H82.3447V35.358H86.1607V41.712C85.8967 41.748 85.5787 41.796 85.2067 41.856C84.8347 41.904 84.4447 41.952 84.0367 42C83.6407 42.048 83.2507 42.09 82.8667 42.126C82.4947 42.162 82.1647 42.18 81.8767 42.18ZM90.43 42.198C89.494 42.198 88.786 41.964 88.306 41.496C87.838 41.016 87.604 40.296 87.604 39.336C87.604 38.664 87.724 38.142 87.964 37.77C88.204 37.386 88.558 37.11 89.026 36.942C89.506 36.762 90.088 36.654 90.772 36.618L92.968 36.42V35.88C92.968 35.448 92.86 35.148 92.644 34.98C92.428 34.8 92.11 34.71 91.69 34.71C91.354 34.71 90.964 34.722 90.52 34.746C90.088 34.77 89.656 34.8 89.224 34.836C88.804 34.872 88.438 34.908 88.126 34.944L88.054 33.252C88.366 33.18 88.738 33.108 89.17 33.036C89.614 32.952 90.076 32.886 90.556 32.838C91.036 32.79 91.48 32.766 91.888 32.766C92.656 32.766 93.298 32.862 93.814 33.054C94.33 33.246 94.72 33.564 94.984 34.008C95.248 34.44 95.38 35.028 95.38 35.772V39.894C95.404 40.062 95.494 40.194 95.65 40.29C95.806 40.374 95.986 40.434 96.19 40.47L96.136 42.126C95.848 42.138 95.566 42.144 95.29 42.144C95.014 42.144 94.78 42.126 94.588 42.09C94.312 42.054 94.072 41.982 93.868 41.874C93.676 41.766 93.52 41.652 93.4 41.532C93.208 41.616 92.95 41.712 92.626 41.82C92.302 41.928 91.948 42.018 91.564 42.09C91.192 42.162 90.814 42.198 90.43 42.198ZM91.006 40.416C91.234 40.416 91.474 40.392 91.726 40.344C91.978 40.296 92.212 40.242 92.428 40.182C92.656 40.11 92.836 40.044 92.968 39.984V37.914L91.132 38.076C90.736 38.112 90.448 38.232 90.268 38.436C90.1 38.628 90.016 38.904 90.016 39.264C90.016 39.624 90.094 39.906 90.25 40.11C90.418 40.314 90.67 40.416 91.006 40.416ZM97.5659 42V29.274H99.9599V42H97.5659ZM102.083 42V29.274H104.477V42H102.083ZM110.183 42.198C109.187 42.198 108.395 42.03 107.807 41.694C107.231 41.358 106.817 40.848 106.565 40.164C106.313 39.48 106.187 38.622 106.187 37.59C106.187 36.474 106.343 35.562 106.655 34.854C106.979 34.146 107.447 33.624 108.059 33.288C108.671 32.94 109.427 32.766 110.327 32.766C111.659 32.766 112.661 33.102 113.333 33.774C114.017 34.446 114.359 35.508 114.359 36.96L114.251 38.292H108.599C108.611 38.964 108.749 39.468 109.013 39.804C109.277 40.14 109.733 40.308 110.381 40.308C110.753 40.308 111.161 40.302 111.605 40.29C112.049 40.266 112.487 40.242 112.919 40.218C113.363 40.194 113.741 40.17 114.053 40.146L114.107 41.82C113.807 41.868 113.429 41.922 112.973 41.982C112.517 42.042 112.043 42.09 111.551 42.126C111.071 42.174 110.615 42.198 110.183 42.198ZM108.599 36.762H111.965C111.965 35.946 111.833 35.376 111.569 35.052C111.317 34.728 110.903 34.566 110.327 34.566C109.763 34.566 109.331 34.734 109.031 35.07C108.743 35.406 108.599 35.97 108.599 36.762ZM115.951 42V32.964H118.345V34.026C118.549 33.87 118.801 33.708 119.101 33.54C119.401 33.36 119.725 33.198 120.073 33.054C120.433 32.898 120.775 32.796 121.099 32.748V35.07C120.787 35.118 120.457 35.202 120.109 35.322C119.761 35.43 119.431 35.55 119.119 35.682C118.819 35.814 118.561 35.934 118.345 36.042V42H115.951ZM124.563 45.798L125.715 42H123.789L121.647 32.964H124.149L125.751 39.966H126.219L127.821 32.964H130.233L127.119 45.798H124.563Z" fill="white"/>
</g>
<defs>
<filter id="filter0_b_5572_19766" x="38.1748" y="3.97607" width="79.4287" height="21.104" filterUnits="userSpaceOnUse" color-interpolation-filters="sRGB">
<feFlood flood-opacity="0" result="BackgroundImageFix"/>
<feGaussianBlur in="BackgroundImageFix" stdDeviation="2"/>
<feComposite in2="SourceAlpha" operator="in" result="effect1_backgroundBlur_5572_19766"/>
<feBlend mode="normal" in="SourceGraphic" in2="effect1_backgroundBlur_5572_19766" result="shape"/>
</filter>
<filter id="filter1_b_5572_19766" x="37.665" y="25.2739" width="96.5684" height="24.5239" filterUnits="userSpaceOnUse" color-interpolation-filters="sRGB">
<feFlood flood-opacity="0" result="BackgroundImageFix"/>
<feGaussianBlur in="BackgroundImageFix" stdDeviation="2"/>
<feComposite in2="SourceAlpha" operator="in" result="effect1_backgroundBlur_5572_19766"/>
<feBlend mode="normal" in="SourceGraphic" in2="effect1_backgroundBlur_5572_19766" result="shape"/>
</filter>
</defs>
</svg>
