<svg width="229" height="78" viewBox="0 0 229 78" fill="none" xmlns="http://www.w3.org/2000/svg">
<path d="M68.4573 46.3193C67.7213 47.9488 67.3693 48.6774 66.4241 50.1174C65.1035 52.1285 63.2389 54.6381 60.9336 54.6553C58.8832 54.6725 58.3539 53.3174 55.5712 53.3396C52.7884 53.3531 52.2087 54.6799 50.1558 54.659C47.8506 54.6381 46.0856 52.3771 44.7638 50.3697C41.0678 44.739 40.6776 38.1396 42.9619 34.6282C44.5779 32.1384 47.1355 30.6762 49.5367 30.6762C51.9822 30.6762 53.5195 32.0202 55.5416 32.0202C57.5035 32.0202 58.6986 30.6725 61.5269 30.6725C63.6659 30.6725 65.9281 31.8381 67.5441 33.8491C62.2567 36.7464 63.1158 44.2984 68.4573 46.3193ZM59.3804 28.4251C60.4093 27.1045 61.1896 25.2411 60.9066 23.3408C59.2278 23.4553 57.2647 24.5273 56.1176 25.9156C55.0789 27.1796 54.2173 29.0577 54.5533 30.8744C56.3847 30.9334 58.2801 29.8417 59.3804 28.4251Z" fill="#E8E9F8"/>
<path d="M82.02 24.05C82.76 24.05 83.4067 24.1933 83.96 24.48C84.52 24.76 84.95 25.1667 85.25 25.7C85.5567 26.2267 85.71 26.8433 85.71 27.55C85.71 28.2567 85.5567 28.87 85.25 29.39C84.95 29.91 84.52 30.31 83.96 30.59C83.4067 30.8633 82.76 31 82.02 31H79.75V24.05H82.02ZM82.02 30.07C82.8333 30.07 83.4567 29.85 83.89 29.41C84.3233 28.97 84.54 28.35 84.54 27.55C84.54 26.7433 84.3233 26.1133 83.89 25.66C83.4567 25.2067 82.8333 24.98 82.02 24.98H80.89V30.07H82.02ZM89.2298 31.09C88.7098 31.09 88.2398 30.9733 87.8198 30.74C87.3998 30.5 87.0698 30.1667 86.8298 29.74C86.5898 29.3067 86.4698 28.8067 86.4698 28.24C86.4698 27.68 86.5932 27.1833 86.8398 26.75C87.0865 26.3167 87.4232 25.9833 87.8498 25.75C88.2765 25.5167 88.7532 25.4 89.2798 25.4C89.8065 25.4 90.2832 25.5167 90.7098 25.75C91.1365 25.9833 91.4732 26.3167 91.7198 26.75C91.9665 27.1833 92.0898 27.68 92.0898 28.24C92.0898 28.8 91.9632 29.2967 91.7098 29.73C91.4565 30.1633 91.1098 30.5 90.6698 30.74C90.2365 30.9733 89.7565 31.09 89.2298 31.09ZM89.2298 30.1C89.5232 30.1 89.7965 30.03 90.0498 29.89C90.3098 29.75 90.5198 29.54 90.6798 29.26C90.8398 28.98 90.9198 28.64 90.9198 28.24C90.9198 27.84 90.8432 27.5033 90.6898 27.23C90.5365 26.95 90.3332 26.74 90.0798 26.6C89.8265 26.46 89.5532 26.39 89.2598 26.39C88.9665 26.39 88.6932 26.46 88.4398 26.6C88.1932 26.74 87.9965 26.95 87.8498 27.23C87.7032 27.5033 87.6298 27.84 87.6298 28.24C87.6298 28.8333 87.7798 29.2933 88.0798 29.62C88.3865 29.94 88.7698 30.1 89.2298 30.1ZM100.617 25.49L98.9068 31H97.7068L96.5968 26.93L95.4868 31H94.2868L92.5668 25.49H93.7268L94.8768 29.92L96.0468 25.49H97.2368L98.3568 29.9L99.4968 25.49H100.617ZM104.249 25.4C104.682 25.4 105.069 25.49 105.409 25.67C105.755 25.85 106.025 26.1167 106.219 26.47C106.412 26.8233 106.509 27.25 106.509 27.75V31H105.379V27.92C105.379 27.4267 105.255 27.05 105.009 26.79C104.762 26.5233 104.425 26.39 103.999 26.39C103.572 26.39 103.232 26.5233 102.979 26.79C102.732 27.05 102.609 27.4267 102.609 27.92V31H101.469V25.49H102.609V26.12C102.795 25.8933 103.032 25.7167 103.319 25.59C103.612 25.4633 103.922 25.4 104.249 25.4ZM109.103 23.6V31H107.963V23.6H109.103ZM112.99 31.09C112.47 31.09 112 30.9733 111.58 30.74C111.16 30.5 110.83 30.1667 110.59 29.74C110.35 29.3067 110.23 28.8067 110.23 28.24C110.23 27.68 110.353 27.1833 110.6 26.75C110.846 26.3167 111.183 25.9833 111.61 25.75C112.036 25.5167 112.513 25.4 113.04 25.4C113.566 25.4 114.043 25.5167 114.47 25.75C114.896 25.9833 115.233 26.3167 115.48 26.75C115.726 27.1833 115.85 27.68 115.85 28.24C115.85 28.8 115.723 29.2967 115.47 29.73C115.216 30.1633 114.87 30.5 114.43 30.74C113.996 30.9733 113.516 31.09 112.99 31.09ZM112.99 30.1C113.283 30.1 113.556 30.03 113.81 29.89C114.07 29.75 114.28 29.54 114.44 29.26C114.6 28.98 114.68 28.64 114.68 28.24C114.68 27.84 114.603 27.5033 114.45 27.23C114.296 26.95 114.093 26.74 113.84 26.6C113.586 26.46 113.313 26.39 113.02 26.39C112.726 26.39 112.453 26.46 112.2 26.6C111.953 26.74 111.756 26.95 111.61 27.23C111.463 27.5033 111.39 27.84 111.39 28.24C111.39 28.8333 111.54 29.2933 111.84 29.62C112.146 29.94 112.53 30.1 112.99 30.1ZM116.597 28.22C116.597 27.6667 116.71 27.1767 116.937 26.75C117.17 26.3233 117.483 25.9933 117.877 25.76C118.277 25.52 118.717 25.4 119.197 25.4C119.63 25.4 120.007 25.4867 120.327 25.66C120.653 25.8267 120.913 26.0367 121.107 26.29V25.49H122.257V31H121.107V30.18C120.913 30.44 120.65 30.6567 120.317 30.83C119.983 31.0033 119.603 31.09 119.177 31.09C118.703 31.09 118.27 30.97 117.877 30.73C117.483 30.4833 117.17 30.1433 116.937 29.71C116.71 29.27 116.597 28.7733 116.597 28.22ZM121.107 28.24C121.107 27.86 121.027 27.53 120.867 27.25C120.713 26.97 120.51 26.7567 120.257 26.61C120.003 26.4633 119.73 26.39 119.437 26.39C119.143 26.39 118.87 26.4633 118.617 26.61C118.363 26.75 118.157 26.96 117.997 27.24C117.843 27.5133 117.767 27.84 117.767 28.22C117.767 28.6 117.843 28.9333 117.997 29.22C118.157 29.5067 118.363 29.7267 118.617 29.88C118.877 30.0267 119.15 30.1 119.437 30.1C119.73 30.1 120.003 30.0267 120.257 29.88C120.51 29.7333 120.713 29.52 120.867 29.24C121.027 28.9533 121.107 28.62 121.107 28.24ZM123.374 28.22C123.374 27.6667 123.487 27.1767 123.714 26.75C123.947 26.3233 124.261 25.9933 124.654 25.76C125.054 25.52 125.497 25.4 125.984 25.4C126.344 25.4 126.697 25.48 127.044 25.64C127.397 25.7933 127.677 26 127.884 26.26V23.6H129.034V31H127.884V30.17C127.697 30.4367 127.437 30.6567 127.104 30.83C126.777 31.0033 126.401 31.09 125.974 31.09C125.494 31.09 125.054 30.97 124.654 30.73C124.261 30.4833 123.947 30.1433 123.714 29.71C123.487 29.27 123.374 28.7733 123.374 28.22ZM127.884 28.24C127.884 27.86 127.804 27.53 127.644 27.25C127.491 26.97 127.287 26.7567 127.034 26.61C126.781 26.4633 126.507 26.39 126.214 26.39C125.921 26.39 125.647 26.4633 125.394 26.61C125.141 26.75 124.934 26.96 124.774 27.24C124.621 27.5133 124.544 27.84 124.544 28.22C124.544 28.6 124.621 28.9333 124.774 29.22C124.934 29.5067 125.141 29.7267 125.394 29.88C125.654 30.0267 125.927 30.1 126.214 30.1C126.507 30.1 126.781 30.0267 127.034 29.88C127.287 29.7333 127.491 29.52 127.644 29.24C127.804 28.9533 127.884 28.62 127.884 28.24ZM135.519 31.09C134.999 31.09 134.529 30.9733 134.109 30.74C133.689 30.5 133.359 30.1667 133.119 29.74C132.879 29.3067 132.759 28.8067 132.759 28.24C132.759 27.68 132.882 27.1833 133.129 26.75C133.376 26.3167 133.712 25.9833 134.139 25.75C134.566 25.5167 135.042 25.4 135.569 25.4C136.096 25.4 136.572 25.5167 136.999 25.75C137.426 25.9833 137.762 26.3167 138.009 26.75C138.256 27.1833 138.379 27.68 138.379 28.24C138.379 28.8 138.252 29.2967 137.999 29.73C137.746 30.1633 137.399 30.5 136.959 30.74C136.526 30.9733 136.046 31.09 135.519 31.09ZM135.519 30.1C135.812 30.1 136.086 30.03 136.339 29.89C136.599 29.75 136.809 29.54 136.969 29.26C137.129 28.98 137.209 28.64 137.209 28.24C137.209 27.84 137.132 27.5033 136.979 27.23C136.826 26.95 136.622 26.74 136.369 26.6C136.116 26.46 135.842 26.39 135.549 26.39C135.256 26.39 134.982 26.46 134.729 26.6C134.482 26.74 134.286 26.95 134.139 27.23C133.992 27.5033 133.919 27.84 133.919 28.24C133.919 28.8333 134.069 29.2933 134.369 29.62C134.676 29.94 135.059 30.1 135.519 30.1ZM142.286 25.4C142.719 25.4 143.106 25.49 143.446 25.67C143.793 25.85 144.063 26.1167 144.256 26.47C144.449 26.8233 144.546 27.25 144.546 27.75V31H143.416V27.92C143.416 27.4267 143.293 27.05 143.046 26.79C142.799 26.5233 142.463 26.39 142.036 26.39C141.609 26.39 141.269 26.5233 141.016 26.79C140.769 27.05 140.646 27.4267 140.646 27.92V31H139.506V25.49H140.646V26.12C140.833 25.8933 141.069 25.7167 141.356 25.59C141.649 25.4633 141.959 25.4 142.286 25.4ZM149.928 26.42V29.47C149.928 29.6767 149.974 29.8267 150.068 29.92C150.168 30.0067 150.334 30.05 150.568 30.05H151.268V31H150.368C149.854 31 149.461 30.88 149.188 30.64C148.914 30.4 148.778 30.01 148.778 29.47V26.42H148.128V25.49H148.778V24.12H149.928V25.49H151.268V26.42H149.928ZM155.168 25.4C155.588 25.4 155.962 25.49 156.288 25.67C156.622 25.85 156.882 26.1167 157.068 26.47C157.262 26.8233 157.358 27.25 157.358 27.75V31H156.228V27.92C156.228 27.4267 156.105 27.05 155.858 26.79C155.612 26.5233 155.275 26.39 154.848 26.39C154.422 26.39 154.082 26.5233 153.828 26.79C153.582 27.05 153.458 27.4267 153.458 27.92V31H152.318V23.6H153.458V26.13C153.652 25.8967 153.895 25.7167 154.188 25.59C154.488 25.4633 154.815 25.4 155.168 25.4ZM163.863 28.11C163.863 28.3167 163.849 28.5033 163.823 28.67H159.613C159.646 29.11 159.809 29.4633 160.103 29.73C160.396 29.9967 160.756 30.13 161.183 30.13C161.796 30.13 162.229 29.8733 162.483 29.36H163.712C163.546 29.8667 163.243 30.2833 162.803 30.61C162.369 30.93 161.829 31.09 161.183 31.09C160.656 31.09 160.183 30.9733 159.763 30.74C159.349 30.5 159.023 30.1667 158.783 29.74C158.549 29.3067 158.433 28.8067 158.433 28.24C158.433 27.6733 158.546 27.1767 158.773 26.75C159.006 26.3167 159.329 25.9833 159.743 25.75C160.163 25.5167 160.643 25.4 161.183 25.4C161.703 25.4 162.166 25.5133 162.573 25.74C162.979 25.9667 163.296 26.2867 163.523 26.7C163.749 27.1067 163.863 27.5767 163.863 28.11ZM162.673 27.75C162.666 27.33 162.516 26.9933 162.223 26.74C161.929 26.4867 161.566 26.36 161.133 26.36C160.739 26.36 160.403 26.4867 160.123 26.74C159.843 26.9867 159.676 27.3233 159.623 27.75H162.673Z" fill="#E8E9F8"/>
<path d="M89.2818 49.34H83.7218L82.8018 52H79.8618L84.8818 38.02H88.1418L93.1618 52H90.2018L89.2818 49.34ZM88.5218 47.1L86.5018 41.26L84.4818 47.1H88.5218ZM97.8382 42.52C98.1982 42.0133 98.6915 41.5933 99.3182 41.26C99.9582 40.9133 100.685 40.74 101.498 40.74C102.445 40.74 103.298 40.9733 104.058 41.44C104.832 41.9067 105.438 42.5733 105.878 43.44C106.332 44.2933 106.558 45.2867 106.558 46.42C106.558 47.5533 106.332 48.56 105.878 49.44C105.438 50.3067 104.832 50.98 104.058 51.46C103.298 51.94 102.445 52.18 101.498 52.18C100.685 52.18 99.9649 52.0133 99.3382 51.68C98.7249 51.3467 98.2249 50.9267 97.8382 50.42V57.28H95.0382V40.92H97.8382V42.52ZM103.698 46.42C103.698 45.7533 103.558 45.18 103.278 44.7C103.012 44.2067 102.652 43.8333 102.198 43.58C101.758 43.3267 101.278 43.2 100.758 43.2C100.252 43.2 99.7715 43.3333 99.3182 43.6C98.8782 43.8533 98.5182 44.2267 98.2382 44.72C97.9715 45.2133 97.8382 45.7933 97.8382 46.46C97.8382 47.1267 97.9715 47.7067 98.2382 48.2C98.5182 48.6933 98.8782 49.0733 99.3182 49.34C99.7715 49.5933 100.252 49.72 100.758 49.72C101.278 49.72 101.758 49.5867 102.198 49.32C102.652 49.0533 103.012 48.6733 103.278 48.18C103.558 47.6867 103.698 47.1 103.698 46.42ZM111.393 42.52C111.753 42.0133 112.246 41.5933 112.873 41.26C113.513 40.9133 114.24 40.74 115.053 40.74C116 40.74 116.853 40.9733 117.613 41.44C118.386 41.9067 118.993 42.5733 119.433 43.44C119.886 44.2933 120.113 45.2867 120.113 46.42C120.113 47.5533 119.886 48.56 119.433 49.44C118.993 50.3067 118.386 50.98 117.613 51.46C116.853 51.94 116 52.18 115.053 52.18C114.24 52.18 113.52 52.0133 112.893 51.68C112.28 51.3467 111.78 50.9267 111.393 50.42V57.28H108.593V40.92H111.393V42.52ZM117.253 46.42C117.253 45.7533 117.113 45.18 116.833 44.7C116.566 44.2067 116.206 43.8333 115.753 43.58C115.313 43.3267 114.833 43.2 114.313 43.2C113.806 43.2 113.326 43.3333 112.873 43.6C112.433 43.8533 112.073 44.2267 111.793 44.72C111.526 45.2133 111.393 45.7933 111.393 46.46C111.393 47.1267 111.526 47.7067 111.793 48.2C112.073 48.6933 112.433 49.0733 112.873 49.34C113.326 49.5933 113.806 49.72 114.313 49.72C114.833 49.72 115.313 49.5867 115.753 49.32C116.206 49.0533 116.566 48.6733 116.833 48.18C117.113 47.6867 117.253 47.1 117.253 46.42ZM131.733 52.14C130.76 52.14 129.88 51.9733 129.093 51.64C128.32 51.3067 127.707 50.8267 127.253 50.2C126.8 49.5733 126.567 48.8333 126.553 47.98H129.553C129.593 48.5533 129.793 49.0067 130.153 49.34C130.527 49.6733 131.033 49.84 131.673 49.84C132.327 49.84 132.84 49.6867 133.213 49.38C133.587 49.06 133.773 48.6467 133.773 48.14C133.773 47.7267 133.647 47.3867 133.393 47.12C133.14 46.8533 132.82 46.6467 132.433 46.5C132.06 46.34 131.54 46.1667 130.873 45.98C129.967 45.7133 129.227 45.4533 128.653 45.2C128.093 44.9333 127.607 44.54 127.193 44.02C126.793 43.4867 126.593 42.78 126.593 41.9C126.593 41.0733 126.8 40.3533 127.213 39.74C127.627 39.1267 128.207 38.66 128.953 38.34C129.7 38.0067 130.553 37.84 131.513 37.84C132.953 37.84 134.12 38.1933 135.013 38.9C135.92 39.5933 136.42 40.5667 136.513 41.82H133.433C133.407 41.34 133.2 40.9467 132.813 40.64C132.44 40.32 131.94 40.16 131.313 40.16C130.767 40.16 130.327 40.3 129.993 40.58C129.673 40.86 129.513 41.2667 129.513 41.8C129.513 42.1733 129.633 42.4867 129.873 42.74C130.127 42.98 130.433 43.18 130.793 43.34C131.167 43.4867 131.687 43.66 132.353 43.86C133.26 44.1267 134 44.3933 134.573 44.66C135.147 44.9267 135.64 45.3267 136.053 45.86C136.467 46.3933 136.673 47.0933 136.673 47.96C136.673 48.7067 136.48 49.4 136.093 50.04C135.707 50.68 135.14 51.1933 134.393 51.58C133.647 51.9533 132.76 52.14 131.733 52.14ZM142.361 43.22V48.58C142.361 48.9533 142.447 49.2267 142.621 49.4C142.807 49.56 143.114 49.64 143.541 49.64H144.841V52H143.081C140.721 52 139.541 50.8533 139.541 48.56V43.22H138.221V40.92H139.541V38.18H142.361V40.92H144.841V43.22H142.361ZM151.775 52.18C150.708 52.18 149.748 51.9467 148.895 51.48C148.041 51 147.368 50.3267 146.875 49.46C146.395 48.5933 146.155 47.5933 146.155 46.46C146.155 45.3267 146.401 44.3267 146.895 43.46C147.401 42.5933 148.088 41.9267 148.955 41.46C149.821 40.98 150.788 40.74 151.855 40.74C152.921 40.74 153.888 40.98 154.755 41.46C155.621 41.9267 156.301 42.5933 156.795 43.46C157.301 44.3267 157.555 45.3267 157.555 46.46C157.555 47.5933 157.295 48.5933 156.775 49.46C156.268 50.3267 155.575 51 154.695 51.48C153.828 51.9467 152.855 52.18 151.775 52.18ZM151.775 49.74C152.281 49.74 152.755 49.62 153.195 49.38C153.648 49.1267 154.008 48.7533 154.275 48.26C154.541 47.7667 154.675 47.1667 154.675 46.46C154.675 45.4067 154.395 44.6 153.835 44.04C153.288 43.4667 152.615 43.18 151.815 43.18C151.015 43.18 150.341 43.4667 149.795 44.04C149.261 44.6 148.995 45.4067 148.995 46.46C148.995 47.5133 149.255 48.3267 149.775 48.9C150.308 49.46 150.975 49.74 151.775 49.74ZM162.409 42.64C162.769 42.0533 163.235 41.5933 163.809 41.26C164.395 40.9267 165.062 40.76 165.809 40.76V43.7H165.069C164.189 43.7 163.522 43.9067 163.069 44.32C162.629 44.7333 162.409 45.4533 162.409 46.48V52H159.609V40.92H162.409V42.64ZM177.994 46.22C177.994 46.62 177.968 46.98 177.914 47.3H169.814C169.881 48.1 170.161 48.7267 170.654 49.18C171.148 49.6333 171.754 49.86 172.474 49.86C173.514 49.86 174.254 49.4133 174.694 48.52H177.714C177.394 49.5867 176.781 50.4667 175.874 51.16C174.968 51.84 173.854 52.18 172.534 52.18C171.468 52.18 170.508 51.9467 169.654 51.48C168.814 51 168.154 50.3267 167.674 49.46C167.208 48.5933 166.974 47.5933 166.974 46.46C166.974 45.3133 167.208 44.3067 167.674 43.44C168.141 42.5733 168.794 41.9067 169.634 41.44C170.474 40.9733 171.441 40.74 172.534 40.74C173.588 40.74 174.528 40.9667 175.354 41.42C176.194 41.8733 176.841 42.52 177.294 43.36C177.761 44.1867 177.994 45.14 177.994 46.22ZM175.094 45.42C175.081 44.7 174.821 44.1267 174.314 43.7C173.808 43.26 173.188 43.04 172.454 43.04C171.761 43.04 171.174 43.2533 170.694 43.68C170.228 44.0933 169.941 44.6733 169.834 45.42H175.094Z" fill="#E8E9F8"/>
</svg>
