<svg width="295" height="297" viewBox="0 0 295 297" fill="none" xmlns="http://www.w3.org/2000/svg">
<path d="M265.441 236.703H245.9V236.852H265.441V236.703Z" fill="#EBEBEB"/>
<path d="M195.42 238.319H190.292V238.467H195.42V238.319Z" fill="#EBEBEB"/>
<path d="M245.31 231.19H233.988V231.339H245.31V231.19Z" fill="#EBEBEB"/>
<path d="M56.4333 232.188H30.9512V232.337H56.4333V232.188Z" fill="#EBEBEB"/>
<path d="M65.4251 232.188H61.6904V232.337H65.4251V232.188Z" fill="#EBEBEB"/>
<path d="M132.839 234.695H77.5674V234.844H132.839V234.695Z" fill="#EBEBEB"/>
<path d="M139.83 200.653H25.9069C25.0145 200.652 24.1591 200.294 23.5286 199.658C22.8981 199.022 22.5439 198.16 22.5439 197.261V36.032C22.5517 35.1386 22.9093 34.2844 23.5389 33.6549C24.1686 33.0254 25.0196 32.6715 25.9069 32.6699H139.83C140.724 32.6699 141.58 33.0273 142.212 33.6633C142.844 34.2994 143.199 35.1621 143.199 36.0617V197.261C143.199 198.161 142.844 199.024 142.212 199.66C141.58 200.296 140.724 200.653 139.83 200.653ZM25.9069 32.7887C25.0536 32.7903 24.2357 33.1327 23.6329 33.7407C23.03 34.3488 22.6914 35.1728 22.6914 36.032V197.261C22.6914 198.121 23.03 198.945 23.6329 199.553C24.2357 200.161 25.0536 200.503 25.9069 200.505H139.83C140.684 200.503 141.502 200.161 142.106 199.553C142.71 198.945 143.05 198.121 143.051 197.261V36.032C143.05 35.1723 142.71 34.3483 142.106 33.7404C141.502 33.1325 140.684 32.7903 139.83 32.7887H25.9069Z" fill="#EBEBEB"/>
<path d="M267.453 200.807H153.524C152.631 200.806 151.775 200.448 151.143 199.812C150.512 199.176 150.156 198.315 150.155 197.416V36.1862C150.156 35.2871 150.512 34.4253 151.143 33.7896C151.775 33.1539 152.631 32.796 153.524 32.7944H267.453C268.344 32.7976 269.198 33.1563 269.827 33.792C270.456 34.4278 270.81 35.2887 270.81 36.1862V197.416C270.81 198.313 270.456 199.174 269.827 199.81C269.198 200.445 268.344 200.804 267.453 200.807ZM153.524 32.9429C152.67 32.9445 151.851 33.2867 151.248 33.8946C150.644 34.5025 150.304 35.3265 150.302 36.1862V197.416C150.304 198.275 150.644 199.099 151.248 199.707C151.851 200.315 152.67 200.657 153.524 200.659H267.453C268.307 200.657 269.125 200.315 269.729 199.707C270.333 199.099 270.673 198.275 270.674 197.416V36.1862C270.673 35.3265 270.333 34.5025 269.729 33.8946C269.125 33.2867 268.307 32.9445 267.453 32.9429H153.524Z" fill="#EBEBEB"/>
<path d="M295 227.146H0V227.294H295V227.146Z" fill="#EBEBEB"/>
<path d="M44.6396 87.9118H98.1467C105.002 87.9118 106.654 78.2534 100.182 75.9843L99.9285 75.9012C107.091 69.8899 91.3794 57.2258 74.3107 74.7607C75.6441 68.9157 60.4693 71.0304 55.8319 79.0078C54.1799 73.7687 39.7131 82.8688 44.6396 87.9118Z" fill="#E6E6E6"/>
<path d="M187.755 63.8253H219.84C219.84 63.8253 227.362 60.9741 226.389 53.4184C225.415 45.8627 214.058 52.1591 214.058 52.1591C214.058 52.1591 217.497 41.6156 206.5 44.6094C195.502 47.6031 194.428 58.0516 194.428 58.0516C194.428 58.0516 179.979 55.5093 187.755 63.8253Z" fill="#EBEBEB"/>
<path d="M217.232 85.0785H238.413C238.413 85.0785 243.381 83.1955 242.738 78.2059C242.095 73.2163 234.596 77.3743 234.596 77.3743C234.596 77.3743 236.867 70.4186 229.604 72.3907C227.557 72.9173 225.71 74.0402 224.293 75.6186C222.876 77.1971 221.953 79.1611 221.64 81.265C221.64 81.265 212.099 79.5959 217.232 85.0785Z" fill="#EBEBEB"/>
<path d="M213.161 193.175L213.102 186.866V186.516L213.049 180.891V180.534L212.996 175.188V174.838L212.949 169.747V169.415L212.901 164.556V164.247L212.854 159.602V159.311L212.813 154.874V154.589L212.778 150.918C212.593 151.035 212.395 151.128 212.188 151.197V154.297H208.282L211.432 151.393C211.108 151.458 210.778 151.498 210.447 151.512L207.851 153.888L207.898 151.084C207.684 150.997 207.485 150.877 207.308 150.728L207.237 154.577V154.862L207.167 159.299V159.602L207.078 164.229V164.538L206.996 169.385V169.718L206.907 174.808V175.159L206.813 180.505V180.867L206.712 186.486V186.866L206.606 193.169L206.004 220.374L213.533 220.463L213.161 193.175ZM212.376 191.987L207.839 187.051H212.347L212.376 191.987ZM212.306 186.463H207.816L212.27 181.746L212.306 186.463ZM212.353 179.531L208.034 175.076H212.329L212.353 179.531ZM212.3 174.464H208.028L212.276 170.181L212.3 174.464ZM212.27 168.565L208.14 164.52H212.235L212.27 168.565ZM212.27 163.891H208.187L212.235 159.982L212.27 163.891ZM212.199 154.891V158.592L208.264 154.909L212.199 154.891ZM207.763 155.735L211.698 159.43H207.709L207.763 155.735ZM207.704 160.071H211.692L207.615 163.944L207.704 160.071ZM207.621 165.482L211.751 169.534H207.586L207.621 165.482ZM207.562 170.151H211.745L207.503 174.416L207.562 170.151ZM207.479 176.05L211.804 180.523H207.42L207.479 176.05ZM207.438 181.123H211.81L207.35 185.815L207.438 181.123ZM207.409 187.336L211.946 192.29H207.338L207.409 187.336Z" fill="#EBEBEB"/>
<path d="M212.713 150.246H212.412L212.194 150.044L210.424 151.708C210.753 151.691 211.08 151.652 211.403 151.589L212.141 150.912V151.369C212.347 151.299 212.545 151.205 212.731 151.09L212.713 150.246ZM207.25 150.282V150.947C207.43 151.092 207.628 151.212 207.84 151.304V150.282H207.25Z" fill="#EBEBEB"/>
<path d="M213.58 149.753C213.601 149.918 213.584 150.085 213.53 150.242C213.475 150.399 213.386 150.54 213.267 150.656L213.055 150.858C212.943 150.948 212.825 151.03 212.701 151.102C212.515 151.217 212.318 151.311 212.111 151.381C211.873 151.478 211.626 151.552 211.373 151.601C211.05 151.664 210.723 151.703 210.394 151.719H209.952C209.228 151.721 208.512 151.575 207.845 151.292C207.634 151.2 207.435 151.08 207.255 150.935L207.202 150.894L207.007 150.704C206.893 150.592 206.808 150.454 206.759 150.302C206.709 150.15 206.698 149.988 206.724 149.831L207.173 147.3H205.993L210.123 145.191L214.424 147.163H213.214L213.58 149.753Z" fill="#EBEBEB"/>
<path d="M232.531 152.925L232.69 220.386H237.552H265.813H270.674L270.887 152.925H232.531Z" fill="#EBEBEB"/>
<path d="M239.947 144.342L239.965 159.382H242.974H260.467H263.476L263.506 144.342H239.947Z" fill="#EBEBEB"/>
<path d="M239.918 159.382H234.95L234.944 154.879H239.912L239.918 159.382Z" fill="#FAFAFA"/>
<path d="M249.446 154.874H244.479V159.382H249.446V154.874Z" fill="#FAFAFA"/>
<path d="M258.981 154.874H254.013V159.382H258.981V154.874Z" fill="#FAFAFA"/>
<path d="M268.509 159.382H263.541L263.553 154.879H268.521L268.509 159.382Z" fill="#F0F0F0"/>
<path d="M239.853 167.597H235.003L234.991 163.202H239.847L239.853 167.597Z" fill="#F0F0F0"/>
<path d="M249.369 163.202H244.514V167.597H249.369V163.202Z" fill="#F0F0F0"/>
<path d="M258.892 163.202H254.036V167.597H258.892V163.202Z" fill="#FAFAFA"/>
<path d="M268.403 167.597H263.547L263.559 163.202H268.414L268.403 167.597Z" fill="#FAFAFA"/>
<path d="M239.812 175.604H235.074L235.062 171.315H239.806L239.812 175.604Z" fill="#F0F0F0"/>
<path d="M249.322 171.315H244.579V175.604H249.322V171.315Z" fill="#FAFAFA"/>
<path d="M258.827 171.315H254.083V175.604H258.827V171.315Z" fill="#FAFAFA"/>
<path d="M249.417 148.333H244.354V152.931H249.417V148.333Z" fill="#FAFAFA"/>
<path d="M258.963 148.333H253.895V152.931H258.963V148.333Z" fill="#F0F0F0"/>
<path d="M268.326 175.604H263.588L263.594 171.315H268.338L268.326 175.604Z" fill="#F0F0F0"/>
<path d="M239.8 183.427H235.168L235.156 179.239H239.794L239.8 183.427Z" fill="#FAFAFA"/>
<path d="M249.293 179.239H244.661V183.427H249.293V179.239Z" fill="#F0F0F0"/>
<path d="M258.792 183.427H254.16L254.166 179.239H258.798L258.792 183.427Z" fill="#F0F0F0"/>
<path d="M268.285 183.427H263.653L263.665 179.239H268.297L268.285 183.427Z" fill="#FAFAFA"/>
<path d="M240.006 192.219H234.844L234.832 187.556H240L240.006 192.219Z" fill="#F0F0F0"/>
<path d="M249.481 192.219H244.325L244.319 187.556H249.487L249.481 192.219Z" fill="#FAFAFA"/>
<path d="M258.963 192.219H253.8V187.556H258.969L258.963 192.219Z" fill="#FAFAFA"/>
<path d="M268.438 192.219H263.276L263.288 187.556H268.45L268.438 192.219Z" fill="#F0F0F0"/>
<path d="M240.036 199.643H234.991L234.979 195.093H240.03L240.036 199.643Z" fill="#F0F0F0"/>
<path d="M249.505 195.093H244.46V199.643H249.505V195.093Z" fill="#FAFAFA"/>
<path d="M258.986 195.093H253.942V199.643H258.986V195.093Z" fill="#F0F0F0"/>
<path d="M268.456 199.643H263.412L263.423 195.093H268.474L268.456 199.643Z" fill="#FAFAFA"/>
<path d="M239.929 208.001H235.009L235.003 203.57H239.924L239.929 208.001Z" fill="#FAFAFA"/>
<path d="M249.387 203.57H244.466V208.001H249.387V203.57Z" fill="#FAFAFA"/>
<path d="M258.845 203.57H253.924V208.001H258.845V203.57Z" fill="#F0F0F0"/>
<path d="M268.297 208.001H263.382L263.388 203.57H268.308L268.297 208.001Z" fill="#F0F0F0"/>
<path d="M239.93 215.598H235.127L235.121 211.28H239.924L239.93 215.598Z" fill="#F0F0F0"/>
<path d="M268.279 215.598H263.482L263.488 211.28H268.291L268.279 215.598Z" fill="#FAFAFA"/>
<path d="M258.868 211.28H244.531L244.561 212.367H244.956L244.962 220.386H246.396L246.39 212.367H257.033L257.022 220.386H258.455L258.467 212.367H258.898L258.868 211.28Z" fill="#F5F5F5"/>
<path d="M251.771 220.386H246.461V212.367H251.777L251.771 220.386Z" fill="#E6E6E6"/>
<path d="M256.957 220.386H251.641L251.647 212.367H256.969L256.957 220.386Z" fill="#EBEBEB"/>
<path d="M232.584 174.386L232.69 220.386H226.596H191.16H185.06L184.623 174.386H232.584Z" fill="#F5F5F5"/>
<path d="M223.468 184.609H229.416L229.398 179.239H223.451L223.468 184.609Z" fill="#E6E6E6"/>
<path d="M211.604 184.609H217.551L217.527 179.239H211.574L211.604 184.609Z" fill="#E6E6E6"/>
<path d="M199.739 184.609H205.686L205.65 179.239H199.703L199.739 184.609Z" fill="#E6E6E6"/>
<path d="M187.874 184.609H193.821L193.774 179.239H187.827L187.874 184.609Z" fill="#E6E6E6"/>
<path d="M223.244 195.093H229.652L229.634 189.313H223.221L223.244 195.093Z" fill="#E6E6E6"/>
<path d="M211.403 195.093H217.81L217.781 189.313H211.368L211.403 195.093Z" fill="#E6E6E6"/>
<path d="M199.556 195.093H205.963L205.928 189.313H199.515L199.556 195.093Z" fill="#E6E6E6"/>
<path d="M187.714 195.093H194.122L194.074 189.313H187.661L187.714 195.093Z" fill="#E6E6E6"/>
<path d="M223.409 204.681H229.628L229.616 199.079H223.392L223.409 204.681Z" fill="#E6E6E6"/>
<path d="M211.58 204.681H217.798L217.775 199.079H211.55L211.58 204.681Z" fill="#E6E6E6"/>
<path d="M199.75 204.681H205.969L205.933 199.079H199.709L199.75 204.681Z" fill="#E6E6E6"/>
<path d="M187.915 204.681H194.133L194.092 199.079H187.868L187.915 204.681Z" fill="#E6E6E6"/>
<path d="M223.545 214.523H229.575L229.563 209.094H223.521L223.545 214.523Z" fill="#E6E6E6"/>
<path d="M188.098 214.523H194.134L194.086 209.094H188.051L188.098 214.523Z" fill="#E6E6E6"/>
<path d="M199.467 209.094H218.129L218.135 210.733H216.943L216.99 220.386H215.262L215.214 210.733H202.411L202.476 220.386H200.753L200.683 210.733H199.485L199.467 209.094Z" fill="#F5F5F5"/>
<path d="M208.913 220.386H215.303L215.256 210.733H208.854L208.913 220.386Z" fill="#E6E6E6"/>
<path d="M202.435 220.386H208.825L208.772 210.733H202.37L202.435 220.386Z" fill="#EBEBEB"/>
<path d="M89.7392 135.01V132.848C89.7299 132.786 89.6988 132.73 89.6517 132.689C89.6046 132.648 89.5446 132.626 89.4825 132.626C89.4204 132.626 89.3604 132.648 89.3133 132.689C89.2662 132.73 89.2352 132.786 89.2259 132.848V135.224C89.2287 135.291 89.2561 135.355 89.303 135.404C89.3498 135.452 89.4127 135.481 89.4796 135.485C89.684 135.485 89.8839 135.547 90.0538 135.661C90.2237 135.776 90.3561 135.938 90.434 136.128C90.512 136.319 90.5321 136.528 90.4918 136.73C90.4515 136.932 90.3525 137.117 90.2076 137.262C90.0626 137.407 89.878 137.506 89.6774 137.545C89.4767 137.585 89.2689 137.563 89.0804 137.484C88.8918 137.404 88.731 137.27 88.6182 137.098C88.5055 136.926 88.4459 136.725 88.4471 136.519C88.4471 136.192 87.9043 136.192 87.9338 136.519C88.0636 137.808 89.5563 138.657 90.5711 137.624C90.7658 137.421 90.9023 137.17 90.966 136.895C91.0297 136.621 91.0182 136.334 90.9328 136.066C90.8474 135.798 90.6913 135.558 90.4811 135.372C90.2709 135.186 90.0144 135.061 89.7392 135.01Z" fill="#EBEBEB"/>
<path d="M51.9201 119.465V124.146L47.0172 119.21L46.7753 119.454H46.4331V164.004H52.6045V119.454L51.9201 119.465ZM47.1175 153.454L51.4363 157.802H47.1175V153.454ZM47.1175 142.4L51.4363 146.748H47.1175V142.4ZM47.1175 131.351L51.4363 135.699H47.1175V131.351ZM47.1175 120.297L51.4363 124.651H47.1175V120.297ZM51.4363 125.334L47.1175 129.688V125.334H51.4363ZM51.9201 125.821V130.175H47.6013L51.9201 125.821ZM51.4363 136.388L47.1175 140.737V136.388H51.4363ZM51.9201 136.876V141.224H47.6013L51.9201 136.876ZM51.4363 147.437L47.1175 151.791V147.437H51.4363ZM51.9201 147.906V152.26H47.6013L51.9201 147.906ZM51.4363 158.473L47.1175 162.821V158.473H51.4363ZM47.6013 163.35L51.9201 158.978V163.35H47.6013ZM51.9201 157.315L47.6013 152.967H51.9201V157.315ZM51.9201 146.261L47.6013 141.913H51.9201V146.261ZM51.9201 135.212L47.6013 130.864H51.9201V135.212Z" fill="#F0F0F0"/>
<path d="M47.1172 104.793V113.454H47.7898V110.145L51.3298 113.709L51.5717 113.466H51.9198V104.793H47.1172ZM50.7398 105.482L47.7898 108.452V105.482H50.7398ZM51.2236 112.61L48.2736 109.64H51.2236V112.61ZM48.2736 108.957L51.2236 105.987V108.957H48.2736Z" fill="#F0F0F0"/>
<path d="M35.8482 119.465H27.6177V127.752H35.8482V119.465Z" fill="#E6E6E6"/>
<path d="M89.5916 131.423H89.1314V115.491L50.7991 102.691H48.268L27.7419 115.515L27.5 115.129L48.1323 102.233H50.8758L50.9112 102.245L89.5916 115.159V131.423Z" fill="#E6E6E6"/>
<path d="M84.9012 119.828H85.3732L90.1876 114.98H27.2759V119.81H84.9012V119.828ZM85.5856 115.67H88.5356L85.5856 118.64V115.67ZM27.9603 119.121V116.151L30.9103 119.121H27.9603ZM31.3941 118.634L28.4441 115.664H31.3941V118.634ZM32.0785 115.664H35.0285L32.0785 118.634V115.664ZM35.5123 119.115H32.5623L35.5123 116.145V119.115ZM36.1967 119.115V116.145L39.1467 119.115H36.1967ZM39.6246 118.628L36.6746 115.658H39.6246V118.628ZM40.309 115.658H43.259L40.309 118.628V115.658ZM43.7428 119.109H40.7928L43.7428 116.139V119.109ZM44.4272 119.109V116.139L47.3772 119.109H44.4272ZM47.861 118.622L44.911 115.652H47.861V118.622ZM48.5454 115.652H51.4954L48.5454 118.622V115.652ZM51.9733 119.103H49.0233L51.9733 116.133V119.103ZM52.6577 119.103V116.133L55.6077 119.103H52.6577ZM56.0915 118.616L53.1415 115.646H56.0915V118.616ZM56.7759 115.646H59.7259L56.7759 118.616V115.646ZM60.2038 119.097H57.2538L60.2038 116.127V119.097ZM60.8882 119.097V116.127L63.8382 119.097H60.8882ZM64.322 118.61L61.372 115.64H64.322V118.61ZM65.0064 115.64H67.9564L65.0064 118.61V115.64ZM68.4402 119.091H65.4902L68.4402 116.121V119.091ZM69.1246 119.091V116.121L72.0746 119.091H69.1246ZM72.5525 118.604L69.6025 115.634H72.5525V118.604ZM73.2369 115.634H76.1869L73.2369 118.604V115.634ZM76.6707 119.085H73.7207L76.6707 116.115V119.085ZM77.3551 115.634H80.3051L77.3551 118.604V115.634ZM80.7889 119.085H77.8389L80.7889 116.115V119.085ZM81.4733 119.085V116.115L84.4233 119.085H81.4733ZM81.9571 115.634H84.9071V118.604L81.9571 115.634Z" fill="#F0F0F0"/>
<path d="M55.6487 121.348H42.9873L43.4534 116.002C43.5126 115.303 43.8305 114.652 44.3441 114.178C44.8577 113.703 45.5295 113.441 46.2264 113.442H52.2562C52.9393 113.443 53.5983 113.696 54.1083 114.154C54.6183 114.612 54.9439 115.242 55.0233 115.925L55.6487 121.348Z" fill="#F0F0F0"/>
<path d="M47.4596 115.652H45.0288V118.099H47.4596V115.652Z" fill="#FAFAFA"/>
<path d="M50.5333 115.652H48.1025V118.099H50.5333V115.652Z" fill="#FAFAFA"/>
<path d="M53.6076 115.652H51.1768V118.099H53.6076V115.652Z" fill="#FAFAFA"/>
<path d="M51.1766 103.469C51.1766 103.799 51.0794 104.122 50.8972 104.396C50.7151 104.671 50.4561 104.885 50.1532 105.011C49.8502 105.137 49.5169 105.17 49.1953 105.106C48.8737 105.042 48.5783 104.883 48.3464 104.649C48.1146 104.416 47.9567 104.118 47.8927 103.795C47.8287 103.471 47.8616 103.135 47.987 102.83C48.1125 102.525 48.325 102.265 48.5977 102.081C48.8703 101.898 49.1908 101.8 49.5187 101.8C49.9584 101.8 50.3801 101.976 50.6911 102.289C51.002 102.602 51.1766 103.026 51.1766 103.469Z" fill="#E6E6E6"/>
<path d="M89.4795 134.274C89.2935 134.274 89.1094 134.237 88.9376 134.165C88.7658 134.093 88.6097 133.988 88.4782 133.856C88.3467 133.724 88.2424 133.566 88.1713 133.394C88.1001 133.221 88.0635 133.035 88.0635 132.848V131.422H90.8955V132.848C90.8955 133.035 90.8589 133.221 90.7877 133.394C90.7165 133.566 90.6122 133.724 90.4807 133.856C90.3493 133.988 90.1932 134.093 90.0214 134.165C89.8496 134.237 89.6654 134.274 89.4795 134.274Z" fill="#E6E6E6"/>
<path d="M22.4434 152.925L23.5408 220.386H28.4083H56.6693H61.5309L60.8052 152.925H22.4434Z" fill="#F5F5F5"/>
<path d="M24.8389 154.879L24.9746 163.088L25.01 165.34L25.0454 167.597H30.0191L29.9837 165.34L29.9542 163.088L29.8244 154.879H24.8389Z" fill="#E6E6E6"/>
<path d="M34.3735 154.879L34.4974 163.088L34.5269 165.34L34.5623 167.597H39.536L39.5065 165.34L39.477 163.088L39.3649 154.879H34.3735Z" fill="#E6E6E6"/>
<path d="M43.9077 154.879L44.0198 163.088L44.0493 165.34L44.0788 167.597H49.0525L49.0289 165.34L48.9994 163.088L48.8991 154.879H43.9077Z" fill="#E6E6E6"/>
<path d="M53.4482 154.879L53.5426 163.088L53.5839 166.569L53.5957 167.597H58.5753L58.5635 166.569L58.5222 163.088L58.4337 154.879H53.4482Z" fill="#E6E6E6"/>
<path d="M25.1401 171.315L25.2758 179.519L25.3112 181.77L25.3466 184.021H30.3262L30.2967 181.77L30.2613 179.519L30.1374 171.315H25.1401Z" fill="#E6E6E6"/>
<path d="M34.6509 171.315L34.7689 179.519L34.8161 182.691L34.8338 184.021H39.8193L39.8016 182.691L39.7603 179.519L39.6423 171.315H34.6509Z" fill="#E6E6E6"/>
<path d="M44.1558 171.315L44.2679 179.519L44.2974 181.77L44.3269 184.021H49.3124L49.2829 181.77L49.2534 179.519L49.1531 171.315H44.1558Z" fill="#E6E6E6"/>
<path d="M53.6665 171.315L53.7668 179.519L53.7904 181.77L53.8199 184.021H58.7995L58.7759 181.77L58.7523 179.519L58.6638 171.315H53.6665Z" fill="#E6E6E6"/>
<path d="M25.4233 187.556L25.5531 195.723L25.5944 197.968L25.6298 200.208H30.6035L30.5681 197.968L30.5327 195.723L30.4147 187.556H25.4233Z" fill="#E6E6E6"/>
<path d="M34.9102 187.556L35.0282 195.723L35.0577 197.968L35.0931 200.208H40.0668L40.0373 197.968L40.0078 195.723L39.8957 187.556H34.9102Z" fill="#E6E6E6"/>
<path d="M44.3916 187.556L44.4978 195.723L44.5273 197.968L44.5568 200.208H49.5364L49.5069 197.968L49.4774 195.723L49.3771 187.556H44.3916Z" fill="#E6E6E6"/>
<path d="M53.8789 187.556L53.9733 195.723L54.0087 198.824L54.0264 200.208H59.0001L58.9883 198.824L58.9529 195.723L58.8644 187.556H53.8789Z" fill="#E6E6E6"/>
<path d="M56.6401 203.57H54.1798H49.5719H44.6454H40.0375H35.1169H25.5825L25.6533 208.001H35.1818H40.0965H44.7044H49.625H54.2329H56.6932H59.1535L59.1063 203.57H56.6401Z" fill="#E6E6E6"/>
<path d="M49.5661 211.28H35.2291L35.2173 212.367H35.648L35.766 220.386H37.1997L37.0817 212.367H47.7253L47.8256 220.386H49.2534L49.159 212.367H49.5543L49.5661 211.28Z" fill="#FAFAFA"/>
<path d="M42.5745 220.386H37.2645L37.1465 212.367H42.4683L42.5745 220.386Z" fill="#E6E6E6"/>
<path d="M47.7546 220.386H42.4446L42.3384 212.367H47.6543L47.7546 220.386Z" fill="#E6E6E6"/>
<path d="M96.9843 156.816L97.415 220.386H92.8307H66.204H61.6197L60.835 156.816H96.9843Z" fill="#E6E6E6"/>
<path d="M84.2168 204.681H86.1697H94.9312L94.943 206.718L94.9548 208.756L95.0138 216.133H90.4767L90.4177 208.548H85.9927H84.2463H81.6975L81.6621 204.681H84.2168Z" fill="#F0F0F0"/>
<path d="M66.9295 204.681H68.6759H76.9949L77.0362 208.548H68.4281L68.5165 216.133H63.9795L63.8969 208.756L63.8614 205.809L63.8438 204.681H66.9295Z" fill="#F0F0F0"/>
<path d="M73.2664 211.82H85.6033L85.6151 212.907H85.7508L85.8098 220.386H84.4764L84.4115 212.907H74.4877L74.5644 220.386H73.231L73.1484 212.907H73.2782L73.2664 211.82Z" fill="#F5F5F5"/>
<path d="M79.4673 220.386H84.4233L84.3584 212.907H79.3965L79.4673 220.386Z" fill="#EBEBEB"/>
<path d="M74.6172 220.386H79.5732L79.5024 212.907H74.5405L74.6172 220.386Z" fill="#E0E0E0"/>
<path d="M81.0127 159.382H94.7656L94.8482 171.315H81.1248L81.0127 159.382Z" fill="#F0F0F0"/>
<path d="M63.1831 159.382H76.936L77.0481 171.315H63.3247L63.1831 159.382Z" fill="#F0F0F0"/>
<path d="M81.3965 174.386H94.5594L94.6479 185.791H81.4968L81.3965 174.386Z" fill="#F0F0F0"/>
<path d="M63.5962 174.386H76.7591L76.8771 185.791H63.726L63.5962 174.386Z" fill="#F0F0F0"/>
<path d="M81.5322 189.896H94.7718L94.8544 201.33H81.6325L81.5322 189.896Z" fill="#F0F0F0"/>
<path d="M63.7847 189.896H77.0243L77.1364 201.33H63.9145L63.7847 189.896Z" fill="#F0F0F0"/>
<path d="M147.5 253.644C210.679 253.644 261.895 250.633 261.895 246.92C261.895 243.206 210.679 240.196 147.5 240.196C84.3214 240.196 33.105 243.206 33.105 246.92C33.105 250.633 84.3214 253.644 147.5 253.644Z" fill="#F5F5F5"/>
<path d="M94.8896 50.2642L97.0903 53.1272H197.898L200.116 50.2642H94.8896Z" fill="#044CA0"/>
<g opacity="0.4">
<path d="M94.8896 50.2642L97.0903 53.1272H197.898L200.116 50.2642H94.8896Z" fill="black"/>
</g>
<path d="M197.921 46.5752H96.8838V226.902H197.921V46.5752Z" fill="#044CA0"/>
<g opacity="0.4">
<path d="M197.921 46.5752H96.8838V226.902H197.921V46.5752Z" fill="white"/>
</g>
<g opacity="0.8">
<path d="M100.979 51.0124C101.017 51.2744 101 51.5418 100.927 51.7964C100.855 52.0509 100.728 52.2868 100.557 52.4879C100.386 52.689 100.174 52.8508 99.9348 52.9621C99.696 53.0734 99.4363 53.1317 99.1732 53.133C98.6073 53.1106 98.0683 52.8841 97.6545 52.4948C97.2407 52.1055 96.9798 51.5793 96.9194 51.0124C96.8786 50.7488 96.8949 50.4793 96.967 50.2226C97.0392 49.9658 97.1656 49.7278 97.3376 49.5247C97.5096 49.3217 97.7231 49.1584 97.9635 49.0461C98.2039 48.9338 98.4656 48.8751 98.7307 48.874C99.2983 48.8984 99.8381 49.128 100.251 49.5209C100.664 49.9137 100.922 50.4433 100.979 51.0124Z" fill="#F0F0F0"/>
<path d="M104.701 51.0124C104.737 51.2759 104.717 51.5441 104.642 51.7991C104.567 52.0541 104.438 52.2899 104.265 52.4908C104.092 52.6916 103.878 52.8528 103.638 52.9636C103.397 53.0744 103.136 53.1321 102.872 53.133C102.311 53.1051 101.777 52.8761 101.368 52.4873C100.959 52.0985 100.702 51.5755 100.642 51.0124C100.603 50.7481 100.621 50.4784 100.695 50.2217C100.768 49.9649 100.896 49.7271 101.069 49.5244C101.242 49.3216 101.456 49.1586 101.697 49.0464C101.938 48.9342 102.2 48.8754 102.465 48.874C103.031 48.9012 103.568 49.1321 103.978 49.5246C104.389 49.9172 104.645 50.4452 104.701 51.0124Z" fill="#F0F0F0"/>
<path d="M108.418 51.0124C108.453 51.2766 108.431 51.545 108.354 51.8C108.277 52.055 108.148 52.2906 107.973 52.4912C107.799 52.6918 107.585 52.8527 107.344 52.9634C107.103 53.0741 106.842 53.1319 106.577 53.133C106.015 53.1121 105.479 52.8851 105.07 52.4947C104.662 52.1043 104.409 51.5772 104.359 51.0124C104.323 50.7471 104.344 50.477 104.419 50.2203C104.495 49.9636 104.625 49.7261 104.799 49.5237C104.973 49.3214 105.188 49.1587 105.43 49.0467C105.671 48.9346 105.934 48.8758 106.2 48.874C106.766 48.8954 107.304 49.1249 107.713 49.519C108.121 49.9131 108.372 50.4444 108.418 51.0124Z" fill="#F0F0F0"/>
<path d="M112.135 51.0124C112.166 51.2774 112.141 51.5459 112.062 51.8004C111.982 52.055 111.851 52.2899 111.676 52.4899C111.5 52.6899 111.285 52.8505 111.044 52.9613C110.803 53.0721 110.542 53.1306 110.277 53.133C109.716 53.1116 109.182 52.8841 108.777 52.4933C108.371 52.1025 108.122 51.5757 108.076 51.0124C108.044 50.7458 108.068 50.4752 108.146 50.2185C108.225 49.9618 108.357 49.7247 108.533 49.5228C108.709 49.321 108.925 49.1588 109.168 49.047C109.41 48.9352 109.674 48.8762 109.94 48.874C110.504 48.896 111.039 49.1263 111.444 49.5208C111.849 49.9154 112.095 50.4465 112.135 51.0124Z" fill="#F0F0F0"/>
<path d="M115.858 51.0124C115.886 51.2783 115.859 51.5472 115.777 51.8018C115.696 52.0563 115.563 52.291 115.386 52.4906C115.21 52.6903 114.993 52.8506 114.752 52.9612C114.51 53.0718 114.248 53.1304 113.982 53.133C113.423 53.1125 112.89 52.8847 112.488 52.4934C112.085 52.102 111.84 51.5746 111.799 51.0124C111.769 50.7451 111.794 50.4743 111.874 50.2176C111.954 49.9609 112.087 49.724 112.264 49.5224C112.441 49.3207 112.658 49.1588 112.901 49.0471C113.144 48.9354 113.408 48.8764 113.675 48.874C114.238 48.8936 114.773 49.1235 115.177 49.5188C115.581 49.9141 115.824 50.4466 115.858 51.0124Z" fill="#F0F0F0"/>
<path d="M119.576 51.0124C119.601 51.2793 119.571 51.5485 119.488 51.8031C119.404 52.0577 119.269 52.2921 119.091 52.4914C118.913 52.6908 118.696 52.8507 118.453 52.9611C118.211 53.0716 117.948 53.1301 117.682 53.133C117.124 53.1134 116.593 52.8855 116.192 52.4935C115.792 52.1015 115.551 51.5735 115.516 51.0124C115.488 50.7442 115.516 50.473 115.599 50.2163C115.681 49.9595 115.815 49.7229 115.994 49.5216C116.172 49.3203 116.39 49.1587 116.634 49.0472C116.878 48.9357 117.142 48.8767 117.41 48.874C117.972 48.8926 118.506 49.1226 118.907 49.5186C119.308 49.9146 119.546 50.4477 119.576 51.0124Z" fill="#F0F0F0"/>
<path d="M123.31 51.0124C123.333 51.2802 123.301 51.5498 123.215 51.8045C123.13 52.0591 122.993 52.2932 122.813 52.4922C122.634 52.6913 122.416 52.8509 122.172 52.9611C121.929 53.0714 121.665 53.1299 121.399 53.133C120.842 53.1144 120.312 52.8863 119.915 52.4936C119.517 52.101 119.28 51.5724 119.251 51.0124C119.225 50.7435 119.254 50.4721 119.338 50.2154C119.422 49.9586 119.557 49.7222 119.736 49.5211C119.916 49.32 120.135 49.1586 120.379 49.0472C120.623 48.9358 120.888 48.8769 121.157 48.874C121.717 48.8928 122.249 49.1233 122.648 49.5195C123.048 49.9158 123.284 50.4488 123.31 51.0124Z" fill="#F0F0F0"/>
<path d="M127.015 51.0124C127.036 51.2816 127.001 51.5521 126.913 51.8072C126.825 52.0623 126.686 52.2964 126.505 52.4952C126.323 52.694 126.103 52.8532 125.858 52.9629C125.613 53.0726 125.348 53.1305 125.08 53.133C124.525 53.1155 123.997 52.8872 123.602 52.4939C123.207 52.1005 122.974 51.5713 122.95 51.0124C122.928 50.7428 122.96 50.4713 123.046 50.215C123.132 49.9586 123.27 49.7227 123.45 49.5222C123.631 49.3216 123.85 49.1605 124.095 49.049C124.34 48.9375 124.605 48.8779 124.874 48.874C125.434 48.8902 125.966 49.1202 126.364 49.5173C126.762 49.9144 126.995 50.4489 127.015 51.0124Z" fill="#F0F0F0"/>
<path d="M130.732 51.0124C130.75 51.2815 130.713 51.5515 130.624 51.8058C130.535 52.0601 130.395 52.2935 130.213 52.4919C130.032 52.6902 129.812 52.8493 129.568 52.9595C129.323 53.0697 129.059 53.1288 128.791 53.133C128.236 53.1167 127.709 52.8884 127.315 52.4945C126.922 52.1007 126.692 51.5707 126.673 51.0124C126.653 50.7414 126.688 50.469 126.776 50.2122C126.865 49.9554 127.005 49.7195 127.187 49.5192C127.369 49.3188 127.591 49.1582 127.837 49.0472C128.084 48.9363 128.35 48.8773 128.62 48.874C129.177 48.8906 129.707 49.1216 130.099 49.5194C130.492 49.9172 130.719 50.4516 130.732 51.0124Z" fill="#F0F0F0"/>
<path d="M134.455 51.0124C134.469 51.2827 134.429 51.5532 134.338 51.8076C134.246 52.062 134.104 52.2952 133.92 52.4931C133.737 52.6911 133.516 52.8498 133.27 52.9597C133.024 53.0697 132.759 53.1286 132.49 53.133C131.937 53.1194 131.409 52.8914 131.018 52.4965C130.627 52.1015 130.402 51.57 130.39 51.0124C130.372 50.741 130.41 50.4687 130.5 50.2122C130.59 49.9557 130.731 49.7204 130.914 49.5204C131.097 49.3204 131.319 49.16 131.565 49.0489C131.812 48.9378 132.079 48.8783 132.349 48.874C132.906 48.8878 133.437 49.118 133.829 49.5166C134.222 49.9152 134.446 50.4512 134.455 51.0124Z" fill="#F0F0F0"/>
<path d="M138.172 51.0124C138.184 51.2831 138.142 51.5535 138.049 51.8076C137.955 52.0617 137.812 52.2944 137.628 52.492C137.444 52.6896 137.222 52.8481 136.976 52.9582C136.73 53.0683 136.465 53.1277 136.196 53.133C135.644 53.1178 135.12 52.8887 134.732 52.4937C134.343 52.0986 134.122 51.568 134.113 51.0124C134.098 50.7401 134.138 50.4674 134.23 50.2109C134.322 49.9543 134.464 49.7191 134.649 49.5194C134.833 49.3197 135.056 49.1596 135.304 49.0487C135.551 48.9378 135.819 48.8784 136.09 48.874C136.645 48.8879 137.173 49.119 137.561 49.5182C137.95 49.9174 138.169 50.4533 138.172 51.0124Z" fill="#F0F0F0"/>
<path d="M141.889 51.0124C141.899 51.284 141.854 51.5548 141.759 51.809C141.663 52.0632 141.519 52.2957 141.333 52.493C141.148 52.6904 140.925 52.8486 140.678 52.9585C140.431 53.0683 140.165 53.1277 139.895 53.133C139.345 53.1176 138.822 52.888 138.437 52.4925C138.052 52.0969 137.834 51.5663 137.83 51.0124C137.818 50.7394 137.861 50.4667 137.955 50.2104C138.05 49.9542 138.194 49.7195 138.38 49.5202C138.565 49.321 138.789 49.1612 139.037 49.0502C139.285 48.9392 139.553 48.8793 139.824 48.874C140.378 48.8865 140.905 49.1176 141.292 49.5177C141.678 49.9177 141.893 50.4545 141.889 51.0124Z" fill="#F0F0F0"/>
<path d="M145.612 51.0124C145.619 51.2849 145.573 51.5561 145.475 51.8103C145.378 52.0646 145.231 52.297 145.044 52.4941C144.857 52.6912 144.634 52.8491 144.386 52.9587C144.138 53.0684 143.871 53.1276 143.6 53.133C143.051 53.1205 142.529 52.8913 142.146 52.4946C141.763 52.0979 141.55 51.5656 141.553 51.0124C141.544 50.7385 141.588 50.4654 141.685 50.2091C141.781 49.9527 141.927 49.7182 142.114 49.5192C142.302 49.3202 142.526 49.1607 142.775 49.0499C143.024 48.9392 143.293 48.8794 143.565 48.874C144.117 48.888 144.641 49.1203 145.024 49.5205C145.407 49.9206 145.619 50.4566 145.612 51.0124Z" fill="#F0F0F0"/>
<path d="M149.329 51.0124C149.311 51.412 149.176 51.7973 148.942 52.1206C148.708 52.4439 148.385 52.691 148.013 52.8311C147.641 52.9713 147.236 52.9985 146.849 52.9092C146.461 52.82 146.109 52.6182 145.834 52.3291C145.56 52.0399 145.376 51.6759 145.305 51.2824C145.234 50.8888 145.279 50.4829 145.435 50.115C145.591 49.7472 145.851 49.4335 146.182 49.2129C146.514 48.9923 146.902 48.8745 147.299 48.874C147.572 48.8794 147.842 48.9391 148.092 49.0496C148.342 49.1602 148.567 49.3194 148.756 49.5182C148.945 49.7169 149.092 49.9512 149.191 50.2077C149.289 50.4641 149.336 50.7376 149.329 51.0124Z" fill="#F0F0F0"/>
<path d="M153.046 51.0124C153.051 51.565 152.839 52.0974 152.457 52.4942C152.075 52.8911 151.554 53.1205 151.005 53.133C150.734 53.1276 150.467 53.0684 150.219 52.9587C149.972 52.8491 149.748 52.6912 149.561 52.4941C149.374 52.297 149.227 52.0646 149.13 51.8103C149.032 51.5561 148.986 51.2849 148.993 51.0124C148.983 50.4567 149.193 49.9199 149.575 49.5191C149.958 49.1184 150.482 48.8865 151.034 48.874C151.306 48.8794 151.575 48.9392 151.824 49.0499C152.073 49.1607 152.298 49.3202 152.485 49.5192C152.672 49.7182 152.818 49.9527 152.914 50.2091C153.011 50.4654 153.056 50.7385 153.046 51.0124Z" fill="#F0F0F0"/>
<path d="M156.769 51.0124C156.768 51.5672 156.551 52.0995 156.165 52.4957C155.779 52.8919 155.255 53.1206 154.704 53.133C154.434 53.1277 154.168 53.0683 153.921 52.9585C153.674 52.8486 153.451 52.6904 153.266 52.493C153.08 52.2957 152.936 52.0632 152.84 51.809C152.745 51.5548 152.7 51.284 152.71 51.0124C152.706 50.4555 152.92 49.9196 153.305 49.5197C153.69 49.1198 154.216 48.888 154.769 48.874C155.041 48.8793 155.308 48.9392 155.557 49.0501C155.805 49.161 156.029 49.3207 156.215 49.5199C156.402 49.7191 156.547 49.9537 156.642 50.21C156.737 50.4663 156.78 50.7391 156.769 51.0124Z" fill="#F0F0F0"/>
<path d="M160.48 51.0124C160.472 51.5674 160.252 52.098 159.865 52.4933C159.478 52.8885 158.954 53.1177 158.403 53.133C158.134 53.1277 157.868 53.0683 157.622 52.9583C157.376 52.8483 157.154 52.6899 156.969 52.4924C156.784 52.2948 156.641 52.0622 156.547 51.8081C156.452 51.5539 156.41 51.2834 156.421 51.0124C156.424 50.4533 156.643 49.9174 157.031 49.5182C157.42 49.119 157.948 48.8879 158.503 48.874C158.774 48.8792 159.041 48.9392 159.288 49.0504C159.535 49.1616 159.758 49.3217 159.942 49.5212C160.126 49.7208 160.269 49.9556 160.362 50.2118C160.454 50.468 160.494 50.7403 160.48 51.0124Z" fill="#F0F0F0"/>
<path d="M164.209 51.0124C164.195 51.5696 163.97 52.1003 163.579 52.4949C163.188 52.8895 162.662 53.1179 162.108 53.133C161.84 53.1286 161.575 53.0697 161.33 52.9597C161.084 52.8496 160.863 52.6909 160.68 52.4928C160.497 52.2948 160.356 52.0615 160.265 51.8072C160.174 51.5528 160.135 51.2824 160.15 51.0124C160.157 50.4527 160.379 49.9176 160.77 49.519C161.16 49.1204 161.688 48.8893 162.244 48.874C162.515 48.8783 162.781 48.9378 163.028 49.0488C163.275 49.1599 163.497 49.3202 163.681 49.5201C163.865 49.72 164.006 49.9553 164.097 50.2118C164.188 50.4683 164.226 50.7407 164.209 51.0124Z" fill="#F0F0F0"/>
<path d="M167.926 51.0124C167.907 51.5737 167.674 52.1062 167.277 52.5005C166.88 52.8949 166.348 53.1212 165.79 53.133C165.522 53.1287 165.258 53.0697 165.013 52.9596C164.768 52.8494 164.548 52.6904 164.366 52.4922C164.184 52.2939 164.044 52.0606 163.954 51.8062C163.864 51.5519 163.826 51.2818 163.843 51.0124C163.857 50.4516 164.083 49.9172 164.476 49.5194C164.869 49.1216 165.398 48.8906 165.955 48.874C166.227 48.8741 166.496 48.9306 166.746 49.0402C166.995 49.1497 167.219 49.3098 167.404 49.5105C167.589 49.7112 167.731 49.9482 167.821 50.2066C167.91 50.4651 167.946 50.7394 167.926 51.0124Z" fill="#F0F0F0"/>
<path d="M171.643 51.0124C171.621 51.5708 171.39 52.1 170.995 52.4934C170.601 52.8869 170.074 53.1154 169.519 53.133C169.249 53.1329 168.982 53.0768 168.735 52.9683C168.487 52.8597 168.265 52.701 168.081 52.502C167.897 52.3031 167.756 52.0681 167.667 51.8118C167.577 51.5555 167.541 51.2834 167.56 51.0124C167.579 50.4504 167.81 49.9168 168.206 49.5197C168.601 49.1226 169.132 48.8918 169.69 48.874C169.961 48.8739 170.23 48.9304 170.478 49.0401C170.727 49.1499 170.95 49.3103 171.133 49.5113C171.317 49.7124 171.457 49.9496 171.545 50.208C171.632 50.4664 171.666 50.7403 171.643 51.0124Z" fill="#F0F0F0"/>
<path d="M175.366 51.0124C175.336 51.5724 175.099 52.101 174.702 52.4936C174.304 52.8863 173.775 53.1144 173.218 53.133C172.951 53.1299 172.688 53.0714 172.444 52.9611C172.201 52.8509 171.982 52.6913 171.803 52.4922C171.624 52.2932 171.487 52.0591 171.401 51.8045C171.316 51.5498 171.284 51.2802 171.306 51.0124C171.33 50.4488 171.564 49.9151 171.963 49.5184C172.361 49.1217 172.894 48.8915 173.454 48.874C173.722 48.8778 173.987 48.9374 174.231 49.049C174.476 49.1607 174.694 49.3219 174.874 49.5227C175.053 49.7235 175.19 49.9595 175.274 50.2159C175.359 50.4722 175.39 50.7434 175.366 51.0124Z" fill="#F0F0F0"/>
<path d="M179.083 51.0124C179.05 51.573 178.81 52.1009 178.41 52.493C178.011 52.8851 177.481 53.1133 176.924 53.133C176.657 53.13 176.394 53.0715 176.151 52.9611C175.908 52.8508 175.691 52.6909 175.512 52.4917C175.334 52.2925 175.198 52.0582 175.114 51.8036C175.03 51.549 174.999 51.2796 175.024 51.0124C175.053 50.4477 175.292 49.9146 175.693 49.5186C176.094 49.1226 176.628 48.8926 177.189 48.874C177.457 48.8767 177.721 48.9357 177.965 49.0472C178.209 49.1587 178.427 49.3203 178.606 49.5216C178.784 49.7229 178.919 49.9595 179.001 50.2163C179.083 50.473 179.111 50.7442 179.083 51.0124Z" fill="#F0F0F0"/>
<path d="M182.8 51.0124C182.762 51.5746 182.519 52.1026 182.117 52.4944C181.714 52.8861 181.182 53.1137 180.623 53.133C180.36 53.1262 180.1 53.0647 179.862 52.9524C179.623 52.84 179.41 52.6792 179.236 52.4801C179.063 52.281 178.931 52.0479 178.851 51.7953C178.771 51.5427 178.743 51.2762 178.77 51.0124C178.805 50.4466 179.048 49.9141 179.452 49.5188C179.855 49.1235 180.391 48.8936 180.953 48.874C181.218 48.8805 181.478 48.9425 181.718 49.056C181.958 49.1695 182.171 49.332 182.345 49.5332C182.519 49.7344 182.649 49.9699 182.727 50.2246C182.806 50.4792 182.83 50.7476 182.8 51.0124Z" fill="#F0F0F0"/>
<path d="M186.523 51.0124C186.478 51.5752 186.23 52.1019 185.826 52.4928C185.421 52.8837 184.888 53.1115 184.328 53.133C184.062 53.1315 183.8 53.0736 183.558 52.9631C183.317 52.8527 183.101 52.6922 182.925 52.4921C182.749 52.292 182.617 52.0568 182.537 51.8018C182.458 51.5468 182.433 51.2779 182.463 51.0124C182.502 50.446 182.748 49.9142 183.153 49.5194C183.559 49.1246 184.095 48.8947 184.658 48.874C184.925 48.8762 185.188 48.9352 185.431 49.047C185.674 49.1588 185.89 49.321 186.066 49.5228C186.242 49.7247 186.374 49.9618 186.452 50.2185C186.531 50.4752 186.555 50.7458 186.523 51.0124Z" fill="#F0F0F0"/>
<path d="M190.24 51.0124C190.19 51.5762 189.938 52.1025 189.531 52.4928C189.124 52.8831 188.589 53.1107 188.027 53.133C187.763 53.1308 187.502 53.0724 187.261 52.9614C187.021 52.8505 186.806 52.6897 186.632 52.4894C186.458 52.2892 186.327 52.0541 186.249 51.7995C186.172 51.545 186.148 51.2767 186.181 51.0124C186.226 50.4454 186.477 49.9149 186.884 49.5209C187.292 49.1269 187.829 48.8968 188.393 48.874C188.659 48.8759 188.922 48.9348 189.164 49.0468C189.406 49.1587 189.621 49.3213 189.796 49.5235C189.971 49.7258 190.101 49.9632 190.177 50.2199C190.254 50.4766 190.275 50.7467 190.24 51.0124Z" fill="#F0F0F0"/>
<path d="M193.963 51.0124C193.904 51.5726 193.649 52.0933 193.243 52.4817C192.838 52.8701 192.309 53.101 191.75 53.133C191.486 53.1321 191.225 53.0744 190.985 52.9636C190.745 52.8528 190.531 52.6916 190.358 52.4908C190.184 52.2899 190.056 52.0541 189.981 51.7991C189.905 51.5441 189.885 51.2759 189.921 51.0124C189.977 50.4462 190.233 49.9189 190.642 49.5265C191.051 49.1341 191.587 48.9025 192.151 48.874C192.416 48.878 192.676 48.9387 192.915 49.052C193.154 49.1652 193.366 49.3284 193.537 49.5308C193.709 49.7331 193.835 49.97 193.909 50.2254C193.982 50.4809 194.001 50.7492 193.963 51.0124Z" fill="#F0F0F0"/>
<path d="M197.68 51.0124C197.619 51.5784 197.359 52.1037 196.947 52.4929C196.534 52.8821 195.996 53.1092 195.432 53.133C195.168 53.1315 194.908 53.0732 194.669 52.9619C194.43 52.8507 194.218 52.6891 194.046 52.4881C193.874 52.2871 193.748 52.0514 193.674 51.7968C193.601 51.5422 193.582 51.2747 193.62 51.0124C193.677 50.4433 193.935 49.9137 194.348 49.5209C194.761 49.128 195.301 48.8984 195.868 48.874C196.133 48.8751 196.395 48.9338 196.635 49.0461C196.876 49.1584 197.089 49.3217 197.261 49.5247C197.433 49.7278 197.56 49.9658 197.632 50.2226C197.704 50.4793 197.72 50.7488 197.68 51.0124Z" fill="#F0F0F0"/>
</g>
<path d="M94.8838 47.3652H200.122L200.116 50.264H94.8897L94.8838 47.3652Z" fill="#044CA0"/>
<path d="M94.8779 44.4668L97.0727 47.3655H197.91L200.128 44.4668H94.8779Z" fill="#044CA0"/>
<g opacity="0.4">
<path d="M94.8779 44.4668L97.0727 47.3655H197.91L200.128 44.4668H94.8779Z" fill="black"/>
</g>
<path d="M94.8662 41.5562H200.134L200.128 44.4668H94.878L94.8662 41.5562Z" fill="#044CA0"/>
<g opacity="0.8">
<path d="M97.0669 44.4668H197.916L197.91 47.3655H97.0728L97.0669 44.4668Z" fill="white"/>
</g>
<g opacity="0.7">
<path d="M197.945 104.431H96.9136V105.708H197.945V104.431Z" fill="white"/>
</g>
<g opacity="0.8">
<path d="M197.939 167.817H97.1201V169.088H197.939V167.817Z" fill="white"/>
</g>
<path d="M130.343 58.6812H117.853V72.2659H130.343V58.6812Z" fill="#044CA0"/>
<path d="M154.332 58.6812H141.842V72.2659H154.332V58.6812Z" fill="#044CA0"/>
<path d="M178.322 58.6812H165.832V72.2659H178.322V58.6812Z" fill="#044CA0"/>
<path d="M130.343 79.0195H117.853V92.6043H130.343V79.0195Z" fill="#044CA0"/>
<path d="M154.332 79.0195H141.842V92.6043H154.332V79.0195Z" fill="#044CA0"/>
<path d="M178.322 79.0195H165.832V92.6043H178.322V79.0195Z" fill="#044CA0"/>
<path d="M130.343 177.6H117.853V191.185H130.343V177.6Z" fill="#044CA0"/>
<path d="M154.332 177.6H141.842V191.185H154.332V177.6Z" fill="#044CA0"/>
<path d="M178.322 177.6H165.832V191.185H178.322V177.6Z" fill="#044CA0"/>
<path d="M116.961 206.201H104.471V219.786H116.961V206.201Z" fill="#044CA0"/>
<path d="M190.346 206.201H177.855V219.786H190.346V206.201Z" fill="#044CA0"/>
<path d="M130.343 116.412H117.853V129.997H130.343V116.412Z" fill="#044CA0"/>
<path d="M154.332 116.412H141.842V129.997H154.332V116.412Z" fill="#044CA0"/>
<path d="M178.322 116.412H165.832V129.997H178.322V116.412Z" fill="#044CA0"/>
<path d="M130.343 136.75H117.853V150.335H130.343V136.75Z" fill="#044CA0"/>
<path d="M154.332 136.75H141.842V150.335H154.332V136.75Z" fill="#044CA0"/>
<path d="M178.322 136.75H165.832V150.335H178.322V136.75Z" fill="#044CA0"/>
<g opacity="0.8">
<path d="M132.957 207.793H145.884L145.83 221.306H132.868L132.957 207.793Z" fill="white"/>
</g>
<g opacity="0.8">
<path d="M148.379 207.793H161.837L161.2 221.306H148.238L148.379 207.793Z" fill="white"/>
</g>
<path d="M163.896 224.027H129.789L129.653 221.307H164.026L163.896 224.027Z" fill="#044CA0"/>
<g opacity="0.1">
<path d="M163.896 224.027H129.789L129.653 221.307H164.026L163.896 224.027Z" fill="white"/>
</g>
<path d="M165.271 226.902H128.585L128.437 224.223H165.406L165.271 226.902Z" fill="#044CA0"/>
<g opacity="0.4">
<path d="M166.487 203.005H127.275L127.104 199.946H166.64L166.487 203.005Z" fill="white"/>
</g>
<path d="M127.275 203.005L132.957 207.793H161.837L166.486 203.005H127.275Z" fill="#263238"/>
<path d="M129.93 205.244L131.936 221.282H133.529L132.886 205.244C132.429 205.008 131.924 204.885 131.411 204.885C130.898 204.885 130.392 205.008 129.936 205.244H129.93Z" fill="#044CA0"/>
<path d="M164.386 205.245L162.421 221.283H160.828L161.418 205.245C161.856 204.955 162.369 204.801 162.893 204.801C163.417 204.801 163.93 204.955 164.368 205.245H164.386Z" fill="#044CA0"/>
<path d="M114.13 37.1486C114.13 34.5231 116.13 32.6639 118.85 32.6639C119.548 32.6303 120.244 32.7597 120.883 33.0421C121.523 33.3244 122.089 33.7521 122.537 34.2915L120.997 35.6933C120.759 35.3804 120.453 35.1267 120.102 34.9516C119.751 34.7766 119.365 34.6848 118.974 34.6835C118.324 34.6835 117.702 34.9432 117.242 35.4055C116.783 35.8678 116.525 36.4948 116.525 37.1486C116.525 37.8024 116.783 38.4294 117.242 38.8917C117.702 39.354 118.324 39.6137 118.974 39.6137C119.366 39.6137 119.752 39.5226 120.103 39.3474C120.454 39.1723 120.76 38.9178 120.997 38.6039L122.537 40.0117C122.088 40.55 121.522 40.9769 120.883 41.2592C120.243 41.5415 119.547 41.6715 118.85 41.6392C116.13 41.6392 114.13 39.7978 114.13 37.1486Z" fill="#263238"/>
<path d="M122.979 37.1488C122.979 34.5649 125.003 32.6641 127.747 32.6641C130.49 32.6641 132.508 34.5649 132.508 37.1488C132.508 39.7327 130.49 41.6394 127.747 41.6394C125.003 41.6394 122.979 39.7386 122.979 37.1488ZM130.059 37.1488C130.034 36.6932 129.877 36.2552 129.607 35.8888C129.337 35.5223 128.966 35.2435 128.54 35.0869C128.115 34.9303 127.653 34.9026 127.212 35.0074C126.771 35.1122 126.37 35.3448 126.059 35.6765C125.748 36.0081 125.54 36.4243 125.461 36.8736C125.382 37.3229 125.436 37.7856 125.616 38.2045C125.795 38.6234 126.093 38.9801 126.471 39.2306C126.85 39.4811 127.294 39.6143 127.747 39.6139C128.063 39.617 128.376 39.5544 128.667 39.4298C128.958 39.3052 129.221 39.1215 129.438 38.89C129.655 38.6585 129.822 38.3844 129.929 38.0847C130.036 37.7851 130.081 37.4664 130.059 37.1488Z" fill="#263238"/>
<path d="M141.517 41.4668V36.893L139.311 40.6173H138.237L136.042 37.0177V41.4668H133.8V32.8359H135.8L138.809 37.8137L141.759 32.8359H143.754V41.4668H141.517Z" fill="#263238"/>
<path d="M153.182 36.0317C153.182 37.9859 151.712 39.2096 149.376 39.2096H147.877V41.4668H145.458V32.8359H149.376C151.712 32.8359 153.182 34.0536 153.182 36.0317ZM150.733 36.0317C150.733 35.2298 150.232 34.7605 149.229 34.7605H147.877V37.285H149.229C150.232 37.285 150.733 36.8276 150.733 36.0317Z" fill="#263238"/>
<path d="M159.672 39.7979H156.043L155.371 41.479H152.898L156.68 32.8481H159.07L162.84 41.4671H160.321L159.672 39.7979ZM158.958 38.0159L157.854 35.2598L156.757 38.0159H158.958Z" fill="#263238"/>
<path d="M171.69 32.8359V41.4668H169.696L165.914 36.8692V41.4668H163.554V32.8359H165.548L169.33 37.4216V32.8359H171.69Z" fill="#263238"/>
<path d="M178.003 38.372V41.4668H175.578V38.3364L172.31 32.8359H174.87L176.906 36.2633L178.935 32.8359H181.295L178.003 38.372Z" fill="#263238"/>
<path d="M97.0669 44.4668H197.916L197.91 47.3655H97.0728L97.0669 44.4668Z" fill="#044CA0"/>
<path d="M213.686 137.291C210.518 141.592 209.291 143.57 208.064 144.787C206.724 146.118 193.048 145.102 191.396 144.407C190.134 143.873 191.007 142.221 191.603 142.305C193.856 142.619 202.317 141.117 204.825 140.024C205.261 139.828 209.545 134.583 209.545 134.583L213.686 137.291Z" fill="#FFB573"/>
<path d="M208.482 134.446C211.161 129.498 216.442 125.869 218.04 125.661C220.341 125.358 221.114 125.821 220.442 127.68C219.297 130.846 217.191 134.173 214.223 138.2L208.482 134.446Z" fill="#044CA0"/>
<g opacity="0.1">
<path d="M208.482 134.446C211.161 129.498 216.442 125.869 218.04 125.661C220.341 125.358 221.114 125.821 220.442 127.68C219.297 130.846 217.191 134.173 214.223 138.2L208.482 134.446Z" fill="black"/>
</g>
<path d="M218.041 125.66C219.334 125.187 220.654 124.79 221.994 124.472C224.441 123.88 226.927 123.467 229.434 123.237C230.892 123.079 232.357 122.998 233.823 122.993C233.972 122.991 234.121 123.007 234.266 123.041C234.818 123.179 235.295 123.528 235.598 124.013C235.9 124.498 236.004 125.082 235.888 125.643C233.428 138.74 233.31 144.55 233.664 151.297L218.69 151.832C218.499 151.833 218.315 151.765 218.17 151.641C218.025 151.517 217.929 151.344 217.899 151.155C217.232 147.757 215.161 140.207 215.161 140.207C213.291 138.396 212.978 136.162 212.801 134.861C212.695 134.155 214.265 133.388 215.97 129.646C215.94 129.646 217.274 125.928 218.041 125.66Z" fill="#044CA0"/>
<path d="M227.504 151.505L222.047 151.707C221.232 145.173 221.386 139.406 221.669 132.907C223.292 139.204 225.24 145.412 227.504 151.505Z" fill="#263238"/>
<path d="M229.085 201.758C228.95 201.455 228.814 201.164 228.684 200.819C222.796 186.652 218.3 158.004 218.3 158.004L228.796 152.658C228.796 152.658 231.782 177.831 235.876 194.208C236.502 196.703 237.145 198.96 237.812 200.938L230.643 204.253L229.085 201.758Z" fill="#FFB573"/>
<g opacity="0.8">
<path d="M229.085 201.758C228.95 201.455 228.814 201.164 228.684 200.819C222.796 186.652 218.3 158.004 218.3 158.004L228.796 152.658C228.796 152.658 231.782 177.831 235.876 194.208C236.502 196.703 237.145 198.96 237.812 200.938L230.643 204.253L229.085 201.758Z" fill="#263238"/>
</g>
<path d="M219.073 154.309C219.073 154.309 214.271 188.167 215.403 202.013C216.583 216.608 220.89 241.597 220.89 241.597L224.43 241.354C225.632 228.319 225.337 215.188 223.551 202.221C231.664 181.199 232.572 154.844 232.572 154.844L219.073 154.309Z" fill="#FFB573"/>
<path opacity="0.8" d="M219.073 154.309C219.073 154.309 214.271 188.167 215.403 202.013C216.583 216.608 220.89 241.597 220.89 241.597L224.43 241.354C225.632 228.319 225.337 215.188 223.551 202.221C231.664 181.199 232.572 154.844 232.572 154.844L219.073 154.309Z" fill="#263238"/>
<path d="M224.89 242.471C225.137 242.944 225.272 243.469 225.286 244.003C225.38 245.957 225.516 251.167 225.516 251.167L225.091 251.197C225.091 251.197 224.831 248.642 224.536 247.365C224.241 246.088 224.047 247.187 223.398 248.583C222.749 249.979 220.926 251.41 218.153 251.672C214.902 251.975 213.574 251.915 214.465 250.995C215.356 250.074 217.486 249.385 217.486 249.385C217.486 249.385 220.318 244.508 220.153 241.217C219.976 237.707 224.005 241.003 224.784 240.51C225.062 240.57 224.731 242.186 224.89 242.471Z" fill="#263238"/>
<path d="M236.112 195.426C234.053 195.872 232.224 197.398 226.814 197.945H226.489C226.259 197.945 226.023 197.986 225.776 197.998C224.324 198.075 216.011 197.683 214.471 196.774C215.81 182.845 218.448 153.246 218.448 153.246L224.79 152.486L232.974 152.236C232.974 152.236 242.001 161.622 239.924 170.139C236.826 182.881 238.36 184.859 236.112 195.426Z" fill="#263238"/>
<path d="M233.587 144.603C233.37 144.384 233.205 144.119 233.103 143.827C233 143.535 232.964 143.224 232.997 142.916C232.997 142.916 232.997 141.978 232.967 140.54C232.92 136.382 232.885 128.066 233.316 126.962C234.26 124.586 235.876 123.285 236.72 124.675C237.711 126.302 237.782 138.651 237.782 138.651C237.528 146.825 234.555 145.744 233.587 144.603Z" fill="#FFB573"/>
<path d="M231.623 122.75L231.127 123.647C229.215 127.116 224.79 131.636 223.062 132.076C222.658 131.134 222.037 130.304 221.25 129.652C220.79 129.881 220.382 130.202 220.049 130.595C219.716 130.988 219.466 131.446 219.315 131.939C217.834 129.516 217.964 126.451 218.336 124.936C219.209 124.669 220.141 124.395 221.026 124.176C223.475 123.605 225.962 123.208 228.466 122.988C229.512 122.842 230.566 122.762 231.623 122.75Z" fill="#044CA0"/>
<path opacity="0.8" d="M231.622 122.75L231.127 123.647C229.215 127.116 224.79 131.636 223.061 132.076C222.736 131.234 222.462 130.373 222.241 129.498C221.315 129.961 220.631 131.28 220.324 132.278C218.837 129.854 217.964 126.451 218.335 124.936C219.209 124.669 220.141 124.395 221.026 124.176C223.475 123.605 225.961 123.208 228.466 122.988C229.512 122.842 230.566 122.762 231.622 122.75Z" fill="white"/>
<path d="M220.235 139.744L218.182 136.94L216.347 140.599C216.347 140.599 218.223 141.657 219.781 141.3L220.235 139.744Z" fill="#FFB573"/>
<path d="M214.931 136.079L214.058 139.037L216.347 140.582L218.182 136.94L214.931 136.079Z" fill="#FFB573"/>
<path d="M233.64 153.02L226.059 153.228H225.421L223.781 153.276H223.156L218.701 153.394C218.566 153.394 218.442 153.323 218.436 153.234L218.259 151.797C218.259 151.702 218.371 151.612 218.524 151.606L222.926 151.428H223.451L225.628 151.345H226.141L233.445 151.054C233.496 151.048 233.546 151.056 233.593 151.076C233.639 151.095 233.68 151.127 233.711 151.167L233.888 152.8C233.959 152.895 233.829 153.014 233.64 153.02Z" fill="#044CA0"/>
<path opacity="0.2" d="M233.64 153.02L226.059 153.228H225.421L223.781 153.276H223.156L218.701 153.394C218.566 153.394 218.442 153.323 218.436 153.234L218.259 151.797C218.259 151.702 218.371 151.612 218.524 151.606L222.926 151.428H223.451L225.628 151.345H226.141L233.445 151.054C233.496 151.048 233.546 151.056 233.593 151.076C233.639 151.095 233.68 151.127 233.711 151.167L233.888 152.8C233.959 152.895 233.829 153.014 233.64 153.02Z" fill="white"/>
<path d="M220.814 153.555H221.297C221.317 153.559 221.336 153.559 221.356 153.555C221.375 153.551 221.393 153.543 221.409 153.531C221.424 153.519 221.437 153.504 221.447 153.486C221.456 153.469 221.461 153.45 221.463 153.43L221.191 151.393C221.191 151.333 221.097 151.28 220.997 151.28H220.513C220.412 151.28 220.342 151.339 220.348 151.399L220.619 153.442C220.635 153.479 220.663 153.51 220.698 153.531C220.733 153.551 220.773 153.559 220.814 153.555Z" fill="#263238"/>
<path d="M229.262 153.43H229.722C229.74 153.434 229.758 153.435 229.776 153.432C229.794 153.429 229.811 153.422 229.826 153.412C229.84 153.402 229.853 153.389 229.863 153.373C229.873 153.358 229.879 153.341 229.882 153.323L229.604 151.274C229.604 151.22 229.51 151.167 229.422 151.173H228.961C228.867 151.173 228.802 151.22 228.808 151.286L229.079 153.317C229.085 153.388 229.168 153.43 229.262 153.43Z" fill="#263238"/>
<path d="M231.776 162.227L230.596 161.805L235.847 145.987C236.685 143.475 236.366 141.075 233.269 139.976C230.372 138.948 228.094 140.415 227.251 142.946L221.941 158.717L220.761 158.295L226.071 142.536C227.05 139.619 228.938 137.641 233.493 139.263C238.048 140.885 237.959 143.498 236.986 146.427L231.776 162.227Z" fill="#044CA0"/>
<path d="M234.743 171.987L211.733 163.671L216.949 148.334C217.065 147.978 217.25 147.65 217.493 147.367C217.736 147.085 218.033 146.854 218.366 146.688C218.698 146.522 219.061 146.424 219.431 146.401C219.802 146.378 220.174 146.429 220.524 146.552L237.292 152.551C238.209 152.892 238.958 153.578 239.382 154.465C239.805 155.351 239.871 156.369 239.564 157.303L234.743 171.987Z" fill="#044CA0"/>
<path opacity="0.4" d="M232.195 171.072L214.265 164.585C213.587 164.329 213.037 163.815 212.731 163.154C212.426 162.493 212.389 161.738 212.63 161.051L216.955 148.334C217.071 147.978 217.256 147.65 217.499 147.367C217.742 147.085 218.039 146.854 218.372 146.688C218.704 146.522 219.067 146.424 219.437 146.401C219.808 146.378 220.18 146.429 220.53 146.552L237.298 152.551C238.215 152.892 238.964 153.578 239.388 154.465C239.811 155.351 239.877 156.369 239.57 157.303L235.611 169.343C235.504 169.686 235.33 170.004 235.099 170.277C234.868 170.551 234.585 170.775 234.267 170.936C233.948 171.097 233.6 171.193 233.244 171.216C232.888 171.239 232.532 171.19 232.195 171.072Z" fill="white"/>
<g opacity="0.3">
<path d="M231.776 162.227L230.85 163.041L230.608 161.805L235.859 145.987C236.696 143.475 236.378 141.075 233.28 139.976C230.383 138.948 228.106 140.415 227.262 142.946L221.952 158.717L220.997 159.518L220.79 158.295L226.1 142.536C227.079 139.619 228.967 137.641 233.522 139.263C238.077 140.885 237.989 143.498 237.015 146.427L231.776 162.227Z" fill="white"/>
</g>
<path d="M224.342 152.705L222.424 152.016L222.666 151.286L224.584 151.975L224.342 152.705Z" fill="#044CA0"/>
<path d="M222.749 157.446L220.826 156.756L221.073 156.026L222.991 156.715L222.749 157.446Z" fill="#044CA0"/>
<path d="M234.201 156.245L232.277 155.556L232.519 154.82L234.443 155.509L234.201 156.245Z" fill="#044CA0"/>
<path d="M232.626 161.004L230.696 160.309L230.938 159.572L232.867 160.267L232.626 161.004Z" fill="#044CA0"/>
<path d="M230.395 155.348L226.277 153.869L226.796 152.301L230.914 153.78L230.395 155.348Z" fill="white"/>
<path d="M235.363 145.334C233.516 146.403 226.047 145.197 219.728 141.372C219.433 141.188 219.138 141.211 219.026 141.14C218.631 140.849 219.616 140.178 220.206 139.869C220.531 139.703 234.472 141.479 235.434 141.609C236.525 144.472 235.54 144.437 235.363 145.334Z" fill="#FFB573"/>
<path d="M229.41 202.904C230.425 205.821 233.829 207.104 236.213 205.28C236.309 205.206 236.402 205.127 236.49 205.043C246.815 195.42 259.948 181.396 259.948 181.396L257.736 178.574C250 183.088 242.693 188.307 235.906 194.167C233.546 196.204 231.097 198.432 228.714 200.808L229.41 202.904Z" fill="#FFB573"/>
<path opacity="0.8" d="M229.41 202.904C230.425 205.821 233.829 207.104 236.213 205.28C236.309 205.206 236.402 205.127 236.49 205.043C246.815 195.42 259.948 181.396 259.948 181.396L257.736 178.574C250 183.088 242.693 188.307 235.906 194.167C233.546 196.204 231.097 198.432 228.714 200.808L229.41 202.904Z" fill="#263238"/>
<path d="M256.396 178.93C256.542 178.453 256.801 178.019 257.152 177.665C258.391 176.364 261.742 173.014 261.742 173.014L262.043 173.317C262.043 173.317 260.532 175.099 259.883 176.121C259.234 177.142 260.09 176.596 261.441 176.21C262.792 175.824 264.951 176.293 266.969 178.206C269.329 180.457 270.191 181.496 268.993 181.396C267.795 181.295 265.913 180.142 265.913 180.142C265.913 180.142 260.798 181.087 258.721 183.29C256.491 185.666 256.007 180.516 255.181 180.237C255.004 179.982 256.308 179.227 256.396 178.93Z" fill="#263238"/>
<path d="M220.961 122.316C222.07 123.647 222.932 125.286 221.457 127.217C221.133 127.629 220.962 128.141 220.973 128.666C221.008 129.504 221.563 130.288 224.112 128.494C227.829 125.904 227.321 123.308 227.321 123.308C225.244 122.821 223.734 118.556 223.097 116.139L220.961 122.316Z" fill="#FFB573"/>
<path opacity="0.2" d="M223.132 119.863C223.498 120.897 222.513 122.655 221.722 123.38C221.503 123.002 221.251 122.646 220.967 122.316L222.229 118.657C222.608 118.994 222.915 119.404 223.132 119.863Z" fill="black"/>
<path d="M212.094 110.977C211.102 114.856 212.577 119.109 215.297 122.031C218.047 118.996 223.245 119.655 226.136 116.757C228.071 114.832 228.425 111.601 227.227 109.141C225.941 106.492 222.141 103.938 219.144 104.354C215.787 104.823 212.926 107.71 212.094 110.977Z" fill="#263238"/>
<path d="M223.545 109.658C223.145 109.067 222.634 108.561 222.039 108.168C221.445 107.776 220.78 107.506 220.082 107.373C219.384 107.24 218.666 107.247 217.971 107.394C217.275 107.54 216.615 107.823 216.029 108.227C212.542 110.603 213.191 116.543 214.748 119.899C216.459 123.653 221.457 123.807 223.787 120.124C225.351 117.671 225.02 115.996 224.442 112.01C224.328 111.167 224.021 110.362 223.545 109.658Z" fill="#FFB573"/>
<path d="M216.719 117.974C216.534 118.062 216.333 118.107 216.129 118.107C215.925 118.107 215.724 118.062 215.539 117.974C215.882 117.249 216.122 116.48 216.253 115.688L216.719 117.974Z" fill="#ED893E"/>
<path d="M219.746 117.612C219.751 117.6 219.755 117.587 219.755 117.575C219.755 117.562 219.753 117.549 219.748 117.537C219.743 117.525 219.735 117.515 219.726 117.506C219.716 117.497 219.705 117.491 219.693 117.487C219.669 117.479 219.643 117.48 219.62 117.49C219.598 117.499 219.579 117.518 219.569 117.54C219.398 117.909 219.141 118.231 218.821 118.479C218.501 118.727 218.126 118.894 217.728 118.966C217.704 118.974 217.684 118.991 217.671 119.012C217.658 119.034 217.653 119.06 217.657 119.085C217.659 119.097 217.664 119.108 217.67 119.118C217.677 119.128 217.685 119.137 217.695 119.143C217.705 119.15 217.716 119.154 217.728 119.157C217.74 119.159 217.752 119.159 217.763 119.156C217.916 119.126 218.066 119.085 218.212 119.031C218.549 118.91 218.858 118.722 219.122 118.478C219.385 118.234 219.598 117.94 219.746 117.612Z" fill="#263238"/>
<path d="M216.943 106.415C216.63 106.92 216.429 107.487 216.353 108.078C220.961 109.147 224.359 114.018 225.669 118.633C226.914 116.982 229.357 114.962 230.307 112.978C231.363 110.751 229.953 108.226 227.829 106.979C225.948 106.045 223.995 105.268 221.988 104.656C221.072 104.344 220.08 104.348 219.166 104.666C218.253 104.984 217.471 105.6 216.943 106.415Z" fill="#263238"/>
<path d="M226.177 114.41C226.143 114.241 226.076 114.08 225.981 113.936C225.885 113.793 225.762 113.67 225.619 113.575C225.476 113.479 225.316 113.413 225.147 113.38C224.979 113.347 224.805 113.348 224.637 113.383C223.664 113.596 223.31 114.969 223.369 115.848C223.451 116.816 224.2 117.487 225.026 116.881C225.657 116.422 226.081 115.73 226.206 114.957C226.232 114.774 226.222 114.589 226.177 114.41Z" fill="#FFB573"/>
<path d="M218.584 114.048C218.69 114.434 218.583 114.808 218.312 114.879C218.041 114.951 217.775 114.689 217.675 114.285C217.575 113.881 217.675 113.525 217.94 113.46C218.206 113.394 218.477 113.626 218.584 114.048Z" fill="#263238"/>
<path d="M215.067 115.289C215.173 115.676 215.067 116.05 214.796 116.115C214.524 116.18 214.259 115.925 214.152 115.521C214.046 115.117 214.152 114.761 214.424 114.69C214.695 114.618 214.967 114.891 215.067 115.289Z" fill="#263238"/>
<path d="M214.542 114.695H213.545C213.545 114.695 214.212 115.277 214.542 114.695Z" fill="#263238"/>
<path d="M219.327 112.266C219.356 112.249 219.38 112.224 219.398 112.195C219.425 112.151 219.435 112.098 219.425 112.047C219.415 111.996 219.386 111.951 219.344 111.921C219.043 111.713 218.697 111.581 218.334 111.538C217.971 111.494 217.603 111.54 217.262 111.672C217.216 111.695 217.18 111.735 217.161 111.783C217.143 111.831 217.143 111.885 217.161 111.933C217.183 111.979 217.222 112.015 217.269 112.034C217.316 112.053 217.368 112.053 217.415 112.034C217.699 111.929 218.003 111.894 218.303 111.932C218.603 111.97 218.889 112.081 219.138 112.254C219.166 112.271 219.198 112.281 219.231 112.283C219.264 112.285 219.297 112.279 219.327 112.266Z" fill="#263238"/>
<path d="M213.398 114.386C213.421 114.361 213.44 114.333 213.457 114.303C213.561 114.018 213.731 113.761 213.952 113.555C214.174 113.348 214.44 113.198 214.731 113.115C214.782 113.106 214.827 113.078 214.857 113.035C214.887 112.993 214.899 112.941 214.89 112.889C214.885 112.864 214.874 112.84 214.859 112.818C214.844 112.797 214.825 112.779 214.803 112.765C214.781 112.751 214.757 112.742 214.731 112.738C214.706 112.734 214.679 112.735 214.654 112.741C214.3 112.836 213.974 113.014 213.702 113.261C213.43 113.507 213.221 113.816 213.091 114.161C213.08 114.184 213.074 114.209 213.072 114.235C213.071 114.261 213.075 114.287 213.084 114.311C213.093 114.335 213.106 114.358 213.124 114.377C213.141 114.396 213.162 114.411 213.185 114.422C213.22 114.436 213.258 114.441 213.295 114.436C213.333 114.431 213.368 114.416 213.398 114.392V114.386Z" fill="#263238"/>
<path d="M218.058 113.454H217.061C217.061 113.454 217.71 114.007 218.058 113.454Z" fill="#263238"/>
<path d="M212.855 116.578C213.309 119.019 215.274 122.387 217.368 123.706C215.958 124.781 213.433 123.564 211.946 122.607C211.216 122.102 210.602 121.446 210.143 120.683C209.684 119.92 209.392 119.067 209.285 118.182C209.079 116.406 209.318 114.607 209.981 112.949C211.064 110.264 212.858 107.93 215.167 106.201C215.616 105.833 216.383 105.542 216.678 106.041C216.884 106.385 216.648 106.819 216.424 107.145C214.247 110.317 212.536 112.551 212.855 116.578Z" fill="#263238"/>
<path d="M223.805 121.039H223.769C223.732 121.029 223.7 121.005 223.68 120.972C223.66 120.938 223.654 120.899 223.663 120.861C225.238 114.452 218.412 109.575 216.282 108.209C216.25 108.188 216.227 108.155 216.218 108.117C216.209 108.08 216.215 108.04 216.235 108.007C216.245 107.99 216.258 107.975 216.273 107.964C216.289 107.952 216.306 107.944 216.325 107.939C216.344 107.935 216.363 107.934 216.382 107.938C216.401 107.941 216.42 107.948 216.436 107.959C218.613 109.331 225.575 114.327 223.952 120.932C223.943 120.964 223.924 120.992 223.897 121.011C223.87 121.031 223.838 121.04 223.805 121.039Z" fill="#263238"/>
<path d="M225.003 116.394L224.873 118.657L225.475 119.156L225.77 118.461L225.003 116.394Z" fill="#044CA0"/>
<path d="M234.944 123.196C234.473 123.075 233.979 123.08 233.511 123.212C233.044 123.343 232.618 123.595 232.277 123.944C231.525 124.777 231.051 125.826 230.92 126.944C230.702 128.654 231.133 130.389 231.593 132.058C232.156 133.704 232.471 135.426 232.525 137.166C234.33 136.174 236.956 134.196 239.481 133.935C239.133 129.89 238.667 127.193 237.888 125.857C237.485 125.061 236.944 124.345 236.289 123.742C235.882 123.471 235.424 123.285 234.944 123.196Z" fill="#044CA0"/>
<g opacity="0.1">
<path d="M234.944 123.196C234.473 123.075 233.979 123.08 233.511 123.212C233.044 123.343 232.618 123.595 232.277 123.944C231.525 124.777 231.051 125.826 230.92 126.944C230.702 128.654 231.133 130.389 231.593 132.058C232.156 133.704 232.471 135.426 232.525 137.166C234.33 136.174 236.956 134.196 239.481 133.935C239.133 129.89 238.667 127.193 237.888 125.857C237.485 125.061 236.944 124.345 236.289 123.742C235.882 123.471 235.424 123.285 234.944 123.196Z" fill="white"/>
</g>
<path d="M191.945 142.263C191.945 142.263 187.491 143.005 187.432 143.207C187.373 143.409 187.396 145.934 187.396 145.934L191.396 144.407L191.945 142.263Z" fill="#FFB573"/>
<path d="M187.396 145.934L183.632 142.364L185.313 141.871L188.104 143.397L187.396 145.934Z" fill="#FFB573"/>
<path d="M73.7559 236.519L77.9626 236.288L78.3343 246.32L74.1276 246.546L73.7559 236.519Z" fill="#F7978D"/>
<path d="M79.367 245.411C80.6768 246.225 82.5707 246.938 86.0222 247.288C86.7892 247.366 87.037 249.13 85.2611 249.326C83.4852 249.522 80.3877 249.801 79.1015 249.92C77.007 250.146 76.2282 250.336 74.5762 250.544C74.3776 250.563 74.1792 250.503 74.0244 250.377C73.8697 250.25 73.7711 250.066 73.7502 249.866L73.5732 246.053C73.57 246.013 73.5748 245.972 73.5874 245.934C73.6 245.895 73.6201 245.86 73.6465 245.829C73.6729 245.799 73.705 245.774 73.7411 245.756C73.7771 245.739 73.8164 245.728 73.8564 245.726L78.6118 245.203C78.8795 245.187 79.145 245.26 79.367 245.411Z" fill="#263238"/>
<path opacity="0.2" d="M73.9447 241.693L78.1573 241.461L77.9626 236.293L73.7559 236.525L73.9447 241.693Z" fill="black"/>
<path d="M81.4202 245.768C81.4781 245.691 81.5146 245.599 81.526 245.503C81.5374 245.407 81.5233 245.31 81.4851 245.221C81.4656 245.16 81.4311 245.104 81.3847 245.059C81.3383 245.015 81.2815 244.983 81.2196 244.966C80.6827 244.817 79.5735 245.774 79.4496 245.887C79.4413 245.902 79.437 245.919 79.437 245.937C79.437 245.955 79.4413 245.972 79.4496 245.987C79.4573 246.006 79.4693 246.023 79.4847 246.037C79.5001 246.05 79.5184 246.06 79.5381 246.065C79.9165 246.106 80.2984 246.106 80.6768 246.065C80.9514 246.056 81.2143 245.951 81.4202 245.768ZM79.7682 245.887C80.2166 245.548 80.8892 245.085 81.1783 245.168C81.2074 245.177 81.2339 245.193 81.2555 245.215C81.2771 245.237 81.2931 245.263 81.3022 245.293C81.3356 245.347 81.3533 245.41 81.3533 245.474C81.3533 245.538 81.3356 245.6 81.3022 245.655C81.1252 245.887 80.5706 245.97 79.7918 245.898L79.7682 245.887Z" fill="#044CA0"/>
<path d="M79.5793 246.041C79.9746 245.738 80.5056 244.776 80.364 244.325C80.336 244.244 80.2829 244.175 80.2127 244.128C80.1425 244.081 80.0589 244.058 79.9746 244.063C79.8971 244.059 79.8198 244.074 79.749 244.106C79.6783 244.138 79.6161 244.186 79.5675 244.247C79.184 244.711 79.4377 245.928 79.4259 245.976C79.4274 245.992 79.4331 246.008 79.4424 246.021C79.4517 246.035 79.4643 246.046 79.479 246.053H79.5321L79.5793 246.041ZM79.951 244.259C80.0985 244.259 80.1634 244.33 80.1516 244.384C80.1428 244.902 79.9307 245.395 79.5616 245.756C79.462 245.292 79.5073 244.809 79.6914 244.372C79.7161 244.34 79.7474 244.314 79.783 244.296C79.8187 244.277 79.8579 244.267 79.8979 244.265L79.951 244.259Z" fill="#044CA0"/>
<path d="M40.5097 232.07L44.681 232.955L41.6425 242.459L37.4771 241.568L40.5097 232.07Z" fill="#F7978D"/>
<path d="M42.775 242.465C43.7485 243.653 45.7663 245.091 48.9405 246.504C49.6485 246.825 49.3358 248.572 47.5894 248.203C45.843 247.835 42.3797 246.95 41.0994 246.683C39.0403 246.243 38.2438 246.172 36.6095 245.857C36.5112 245.838 36.4178 245.799 36.3346 245.743C36.2514 245.687 36.1803 245.615 36.1253 245.531C36.0703 245.447 36.0326 245.352 36.0144 245.253C35.9962 245.154 35.998 245.053 36.0195 244.954L37.0284 241.271C37.0492 241.194 37.099 241.128 37.1672 241.087C37.2354 241.046 37.3168 241.033 37.3942 241.052L42.0788 242.049C42.351 242.104 42.5966 242.251 42.775 242.465Z" fill="#263238"/>
<path opacity="0.2" d="M38.9458 236.971L43.1112 237.856L44.6806 232.961L40.5093 232.076L38.9458 236.971Z" fill="black"/>
<path d="M66.9946 143.154C66.9946 143.154 71.4314 181.806 71.7677 196.258C72.0804 209.569 71.8621 239.026 71.8621 239.026L79.5321 238.664C79.5321 238.664 82.724 211.298 83.6621 197.88C84.4999 185.602 81.8921 146.314 81.8921 146.314L66.9946 143.154Z" fill="#044CA0"/>
<path opacity="0.2" d="M68.8179 158.402C69.5023 166.398 70.4345 176.686 71.2841 185.293C73.0541 180.315 74.1161 167.782 72.0157 160.101C70.7472 155.426 69.6203 156.454 68.8179 158.402Z" fill="black"/>
<path d="M70.6055 237.482L80.4998 236.721L80.0455 239.994L71.7206 240.689L70.6055 237.482Z" fill="#263238"/>
<path d="M58.31 144.645C58.31 144.645 51.1474 180.22 48.6753 194.458C46.392 207.573 37.4653 235.384 37.4653 235.384L45.0763 237.006C45.0763 237.006 57.7259 208.868 61.2305 195.878C64.4342 183.998 72.4405 147.651 72.4405 147.651L58.31 144.645Z" fill="#044CA0"/>
<path d="M37.2587 232.777L47.5129 234.488L46.445 237.303L37.1348 235.319L37.2587 232.777Z" fill="#263238"/>
<path d="M44.2503 243.059C44.3314 243.003 44.3958 242.926 44.4364 242.836C44.4769 242.746 44.4922 242.646 44.4804 242.548C44.4843 242.484 44.471 242.42 44.4419 242.362C44.4129 242.305 44.3691 242.256 44.3152 242.221C43.855 241.913 42.498 242.471 42.3446 242.536C42.3287 242.547 42.3152 242.561 42.305 242.577C42.2948 242.594 42.2882 242.612 42.2856 242.631C42.2868 242.65 42.2929 242.668 42.3033 242.684C42.3136 242.699 42.3279 242.712 42.3446 242.72C42.6901 242.887 43.052 243.016 43.4243 243.106C43.6964 243.191 43.9897 243.175 44.2503 243.059ZM42.675 242.625C43.2178 242.417 43.9848 242.21 44.209 242.388C44.2347 242.405 44.2552 242.429 44.2687 242.458C44.2822 242.486 44.288 242.517 44.2857 242.548C44.2949 242.612 44.2866 242.678 44.2616 242.737C44.2367 242.797 44.1961 242.848 44.1441 242.887C43.9081 243.035 43.3535 242.94 42.6396 242.637L42.675 242.625Z" fill="#044CA0"/>
<path d="M42.4152 242.727C42.8754 242.56 43.6896 241.824 43.6896 241.343C43.6896 241.257 43.6612 241.173 43.6088 241.106C43.5564 241.038 43.4831 240.99 43.4005 240.968C43.3278 240.941 43.2498 240.932 43.1728 240.941C43.0959 240.951 43.0223 240.978 42.958 241.022C42.4506 241.343 42.2972 242.566 42.2854 242.62C42.2834 242.635 42.2856 242.652 42.2918 242.666C42.298 242.681 42.3081 242.693 42.3208 242.703H42.368L42.4152 242.727ZM43.3356 241.164C43.4772 241.218 43.5067 241.289 43.4949 241.349C43.4949 241.663 42.9403 242.24 42.5155 242.471C42.5533 241.986 42.7481 241.527 43.0701 241.164C43.1039 241.143 43.1418 241.128 43.1814 241.122C43.221 241.116 43.2615 241.118 43.3002 241.129L43.3356 241.164Z" fill="#044CA0"/>
<path d="M44.3329 152.581C45.3241 151.583 45.4716 150.49 46.1029 149.332C46.5218 148.542 45.5542 148.851 46.5218 148.952C46.8807 149.031 47.2292 149.153 47.5602 149.314C48.398 149.641 49.2063 150.045 50.0559 150.348C50.7816 150.609 52.0855 150.49 52.705 150.853C53.708 151.447 52.7463 154.06 52.5339 154.904C52.2861 155.925 53.8378 156.46 54.0856 155.426C54.4514 153.953 55.3836 151.328 54.2567 149.944C53.5546 149.082 52.4867 149.255 51.5073 149.065C49.6724 148.708 47.7962 147.021 45.8728 147.223C45.5856 147.234 45.3082 147.331 45.076 147.501C44.8437 147.672 44.6672 147.908 44.5689 148.18C44.2621 148.857 44.4391 149.611 44.0379 150.324C43.827 150.695 43.5692 151.036 43.2709 151.34C42.5275 152.088 43.6013 153.33 44.3506 152.581H44.3329Z" fill="#044CA0"/>
<g opacity="0.3">
<path d="M44.3329 152.581C45.3241 151.583 45.4716 150.49 46.1029 149.332C46.5218 148.542 45.5542 148.851 46.5218 148.952C46.8807 149.031 47.2292 149.153 47.5602 149.314C48.398 149.641 49.2063 150.045 50.0559 150.348C50.7816 150.609 52.0855 150.49 52.705 150.853C53.708 151.447 52.7463 154.06 52.5339 154.904C52.2861 155.925 53.8378 156.46 54.0856 155.426C54.4514 153.953 55.3836 151.328 54.2567 149.944C53.5546 149.082 52.4867 149.255 51.5073 149.065C49.6724 148.708 47.7962 147.021 45.8728 147.223C45.5856 147.234 45.3082 147.331 45.076 147.501C44.8437 147.672 44.6672 147.908 44.5689 148.18C44.2621 148.857 44.4391 149.611 44.0379 150.324C43.827 150.695 43.5692 151.036 43.2709 151.34C42.5275 152.088 43.6013 153.33 44.3506 152.581H44.3329Z" fill="black"/>
</g>
<path d="M33.1785 148.38L62.6764 158.334C63.1571 158.496 63.5541 158.844 63.7801 159.301C64.006 159.758 64.0425 160.286 63.8814 160.77L58.59 176.664C58.312 177.499 57.716 178.189 56.933 178.581C56.15 178.974 55.2441 179.037 54.4148 178.757L27.563 169.696C26.7336 169.416 26.0486 168.816 25.6587 168.028C25.2689 167.239 25.206 166.327 25.484 165.492L30.7753 149.599C30.9354 149.118 31.2778 148.72 31.7278 148.491C32.1779 148.263 32.6993 148.223 33.1785 148.38Z" fill="#044CA0"/>
<path opacity="0.3" d="M33.1785 148.38L62.6764 158.334C63.1571 158.496 63.5541 158.844 63.7801 159.301C64.006 159.758 64.0425 160.286 63.8814 160.77L58.59 176.664C58.312 177.499 57.716 178.189 56.933 178.581C56.15 178.974 55.2441 179.037 54.4148 178.757L27.563 169.696C26.7336 169.416 26.0486 168.816 25.6587 168.028C25.2689 167.239 25.206 166.327 25.484 165.492L30.7753 149.599C30.9354 149.118 31.2778 148.72 31.7278 148.491C32.1779 148.263 32.6993 148.223 33.1785 148.38Z" fill="white"/>
<path d="M46.2535 160.654L41.6108 174.008L42.1677 174.205L46.8104 160.85L46.2535 160.654Z" fill="#044CA0"/>
<g opacity="0.3">
<path d="M46.2535 160.653L41.6108 174.008L42.1677 174.204L46.8104 160.849L46.2535 160.653Z" fill="black"/>
</g>
<path opacity="0.2" d="M62.1683 160.273L32.3969 150.229C31.9525 150.08 31.4676 150.115 31.0485 150.325C30.6294 150.535 30.3102 150.904 30.1608 151.351L29.9543 151.945C29.5353 153.207 29.6305 154.584 30.2189 155.774C30.8074 156.965 31.8412 157.871 33.0931 158.295L56.7757 166.32C57.396 166.529 58.0509 166.613 58.7033 166.566C59.3556 166.52 59.9925 166.345 60.5776 166.051C61.1628 165.757 61.6846 165.35 62.1135 164.853C62.5423 164.356 62.8697 163.779 63.0769 163.154L63.2834 162.56C63.362 162.336 63.3955 162.099 63.3818 161.862C63.3681 161.625 63.3075 161.394 63.2036 161.181C63.0998 160.968 62.9547 160.778 62.7769 160.622C62.5991 160.466 62.3922 160.347 62.1683 160.273Z" fill="black"/>
<path d="M62.8232 158.384L33.04 148.34C32.8196 148.265 32.5867 148.235 32.3548 148.251C32.1228 148.267 31.8962 148.329 31.688 148.434C31.4798 148.538 31.294 148.682 31.1413 148.859C30.9886 149.035 30.872 149.241 30.798 149.463L30.5915 150.057C30.1725 151.318 30.2677 152.695 30.8562 153.885C31.4447 155.076 32.4784 155.983 33.7303 156.406L57.4306 164.419C58.6817 164.837 60.0463 164.739 61.2253 164.145C62.4042 163.552 63.3013 162.512 63.72 161.253L63.9265 160.659C64.0036 160.437 64.0361 160.202 64.0223 159.967C64.0085 159.732 63.9485 159.502 63.8459 159.29C63.7433 159.079 63.6002 158.89 63.4246 158.734C63.2491 158.579 63.0447 158.46 62.8232 158.384Z" fill="#044CA0"/>
<path d="M62.8232 158.384L33.04 148.34C32.8196 148.265 32.5867 148.235 32.3548 148.251C32.1228 148.267 31.8962 148.329 31.688 148.434C31.4798 148.538 31.294 148.682 31.1413 148.859C30.9886 149.035 30.872 149.241 30.798 149.463L30.5915 150.057C30.1725 151.318 30.2677 152.695 30.8562 153.885C31.4447 155.076 32.4784 155.983 33.7303 156.406L57.4306 164.419C58.6817 164.837 60.0463 164.739 61.2253 164.145C62.4042 163.552 63.3013 162.512 63.72 161.253L63.9265 160.659C64.0036 160.437 64.0361 160.202 64.0223 159.967C64.0085 159.732 63.9485 159.502 63.8459 159.29C63.7433 159.079 63.6002 158.89 63.4246 158.734C63.2491 158.579 63.0447 158.46 62.8232 158.384Z" fill="#044CA0"/>
<path opacity="0.5" d="M62.8232 158.384L33.04 148.34C32.8196 148.265 32.5867 148.235 32.3548 148.251C32.1228 148.267 31.8962 148.329 31.688 148.434C31.4798 148.538 31.294 148.682 31.1413 148.859C30.9886 149.035 30.872 149.241 30.798 149.463L30.5915 150.057C30.1725 151.318 30.2677 152.695 30.8562 153.885C31.4447 155.076 32.4784 155.983 33.7303 156.406L57.4306 164.419C58.6817 164.837 60.0463 164.739 61.2253 164.145C62.4042 163.552 63.3013 162.512 63.72 161.253L63.9265 160.659C64.0036 160.437 64.0361 160.202 64.0223 159.967C64.0085 159.732 63.9485 159.502 63.8459 159.29C63.7433 159.079 63.6002 158.89 63.4246 158.734C63.2491 158.579 63.0447 158.46 62.8232 158.384Z" fill="white"/>
<path d="M39.0448 155.046L38.0602 154.714C37.4577 154.511 36.8056 154.838 36.6038 155.445L35.1046 159.95C34.9027 160.557 35.2275 161.213 35.83 161.417L36.8147 161.749C37.4172 161.952 38.0692 161.625 38.271 161.018L39.7703 156.512C39.9721 155.906 39.6473 155.249 39.0448 155.046Z" fill="#044CA0"/>
<path d="M55.082 160.453L54.0973 160.121C53.4948 159.918 52.8428 160.245 52.6411 160.851L51.1426 165.357C50.9409 165.964 51.2658 166.62 51.8684 166.824L52.8531 167.155C53.4556 167.359 54.1076 167.031 54.3093 166.425L55.8077 161.919C56.0095 161.312 55.6845 160.656 55.082 160.453Z" fill="#044CA0"/>
<path d="M39.0448 155.046L38.0602 154.714C37.4577 154.511 36.8056 154.838 36.6038 155.445L35.1046 159.95C34.9027 160.557 35.2275 161.213 35.83 161.417L36.8147 161.749C37.4172 161.952 38.0692 161.625 38.271 161.018L39.7703 156.512C39.9721 155.906 39.6473 155.249 39.0448 155.046Z" fill="white"/>
<path d="M55.082 160.453L54.0973 160.121C53.4948 159.918 52.8428 160.245 52.6411 160.851L51.1426 165.357C50.9409 165.964 51.2658 166.62 51.8684 166.824L52.8531 167.155C53.4556 167.359 54.1076 167.031 54.3093 166.425L55.8077 161.919C56.0095 161.312 55.6845 160.656 55.082 160.453Z" fill="white"/>
<path d="M87.2375 114.227C87.503 114.755 87.8275 115.385 88.1461 115.961C88.4647 116.537 88.7951 117.149 89.1314 117.743C89.8099 118.901 90.5002 120.042 91.2318 121.123C91.9394 122.172 92.7036 123.182 93.521 124.146C94.1835 124.958 94.9654 125.664 95.8397 126.237L95.9577 126.309H96.0108H96.1583C96.4867 126.303 96.8102 126.228 97.1082 126.089C98.1199 125.602 99.056 124.97 99.8871 124.212C100.875 123.367 101.806 122.456 102.672 121.485C103.12 120.986 103.569 120.493 103.999 119.977C104.43 119.46 104.873 118.913 105.256 118.438L105.327 118.343C105.673 117.853 106.196 117.518 106.784 117.41C107.372 117.302 107.978 117.429 108.475 117.764C108.971 118.099 109.318 118.615 109.442 119.204C109.566 119.792 109.457 120.406 109.138 120.915C107.677 123.604 105.894 126.101 103.828 128.352C102.66 129.612 101.312 130.689 99.8281 131.548C98.877 132.082 97.8341 132.431 96.7542 132.575C96.1002 132.657 95.4376 132.637 94.7895 132.516C94.4501 132.456 94.1164 132.367 93.7924 132.249C93.6309 132.202 93.4747 132.138 93.3263 132.059L92.9723 131.898C91.3829 131.066 89.9414 129.974 88.7066 128.667C87.6048 127.555 86.5853 126.364 85.6563 125.103C84.7477 123.873 83.8863 122.626 83.1193 121.343C82.7063 120.707 82.3405 120.084 81.9747 119.412C81.6089 118.741 81.2608 118.129 80.8891 117.387C80.678 116.967 80.551 116.51 80.5153 116.042C80.4796 115.573 80.5359 115.102 80.6811 114.655C80.8263 114.208 81.0575 113.795 81.3614 113.438C81.6654 113.081 82.0362 112.788 82.4526 112.575C82.8691 112.363 83.3231 112.235 83.7886 112.199C84.2542 112.163 84.7222 112.22 85.166 112.366C85.6097 112.512 86.0206 112.745 86.375 113.051C86.7294 113.357 87.0205 113.73 87.2316 114.149L87.2375 114.227Z" fill="#263238"/>
<path d="M107.221 120.238L110.566 121.461L110.336 117.529C110.336 117.529 106.855 116.288 106.395 118.123V118.984C106.386 119.254 106.462 119.519 106.609 119.743C106.757 119.968 106.971 120.141 107.221 120.238Z" fill="#F7978D"/>
<path d="M114.006 120.529L114.714 117.167L110.336 117.523L110.566 121.461L114.006 120.529Z" fill="#F7978D"/>
<path opacity="0.3" d="M88.2288 128.007C87.8394 127.55 87.4618 127.098 87.096 126.641C85.9557 125.168 84.9263 123.611 84.0162 121.984C83.1184 120.402 82.3108 118.77 81.5972 117.096C81.4969 116.858 81.4025 116.62 81.3081 116.383C83.0781 115.308 86.9013 115.836 88.1344 120.832C88.6287 123.195 88.6608 125.632 88.2288 128.007Z" fill="black"/>
<path d="M80.5649 149.385L58.3101 144.633C58.5697 142.596 60.3869 136.175 61.8029 127.805C62.689 122.032 63.1994 116.206 63.331 110.366C63.331 110.366 63.331 110.33 63.331 110.312C63.3505 109.952 63.4405 109.6 63.5956 109.275C63.7507 108.95 63.9679 108.66 64.2349 108.42C64.5018 108.18 64.8132 107.995 65.1511 107.876C65.4891 107.758 65.8469 107.707 66.2043 107.728H66.2515C67.638 107.811 69.3667 107.972 71.0364 108.239C74.2279 108.733 77.3894 109.408 80.5059 110.259C81.5329 110.59 82.538 110.987 83.5149 111.447C84.2005 111.743 84.7935 112.221 85.2308 112.83C85.6682 113.439 85.9336 114.155 85.9988 114.904C86.3941 119.846 86.2053 129.427 80.5649 149.385Z" fill="white"/>
<path d="M77.7562 113.514L77.119 114.797C77.0824 114.899 77.016 114.987 76.9287 115.051C76.8414 115.115 76.7371 115.15 76.6293 115.153L75.5201 115.058C75.3608 115.058 75.231 114.916 75.172 114.708L74.7236 113.169L76.3756 112.136L77.7562 113.514Z" fill="#044CA0"/>
<path d="M70.8003 107.865C69.0303 107.579 67.219 107.419 65.7558 107.324H65.7086H65.626C64.8684 107.302 64.1328 107.582 63.58 108.104C63.0272 108.626 62.7021 109.347 62.676 110.11C62.5363 116.276 62.0003 122.427 61.0712 128.524C58.9059 144.14 56.7642 147.247 56.7642 147.247L66.6703 149.094C69.6734 134.909 71.9803 115.533 71.7443 107.995L70.8003 107.865Z" fill="#263238"/>
<path opacity="0.3" d="M61.4014 126.326C62.1212 121.283 62.4339 116.08 62.5814 112.278C62.6283 112.228 62.6797 112.182 62.7348 112.141C63.9797 111.072 67.089 113.632 66.2394 118.426C65.4547 122.958 63.254 125.714 61.4014 126.326Z" fill="black"/>
<path d="M82.2405 152.658L76.2461 151.043C80.0103 124.461 80.8894 117.398 80.0398 109.95C81.5248 110.343 82.988 110.815 84.4235 111.363C85.174 111.73 85.8175 112.286 86.2911 112.977C86.7646 113.668 87.0522 114.471 87.1257 115.308C87.6331 119.454 84.4943 130.086 82.2405 152.658Z" fill="#263238"/>
<path d="M75.3314 141.675C75.4816 141.601 75.6449 141.558 75.8117 141.548C75.9786 141.538 76.1458 141.561 76.3037 141.617C76.4616 141.672 76.6071 141.758 76.7318 141.87C76.8566 141.982 76.9581 142.118 77.0306 142.269C77.1454 142.496 77.1908 142.751 77.161 143.004C77.1312 143.256 77.0277 143.494 76.8634 143.687C76.6992 143.88 76.4816 144.02 76.2385 144.088C75.9953 144.157 75.7374 144.151 75.4975 144.071C75.2576 143.992 75.0466 143.843 74.8912 143.642C74.7357 143.442 74.6429 143.2 74.6245 142.946C74.6061 142.693 74.6629 142.439 74.7877 142.218C74.9125 141.997 75.0997 141.819 75.3255 141.705L75.3314 141.675Z" fill="#263238"/>
<path d="M74.5822 143.511C74.4934 143.337 74.4395 143.146 74.4238 142.951C74.4081 142.756 74.4307 142.559 74.4904 142.373C74.5501 142.186 74.6458 142.014 74.7719 141.864C74.898 141.715 75.052 141.592 75.2253 141.503C75.3985 141.413 75.5881 141.358 75.7827 141.343C75.9773 141.328 76.1729 141.352 76.3581 141.414C76.5904 141.489 76.8008 141.62 76.9706 141.796C77.1405 141.972 77.2644 142.188 77.3315 142.424C77.3986 142.66 77.4068 142.909 77.3552 143.149C77.3037 143.389 77.1941 143.613 77.0362 143.8C76.8783 143.987 76.6769 144.132 76.4499 144.222C76.223 144.312 75.9775 144.344 75.7353 144.315C75.4931 144.287 75.2616 144.198 75.0615 144.058C74.8613 143.918 74.6987 143.73 74.5881 143.511H74.5822Z" fill="white"/>
<path d="M76.5291 112.165C71.7796 111.423 70.6704 108.233 70.6704 108.233C73.1661 106.6 73.5496 100.832 73.4965 97.6123L75.5792 100.267L78.423 103.885C78.2285 104.329 78.0571 104.783 77.9097 105.245C77.3197 107.087 77.4554 108.91 80.0691 110.152C80.0691 110.152 80.5765 112.783 76.5291 112.165Z" fill="#F7978D"/>
<path d="M69.7854 107.669L71.343 107.443C72.5863 109.355 74.2549 110.949 76.2164 112.1C75.1787 112.519 74.2891 113.241 73.6617 114.173C69.0302 111.405 69.7854 107.669 69.7854 107.669Z" fill="white"/>
<path d="M80.1045 109.89L78.8182 109.296C78.8182 109.296 77.6795 112.005 76.2104 112.106C78.4347 113.567 78.5704 114.856 78.5704 114.856C82.2993 114.476 80.1045 109.89 80.1045 109.89Z" fill="white"/>
<path opacity="0.2" d="M78.0633 104.811L75.3375 101.366C75.2157 101.8 75.1405 102.246 75.1133 102.697C75.0248 104.063 76.4349 105.792 77.6621 106.338L78.0633 104.811Z" fill="black"/>
<path d="M81.0544 98.521C81.0544 98.521 81.2019 100.659 83.4144 99.8397C83.5088 97.5646 84.2522 97.7369 85.0192 96.4004C85.5172 95.6632 85.8076 94.804 85.8596 93.9139C85.9115 93.0239 85.723 92.1363 85.3142 91.3455L83.9041 90.6267C78.4053 88.9101 81.0544 98.521 81.0544 98.521Z" fill="#263238"/>
<path opacity="0.6" d="M81.0544 98.521C81.0544 98.521 81.2019 100.659 83.4144 99.8397C83.5088 97.5646 84.2522 97.7369 85.0192 96.4004C85.5172 95.6632 85.8076 94.804 85.8596 93.9139C85.9115 93.0239 85.723 92.1363 85.3142 91.3455L83.9041 90.6267C78.4053 88.9101 81.0544 98.521 81.0544 98.521Z" fill="white"/>
<path d="M75.3078 89.8725C76.2922 88.7622 77.6744 88.0908 79.1503 88.0062C80.6262 87.9215 82.0751 88.4305 83.1784 89.4211C86.6063 92.3495 85.4027 98.5865 83.4734 101.966C82.9874 102.85 82.271 103.583 81.4015 104.087C80.532 104.59 79.5425 104.846 78.5395 104.825C77.5366 104.804 76.5583 104.508 75.7101 103.969C74.862 103.429 74.1762 102.667 73.7266 101.764C72.3047 98.9964 73.0599 96.6144 74.0098 92.4564C74.2114 91.4959 74.6588 90.6052 75.3078 89.8725Z" fill="#F7978D"/>
<path d="M73.3375 96.2282C73.3375 96.2282 73.8921 98.0755 75.8981 97.0895C75.55 95.0936 76.3052 95.1471 76.8008 93.8819C77.1422 93.1519 77.26 92.3361 77.1392 91.5385C77.0183 90.7408 76.6643 89.9975 76.1223 89.4031L74.606 88.9576C67.3962 88.2745 73.3375 96.2282 73.3375 96.2282Z" fill="#263238"/>
<path opacity="0.6" d="M73.3375 96.2282C73.3375 96.2282 73.8921 98.0755 75.8981 97.0895C75.55 95.0936 76.3052 95.1471 76.8008 93.8819C77.1422 93.1519 77.26 92.3361 77.1392 91.5385C77.0183 90.7408 76.6643 89.9975 76.1223 89.4031L74.606 88.9576C67.3962 88.2745 73.3375 96.2282 73.3375 96.2282Z" fill="white"/>
<path d="M80.494 84.8294C80.1223 84.6927 79.7212 84.6575 79.3316 84.7274C78.9419 84.7973 78.5776 84.9698 78.2756 85.2274C77.8803 85.5719 77.4968 86.1005 76.9835 85.9996C76.7322 85.9085 76.503 85.7647 76.3109 85.5778C75.4849 84.9838 74.2813 85.2392 73.4789 85.8689C72.7263 86.5594 72.1028 87.3802 71.6381 88.2924C71.1736 89.2113 70.4648 89.9824 69.5908 90.5199C70.4095 90.9135 71.3014 91.1286 72.2084 91.1511C73.1153 91.1736 74.0167 91.0031 74.8536 90.6506C74.383 91.2357 73.7374 91.6523 73.0128 91.8386C74.6786 92.3181 76.4607 92.1725 78.0278 91.4287C78.9069 91.007 79.7211 90.3952 80.6828 90.2407C81.6445 90.0863 82.8245 90.5971 82.913 91.5713C82.9659 91.4518 83.0425 91.3444 83.1383 91.256C83.234 91.1675 83.3467 91.0997 83.4695 91.0568C83.5922 91.0139 83.7224 90.9969 83.852 91.0067C83.9816 91.0165 84.1078 91.053 84.2228 91.1139C84.6774 91.3951 85.0357 91.8097 85.2494 92.3019C85.461 92.7907 85.7968 93.2148 86.2229 93.5315C86.4407 93.6801 86.7081 93.7361 86.9667 93.6871C87.2253 93.6382 87.4542 93.4883 87.6035 93.2701C87.2521 93.2415 86.9224 93.0875 86.6737 92.836C86.4249 92.5845 86.2735 92.2519 86.2465 91.898C86.7648 92.1895 87.3683 92.2883 87.9516 92.1771C87.1846 92.1296 85.6801 89.3675 85.45 88.6131C85.2608 87.8553 84.8322 87.1799 84.2287 86.6886C83.5089 86.1896 82.7832 87.0569 82.1047 86.6886C81.4262 86.3203 81.261 85.1204 80.494 84.8294Z" fill="#263238"/>
<path d="M79.5384 99.8337C78.9873 99.3706 78.6414 98.7061 78.5767 97.9863L79.7567 98.4615C80.2582 98.6575 81.6978 99.2694 81.3792 100.065C81.0606 100.861 79.9219 100.148 79.5384 99.8337Z" fill="#263238"/>
<path d="M82.925 101.14C83.2812 101.133 83.6324 101.054 83.9584 100.909C84.2844 100.765 84.5788 100.556 84.8248 100.297L83.5917 99.9168C83.0784 99.7565 81.5739 99.3228 81.3261 100.16C81.0783 100.998 82.4235 101.146 82.925 101.14Z" fill="#263238"/>
<path d="M81.2905 99.7922C81.5303 99.9447 81.8001 100.043 82.0813 100.08C82.3625 100.117 82.6484 100.092 82.9189 100.006C82.5259 98.9256 82.2798 97.7967 82.1873 96.6499L81.2905 99.7922Z" fill="#FF5652"/>
<path d="M73.5735 93.3649C74.5765 93.7035 74.9718 95.3964 74.9246 96.4537C74.8715 97.6417 74.0986 98.3723 73.2313 97.6417C72.5633 97.0159 72.1317 96.1762 72.01 95.2657C71.8566 94.0777 72.5705 93.0204 73.5735 93.3649Z" fill="#F7978D"/>
<path d="M80.2404 95.2423C80.4528 95.3195 80.5354 95.6759 80.4469 95.9788C80.3584 96.2818 80.1047 96.4897 79.8923 96.4184C79.6799 96.3471 79.6091 96.0323 79.6799 95.6937C79.7507 95.3551 80.0221 95.171 80.2404 95.2423Z" fill="#263238"/>
<path d="M83.9633 96.276C84.1816 96.3472 84.2701 96.668 84.1757 97.0006C84.0813 97.3333 83.8276 97.5531 83.6152 97.4758C83.4028 97.3986 83.3084 97.0779 83.4028 96.7452C83.4972 96.4126 83.7804 96.2284 83.9633 96.276Z" fill="#263238"/>
<path d="M80.919 101.627C80.9453 101.63 80.9715 101.623 80.993 101.607C81.0146 101.592 81.0302 101.57 81.037 101.544C81.0406 101.518 81.0341 101.491 81.0188 101.469C81.0035 101.447 80.9805 101.431 80.9544 101.426C80.5251 101.366 80.1151 101.209 79.756 100.965C79.3969 100.72 79.0984 100.397 78.8835 100.018C78.8709 99.9941 78.85 99.9762 78.8249 99.9674C78.7997 99.9586 78.7722 99.9596 78.7478 99.9702C78.7244 99.9829 78.7065 100.004 78.6978 100.029C78.689 100.055 78.6901 100.082 78.7006 100.107C78.8931 100.458 79.1545 100.767 79.4688 101.014C79.7832 101.261 80.1441 101.442 80.5296 101.544C80.6535 101.574 80.7892 101.574 80.919 101.627Z" fill="#263238"/>
<path d="M83.8336 94.8443C83.8407 94.8774 83.8557 94.9081 83.8773 94.934C83.8989 94.9599 83.9264 94.9801 83.9575 94.9928C84.2046 95.0684 84.4313 95.1997 84.6204 95.3768C84.8096 95.5538 84.9561 95.7719 85.049 96.0145C85.0545 96.0399 85.065 96.0639 85.0801 96.085C85.0951 96.1061 85.1143 96.1238 85.1364 96.1372C85.1585 96.1506 85.1831 96.1592 85.2086 96.1626C85.2342 96.166 85.2602 96.1642 85.285 96.1571C85.3349 96.1406 85.3767 96.1057 85.4019 96.0594C85.4271 96.013 85.4338 95.9588 85.4207 95.9076C85.3123 95.6004 85.1343 95.3229 84.9008 95.0971C84.6673 94.8713 84.3847 94.7034 84.0755 94.6067C84.0246 94.5915 83.9699 94.5966 83.9227 94.621C83.8754 94.6453 83.8393 94.687 83.8218 94.7374C83.8139 94.7734 83.818 94.811 83.8336 94.8443Z" fill="#263238"/>
<path d="M79.5323 93.7871C79.559 93.8071 79.5899 93.8208 79.6226 93.8269C79.6553 93.8331 79.689 93.8317 79.7211 93.8227C79.9631 93.7313 80.2226 93.6962 80.48 93.7198C80.7374 93.7435 80.9863 93.8254 81.2079 93.9593C81.2487 93.9906 81.3 94.0043 81.3509 93.9976C81.4017 93.991 81.4478 93.9644 81.4793 93.9237C81.51 93.881 81.5228 93.8278 81.5151 93.7757C81.5074 93.7235 81.4797 93.6764 81.438 93.6445C81.1657 93.4685 80.8561 93.3596 80.5342 93.3266C80.2124 93.2936 79.8873 93.3374 79.5854 93.4545C79.5602 93.4624 79.5369 93.4755 79.5169 93.4929C79.4969 93.5102 79.4806 93.5315 79.469 93.5554C79.4574 93.5793 79.4507 93.6053 79.4495 93.6318C79.4482 93.6584 79.4523 93.685 79.4615 93.7099C79.4794 93.7404 79.5035 93.7667 79.5323 93.7871Z" fill="#263238"/>
<path d="M47.6428 145.471L46.8758 145.388C45.0704 146.261 47.0292 149.623 47.0292 149.623L52.3392 148.97L50.7993 147.188C49.9996 146.235 48.8722 145.622 47.6428 145.471Z" fill="#F7978D"/>
<path d="M52.5104 151.274L52.3334 148.963L47.0234 149.617L47.3184 152.355C47.3157 152.395 47.3157 152.434 47.3184 152.474C47.3439 152.578 47.3897 152.677 47.4532 152.763C47.5166 152.85 47.5965 152.922 47.6881 152.978C47.7797 153.033 47.8813 153.069 47.9869 153.085C48.0926 153.1 48.2003 153.095 48.3037 153.068L51.9204 152.112C52.0994 152.061 52.2558 151.951 52.3632 151.798C52.4707 151.646 52.5227 151.461 52.5104 151.274Z" fill="#F7978D"/>
<path d="M78.5764 135.783C78.5764 135.783 76.7297 140.256 75.9155 139.638C75.1013 139.02 73.2251 135.599 73.2192 135.527C73.2133 135.456 75.5203 115.058 75.5203 115.058L76.6235 115.153C76.1751 117.44 78.5764 135.783 78.5764 135.783Z" fill="#044CA0"/>
<path d="M48.1676 124.74C45.961 127.901 45.43 142.81 46.02 146.641C46.4867 146.115 47.1271 145.777 47.8225 145.689C48.5178 145.602 49.2211 145.771 49.802 146.166C49.8551 143.541 51.9673 134.161 52.8759 130.247C53.1365 129.146 53.7788 128.175 54.6872 127.509C58.5812 124.669 65.6316 119.05 66.4104 116.817C67.6671 113.253 66.5874 105.946 63.4604 108.192C60.4986 110.336 49.9199 122.192 48.1676 124.74Z" fill="#263238"/>
<path d="M224.701 49.5689C224.28 49.4696 223.867 49.3345 223.468 49.165C222.725 48.874 221.775 48.3809 220.778 47.8998C219.952 47.4869 219.062 47.2177 218.147 47.1038C217.444 47.0266 216.967 47.1038 216.902 46.9197C216.837 46.7356 217.25 46.391 218.082 46.2307C219.181 46.0806 220.299 46.2734 221.285 46.7831C222.21 47.2686 223.052 47.898 223.781 48.6482C224.359 49.2007 224.701 49.5689 224.701 49.5689Z" fill="#044CA0"/>
<path d="M229.032 46.0585L228.141 46.4089C227.61 46.6287 226.961 46.9376 226.194 47.2643C224.701 47.9296 223.427 48.6186 223.244 48.3157C223.15 48.1791 223.344 47.8405 223.775 47.4247C224.347 46.8797 225.01 46.4413 225.734 46.1298C226.476 45.806 227.292 45.6911 228.094 45.7971C228.337 45.8295 228.576 45.8872 228.808 45.9694L229.032 46.0585Z" fill="#044CA0"/>
<path d="M216.666 52.1888L216.424 52.0403C216.27 51.9393 216.04 51.8086 215.763 51.6601C215.063 51.2802 214.333 50.9603 213.58 50.7038C211.845 50.0742 210.294 50.2167 210.247 49.9494C210.247 49.8306 210.601 49.6287 211.273 49.5336C212.153 49.4305 213.045 49.53 213.881 49.8247C214.718 50.1212 215.465 50.6283 216.052 51.2978C216.23 51.4953 216.388 51.7102 216.524 51.9393L216.666 52.1888Z" fill="#044CA0"/>
<path d="M218.371 48.5769L217.745 48.9392L216.359 49.7174C215.315 50.3114 214.506 50.9707 214.306 50.7925C214.217 50.7034 214.306 50.4242 214.571 50.0619C214.931 49.5748 215.39 49.17 215.916 48.8739C216.446 48.5905 217.039 48.4474 217.639 48.4581C217.887 48.4666 218.133 48.5065 218.371 48.5769Z" fill="#044CA0"/>
<path d="M215.226 46.5216C215.226 46.5216 214.636 46.3137 213.739 45.9276C212.843 45.5415 211.633 45.0069 210.306 44.5674C209.188 44.1878 208.009 44.0226 206.83 44.0803C205.922 44.1337 205.344 44.3119 205.261 44.1456C205.178 43.9793 205.656 43.5516 206.671 43.2249C207.997 42.8795 209.396 42.9374 210.689 43.3912C211.934 43.8338 213.081 44.518 214.064 45.4049C214.472 45.7547 214.86 46.1275 215.226 46.5216Z" fill="#044CA0"/>
<path d="M219.214 41.4194L218.884 41.5144C218.666 41.5679 218.365 41.6629 218.005 41.7758C217.1 42.0769 216.214 42.4299 215.35 42.8331C213.332 43.7419 212.034 45.0903 211.757 44.8765C211.627 44.7755 211.792 44.2825 212.305 43.641C212.995 42.8147 213.86 42.155 214.836 41.7105C215.813 41.2669 216.884 41.0789 217.952 41.164C218.271 41.1867 218.587 41.2404 218.896 41.3244L219.214 41.4194Z" fill="#044CA0"/>
<path d="M82.5584 64.5737C82.1377 64.471 81.7255 64.3359 81.3253 64.1698C80.5819 63.8787 79.6261 63.3857 78.6349 62.8986C77.8056 62.4882 76.9144 62.2192 75.9976 62.1026C75.2955 62.0254 74.8176 62.1026 74.7527 61.9185C74.6878 61.7344 75.1008 61.3898 75.9327 61.2354C77.0317 61.0819 78.1509 61.2748 79.1364 61.7878C80.0626 62.2678 80.9054 62.8957 81.6321 63.647C82.2162 64.1995 82.5584 64.5737 82.5584 64.5737Z" fill="#044CA0"/>
<path d="M86.8891 61.063L85.9923 61.4135C85.4613 61.6273 84.8123 61.9362 84.0453 62.2688C82.5526 62.9282 81.2841 63.6172 81.0953 63.3202C80.995 63.1777 81.1956 62.845 81.6204 62.4233C82.1931 61.8797 82.8561 61.4414 83.5792 61.1284C84.3227 60.8089 85.1371 60.6941 85.9392 60.7957C86.1801 60.83 86.4173 60.8877 86.6472 60.968C86.7294 60.9952 86.8102 61.027 86.8891 61.063Z" fill="#044CA0"/>
<path d="M74.5228 67.1872L74.275 67.0387C74.1216 66.9377 73.8974 66.8071 73.6201 66.6586C72.9193 66.2808 72.1892 65.961 71.4371 65.7022C69.7025 65.1082 68.1449 65.2151 68.0977 64.9478C68.0977 64.829 68.4576 64.6271 69.1243 64.532C70.0066 64.4284 70.9008 64.53 71.738 64.829C72.5745 65.1229 73.3221 65.6281 73.9092 66.2962C74.0857 66.4936 74.2419 66.7085 74.3753 66.9377L74.5228 67.1872Z" fill="#044CA0"/>
<path d="M76.2218 63.5578L75.6023 63.9201L74.2158 64.7458C73.1656 65.3398 72.3632 65.9991 72.1626 65.815C72.0682 65.7318 72.1626 65.4526 72.4281 65.0844C72.7904 64.6086 73.2489 64.2158 73.7733 63.932C74.3005 63.6461 74.8915 63.5009 75.4902 63.5103C75.7351 63.4954 75.9809 63.5114 76.2218 63.5578Z" fill="#044CA0"/>
</svg>
