<svg width="60" height="60" viewBox="0 0 60 60" fill="none" xmlns="http://www.w3.org/2000/svg">
<rect width="60" height="60" rx="29.5" fill="#113573"/>
<g clip-path="url(#clip0_5043_2915)">
<path d="M28.625 24.5H31.375V25.875H28.625V24.5ZM28.625 19H31.375V20.375H28.625V19ZM28.625 27.25H31.375V28.625H28.625V27.25Z" fill="white"/>
<path d="M42.375 30V25.875C38.1831 25.8737 34.1216 27.3322 30.8883 30H29.1117C25.8784 27.3322 21.8169 25.8737 17.625 25.875V30C17.2603 30 16.9106 30.1449 16.6527 30.4027C16.3949 30.6606 16.25 31.0103 16.25 31.375V34.125C16.25 34.4897 16.3949 34.8394 16.6527 35.0973C16.9106 35.3551 17.2603 35.5 17.625 35.5V41C22.2204 40.9954 26.6452 42.7407 30 45.8812C33.3586 42.7466 37.7809 41.0023 42.375 41V35.5C42.7397 35.5 43.0894 35.3551 43.3473 35.0973C43.6051 34.8394 43.75 34.4897 43.75 34.125V31.375C43.75 31.0103 43.6051 30.6606 43.3473 30.4027C43.0894 30.1449 42.7397 30 42.375 30Z" fill="white"/>
<path d="M25.875 20.375C26.6344 20.375 27.25 19.7594 27.25 19C27.25 18.2406 26.6344 17.625 25.875 17.625C25.1156 17.625 24.5 18.2406 24.5 19C24.5 19.7594 25.1156 20.375 25.875 20.375Z" fill="white"/>
<path d="M34.125 20.375C34.8844 20.375 35.5 19.7594 35.5 19C35.5 18.2406 34.8844 17.625 34.125 17.625C33.3656 17.625 32.75 18.2406 32.75 19C32.75 19.7594 33.3656 20.375 34.125 20.375Z" fill="white"/>
<path d="M35.5 24.5H24.5C23.4063 24.4989 22.3577 24.064 21.5844 23.2906C20.811 22.5173 20.3761 21.4687 20.375 20.375V17.625C20.3761 16.5313 20.811 15.4827 21.5844 14.7094C22.3577 13.936 23.4063 13.5011 24.5 13.5H35.5C36.5937 13.5011 37.6423 13.936 38.4156 14.7094C39.189 15.4827 39.6239 16.5313 39.625 17.625V20.375C39.6239 21.4687 39.189 22.5173 38.4156 23.2906C37.6423 24.064 36.5937 24.4989 35.5 24.5ZM24.5 16.25C24.1353 16.25 23.7856 16.3949 23.5277 16.6527C23.2699 16.9106 23.125 17.2603 23.125 17.625V20.375C23.125 20.7397 23.2699 21.0894 23.5277 21.3473C23.7856 21.6051 24.1353 21.75 24.5 21.75H35.5C35.8647 21.75 36.2144 21.6051 36.4723 21.3473C36.7301 21.0894 36.875 20.7397 36.875 20.375V17.625C36.875 17.2603 36.7301 16.9106 36.4723 16.6527C36.2144 16.3949 35.8647 16.25 35.5 16.25H24.5Z" fill="white"/>
</g>
<defs>
<clipPath id="clip0_5043_2915">
<rect width="33" height="33" fill="white" transform="translate(13.5 13.5)"/>
</clipPath>
</defs>
</svg>
