<svg width="60" height="60" viewBox="0 0 60 60" fill="none" xmlns="http://www.w3.org/2000/svg">
<rect width="60" height="60" rx="29.5" fill="#113573"/>
<path d="M40.3474 18.9063L24.0662 16.0313C23.5439 15.9393 23.0064 16.0586 22.5721 16.3629C22.1377 16.6672 21.842 17.1315 21.7499 17.6538L18.0312 38.7788C17.9857 39.0375 17.9916 39.3028 18.0487 39.5593C18.1058 39.8158 18.2128 40.0585 18.3637 40.2736C18.5146 40.4887 18.7064 40.672 18.9282 40.8129C19.15 40.9538 19.3973 41.0497 19.6562 41.095L35.9374 43.97C36.1963 44.0157 36.4617 44.0098 36.7183 43.9529C36.9749 43.8959 37.2178 43.7889 37.4331 43.638C37.6483 43.487 37.8317 43.2952 37.9727 43.0733C38.1137 42.8514 38.2096 42.604 38.2549 42.345L41.9737 21.22C42.0648 20.6975 41.9446 20.1603 41.6397 19.7264C41.3347 19.2925 40.8699 18.9975 40.3474 18.9063ZM30.9374 30.445C30.8966 30.6763 30.7757 30.8859 30.5958 31.037C30.4159 31.1881 30.1886 31.271 29.9537 31.2713C29.895 31.2712 29.8365 31.2662 29.7787 31.2563L24.5912 30.34C24.3446 30.2794 24.1304 30.1272 23.9919 29.9144C23.8534 29.7017 23.801 29.4442 23.8454 29.1942C23.8898 28.9442 24.0275 28.7205 24.2308 28.5683C24.4341 28.4162 24.6876 28.3471 24.9399 28.375L30.1249 29.2863C30.2544 29.3089 30.3781 29.3568 30.4891 29.4274C30.6 29.4979 30.6959 29.5896 30.7714 29.6972C30.8469 29.8048 30.9004 29.9262 30.9289 30.0546C30.9573 30.1829 30.9602 30.3156 30.9374 30.445ZM36.8124 27.4225C36.7716 27.6536 36.6509 27.863 36.4713 28.0141C36.2916 28.1651 36.0646 28.2482 35.8299 28.2488C35.7708 28.2488 35.7118 28.2434 35.6537 28.2325L25.2787 26.4013C25.0174 26.355 24.7853 26.2069 24.6332 25.9894C24.4812 25.772 24.4218 25.5031 24.468 25.2419C24.5143 24.9806 24.6624 24.7485 24.8798 24.5964C25.0973 24.4444 25.3662 24.385 25.6274 24.4313L36.0024 26.2638C36.132 26.2863 36.2559 26.3341 36.367 26.4045C36.478 26.475 36.5741 26.5667 36.6497 26.6743C36.7253 26.7819 36.7789 26.9034 36.8075 27.0318C36.836 27.1602 36.839 27.293 36.8162 27.4225H36.8124ZM37.5062 23.4825C37.4654 23.7138 37.3444 23.9234 37.1645 24.0745C36.9846 24.2256 36.7573 24.3085 36.5224 24.3088C36.4638 24.3086 36.4052 24.3036 36.3474 24.2938L25.9724 22.4613C25.8401 22.4418 25.7131 22.396 25.5988 22.3265C25.4845 22.2571 25.3853 22.1654 25.307 22.057C25.2288 21.9485 25.1731 21.8255 25.1433 21.6951C25.1134 21.5648 25.11 21.4298 25.1332 21.2981C25.1565 21.1664 25.2059 21.0407 25.2786 20.9284C25.3513 20.8162 25.4457 20.7197 25.5564 20.6445C25.667 20.5694 25.7916 20.5173 25.9227 20.4912C26.0539 20.465 26.1889 20.4655 26.3199 20.4925L36.6949 22.3238C36.8246 22.3461 36.9486 22.3938 37.0598 22.4642C37.1711 22.5346 37.2673 22.6263 37.343 22.7339C37.4187 22.8416 37.4724 22.9631 37.5011 23.0916C37.5297 23.22 37.5327 23.3529 37.5099 23.4825H37.5062Z" fill="white"/>
</svg>
