<svg width="590" height="590" viewBox="0 0 590 590" fill="none" xmlns="http://www.w3.org/2000/svg">
<path d="M590 451.232H0V451.527H590V451.232Z" fill="#EBEBEB"/>
<path d="M281.312 398.604H53.4541C51.6671 398.604 49.9533 397.894 48.6898 396.631C47.4262 395.367 46.7163 393.653 46.7163 391.866V71.5788C46.7319 69.8021 47.4486 68.1034 48.7105 66.8526C49.9724 65.6017 51.6773 64.9 53.4541 64.9H281.312C282.197 64.9 283.073 65.0743 283.891 65.4129C284.708 65.7515 285.451 66.2478 286.076 66.8735C286.702 67.4991 287.198 68.2419 287.537 69.0594C287.876 69.8768 288.05 70.753 288.05 71.6378V391.866C288.05 392.751 287.876 393.627 287.537 394.445C287.198 395.262 286.702 396.005 286.076 396.631C285.451 397.256 284.708 397.753 283.891 398.091C283.073 398.43 282.197 398.604 281.312 398.604ZM53.4541 65.136C51.7463 65.1391 50.1094 65.8189 48.9018 67.0265C47.6942 68.2341 47.0144 69.871 47.0113 71.5788V391.866C47.0144 393.574 47.6942 395.211 48.9018 396.419C50.1094 397.626 51.7463 398.306 53.4541 398.309H281.312C283.02 398.306 284.657 397.626 285.864 396.419C287.072 395.211 287.752 393.574 287.755 391.866V71.5788C287.752 69.871 287.072 68.2341 285.864 67.0265C284.657 65.8189 283.02 65.1391 281.312 65.136H53.4541Z" fill="#EBEBEB"/>
<path d="M536.546 398.604H308.688C306.901 398.604 305.187 397.894 303.924 396.631C302.66 395.367 301.95 393.653 301.95 391.866V71.5788C301.966 69.8021 302.682 68.1034 303.944 66.8526C305.206 65.6017 306.911 64.9 308.688 64.9H536.546C538.333 64.9 540.047 65.6099 541.31 66.8735C542.574 68.1371 543.284 69.8508 543.284 71.6378V391.866C543.284 393.653 542.574 395.367 541.31 396.631C540.047 397.894 538.333 398.604 536.546 398.604ZM308.688 65.136C306.98 65.1391 305.343 65.8189 304.136 67.0265C302.928 68.2341 302.248 69.871 302.245 71.5788V391.866C302.248 393.574 302.928 395.211 304.136 396.419C305.343 397.626 306.98 398.306 308.688 398.309H536.546C538.254 398.306 539.891 397.626 541.098 396.419C542.306 395.211 542.986 393.574 542.989 391.866V71.5788C542.986 69.871 542.306 68.2341 541.098 67.0265C539.891 65.8189 538.254 65.1391 536.546 65.136H308.688Z" fill="#EBEBEB"/>
<path d="M590 451.232H0V451.527H590V451.232Z" fill="#EBEBEB"/>
<path d="M530.882 470.218H491.8V470.513H530.882V470.218Z" fill="#EBEBEB"/>
<path d="M390.84 473.428H380.585V473.723H390.84V473.428Z" fill="#EBEBEB"/>
<path d="M490.62 459.268H467.976V459.563H490.62V459.268Z" fill="#EBEBEB"/>
<path d="M112.867 461.25H61.9028V461.545H112.867V461.25Z" fill="#EBEBEB"/>
<path d="M265.677 466.23H155.135V466.525H265.677V466.23Z" fill="#EBEBEB"/>
<path d="M207.347 117.059C214.572 110.045 214.743 98.5033 207.73 91.2788C200.717 84.0544 189.175 83.8831 181.95 90.8964C174.726 97.9096 174.554 109.452 181.568 116.676C188.581 123.901 200.123 124.072 207.347 117.059Z" fill="#E0E0E0"/>
<path d="M204.495 121.184C213.596 116.878 217.484 106.009 213.178 96.9079C208.871 87.8064 198.002 83.9191 188.901 88.2252C179.8 92.5313 175.912 103.4 180.218 112.502C184.524 121.603 195.393 125.491 204.495 121.184Z" fill="#F0F0F0"/>
<path d="M209.556 109.303C208.647 111.846 207.004 114.062 204.836 115.671C202.668 117.28 200.071 118.21 197.374 118.343C194.677 118.476 192.001 117.807 189.685 116.419C187.368 115.032 185.515 112.988 184.36 110.548C183.205 108.107 182.8 105.379 183.195 102.708C183.591 100.036 184.769 97.5426 186.582 95.5414C188.395 93.5401 190.76 92.1214 193.379 91.4646C195.998 90.8077 198.753 90.9422 201.296 91.8512C202.984 92.4547 204.537 93.3849 205.866 94.5886C207.195 95.7923 208.274 97.2459 209.041 98.8665C209.808 100.487 210.248 102.243 210.336 104.034C210.425 105.824 210.16 107.615 209.556 109.303Z" fill="#E6E6E6"/>
<path d="M203.337 108.206C203.063 107.399 202.544 106.697 201.851 106.2C202.548 106.118 203.208 105.839 203.754 105.396C204.299 104.953 204.707 104.365 204.93 103.698C205.139 103.159 205.208 102.576 205.132 102.002C205.055 101.429 204.836 100.884 204.494 100.418C203.856 99.5695 203.011 98.8991 202.039 98.4711L202.417 97.4209L200.789 96.8427L200.435 97.8221L198.818 97.2439L199.16 96.2645L197.544 95.6745L197.19 96.6539L193.65 95.4031L188.446 109.952L191.986 111.203L191.62 112.242L193.248 112.82L193.614 111.781L195.231 112.371L194.865 113.398L196.493 113.976L196.871 112.902C198.1 113.328 199.419 113.417 200.694 113.162C201.284 113.019 201.827 112.727 202.271 112.314C202.715 111.9 203.046 111.38 203.231 110.802C203.56 109.974 203.597 109.058 203.337 108.206ZM196.116 99.1201L199.42 100.3C200.094 100.487 200.697 100.868 201.154 101.397C201.303 101.616 201.397 101.867 201.431 102.129C201.464 102.392 201.436 102.658 201.347 102.907C201.259 103.157 201.113 103.381 200.922 103.564C200.73 103.746 200.499 103.881 200.246 103.958C199.553 104.085 198.838 104.003 198.193 103.722L194.853 102.542L196.116 99.1201ZM198.806 110.283C198.074 110.393 197.326 110.295 196.647 110L192.717 108.56L194.004 105.02L197.933 106.424C199.727 107.061 200.399 107.982 199.974 109.185C199.893 109.455 199.742 109.698 199.537 109.89C199.332 110.083 199.08 110.218 198.806 110.283Z" fill="white"/>
<path d="M286.186 113.386V118.838C289.596 119.11 292.834 120.452 295.437 122.673L299.284 118.814C295.651 115.585 291.037 113.673 286.186 113.386Z" fill="#E6E6E6"/>
<path d="M283.554 151.359C279.695 151.047 276.073 149.373 273.334 146.636C270.595 143.9 268.918 140.279 268.604 136.42H263.14C263.46 141.725 265.712 146.73 269.471 150.487C273.231 154.244 278.237 156.494 283.542 156.81L283.554 151.359Z" fill="#F5F5F5"/>
<path d="M268.604 133.788C268.916 129.928 270.591 126.304 273.33 123.565C276.069 120.826 279.693 119.15 283.554 118.838V113.386C278.245 113.703 273.237 115.953 269.475 119.713C265.713 123.472 263.46 128.48 263.14 133.788H268.604Z" fill="#E0E0E0"/>
<path d="M301.148 120.679L297.289 124.537C299.239 126.822 300.519 129.601 300.988 132.567C301.457 135.534 301.098 138.572 299.949 141.347C298.8 144.122 296.907 146.526 294.478 148.293C292.049 150.059 289.179 151.12 286.186 151.359V156.81C290.256 156.564 294.175 155.178 297.496 152.811C300.817 150.444 303.405 147.191 304.965 143.423C306.525 139.655 306.995 135.525 306.32 131.503C305.645 127.481 303.853 123.731 301.148 120.679Z" fill="#EBEBEB"/>
<path d="M100.524 177.968L101.032 190.086L130.083 182.263L144.468 164.374L160.645 158.297L162.25 162.58L174.522 149.376L156.043 143.441L157.872 148.291L141.73 154.12L127.853 172.422L100.524 177.968Z" fill="#E6E6E6"/>
<path d="M462.631 190.31C464.491 193.62 465.328 197.408 465.036 201.193C464.743 204.979 463.335 208.593 460.99 211.578C458.644 214.563 455.465 216.786 451.856 217.965C448.247 219.144 444.369 219.227 440.713 218.202C437.057 217.178 433.787 215.092 431.317 212.209C428.846 209.327 427.285 205.776 426.832 202.006C426.38 198.236 427.055 194.417 428.772 191.031C430.49 187.645 433.173 184.844 436.482 182.983C438.68 181.746 441.1 180.955 443.604 180.654C446.108 180.354 448.646 180.549 451.074 181.23C453.503 181.91 455.773 183.062 457.756 184.62C459.739 186.178 461.395 188.112 462.631 190.31Z" fill="#E6E6E6"/>
<path d="M461.008 212.671C468.761 205.438 469.183 193.29 461.951 185.536C454.718 177.783 442.569 177.361 434.816 184.593C427.063 191.826 426.641 203.975 433.873 211.728C441.106 219.481 453.254 219.903 461.008 212.671Z" fill="#F0F0F0"/>
<path d="M460.917 204.596C464.251 197.393 461.113 188.851 453.909 185.517C446.705 182.184 438.163 185.322 434.83 192.526C431.497 199.73 434.634 208.272 441.838 211.605C449.042 214.938 457.584 211.8 460.917 204.596Z" fill="#E6E6E6"/>
<path d="M454.89 198.169C456.931 200.659 456.07 203.585 452.813 205.804L453.993 208.164L451.916 209.344L450.736 206.984C448.865 207.837 446.82 208.241 444.765 208.164L444.258 205.06C445.98 205.167 447.703 204.864 449.285 204.175L447.397 200.635C445.037 201.19 442.346 201.697 440.482 199.455C438.452 196.966 439.302 193.992 442.689 191.785L441.509 189.425L443.585 188.245L444.836 190.605C446.32 189.927 447.926 189.558 449.556 189.52L450.182 192.564C448.844 192.539 447.516 192.8 446.288 193.331L448.258 197.048C450.512 196.494 453.12 196.01 454.89 198.169ZM445.78 197.638L444.175 194.606C443.161 195.479 442.995 196.435 443.526 197.154C444.057 197.874 444.86 197.78 445.78 197.638ZM451.94 200.6C451.66 200.339 451.315 200.159 450.94 200.08C450.566 200.001 450.177 200.026 449.816 200.152L451.35 203.031C452.282 202.146 452.506 201.261 451.94 200.6Z" fill="white"/>
<path d="M381.824 84.5116L363.723 114.554L381.824 125.493V84.5116Z" fill="#F5F5F5"/>
<path d="M363.723 114.554L381.824 106.436V125.493L363.723 114.554Z" fill="#EBEBEB"/>
<path d="M381.824 84.5116L399.925 114.554L381.824 125.493V84.5116Z" fill="#EBEBEB"/>
<path d="M399.925 114.554L381.824 106.436V125.493L399.925 114.554Z" fill="#E0E0E0"/>
<path d="M363.664 120.03L381.883 145.706L381.824 130.886L363.664 120.03Z" fill="#F5F5F5"/>
<path d="M399.984 120.03L381.753 145.706L381.824 130.886L399.984 120.03Z" fill="#EBEBEB"/>
<path d="M130.85 461.25H123.381V461.545H130.85V461.25Z" fill="#EBEBEB"/>
<path d="M297.525 503.872C423.882 503.872 526.315 497.891 526.315 490.514C526.315 483.137 423.882 477.157 297.525 477.157C171.168 477.157 68.7349 483.137 68.7349 490.514C68.7349 497.891 171.168 503.872 297.525 503.872Z" fill="#F5F5F5"/>
<path d="M327.521 489.558H87.3198C82.3956 486.094 78.921 480.937 77.5605 475.072C76.1999 469.208 77.0488 463.047 79.9448 457.769C81.0338 455.634 82.6607 453.82 84.6648 452.506C81.9785 447.441 81.1757 441.588 82.3992 435.986C83.65 430.712 88.016 427.136 92.5236 424.257C89.1867 404.95 92.9597 385.088 103.144 368.349C113.268 351.9 129.965 341.209 148.326 336.005C147.486 328.963 148.137 321.823 150.236 315.049C152.334 308.274 155.834 302.017 160.507 296.683C165.181 291.349 170.923 287.056 177.363 284.085C183.802 281.114 190.795 279.53 197.886 279.436C198.413 274.437 200.021 269.612 202.599 265.297C205.176 260.981 208.662 257.278 212.813 254.443C216.898 251.664 221.554 249.837 226.439 249.096C231.324 248.354 236.313 248.718 241.038 250.16C241.77 246.62 243.298 243.293 245.506 240.431C247.714 237.569 250.544 235.246 253.782 233.64C257.023 232.111 260.576 231.359 264.159 231.443C267.741 231.527 271.255 232.445 274.421 234.124C284.073 231.386 294.693 236.543 299.071 245.723C303.449 254.904 300.522 267.081 292.439 273.135C301.561 286.728 301.159 308.015 291.472 321.196C296.805 322.636 299.118 330.282 299.909 335.852C302.192 352.04 299.44 368.539 292.026 383.111C301.867 382.639 311.39 389.978 317.255 398.049C320.164 402.147 322.059 406.876 322.783 411.849C323.508 416.822 323.04 421.896 321.42 426.653C327.131 426.299 331.981 430.818 334.789 435.88C336.896 440.084 338.246 444.625 338.778 449.297C339.003 449.763 339.173 450.254 339.285 450.76C342.341 464.188 337.633 480.154 327.521 489.558Z" fill="#006BDF"/>
<g opacity="0.6">
<path d="M327.521 489.558H87.3198C82.3956 486.094 78.921 480.937 77.5605 475.072C76.1999 469.208 77.0488 463.047 79.9448 457.769C81.0338 455.634 82.6607 453.82 84.6648 452.506C81.9785 447.441 81.1757 441.588 82.3992 435.986C83.65 430.712 88.016 427.136 92.5236 424.257C89.1867 404.95 92.9597 385.088 103.144 368.349C113.268 351.9 129.965 341.209 148.326 336.005C147.486 328.963 148.137 321.823 150.236 315.049C152.334 308.274 155.834 302.017 160.507 296.683C165.181 291.349 170.923 287.056 177.363 284.085C183.802 281.114 190.795 279.53 197.886 279.436C198.413 274.437 200.021 269.612 202.599 265.297C205.176 260.981 208.662 257.278 212.813 254.443C216.898 251.664 221.554 249.837 226.439 249.096C231.324 248.354 236.313 248.718 241.038 250.16C241.77 246.62 243.298 243.293 245.506 240.431C247.714 237.569 250.544 235.246 253.782 233.64C257.023 232.111 260.576 231.359 264.159 231.443C267.741 231.527 271.255 232.445 274.421 234.124C284.073 231.386 294.693 236.543 299.071 245.723C303.449 254.904 300.522 267.081 292.439 273.135C301.561 286.728 301.159 308.015 291.472 321.196C296.805 322.636 299.118 330.282 299.909 335.852C302.192 352.04 299.44 368.539 292.026 383.111C301.867 382.639 311.39 389.978 317.255 398.049C320.164 402.147 322.059 406.876 322.783 411.849C323.508 416.822 323.04 421.896 321.42 426.653C327.131 426.299 331.981 430.818 334.789 435.88C336.896 440.084 338.246 444.625 338.778 449.297C339.003 449.763 339.173 450.254 339.285 450.76C342.341 464.188 337.633 480.154 327.521 489.558Z" fill="white"/>
</g>
<path d="M269.889 214.312L344.123 202.264C344.383 202.225 344.649 202.255 344.893 202.351C345.138 202.448 345.353 202.607 345.517 202.812C345.681 203.018 345.787 203.263 345.827 203.523C345.866 203.783 345.836 204.049 345.74 204.293L317.502 273.996C317.407 274.238 317.249 274.451 317.045 274.613C316.841 274.774 316.598 274.879 316.34 274.916C316.082 274.953 315.819 274.922 315.578 274.824C315.337 274.727 315.125 274.567 314.965 274.362L268.945 216.707C268.783 216.503 268.677 216.259 268.639 216.001C268.6 215.743 268.63 215.48 268.726 215.237C268.822 214.994 268.98 214.781 269.184 214.618C269.388 214.456 269.631 214.35 269.889 214.312Z" fill="#006BDF"/>
<path opacity="0.2" d="M269.889 214.312L344.123 202.264C344.383 202.225 344.649 202.255 344.893 202.351C345.138 202.448 345.353 202.607 345.517 202.812C345.681 203.018 345.787 203.263 345.827 203.523C345.866 203.783 345.836 204.049 345.74 204.293L317.502 273.996C317.407 274.238 317.249 274.451 317.045 274.613C316.841 274.774 316.598 274.879 316.34 274.916C316.082 274.953 315.819 274.922 315.578 274.824C315.337 274.727 315.125 274.567 314.965 274.362L268.945 216.707C268.783 216.503 268.677 216.259 268.639 216.001C268.6 215.743 268.63 215.48 268.726 215.237C268.822 214.994 268.98 214.781 269.184 214.618C269.388 214.456 269.631 214.35 269.889 214.312Z" fill="white"/>
<path d="M275.188 242.431L279.813 236.448L275.789 231.398L268.922 234.584C269.398 236.24 270.196 237.786 271.271 239.133C272.347 240.48 273.678 241.601 275.188 242.431Z" fill="#263238"/>
<path opacity="0.2" d="M275.789 231.398L274.173 232.141C275.12 234.438 276.699 236.418 278.728 237.853L279.813 236.448L275.789 231.398Z" fill="white"/>
<path opacity="0.4" d="M272.45 232.944L271.164 233.546C272.267 236.36 274.196 238.775 276.698 240.472L277.559 239.351C275.458 237.566 273.723 235.39 272.45 232.944Z" fill="white"/>
<path d="M282.457 238.926C280.408 237.805 278.601 236.289 277.141 234.467C275.681 232.644 274.596 230.55 273.949 228.306L316.629 194.252C319.016 192.34 321.758 190.92 324.697 190.073C327.636 189.227 330.713 188.97 333.751 189.319C333.416 192.358 332.482 195.3 331.004 197.975C329.525 200.651 327.531 203.007 325.137 204.907L282.457 238.926Z" fill="#006BDF"/>
<path d="M316.629 194.216L276.403 226.324C277.963 230.717 280.956 234.457 284.899 236.944L325.137 204.836C327.531 202.936 329.525 200.58 331.004 197.904C332.482 195.229 333.416 192.287 333.751 189.248C330.71 188.905 327.632 189.166 324.693 190.019C321.754 190.872 319.013 192.298 316.629 194.216Z" fill="#006BDF"/>
<path opacity="0.5" d="M316.629 194.216L276.403 226.324C277.963 230.717 280.956 234.457 284.899 236.944L325.137 204.836C327.531 202.936 329.525 200.58 331.004 197.904C332.482 195.229 333.416 192.287 333.751 189.248C330.71 188.905 327.632 189.166 324.693 190.019C321.754 190.872 319.013 192.298 316.629 194.216Z" fill="white"/>
<path d="M316.629 194.216L314.789 195.691C316.575 199.954 319.518 203.633 323.285 206.311L325.137 204.836C327.531 202.936 329.525 200.58 331.004 197.904C332.482 195.229 333.416 192.287 333.751 189.248C330.711 188.905 327.632 189.166 324.693 190.019C321.754 190.872 319.014 192.298 316.629 194.216Z" fill="#006BDF"/>
<path opacity="0.2" d="M316.629 194.216L314.789 195.691C316.575 199.954 319.518 203.633 323.285 206.311L325.137 204.836C327.531 202.936 329.525 200.58 331.004 197.904C332.482 195.229 333.416 192.287 333.751 189.248C330.711 188.905 327.632 189.166 324.693 190.019C321.754 190.872 319.014 192.298 316.629 194.216Z" fill="white"/>
<path d="M297.619 268.769L302.245 262.774L298.221 257.736L291.365 260.922C291.838 262.578 292.635 264.123 293.708 265.47C294.781 266.817 296.111 267.938 297.619 268.769Z" fill="#263238"/>
<path opacity="0.2" d="M298.221 257.736L296.616 258.479C297.558 260.775 299.139 262.753 301.171 264.178L302.245 262.774L298.221 257.736Z" fill="white"/>
<path opacity="0.4" d="M294.894 259.281L293.607 259.871C294.702 262.691 296.628 265.11 299.13 266.81L300.003 265.63C297.904 263.865 296.169 261.709 294.894 259.281Z" fill="white"/>
<path d="M304.9 265.264C300.768 262.992 297.708 259.172 296.392 254.644L339.073 220.589C341.46 218.678 344.202 217.258 347.14 216.409C350.079 215.561 353.156 215.301 356.194 215.645C355.853 218.683 354.917 221.625 353.439 224.302C351.961 226.978 349.97 229.337 347.58 231.245L304.9 265.264Z" fill="#006BDF"/>
<path d="M339.073 220.554L298.835 252.65C300.401 257.043 303.397 260.783 307.343 263.27L347.581 231.174C349.971 229.267 351.961 226.907 353.439 224.231C354.917 221.554 355.854 218.613 356.195 215.574C353.153 215.235 350.075 215.501 347.137 216.355C344.199 217.21 341.458 218.637 339.073 220.554Z" fill="#006BDF"/>
<path opacity="0.5" d="M339.073 220.554L298.835 252.65C300.401 257.043 303.397 260.783 307.343 263.27L347.581 231.174C349.971 229.267 351.961 226.907 353.439 224.231C354.917 221.554 355.854 218.613 356.195 215.574C353.153 215.235 350.075 215.501 347.137 216.355C344.199 217.21 341.458 218.637 339.073 220.554Z" fill="white"/>
<path d="M339.073 220.554L337.232 222.017C339.018 226.28 341.961 229.959 345.728 232.637L347.581 231.162C349.97 229.255 351.961 226.896 353.439 224.219C354.917 221.542 355.853 218.601 356.195 215.562C353.152 215.225 350.074 215.492 347.135 216.349C344.197 217.206 341.457 218.635 339.073 220.554Z" fill="#006BDF"/>
<path opacity="0.2" d="M339.073 220.554L337.232 222.017C339.018 226.28 341.961 229.959 345.728 232.637L347.581 231.162C349.97 229.255 351.961 226.896 353.439 224.219C354.917 221.542 355.853 218.601 356.195 215.562C353.152 215.225 350.074 215.492 347.135 216.349C344.197 217.206 341.457 218.635 339.073 220.554Z" fill="white"/>
<path d="M285.666 260.119L293.147 250.467L286.646 242.313L275.565 247.458C276.33 250.131 277.616 252.626 279.349 254.799C281.083 256.972 283.23 258.78 285.666 260.119Z" fill="#263238"/>
<path opacity="0.2" d="M286.645 242.313L284.049 243.493C285.57 247.197 288.116 250.39 291.389 252.697L293.147 250.443L286.645 242.313Z" fill="white"/>
<path opacity="0.4" d="M281.264 244.815L279.176 245.782C280.955 250.328 284.069 254.227 288.108 256.969L289.513 255.151C286.117 252.275 283.316 248.764 281.264 244.815Z" fill="white"/>
<path d="M297.36 254.467C294.052 252.644 291.137 250.186 288.782 247.234C286.427 244.281 284.678 240.893 283.636 237.263L352.536 182.286C356.392 179.205 360.818 176.915 365.56 175.548C370.302 174.182 375.268 173.765 380.172 174.321C379.628 179.226 378.12 183.974 375.734 188.294C373.349 192.613 370.133 196.418 366.272 199.491L297.36 254.467Z" fill="#006BDF"/>
<path d="M352.584 182.286L287.684 234.112C290.178 241.228 294.996 247.296 301.36 251.34L366.319 199.514C370.18 196.442 373.396 192.637 375.781 188.317C378.167 183.998 379.675 179.249 380.219 174.345C375.317 173.785 370.352 174.198 365.61 175.561C360.867 176.924 356.441 179.209 352.584 182.286Z" fill="#006BDF"/>
<path opacity="0.6" d="M352.584 182.286L287.684 234.112C290.178 241.228 294.996 247.296 301.36 251.34L366.319 199.514C370.18 196.442 373.396 192.637 375.781 188.317C378.167 183.998 379.675 179.249 380.219 174.345C375.317 173.785 370.352 174.198 365.61 175.561C360.867 176.924 356.441 179.209 352.584 182.286Z" fill="white"/>
<path d="M352.584 182.286L349.61 184.646C352.487 191.551 357.241 197.511 363.334 201.851L366.319 199.491C370.18 196.418 373.396 192.613 375.782 188.294C378.167 183.974 379.675 179.226 380.22 174.321C375.316 173.765 370.35 174.182 365.608 175.548C360.865 176.915 356.439 179.205 352.584 182.286Z" fill="#006BDF"/>
<path opacity="0.2" d="M352.584 182.286L349.61 184.646C352.487 191.551 357.241 197.511 363.334 201.851L366.319 199.491C370.18 196.418 373.396 192.613 375.782 188.294C378.167 183.974 379.675 179.226 380.22 174.321C375.316 173.765 370.35 174.182 365.608 175.548C360.865 176.915 356.439 179.205 352.584 182.286Z" fill="white"/>
<path d="M349.669 206.901C348.678 207.69 347.476 208.167 346.213 208.273C344.951 208.378 343.686 208.107 342.578 207.494C341.469 206.881 340.568 205.953 339.987 204.827C339.406 203.702 339.171 202.429 339.313 201.171C339.454 199.912 339.966 198.724 340.783 197.755C341.6 196.787 342.685 196.083 343.902 195.732C345.119 195.38 346.412 195.397 347.62 195.781C348.827 196.164 349.893 196.897 350.684 197.886C351.744 199.216 352.232 200.913 352.042 202.604C351.852 204.294 350.998 205.84 349.669 206.901Z" fill="#006BDF"/>
<path d="M340.654 205.886C339.648 204.623 339.156 203.027 339.276 201.417C339.396 199.807 340.12 198.301 341.303 197.202C341.168 197.288 341.038 197.383 340.914 197.485C340.256 198.01 339.708 198.66 339.301 199.397C338.894 200.134 338.637 200.944 338.543 201.781C338.45 202.617 338.522 203.464 338.755 204.273C338.989 205.082 339.379 205.836 339.905 206.494C340.43 207.152 341.08 207.7 341.817 208.107C342.554 208.513 343.364 208.771 344.2 208.864C345.037 208.958 345.884 208.886 346.693 208.653C347.501 208.419 348.256 208.028 348.914 207.503L349.268 207.184C347.933 208.094 346.304 208.465 344.706 208.225C343.109 207.984 341.662 207.149 340.654 205.886Z" fill="#006BDF"/>
<path opacity="0.3" d="M340.654 205.886C339.648 204.623 339.156 203.027 339.276 201.417C339.396 199.807 340.12 198.301 341.303 197.202C341.168 197.288 341.038 197.383 340.914 197.485C340.256 198.01 339.708 198.66 339.301 199.397C338.894 200.134 338.637 200.944 338.543 201.781C338.45 202.617 338.522 203.464 338.755 204.273C338.989 205.082 339.379 205.836 339.905 206.494C340.43 207.152 341.08 207.7 341.817 208.107C342.554 208.513 343.364 208.771 344.2 208.864C345.037 208.958 345.884 208.886 346.693 208.653C347.501 208.419 348.256 208.028 348.914 207.503L349.268 207.184C347.933 208.094 346.304 208.465 344.706 208.225C343.109 207.984 341.662 207.149 340.654 205.886Z" fill="black"/>
<path d="M348.489 205.426C347.788 205.986 346.937 206.325 346.044 206.4C345.151 206.476 344.255 206.285 343.47 205.851C342.685 205.418 342.047 204.761 341.635 203.964C341.224 203.168 341.058 202.267 341.159 201.376C341.26 200.485 341.623 199.644 342.202 198.959C342.781 198.275 343.55 197.777 344.412 197.53C345.274 197.283 346.189 197.297 347.043 197.57C347.897 197.844 348.651 198.364 349.209 199.066C349.582 199.53 349.859 200.063 350.024 200.635C350.19 201.206 350.241 201.805 350.174 202.396C350.107 202.987 349.924 203.56 349.634 204.08C349.345 204.6 348.956 205.057 348.489 205.426Z" fill="white"/>
<path d="M341.999 204.518L349.976 200.517C349.819 200.028 349.579 199.569 349.268 199.16L341.315 203.137C341.466 203.632 341.697 204.098 341.999 204.518Z" fill="#006BDF"/>
<path d="M343.238 205.686L350.177 202.217C350.206 201.934 350.206 201.649 350.177 201.367L342.589 205.167C342.79 205.358 343.007 205.532 343.238 205.686Z" fill="#006BDF"/>
<g opacity="0.7">
<path d="M341.999 204.518L349.976 200.517C349.819 200.028 349.579 199.569 349.268 199.16L341.315 203.137C341.466 203.632 341.697 204.098 341.999 204.518Z" fill="white"/>
<path d="M343.238 205.686L350.177 202.217C350.206 201.934 350.206 201.649 350.177 201.367L342.589 205.167C342.79 205.358 343.007 205.532 343.238 205.686Z" fill="white"/>
</g>
<path d="M427.466 276.521H364.053V489.393H427.466V276.521Z" fill="#006BDF"/>
<path opacity="0.2" d="M381.812 276.498H363.9V489.275H381.812V276.498Z" fill="black"/>
<path d="M139.983 430.193H76.5698V489.405H139.983V430.193Z" fill="#006BDF"/>
<path opacity="0.2" d="M93.8924 430.134H75.98V489.287H93.8924V430.134Z" fill="black"/>
<path d="M232.047 378.969H168.634V489.393H232.047V378.969Z" fill="#006BDF"/>
<path opacity="0.2" d="M186.109 378.922H168.197V489.287H186.109V378.922Z" fill="black"/>
<path d="M330.671 327.745H267.258V489.393H330.671V327.745Z" fill="#006BDF"/>
<path opacity="0.2" d="M284.875 327.71H266.963V489.287H284.875V327.71Z" fill="black"/>
<path d="M519.53 225.297H456.117V489.393H519.53V225.297Z" fill="#006BDF"/>
<path opacity="0.2" d="M474.03 225.297H456.117V489.287H474.03V225.297Z" fill="black"/>
<path d="M202.866 344.371L197.626 362.248L205.344 364.054L211.22 346.944L202.866 344.371Z" fill="#FF8B7B"/>
<path d="M207.078 361.989L198.24 360.278C198.071 360.253 197.898 360.286 197.75 360.371C197.602 360.457 197.488 360.59 197.426 360.75L194.251 368.184C194.107 368.486 194.087 368.833 194.195 369.151C194.303 369.468 194.531 369.731 194.83 369.883L195.077 369.966C198.287 370.52 201.178 370.874 205.166 371.641C209.886 372.55 208.553 372.927 214.075 374.072C217.391 374.756 218.795 370.815 217.462 370.343C211.161 368.231 210.913 366.013 208.919 363.051C208.469 362.468 207.807 362.087 207.078 361.989Z" fill="#263238"/>
<path d="M161.129 227.681L191.585 246.325L159.678 251.918L161.129 227.681Z" fill="#263238"/>
<path d="M209.945 355.605L198.948 353.634C198.948 353.634 203.042 338.389 207.479 317.55C208.164 314.34 217.002 289.914 217.002 289.914C217.002 289.914 173.342 269.453 172.646 269.229C172.091 269.052 168.516 268.78 162.934 264.414C152.55 256.296 155.854 240.413 155.854 240.413L182.994 241.062C209.485 255.222 232.483 275.908 235.587 284.38C239.953 296.31 209.945 355.605 209.945 355.605Z" fill="#263238"/>
<path d="M100.973 336.406L82.8359 340.678L85.0897 348.289L102.861 344.938L100.973 336.406Z" fill="#FF8B7B"/>
<path d="M87.7327 348.761L84.8299 340.194C84.7662 340.035 84.652 339.902 84.5048 339.814C84.3576 339.727 84.1857 339.69 84.0157 339.71L75.9799 340.631C75.6459 340.655 75.3349 340.81 75.1141 341.061C74.8933 341.313 74.7804 341.641 74.7999 341.976C74.7887 342.058 74.7887 342.141 74.7999 342.224C75.9091 345.292 77.0183 347.982 78.3399 351.829C79.8857 356.372 78.9063 355.369 80.6999 360.773C81.7383 364.006 85.8801 363.298 85.6087 361.871C84.3343 355.357 86.1397 354.047 87.7327 350.849C88.0036 350.18 88.0036 349.431 87.7327 348.761Z" fill="#263238"/>
<path d="M94.7067 348.1L90.9897 337.574L148.68 305.419C148.68 305.419 144.916 257.382 144.739 256.638C144.562 255.895 143.087 252.827 144.125 245.806C146.049 232.826 161.459 227.764 161.459 227.764L174.64 255.576C174.64 255.576 168.516 311.957 162.687 318.836C154.486 328.524 94.7067 348.1 94.7067 348.1Z" fill="#263238"/>
<path opacity="0.2" d="M172.645 269.229L162.934 264.414L170.415 287.448L172.645 269.229Z" fill="black"/>
<path d="M195.88 193.614C190.877 194.688 185.85 195.644 180.823 196.576L177.047 197.261L173.684 197.839C172.228 198.149 170.887 198.86 169.814 199.892L164.515 205.32C162.745 207.161 160.975 209.002 159.17 210.807C155.63 214.441 151.972 218.064 148.29 221.628C147.71 222.189 146.941 222.513 146.133 222.538C145.326 222.562 144.539 222.284 143.926 221.759C143.312 221.234 142.916 220.5 142.816 219.698C142.715 218.897 142.917 218.087 143.382 217.427C146.308 213.238 149.282 209.167 152.35 205.013C153.848 202.936 155.382 200.907 156.916 198.877L161.636 192.659C163.957 189.853 167.044 187.782 170.522 186.7L174.604 185.59L178.286 184.623C183.207 183.372 188.115 182.121 193.06 180.988C194.665 180.781 196.289 181.181 197.615 182.11C198.94 183.039 199.871 184.43 200.224 186.009C200.577 187.589 200.327 189.243 199.524 190.648C198.72 192.053 197.42 193.107 195.88 193.603V193.614Z" fill="#006BDF"/>
<path opacity="0.1" d="M195.88 193.614C190.877 194.688 185.85 195.644 180.823 196.576L177.047 197.261L173.684 197.839C172.228 198.149 170.887 198.86 169.814 199.892L164.515 205.32C162.745 207.161 160.975 209.002 159.17 210.807C155.63 214.441 151.972 218.064 148.29 221.628C147.71 222.189 146.941 222.513 146.133 222.538C145.326 222.562 144.539 222.284 143.926 221.759C143.312 221.234 142.916 220.5 142.816 219.698C142.715 218.897 142.917 218.087 143.382 217.427C146.308 213.238 149.282 209.167 152.35 205.013C153.848 202.936 155.382 200.907 156.916 198.877L161.636 192.659C163.957 189.853 167.044 187.782 170.522 186.7L174.604 185.59L178.286 184.623C183.207 183.372 188.115 182.121 193.06 180.988C194.665 180.781 196.289 181.181 197.615 182.11C198.94 183.039 199.871 184.43 200.224 186.009C200.577 187.589 200.327 189.243 199.524 190.648C198.72 192.053 197.42 193.107 195.88 193.603V193.614Z" fill="black"/>
<path d="M142.379 217.356L134.591 220.377L141.671 227.197L147.571 222.477C147.737 222.347 147.874 222.184 147.975 221.999C148.075 221.814 148.137 221.61 148.155 221.4C148.174 221.19 148.15 220.978 148.084 220.778C148.018 220.578 147.911 220.393 147.771 220.235C147.108 219.422 146.29 218.749 145.364 218.254C144.438 217.76 143.424 217.455 142.379 217.356Z" fill="#FF8B7B"/>
<path d="M134.591 220.377L133.411 222.642C133.117 223.187 133.024 223.819 133.149 224.425C133.274 225.032 133.609 225.574 134.095 225.958L136.597 227.917C136.97 228.212 137.417 228.4 137.889 228.46C138.361 228.52 138.84 228.451 139.276 228.259L141.636 227.197L134.591 220.377Z" fill="#FF8B7B"/>
<path d="M99.6153 251.257L96.7479 250.785L98.5297 248.626L134.413 235.74C140.125 233.687 143.853 229.84 140.903 222.855C138.178 216.365 132.042 214.441 126.342 216.471L90.4585 229.203L87.5557 228.66L89.3611 226.56L125.257 213.851C131.888 211.491 138.237 212.034 142.591 222.229C146.945 232.425 142.142 235.929 135.511 238.313L99.6153 251.257Z" fill="#263238"/>
<path d="M110.247 212.317L109.457 210.536C108.663 208.748 107.245 207.311 105.468 206.495C103.691 205.678 101.678 205.537 99.8043 206.099L73.3369 214.052L78.0569 225.746L110.247 212.317Z" fill="#263238"/>
<path opacity="0.2" d="M110.247 212.317L109.457 210.536C108.663 208.748 107.245 207.311 105.468 206.495C103.691 205.678 101.678 205.537 99.8043 206.099L73.3369 214.052L78.0569 225.746L110.247 212.317Z" fill="white"/>
<path d="M101.149 255.458L100.052 252.827L134.85 237.487C140.384 235.056 143.948 230.843 141.022 223.893C138.296 217.391 132.301 215.775 126.767 218.182L91.9691 233.357L90.8599 230.737L125.658 215.598C132.101 212.801 138.343 212.978 142.638 223.197C146.933 233.416 142.367 237.274 135.936 240.106L101.149 255.458Z" fill="#263238"/>
<path d="M97.1848 271.896L75.7324 220.046L101.692 208.966C102.47 208.62 103.309 208.431 104.16 208.413C105.011 208.394 105.857 208.545 106.649 208.857C107.441 209.169 108.163 209.636 108.773 210.23C109.383 210.824 109.868 211.534 110.2 212.317L125.953 250.007C126.794 252.087 126.793 254.412 125.949 256.491C125.106 258.57 123.486 260.24 121.434 261.146L97.1848 271.896Z" fill="#263238"/>
<g opacity="0.3">
<path d="M101.15 255.458L98.353 255.128L100.052 252.768L134.85 237.428C140.385 234.997 143.948 230.784 141.022 223.834C138.296 217.332 132.302 215.716 126.767 218.123L91.9692 233.357L89.1372 232.967L90.86 230.737L125.658 215.598C132.101 212.801 138.343 212.978 142.638 223.197C146.934 233.416 142.367 237.274 135.936 240.106L101.15 255.458Z" fill="white"/>
</g>
<path d="M105.74 228.224L103.946 223.917L105.551 223.209L107.356 227.528L105.74 228.224Z" fill="#263238"/>
<path d="M95.2849 232.79L93.4795 228.46L95.0961 227.752L96.9015 232.082L95.2849 232.79Z" fill="#263238"/>
<path d="M114.991 250.408L113.186 246.065L114.79 245.357L116.596 249.688L114.991 250.408Z" fill="#263238"/>
<path d="M104.524 255.022L102.719 250.679L104.335 249.959L106.141 254.302L104.524 255.022Z" fill="#263238"/>
<path d="M236.554 173.92C236.897 174.085 236.967 174.64 236.708 175.1C236.448 175.56 235.976 175.903 235.646 175.737C235.315 175.572 235.245 175.018 235.492 174.498C235.74 173.979 236.224 173.743 236.554 173.92Z" fill="#263238"/>
<path d="M236.318 174.321C236.759 174.406 237.215 174.33 237.605 174.109C237.383 174.131 237.16 174.109 236.947 174.044C236.735 173.979 236.537 173.873 236.366 173.731C236.405 173.826 236.421 173.93 236.413 174.032C236.405 174.135 236.372 174.234 236.318 174.321Z" fill="#263238"/>
<path d="M233.38 179.242C233.747 179.556 234.177 179.786 234.642 179.917C235.107 180.047 235.594 180.075 236.071 179.997C235.719 178.147 235.62 176.257 235.776 174.38L233.38 179.242Z" fill="#FF5652"/>
<path d="M234.69 171.277C235.102 171.181 235.531 171.185 235.942 171.287C236.352 171.39 236.732 171.589 237.05 171.867L237.121 171.95C237.157 171.977 237.199 171.997 237.243 172.009C237.287 172.02 237.333 172.022 237.378 172.016C237.423 172.009 237.466 171.994 237.505 171.97C237.544 171.947 237.578 171.916 237.605 171.879C237.632 171.844 237.652 171.803 237.663 171.76C237.675 171.717 237.677 171.672 237.67 171.628C237.664 171.584 237.648 171.541 237.625 171.503C237.601 171.465 237.571 171.433 237.534 171.407C237.147 171.042 236.678 170.777 236.167 170.633C235.655 170.489 235.116 170.471 234.596 170.581C234.517 170.593 234.445 170.636 234.395 170.699C234.334 170.764 234.3 170.851 234.3 170.941C234.3 171.031 234.334 171.117 234.395 171.183C234.435 171.218 234.482 171.245 234.533 171.261C234.584 171.278 234.637 171.283 234.69 171.277Z" fill="#263238"/>
<path d="M211.137 195.396C203.491 189.496 205.591 184.446 205.591 184.446C209.591 184.021 212.895 180.068 215.255 176.091C215.198 177.424 215.386 178.756 215.81 180.021C216.671 182.64 222.111 183.832 222.111 183.832C222.111 183.832 221.58 184.505 220.931 185.508C219.185 187.974 216.435 192.529 218.076 194.865C218.017 194.865 219.551 201.898 211.137 195.396Z" fill="#FF8B7B"/>
<path d="M221.745 184.54C221.391 184.823 221.037 185.107 220.695 185.437C220.657 185.45 220.615 185.45 220.577 185.437C219.458 184.923 218.46 184.179 217.647 183.254C216.834 182.329 216.224 181.244 215.857 180.068C215.427 178.801 215.239 177.464 215.303 176.127C215.916 175.124 216.483 174.097 216.931 173.153L221.651 184.174L221.745 184.54Z" fill="#FF8B7B"/>
<path d="M232.059 182.64C231.007 183.929 229.646 184.93 228.102 185.549C226.558 186.168 224.883 186.385 223.232 186.18C222.372 186.084 221.531 185.853 220.743 185.496C220.704 185.51 220.663 185.51 220.625 185.496C219.506 184.982 218.507 184.238 217.694 183.313C216.881 182.388 216.271 181.303 215.905 180.127C215.475 178.86 215.286 177.523 215.35 176.186C215.48 172.976 217.002 169.778 218.961 165.117C219.574 163.594 220.566 162.254 221.844 161.223C223.122 160.192 224.643 159.506 226.261 159.229C227.879 158.952 229.541 159.094 231.089 159.641C232.637 160.189 234.019 161.124 235.103 162.356C239.965 167.82 236.212 177.614 232.059 182.64Z" fill="#FF8B7B"/>
<path opacity="0.2" d="M222.701 185.968C222.068 185.933 221.447 185.777 220.872 185.508C221.58 184.505 222.123 183.844 222.052 183.832L223.503 182.227C223.503 182.227 222.3 185.649 222.701 185.968Z" fill="black"/>
<path d="M238.219 170.734C236.838 171.23 234.242 170.522 234.49 170.357C235.457 169.802 236.626 168.197 235.339 167.761C235.127 168.61 232.26 173.944 231.434 174.203C230.985 174.357 227.894 177.932 223.634 179.974C220.294 181.602 219.645 182.416 219.645 182.416L213.745 179.336C211.999 177.566 207.786 161.719 216.719 158.698C219.645 157.707 221.887 155.229 226.536 156.562C229.404 157.388 232.767 156.881 235.587 157.86C237.026 158.281 238.34 159.046 239.418 160.088C240.495 161.13 241.302 162.419 241.77 163.843C242.089 165.259 241.711 169.507 238.219 170.734Z" fill="#263238"/>
<path d="M232.837 172.009C234.017 173.731 233.038 176.729 231.929 178.286C230.82 179.844 228.778 180.162 228.212 177.92C227.806 176.216 227.968 174.427 228.672 172.823C229.557 170.911 231.61 170.286 232.837 172.009Z" fill="#FF8B7B"/>
<path d="M201.261 185.461C201.261 185.461 205.308 182.758 207.987 183.018C210.665 183.278 217.521 190.617 218.371 192.057C219.22 193.496 218.217 197.284 218.217 197.284L201.261 185.461Z" fill="#006BDF"/>
<path opacity="0.3" d="M201.261 185.461C201.261 185.461 205.308 182.758 207.987 183.018C210.665 183.278 217.521 190.617 218.371 192.057C219.22 193.496 218.217 197.284 218.217 197.284L201.261 185.461Z" fill="white"/>
<path d="M220.282 197.969C219.487 196.985 218.636 196.047 217.734 195.16C213.708 191.659 209.485 188.393 205.084 185.378C203.479 184.325 201.79 183.405 200.034 182.629C198.316 181.834 196.371 181.676 194.547 182.182C192.723 182.687 191.138 183.824 190.074 185.39C183.974 194.405 182.534 201.402 178.475 207.302C173.179 214.869 166.99 221.771 160.043 227.858L165.094 233.262C172.957 239.353 181.966 243.795 191.585 246.325C191.585 246.325 200.777 231.646 206.052 227.905C220.459 217.675 219.598 213.58 221.84 209.155C222.749 207.353 223.086 205.317 222.808 203.319C222.53 201.32 221.649 199.454 220.282 197.969Z" fill="#006BDF"/>
<path d="M221.84 209.167C221.038 210.736 220.66 212.294 219.775 214.099C218.166 217.289 215.902 220.103 213.132 222.359C210.881 224.346 208.517 226.202 206.052 227.917C203.83 229.745 201.848 231.847 200.152 234.171C199.195 235.395 198.636 236.882 198.552 238.433C198.467 239.984 198.861 241.524 199.68 242.844C203.42 248.945 209.12 257.653 209.12 257.653C205.061 256.591 203.409 256.154 196.954 258.196C186.853 261.382 165.672 258.573 159.701 250.042C161.301 246.054 163.815 242.497 167.041 239.658C163.34 242.109 159.945 244.993 156.928 248.248C154.262 248.803 151.559 247.34 149.636 245.44C147.713 243.54 146.273 241.157 144.42 239.186C142.568 237.215 140.538 235.351 137.836 235.587C141.376 230.867 147.359 228.932 152.987 227.327C157.188 226.147 162.545 224.377 166.557 221.722C170.961 217.292 174.961 212.478 178.511 207.338C182.558 201.438 183.986 194.44 190.11 185.413C191.172 183.846 192.757 182.708 194.582 182.202C196.406 181.696 198.351 181.856 200.069 182.652C201.825 183.433 203.514 184.357 205.12 185.413C209.512 188.427 213.731 191.685 217.757 195.172C218.657 196.066 219.508 197.007 220.306 197.992C221.662 199.481 222.534 201.346 222.808 203.341C223.081 205.336 222.744 207.367 221.84 209.167Z" fill="#006BDF"/>
<path d="M277.666 193.768L283.743 191.136C283.994 191.027 284.232 190.888 284.451 190.723L287.189 188.588C287.379 188.442 287.52 188.242 287.594 188.015C287.667 187.787 287.67 187.542 287.602 187.313L284.829 182.9C284.747 182.574 284.548 182.289 284.269 182.102C283.99 181.914 283.651 181.837 283.318 181.885L279.212 183.419C278.903 183.53 278.627 183.716 278.41 183.962L274.291 188.446C274.126 188.657 274.02 188.908 273.985 189.174C273.949 189.439 273.986 189.71 274.091 189.956L275.908 192.836C276.027 193.186 276.275 193.477 276.602 193.651C276.929 193.824 277.309 193.866 277.666 193.768Z" fill="#FF8B7B"/>
<path opacity="0.2" d="M213.12 222.336L215.74 208.058L221.286 211.043C219.327 216.223 217.026 218.866 213.12 222.336Z" fill="black"/>
<path d="M253.205 212.471C260.78 207.208 270.291 199.774 277.23 193.791C277.879 191.502 275.719 188.493 273.524 189.414C268.061 191.703 251.742 200.753 248.862 200.836C246.88 200.895 226.442 197.945 219.764 196.977C218.436 196.771 217.079 197.061 215.952 197.792C212.259 200.293 211.315 203.031 211.527 205.438C211.741 207.268 212.592 208.965 213.932 210.229C215.272 211.494 217.015 212.246 218.855 212.353C228.189 213.049 242.184 213.828 247.635 214.064C249.617 214.162 251.575 213.602 253.205 212.471Z" fill="#006BDF"/>
<path d="M227.587 176.563C225.439 182.735 222.56 194.511 217.828 198.983C213.096 203.456 206.453 203.703 200.128 205.19C198.606 205.568 196.659 207.491 196.683 207.184C195.113 208.936 194.12 211.127 193.839 213.462L186.959 208.093C186.269 207.636 185.701 207.016 185.307 206.288C185.1 205.62 185.062 204.912 185.196 204.226C185.33 203.541 185.632 202.899 186.074 202.358C186.944 200.915 187.642 199.374 188.151 197.768C185.765 199.553 183.979 202.023 183.03 204.848C179.679 203.668 175.761 200.848 175.69 197.284C175.665 195.873 175.937 194.473 176.488 193.174C177.039 191.875 177.856 190.707 178.888 189.744C176.544 190.986 174.646 192.929 173.46 195.302C172.74 193.19 170.982 191.089 168.74 191.16C170.456 187.352 172.657 183.783 175.289 180.54C178.05 177.437 181.815 174.994 185.909 174.711C189.072 174.487 192.175 175.513 195.196 176.469C198.217 177.425 201.355 178.357 204.494 177.956C207.633 177.555 210.866 172.74 211.456 169.625C215.94 167.053 222.241 173.377 227.587 176.563Z" fill="#263238"/>
<path opacity="0.2" d="M248.496 170.947C248.182 177.077 245.446 182.831 240.89 186.945C236.333 191.059 230.33 193.194 224.2 192.883H224.117C223.155 192.825 222.197 192.707 221.25 192.529C216.753 186.179 210.693 181.099 203.656 177.779C203.332 176.892 203.064 175.985 202.854 175.065C202.099 171.841 202.046 168.492 202.696 165.245C203.347 161.999 204.687 158.929 206.626 156.245C208.565 153.561 211.057 151.324 213.935 149.685C216.812 148.047 220.008 147.045 223.306 146.747C226.603 146.45 229.927 146.863 233.051 147.96C236.175 149.057 239.028 150.812 241.416 153.106C243.804 155.4 245.671 158.18 246.893 161.258C248.114 164.335 248.661 167.639 248.496 170.947Z" fill="black"/>
<path d="M233.227 191.561C230.339 192.595 227.275 193.044 224.212 192.883H224.129C223.163 192.827 222.201 192.708 221.25 192.529C216.756 186.177 210.695 181.095 203.656 177.779C203.327 176.894 203.059 175.987 202.854 175.065C202.151 172.086 202.046 168.996 202.547 165.977C203.047 162.957 204.141 160.066 205.767 157.472C207.392 154.879 209.517 152.634 212.016 150.867C214.516 149.1 217.342 147.848 220.329 147.181C221.686 147.86 222.872 148.836 223.799 150.037C225.724 152.811 226.887 156.042 227.173 159.406C227.859 164.475 227.739 169.62 226.819 174.652C226.109 178.105 226.446 181.692 227.787 184.953C230.1 190.192 233.227 191.561 233.227 191.561Z" fill="#006BDF"/>
<path opacity="0.4" d="M233.227 191.561C230.339 192.595 227.275 193.044 224.212 192.883H224.129C223.163 192.827 222.201 192.708 221.25 192.529C216.756 186.177 210.695 181.095 203.656 177.779C203.327 176.894 203.059 175.987 202.854 175.065C202.151 172.086 202.046 168.996 202.547 165.977C203.047 162.957 204.141 160.066 205.767 157.472C207.392 154.879 209.517 152.634 212.016 150.867C214.516 149.1 217.342 147.848 220.329 147.181C221.686 147.86 222.872 148.836 223.799 150.037C225.724 152.811 226.887 156.042 227.173 159.406C227.859 164.475 227.739 169.62 226.819 174.652C226.109 178.105 226.446 181.692 227.787 184.953C230.1 190.192 233.227 191.561 233.227 191.561Z" fill="white"/>
<path d="M223.834 194.582C223.729 194.677 223.606 194.749 223.473 194.796C223.339 194.842 223.197 194.86 223.056 194.85C222.915 194.841 222.778 194.802 222.652 194.738C222.526 194.674 222.414 194.584 222.324 194.476C221.946 193.862 221.545 193.296 221.144 192.659C216.751 186.236 210.766 181.064 203.774 177.649C203.054 177.283 202.335 176.953 201.615 176.634C200.895 176.316 201.084 175.454 201.615 174.97C201.816 174.825 202.057 174.747 202.305 174.747C202.553 174.747 202.794 174.825 202.995 174.97C203.161 175.063 203.297 175.203 203.385 175.372C211.692 179.368 218.808 185.47 224.023 193.072C224.175 193.305 224.239 193.585 224.205 193.861C224.17 194.138 224.039 194.393 223.834 194.582Z" fill="#006BDF"/>
<path d="M228.684 171.714C228.684 172.117 228.564 172.512 228.34 172.848C228.116 173.184 227.797 173.445 227.424 173.6C227.051 173.754 226.64 173.795 226.244 173.716C225.848 173.637 225.484 173.443 225.199 173.157C224.913 172.872 224.719 172.508 224.64 172.112C224.562 171.716 224.602 171.305 224.756 170.932C224.911 170.559 225.173 170.241 225.508 170.016C225.844 169.792 226.239 169.672 226.642 169.672C227.184 169.672 227.703 169.887 228.086 170.27C228.469 170.653 228.684 171.172 228.684 171.714Z" fill="#263238"/>
<path d="M229.368 172.28C229.37 172.687 229.252 173.086 229.027 173.425C228.802 173.765 228.482 174.03 228.106 174.186C227.73 174.343 227.317 174.385 226.917 174.306C226.518 174.227 226.151 174.032 225.863 173.744C225.575 173.456 225.379 173.089 225.301 172.69C225.222 172.29 225.263 171.876 225.42 171.501C225.577 171.125 225.842 170.804 226.182 170.58C226.521 170.355 226.92 170.236 227.327 170.239C227.867 170.242 228.385 170.458 228.767 170.84C229.149 171.222 229.365 171.74 229.368 172.28Z" fill="#006BDF"/>
<path opacity="0.7" d="M229.368 172.28C229.37 172.687 229.252 173.086 229.027 173.425C228.802 173.765 228.482 174.03 228.106 174.186C227.73 174.343 227.317 174.385 226.917 174.306C226.518 174.227 226.151 174.032 225.863 173.744C225.575 173.456 225.379 173.089 225.301 172.69C225.222 172.29 225.263 171.876 225.42 171.501C225.577 171.125 225.842 170.804 226.182 170.58C226.521 170.355 226.92 170.236 227.327 170.239C227.867 170.242 228.385 170.458 228.767 170.84C229.149 171.222 229.365 171.74 229.368 172.28Z" fill="white"/>
<path d="M517.206 122.873C517.206 130.556 514.154 137.925 508.721 143.358C503.288 148.79 495.92 151.842 488.237 151.842C487.588 151.842 486.951 151.842 486.302 151.772C478.954 151.302 472.06 148.052 467.022 142.682C461.985 137.312 459.181 130.225 459.181 122.862C459.181 115.498 461.985 108.412 467.022 103.041C472.06 97.6714 478.954 94.4212 486.302 93.9515C486.951 93.9515 487.588 93.9515 488.237 93.9515C495.912 93.9515 503.273 96.9971 508.704 102.42C514.136 107.842 517.193 115.198 517.206 122.873Z" fill="#006BDF"/>
<path opacity="0.2" d="M513.3 122.873C512.955 128.157 511.072 133.223 507.883 137.45C504.694 141.676 500.338 144.878 495.353 146.66C490.367 148.442 484.97 148.727 479.824 147.48C474.679 146.232 470.01 143.507 466.394 139.64C462.778 135.773 460.372 130.933 459.472 125.715C458.573 120.498 459.219 115.131 461.331 110.276C463.443 105.421 466.929 101.29 471.359 98.3918C475.79 95.4933 480.972 93.954 486.266 93.9634C493.6 94.4516 500.473 97.7102 505.493 103.079C510.513 108.447 513.304 115.524 513.3 122.873Z" fill="white"/>
<path opacity="0.4" d="M506.276 131.164C510.857 120.103 505.605 107.423 494.545 102.842C483.484 98.2605 470.804 103.513 466.223 114.573C461.642 125.634 466.894 138.314 477.954 142.895C489.015 147.476 501.695 142.224 506.276 131.164Z" fill="white"/>
<path opacity="0.4" d="M489.988 138.315C498.595 136.283 503.925 127.659 501.894 119.052C499.863 110.445 491.238 105.115 482.631 107.146C474.024 109.177 468.694 117.802 470.725 126.409C472.757 135.016 481.381 140.346 489.988 138.315Z" fill="white"/>
<path d="M491.541 122.873C491.541 124.11 491.174 125.319 490.487 126.348C489.8 127.376 488.823 128.178 487.68 128.651C486.537 129.125 485.28 129.249 484.067 129.007C482.853 128.766 481.739 128.17 480.864 127.296C479.99 126.421 479.394 125.307 479.153 124.093C478.912 122.88 479.035 121.623 479.509 120.48C479.982 119.337 480.784 118.361 481.812 117.673C482.841 116.986 484.05 116.619 485.287 116.619C486.108 116.618 486.922 116.779 487.682 117.092C488.441 117.406 489.131 117.867 489.712 118.448C490.293 119.029 490.754 119.719 491.068 120.478C491.382 121.238 491.542 122.052 491.541 122.873Z" fill="#263238"/>
<path d="M441.839 144.361L447.633 145.305L456.129 140.29V140.278L451.799 138.367L441.839 144.361Z" fill="#006BDF"/>
<path d="M481.921 124.481L447.415 144.903L447.854 145.645L482.359 125.222L481.921 124.481Z" fill="#263238"/>
<path d="M446.89 150.485L455.268 145.518L456.129 140.29L447.633 145.305L446.89 150.485Z" fill="#006BDF"/>
<path opacity="0.2" d="M446.89 150.485L455.268 145.518L456.129 140.29L447.633 145.305L446.89 150.485Z" fill="black"/>
<path d="M484.378 122.555L478.62 124.03L483.871 126.921L486.242 123.157L484.378 122.555Z" fill="white"/>
<path d="M487.34 85.8804C487.057 85.8882 486.776 85.8399 486.512 85.7383C486.249 85.6367 486.008 85.4838 485.804 85.2885C485.6 85.0931 485.436 84.8592 485.323 84.6002C485.21 84.3413 485.15 84.0625 485.145 83.78V74.34C485.145 73.7704 485.371 73.2242 485.774 72.8214C486.177 72.4186 486.723 72.1924 487.293 72.1924C487.862 72.1924 488.408 72.4186 488.811 72.8214C489.214 73.2242 489.44 73.7704 489.44 74.34V83.78C489.431 84.3342 489.207 84.8632 488.815 85.2551C488.423 85.6471 487.894 85.8713 487.34 85.8804Z" fill="#006BDF"/>
<path d="M487.34 173.661C487.058 173.662 486.778 173.608 486.516 173.5C486.255 173.393 486.018 173.235 485.818 173.035C485.618 172.835 485.46 172.598 485.353 172.337C485.245 172.075 485.191 171.795 485.192 171.513V162.073C485.192 161.503 485.419 160.957 485.821 160.554C486.224 160.152 486.77 159.925 487.34 159.925C487.91 159.925 488.456 160.152 488.859 160.554C489.261 160.957 489.488 161.503 489.488 162.073V171.513C489.489 171.795 489.435 172.075 489.327 172.337C489.22 172.598 489.062 172.835 488.862 173.035C488.662 173.235 488.425 173.393 488.164 173.5C487.902 173.608 487.622 173.662 487.34 173.661Z" fill="#006BDF"/>
<path d="M448.258 123.676H438.759C438.463 123.698 438.166 123.658 437.885 123.56C437.605 123.462 437.348 123.307 437.13 123.105C436.913 122.903 436.739 122.658 436.62 122.385C436.502 122.113 436.44 121.819 436.44 121.522C436.44 121.225 436.502 120.931 436.62 120.659C436.739 120.387 436.913 120.142 437.13 119.94C437.348 119.738 437.605 119.583 437.885 119.485C438.166 119.386 438.463 119.347 438.759 119.369H448.258C448.555 119.347 448.852 119.386 449.132 119.485C449.413 119.583 449.67 119.738 449.887 119.94C450.105 120.142 450.279 120.387 450.397 120.659C450.516 120.931 450.577 121.225 450.577 121.522C450.577 121.819 450.516 122.113 450.397 122.385C450.279 122.658 450.105 122.903 449.887 123.105C449.67 123.307 449.413 123.462 449.132 123.56C448.852 123.658 448.555 123.698 448.258 123.676Z" fill="#006BDF"/>
<path d="M537.065 123.676H527.555C527.011 123.636 526.503 123.391 526.132 122.992C525.761 122.592 525.555 122.067 525.555 121.522C525.555 120.977 525.761 120.452 526.132 120.053C526.503 119.653 527.011 119.409 527.555 119.369H537.065C537.609 119.409 538.117 119.653 538.488 120.053C538.859 120.452 539.065 120.977 539.065 121.522C539.065 122.067 538.859 122.592 538.488 122.992C538.117 123.391 537.609 123.636 537.065 123.676Z" fill="#006BDF"/>
</svg>
