<svg width="60" height="60" viewBox="0 0 60 60" fill="none" xmlns="http://www.w3.org/2000/svg">
<rect width="60" height="60" rx="29.5" fill="#113573"/>
<path d="M43.9999 38.8604C43.9999 39.1423 43.8853 39.4126 43.6814 39.612C43.4774 39.8113 43.2008 39.9233 42.9124 39.9233H35.5174C35.2752 40.806 34.7418 41.5859 33.9999 42.1422C33.258 42.6985 32.349 43 31.4139 43C30.4789 43 29.5699 42.6985 28.828 42.1422C28.0861 41.5859 27.5527 40.806 27.3105 39.9233H16.0875C15.7991 39.9233 15.5225 39.8113 15.3185 39.612C15.1146 39.4126 15 39.1423 15 38.8604C15 38.5785 15.1146 38.3081 15.3185 38.1088C15.5225 37.9095 15.7991 37.7975 16.0875 37.7975H27.3105C27.5527 36.9148 28.0861 36.1348 28.828 35.5786C29.5699 35.0223 30.4789 34.7208 31.4139 34.7208C32.349 34.7208 33.258 35.0223 33.9999 35.5786C34.7418 36.1348 35.2752 36.9148 35.5174 37.7975H42.9124C43.2008 37.7975 43.4774 37.9095 43.6814 38.1088C43.8853 38.3081 43.9999 38.5785 43.9999 38.8604ZM43.9999 20.1396C43.9999 20.4215 43.8853 20.6919 43.6814 20.8912C43.4774 21.0905 43.2008 21.2025 42.9124 21.2025H39.3599C39.1177 22.0852 38.5843 22.8652 37.8424 23.4214C37.1005 23.9777 36.1915 24.2792 35.2564 24.2792C34.3214 24.2792 33.4124 23.9777 32.6705 23.4214C31.9286 22.8652 31.3952 22.0852 31.1529 21.2025H16.0875C15.9447 21.2025 15.8033 21.175 15.6713 21.1216C15.5394 21.0682 15.4195 20.9899 15.3185 20.8912C15.2175 20.7925 15.1374 20.6753 15.0828 20.5464C15.0281 20.4174 15 20.2792 15 20.1396C15 20 15.0281 19.8618 15.0828 19.7329C15.1374 19.6039 15.2175 19.4867 15.3185 19.3881C15.4195 19.2894 15.5394 19.2111 15.6713 19.1576C15.8033 19.1042 15.9447 19.0767 16.0875 19.0767H31.1529C31.3952 18.194 31.9286 17.4141 32.6705 16.8578C33.4124 16.3015 34.3214 16 35.2564 16C36.1915 16 37.1005 16.3015 37.8424 16.8578C38.5843 17.4141 39.1177 18.194 39.3599 19.0767H42.9124C43.0558 19.0748 43.198 19.101 43.3309 19.1538C43.4637 19.2065 43.5844 19.2847 43.6857 19.3838C43.7871 19.4829 43.8671 19.6008 43.9211 19.7306C43.9751 19.8604 44.0019 19.9995 43.9999 20.1396ZM43.9999 29.4929C44.0019 29.633 43.9751 29.7721 43.9211 29.9019C43.8671 30.0317 43.7871 30.1497 43.6857 30.2487C43.5844 30.3478 43.4637 30.426 43.3309 30.4788C43.198 30.5315 43.0558 30.5577 42.9124 30.5558H25.9475C25.7053 31.4385 25.1718 32.2185 24.4299 32.7747C23.688 33.331 22.7791 33.6325 21.844 33.6325C20.9089 33.6325 19.9999 33.331 19.258 32.7747C18.5161 32.2185 17.9827 31.4385 17.7405 30.5558H16.0875C15.7991 30.5558 15.5225 30.4438 15.3185 30.2445C15.1146 30.0452 15 29.7748 15 29.4929C15 29.211 15.1146 28.9407 15.3185 28.7414C15.5225 28.542 15.7991 28.43 16.0875 28.43H17.7405C17.9827 27.5473 18.5161 26.7674 19.258 26.2111C19.9999 25.6548 20.9089 25.3533 21.844 25.3533C22.7791 25.3533 23.688 25.6548 24.4299 26.2111C25.1718 26.7674 25.7053 27.5473 25.9475 28.43H42.9124C43.2008 28.43 43.4774 28.542 43.6814 28.7414C43.8853 28.9407 43.9999 29.211 43.9999 29.4929Z" fill="white"/>
</svg>
