<svg width="341" height="546" viewBox="0 0 341 546" fill="none" xmlns="http://www.w3.org/2000/svg">
<mask id="mask0_4184_2338" style="mask-type:alpha" maskUnits="userSpaceOnUse" x="0" y="0" width="341" height="457">
<path fill-rule="evenodd" clip-rule="evenodd" d="M228.208 3.54813C215.839 -3.44754 200.211 0.947511 193.302 13.3647L134.689 118.7C134.545 118.731 134.4 118.763 134.256 118.794L159.943 39.742C164.23 26.5505 157.008 12.3897 143.813 8.11314C130.619 3.83654 116.447 11.0635 112.161 24.255L72.9707 144.864C72.8663 145.185 72.7687 145.507 72.6779 145.83C72.1743 146.183 71.6727 146.539 71.1729 146.898L79.4514 62.9512C80.7314 49.9715 71.2472 38.4084 58.2679 37.1243C45.2886 35.8402 33.7292 45.3214 32.4492 58.3011L17.4479 210.419C2.79721 240.291 -2.91144 274.022 1.40474 307.472C7.07227 351.395 29.5813 391.398 64.1822 419.041C98.7831 446.684 142.769 459.803 186.86 455.632C230.95 451.46 271.695 430.324 300.497 396.682C322.774 370.664 336.559 338.739 340.427 305.157C342.315 288.76 327.881 276.126 311.406 277.122C294.93 278.117 282.787 292.491 279.364 308.638C275.545 326.649 267.271 343.587 255.094 357.81C236.373 379.677 209.888 393.415 181.23 396.127C152.571 398.838 123.98 390.311 101.489 372.343C78.9988 354.375 64.3679 328.373 60.684 299.823C57.0001 271.273 64.5513 242.409 81.7443 219.321C98.9373 196.232 124.427 180.726 152.835 176.074C181.243 171.422 210.348 177.988 234.007 194.386C249.396 205.052 261.698 219.336 269.964 235.787C277.373 250.536 292.768 261.357 308.956 258.137C325.144 254.918 335.899 239.034 329.91 223.654C317.644 192.153 296.207 164.773 268.056 145.262C246.005 129.978 220.879 120.246 194.779 116.54L238.093 38.6983C245.003 26.281 240.577 10.5438 228.208 3.54813Z" fill="#0B7BFF"/>
<path fill-rule="evenodd" clip-rule="evenodd" d="M135.343 119.582L134.9 119.678C134.757 119.709 134.613 119.74 134.47 119.771L132.766 120.144L158.992 39.433C163.108 26.767 156.174 13.1706 143.505 9.06442C130.835 4.95801 117.228 11.8975 113.112 24.5641L73.9218 145.173C73.8214 145.482 73.7277 145.791 73.6404 146.101L73.5438 146.444L73.2523 146.648C72.7517 146.999 72.253 147.353 71.7561 147.71L69.9608 148.999L78.4562 62.8531C79.682 50.4229 70.5993 39.3492 58.1695 38.1194C45.7399 36.8897 34.6702 45.9692 33.4444 58.3992L18.4254 210.697L18.3458 210.859C3.78082 240.557 -1.89438 274.09 2.39652 307.344C8.03086 351.01 30.4081 390.779 64.8064 418.26C99.2047 445.74 142.933 458.783 186.765 454.636C230.597 450.489 271.104 429.477 299.738 396.032C321.884 370.166 335.588 338.428 339.433 305.043C341.237 289.385 327.448 277.154 311.466 278.12C295.586 279.079 283.706 292.977 280.342 308.845C276.489 327.018 268.141 344.109 255.854 358.46C236.964 380.524 210.241 394.387 181.324 397.122C152.407 399.858 123.558 391.254 100.865 373.124C78.172 354.995 63.4093 328.758 59.6922 299.951C55.9751 271.144 63.5944 242.02 80.9423 218.723C98.2901 195.427 124.01 179.781 152.674 175.087C181.338 170.393 210.704 177.018 234.577 193.564C250.104 204.327 262.517 218.738 270.857 235.338C278.139 249.833 293.158 260.26 308.761 257.157C324.465 254.033 334.697 238.704 328.978 224.017C316.784 192.7 295.472 165.481 267.486 146.084C245.564 130.889 220.585 121.214 194.639 117.53L193.198 117.325L237.219 38.212C243.862 26.275 239.606 11.1437 227.716 4.41855C215.83 -2.30389 200.815 1.91872 194.176 13.851L135.343 119.582ZM238.093 38.6983C245.003 26.281 240.577 10.5438 228.208 3.54813C215.839 -3.44754 200.211 0.947511 193.302 13.3647L134.689 118.7C134.545 118.731 134.4 118.763 134.256 118.794L159.943 39.742C164.23 26.5505 157.008 12.3897 143.813 8.11314C130.619 3.83654 116.447 11.0635 112.161 24.255L72.9707 144.864C72.8663 145.185 72.7687 145.507 72.6779 145.83C72.5363 145.929 72.3949 146.028 72.2536 146.128C71.8924 146.383 71.5322 146.64 71.1729 146.898L79.4514 62.9512C80.7314 49.9715 71.2472 38.4084 58.2679 37.1243C45.2886 35.8402 33.7292 45.3214 32.4492 58.3011L17.4479 210.419C2.79721 240.291 -2.91144 274.022 1.40474 307.472C7.07227 351.395 29.5813 391.398 64.1822 419.041C98.7831 446.684 142.769 459.803 186.86 455.632C230.95 451.46 271.695 430.324 300.497 396.682C322.774 370.664 336.559 338.739 340.427 305.157C342.315 288.76 327.881 276.126 311.406 277.122C294.93 278.117 282.787 292.491 279.364 308.638C275.545 326.649 267.271 343.587 255.094 357.81C236.373 379.677 209.888 393.415 181.23 396.127C152.571 398.838 123.98 390.311 101.489 372.343C78.9988 354.375 64.3679 328.373 60.684 299.823C57.0001 271.273 64.5513 242.409 81.7443 219.321C98.9373 196.232 124.427 180.726 152.835 176.074C181.243 171.422 210.348 177.988 234.007 194.386C249.396 205.052 261.698 219.336 269.964 235.787C277.373 250.536 292.768 261.357 308.956 258.137C325.144 254.918 335.899 239.034 329.91 223.654C317.644 192.153 296.207 164.773 268.056 145.262C246.303 130.185 221.558 120.51 195.838 116.694C195.485 116.641 195.132 116.59 194.779 116.54L238.093 38.6983Z" fill="url(#paint0_linear_4184_2338)"/>
</mask>
<g mask="url(#mask0_4184_2338)">
<path d="M-127.078 0.220459L641.897 0.220459V655.153H-127.078L-127.078 0.220459Z" fill="url(#paint1_linear_4184_2338)"/>
<path fill-rule="evenodd" clip-rule="evenodd" d="M640.897 1.22046L-126.078 1.22046L-126.078 654.153H640.897V1.22046ZM-127.078 0.220459L-127.078 655.153H641.897V0.220459L-127.078 0.220459Z" fill="url(#paint2_linear_4184_2338)"/>
</g>
<path d="M146.078 196.245H192.821L178.931 214.248L203.376 358.266L170.469 392.27L134.767 358.266L159.985 214.248L146.078 196.245Z" fill="url(#paint3_linear_4184_2338)"/>
<path fill-rule="evenodd" clip-rule="evenodd" d="M145.06 195.745H193.838L179.46 214.38L203.911 358.432L170.483 392.974L134.229 358.443L159.455 214.379L145.06 195.745ZM160.406 214.748L135.306 358.088L170.454 391.566L202.841 358.1L178.508 214.748L160.406 214.748ZM178.685 213.748L191.803 196.745H147.096L160.231 213.748L178.685 213.748Z" fill="url(#paint4_linear_4184_2338)"/>
<path d="M313.916 544.906C314.032 544.558 314.11 544.055 314.148 543.398C314.226 542.74 314.322 542.141 314.438 541.6L314.38 541.426C313.916 542.006 313.375 542.566 312.756 543.108C312.176 543.649 311.519 544.132 310.784 544.558C310.05 544.983 309.257 545.312 308.406 545.544C307.594 545.814 306.724 545.95 305.796 545.95C304.404 545.95 303.186 545.737 302.142 545.312C301.098 544.886 300.228 544.326 299.532 543.63C298.836 542.934 298.295 542.122 297.908 541.194C297.56 540.266 297.386 539.299 297.386 538.294C297.386 536.786 297.715 535.471 298.372 534.35C299.03 533.228 299.9 532.32 300.982 531.624C301.988 530.966 303.167 530.464 304.52 530.116C305.874 529.729 307.188 529.439 308.464 529.246C309.74 529.052 310.9 528.936 311.944 528.898C312.988 528.82 313.684 528.782 314.032 528.782H314.844C314.806 527.583 314.728 526.655 314.612 525.998C314.496 525.302 314.342 524.722 314.148 524.258C313.8 523.484 313.22 522.943 312.408 522.634C311.635 522.286 310.707 522.112 309.624 522.112C308.967 522.112 308.252 522.17 307.478 522.286C306.744 522.363 306.048 522.537 305.39 522.808C304.733 523.078 304.153 523.465 303.65 523.968C303.186 524.432 302.916 525.05 302.838 525.824L302.606 525.998H300.75L300.228 520.546L300.402 520.198C300.634 519.966 301.079 519.714 301.736 519.444C302.394 519.173 303.186 518.922 304.114 518.69C305.042 518.419 306.048 518.206 307.13 518.052C308.252 517.858 309.373 517.762 310.494 517.762C312.002 517.762 313.414 517.955 314.728 518.342C316.043 518.69 317.164 519.231 318.092 519.966C319.059 520.7 319.813 521.628 320.354 522.75C320.896 523.832 321.166 525.108 321.166 526.578C321.166 528.163 321.147 529.516 321.108 530.638C321.108 531.759 321.089 532.803 321.05 533.77C321.012 534.736 320.973 535.684 320.934 536.612C320.934 537.501 320.934 538.506 320.934 539.628C321.012 540.517 321.108 541.155 321.224 541.542C321.34 541.928 321.534 542.238 321.804 542.47C322.114 542.779 322.578 542.972 323.196 543.05C323.854 543.088 324.453 543.108 324.994 543.108L325.168 543.34L325.284 545.312L325.226 545.544C324.569 545.466 323.815 545.408 322.964 545.37C322.114 545.331 321.321 545.312 320.586 545.312C319.504 545.312 318.421 545.312 317.338 545.312C316.256 545.35 315.231 545.408 314.264 545.486L313.916 544.906ZM313.916 538.642C314.032 538.448 314.148 538.216 314.264 537.946C314.419 537.675 314.516 537.346 314.554 536.96L314.844 532.03H314.322C313.124 532.03 311.944 532.107 310.784 532.262C309.624 532.416 308.58 532.706 307.652 533.132C306.724 533.557 305.97 534.156 305.39 534.93C304.81 535.703 304.52 536.708 304.52 537.946C304.52 538.99 304.772 539.821 305.274 540.44C305.816 541.058 306.531 541.368 307.42 541.368C308.078 541.368 308.735 541.29 309.392 541.136C310.088 540.942 310.726 540.71 311.306 540.44C311.886 540.169 312.408 539.879 312.872 539.57C313.336 539.222 313.684 538.912 313.916 538.642Z" fill="url(#paint5_linear_4184_2338)"/>
<path d="M282.389 524.78C282.776 524.045 283.201 523.272 283.665 522.46C284.168 521.648 284.729 520.894 285.347 520.198C285.966 519.502 286.662 518.922 287.435 518.458C288.247 517.994 289.156 517.762 290.161 517.762C290.471 517.762 290.838 517.8 291.263 517.878C291.727 517.916 292.172 517.994 292.597 518.11C293.061 518.226 293.506 518.361 293.931 518.516C294.357 518.67 294.685 518.844 294.917 519.038L295.323 519.386L294.627 525.65H292.133C292.017 525.186 291.708 524.722 291.205 524.258C290.741 523.755 290.007 523.504 289.001 523.504C288.112 523.504 287.3 523.736 286.565 524.2C285.831 524.625 285.193 525.166 284.651 525.824C284.11 526.481 283.685 527.196 283.375 527.97C283.066 528.704 282.911 529.381 282.911 530V534.002C282.911 535.471 282.911 536.573 282.911 537.308C282.95 538.042 282.989 538.68 283.027 539.222C283.105 540.072 283.201 540.768 283.317 541.31C283.472 541.812 283.704 542.199 284.013 542.47C284.168 542.624 284.4 542.76 284.709 542.876C285.057 542.953 285.405 543.011 285.753 543.05C286.101 543.088 286.43 543.108 286.739 543.108C287.087 543.108 287.358 543.108 287.551 543.108L287.841 543.398L287.957 545.312L287.841 545.544C287.609 545.544 287.223 545.524 286.681 545.486C286.14 545.447 285.56 545.408 284.941 545.37C284.323 545.37 283.743 545.35 283.201 545.312C282.66 545.312 282.273 545.312 282.041 545.312H278.329C278.059 545.312 277.633 545.312 277.053 545.312C276.512 545.35 275.932 545.37 275.313 545.37C274.695 545.408 274.095 545.447 273.515 545.486C272.974 545.524 272.568 545.544 272.297 545.544L272.239 545.312L272.355 543.34L272.529 543.108C273.187 543.108 273.805 543.088 274.385 543.05C274.965 542.972 275.41 542.779 275.719 542.47C276.029 542.199 276.241 541.851 276.357 541.426C276.512 541 276.628 540.266 276.705 539.222C276.744 538.758 276.763 538.139 276.763 537.366C276.763 536.592 276.763 535.51 276.763 534.118V529.884C276.763 529.072 276.763 528.395 276.763 527.854C276.763 527.274 276.744 526.771 276.705 526.346C276.705 525.92 276.686 525.534 276.647 525.186C276.647 524.838 276.628 524.47 276.589 524.084C276.512 523.697 276.396 523.33 276.241 522.982C276.087 522.634 275.951 522.402 275.835 522.286C275.449 521.783 274.965 521.493 274.385 521.416C273.805 521.338 273.206 521.3 272.587 521.3L272.355 521.068V519.096L272.587 518.922H273.631C274.482 518.922 275.584 518.922 276.937 518.922C278.291 518.883 279.47 518.806 280.475 518.69L282.505 518.4L282.853 519.502C282.621 520.236 282.447 521.068 282.331 521.996C282.254 522.924 282.215 523.832 282.215 524.722L282.389 524.78Z" fill="url(#paint6_linear_4184_2338)"/>
<path d="M258.748 544.906C258.864 544.558 258.942 544.055 258.98 543.398C259.058 542.74 259.154 542.141 259.27 541.6L259.212 541.426C258.748 542.006 258.207 542.566 257.588 543.108C257.008 543.649 256.351 544.132 255.616 544.558C254.882 544.983 254.089 545.312 253.238 545.544C252.426 545.814 251.556 545.95 250.628 545.95C249.236 545.95 248.018 545.737 246.974 545.312C245.93 544.886 245.06 544.326 244.364 543.63C243.668 542.934 243.127 542.122 242.74 541.194C242.392 540.266 242.218 539.299 242.218 538.294C242.218 536.786 242.547 535.471 243.204 534.35C243.862 533.228 244.732 532.32 245.814 531.624C246.82 530.966 247.999 530.464 249.352 530.116C250.706 529.729 252.02 529.439 253.296 529.246C254.572 529.052 255.732 528.936 256.776 528.898C257.82 528.82 258.516 528.782 258.864 528.782H259.676C259.638 527.583 259.56 526.655 259.444 525.998C259.328 525.302 259.174 524.722 258.98 524.258C258.632 523.484 258.052 522.943 257.24 522.634C256.467 522.286 255.539 522.112 254.456 522.112C253.799 522.112 253.084 522.17 252.31 522.286C251.576 522.363 250.88 522.537 250.222 522.808C249.565 523.078 248.985 523.465 248.482 523.968C248.018 524.432 247.748 525.05 247.67 525.824L247.438 525.998H245.582L245.06 520.546L245.234 520.198C245.466 519.966 245.911 519.714 246.568 519.444C247.226 519.173 248.018 518.922 248.946 518.69C249.874 518.419 250.88 518.206 251.962 518.052C253.084 517.858 254.205 517.762 255.326 517.762C256.834 517.762 258.246 517.955 259.56 518.342C260.875 518.69 261.996 519.231 262.924 519.966C263.891 520.7 264.645 521.628 265.186 522.75C265.728 523.832 265.998 525.108 265.998 526.578C265.998 528.163 265.979 529.516 265.94 530.638C265.94 531.759 265.921 532.803 265.882 533.77C265.844 534.736 265.805 535.684 265.766 536.612C265.766 537.501 265.766 538.506 265.766 539.628C265.844 540.517 265.94 541.155 266.056 541.542C266.172 541.928 266.366 542.238 266.636 542.47C266.946 542.779 267.41 542.972 268.028 543.05C268.686 543.088 269.285 543.108 269.826 543.108L270 543.34L270.116 545.312L270.058 545.544C269.401 545.466 268.647 545.408 267.796 545.37C266.946 545.331 266.153 545.312 265.418 545.312C264.336 545.312 263.253 545.312 262.17 545.312C261.088 545.35 260.063 545.408 259.096 545.486L258.748 544.906ZM258.748 538.642C258.864 538.448 258.98 538.216 259.096 537.946C259.251 537.675 259.348 537.346 259.386 536.96L259.676 532.03H259.154C257.956 532.03 256.776 532.107 255.616 532.262C254.456 532.416 253.412 532.706 252.484 533.132C251.556 533.557 250.802 534.156 250.222 534.93C249.642 535.703 249.352 536.708 249.352 537.946C249.352 538.99 249.604 539.821 250.106 540.44C250.648 541.058 251.363 541.368 252.252 541.368C252.91 541.368 253.567 541.29 254.224 541.136C254.92 540.942 255.558 540.71 256.138 540.44C256.718 540.169 257.24 539.879 257.704 539.57C258.168 539.222 258.516 538.912 258.748 538.642Z" fill="url(#paint7_linear_4184_2338)"/>
<path d="M228.591 544.326C228.745 543.823 228.861 543.166 228.939 542.354C229.016 541.542 229.074 540.826 229.113 540.208C229.19 538.738 229.248 537.269 229.287 535.8C229.325 534.33 229.345 533.093 229.345 532.088C229.345 531.198 229.325 530.232 229.287 529.188C229.248 528.144 229.113 527.235 228.881 526.462C228.571 525.224 227.914 524.316 226.909 523.736C225.903 523.117 224.782 522.808 223.545 522.808C222.423 522.808 221.379 523.02 220.413 523.446C219.485 523.871 218.673 524.393 217.977 525.012C217.281 525.63 216.739 526.268 216.353 526.926C215.966 527.583 215.773 528.144 215.773 528.608C215.773 530.58 215.773 532.146 215.773 533.306C215.773 534.427 215.773 535.355 215.773 536.09C215.811 536.824 215.831 537.443 215.831 537.946C215.869 538.41 215.927 538.97 216.005 539.628C216.082 540.44 216.237 541.058 216.469 541.484C216.701 541.87 216.971 542.199 217.281 542.47C217.59 542.779 217.957 542.972 218.383 543.05C218.808 543.088 219.311 543.108 219.891 543.108L220.181 543.398L220.297 545.312L220.181 545.544C219.91 545.544 219.504 545.524 218.963 545.486C218.421 545.447 217.841 545.408 217.223 545.37C216.604 545.37 216.024 545.35 215.483 545.312C214.941 545.312 214.535 545.312 214.265 545.312H211.133C210.862 545.312 210.437 545.312 209.857 545.312C209.315 545.35 208.735 545.37 208.117 545.37C207.537 545.408 206.957 545.447 206.377 545.486C205.835 545.524 205.429 545.544 205.159 545.544L205.101 545.312L205.217 543.34L205.391 543.108C206.009 543.108 206.551 543.088 207.015 543.05C207.517 542.972 207.923 542.779 208.233 542.47C208.542 542.199 208.793 541.851 208.987 541.426C209.18 541 209.315 540.401 209.393 539.628C209.431 539.164 209.47 538.7 209.509 538.236C209.547 537.772 209.567 537.23 209.567 536.612C209.605 535.954 209.625 535.2 209.625 534.35C209.625 533.46 209.625 532.397 209.625 531.16V518.4C209.625 516.892 209.625 515.616 209.625 514.572C209.625 513.528 209.605 512.638 209.567 511.904C209.567 511.13 209.547 510.454 209.509 509.874C209.509 509.255 209.489 508.656 209.451 508.076C209.412 507.689 209.277 507.341 209.045 507.032C208.851 506.684 208.697 506.452 208.581 506.336C208.194 505.91 207.672 505.64 207.015 505.524C206.396 505.369 205.777 505.292 205.159 505.292L204.927 505.06V503.146L205.159 502.914H208.407C209.296 502.914 210.243 502.914 211.249 502.914C212.254 502.875 213.143 502.798 213.917 502.682L215.947 502.392L216.295 503.494C216.217 503.687 216.159 504.016 216.121 504.48C216.082 504.905 216.043 505.388 216.005 505.93C215.966 506.432 215.947 506.935 215.947 507.438C215.947 507.902 215.947 508.269 215.947 508.54C215.947 509.545 215.908 510.705 215.831 512.02C215.792 513.334 215.773 514.862 215.773 516.602C215.773 518.226 215.753 519.676 215.715 520.952C215.715 522.228 215.676 523.156 215.599 523.736L215.773 523.852C216.237 523.156 216.778 522.46 217.397 521.764C218.054 521.029 218.769 520.372 219.543 519.792C220.355 519.173 221.225 518.69 222.153 518.342C223.119 517.955 224.144 517.762 225.227 517.762C226.425 517.762 227.605 517.916 228.765 518.226C229.925 518.535 230.969 519.018 231.897 519.676C232.863 520.333 233.656 521.164 234.275 522.17C234.893 523.175 235.299 524.374 235.493 525.766C235.609 526.771 235.667 527.931 235.667 529.246C235.705 530.522 235.725 531.566 235.725 532.378V539.396C235.725 540.285 235.841 540.981 236.073 541.484C236.305 541.948 236.537 542.276 236.769 542.47C237.117 542.779 237.561 542.972 238.103 543.05C238.644 543.088 239.224 543.108 239.843 543.108L240.017 543.34L240.133 545.312L240.017 545.544C239.205 545.466 238.315 545.408 237.349 545.37C236.382 545.331 235.415 545.312 234.449 545.312C232.477 545.312 230.659 545.37 228.997 545.486L228.591 544.326Z" fill="url(#paint8_linear_4184_2338)"/>
<path d="M194.791 529.072C196.415 529.458 197.729 529.98 198.735 530.638C199.74 531.295 200.494 532.01 200.997 532.784C201.538 533.557 201.886 534.35 202.041 535.162C202.234 535.974 202.331 536.728 202.331 537.424C202.331 538.661 202.079 539.802 201.577 540.846C201.074 541.89 200.339 542.798 199.373 543.572C198.445 544.306 197.304 544.886 195.951 545.312C194.597 545.737 193.07 545.95 191.369 545.95C189.59 545.95 187.927 545.756 186.381 545.37C184.834 545.022 183.616 544.596 182.727 544.094L182.031 543.34L182.901 536.206H184.815L184.989 536.438C184.989 538.139 185.511 539.492 186.555 540.498C187.599 541.464 189.145 541.948 191.195 541.948C192.277 541.948 193.186 541.851 193.921 541.658C194.694 541.426 195.293 541.155 195.719 540.846C196.183 540.498 196.511 540.13 196.705 539.744C196.898 539.318 196.995 538.932 196.995 538.584C196.995 538.313 196.975 538.023 196.937 537.714C196.898 537.404 196.782 537.095 196.589 536.786C196.395 536.438 196.105 536.109 195.719 535.8C195.332 535.452 194.771 535.162 194.037 534.93L188.469 533.538C187.193 533.228 186.149 532.784 185.337 532.204C184.525 531.624 183.867 530.986 183.365 530.29C182.901 529.555 182.572 528.782 182.379 527.97C182.224 527.158 182.147 526.346 182.147 525.534C182.147 524.258 182.398 523.136 182.901 522.17C183.403 521.164 184.08 520.352 184.931 519.734C185.82 519.076 186.845 518.593 188.005 518.284C189.165 517.936 190.421 517.762 191.775 517.762C193.476 517.762 195.042 517.974 196.473 518.4C197.903 518.786 199.005 519.212 199.779 519.676L200.533 520.372L199.895 525.998H198.097L197.865 525.824C197.865 524.973 197.633 524.277 197.169 523.736C196.743 523.156 196.202 522.711 195.545 522.402C194.926 522.054 194.269 521.822 193.573 521.706C192.877 521.551 192.258 521.474 191.717 521.474C190.17 521.474 189.068 521.802 188.411 522.46C187.753 523.117 187.425 523.852 187.425 524.664C187.425 525.36 187.637 526.036 188.063 526.694C188.527 527.351 189.397 527.834 190.673 528.144L194.791 529.072Z" fill="url(#paint9_linear_4184_2338)"/>
<path d="M167.67 544.906C167.786 544.558 167.863 544.055 167.902 543.398C167.979 542.74 168.076 542.141 168.192 541.6L168.134 541.426C167.67 542.006 167.129 542.566 166.51 543.108C165.93 543.649 165.273 544.132 164.538 544.558C163.803 544.983 163.011 545.312 162.16 545.544C161.348 545.814 160.478 545.95 159.55 545.95C158.158 545.95 156.94 545.737 155.896 545.312C154.852 544.886 153.982 544.326 153.286 543.63C152.59 542.934 152.049 542.122 151.662 541.194C151.314 540.266 151.14 539.299 151.14 538.294C151.14 536.786 151.469 535.471 152.126 534.35C152.783 533.228 153.653 532.32 154.736 531.624C155.741 530.966 156.921 530.464 158.274 530.116C159.627 529.729 160.942 529.439 162.218 529.246C163.494 529.052 164.654 528.936 165.698 528.898C166.742 528.82 167.438 528.782 167.786 528.782H168.598C168.559 527.583 168.482 526.655 168.366 525.998C168.25 525.302 168.095 524.722 167.902 524.258C167.554 523.484 166.974 522.943 166.162 522.634C165.389 522.286 164.461 522.112 163.378 522.112C162.721 522.112 162.005 522.17 161.232 522.286C160.497 522.363 159.801 522.537 159.144 522.808C158.487 523.078 157.907 523.465 157.404 523.968C156.94 524.432 156.669 525.05 156.592 525.824L156.36 525.998H154.504L153.982 520.546L154.156 520.198C154.388 519.966 154.833 519.714 155.49 519.444C156.147 519.173 156.94 518.922 157.868 518.69C158.796 518.419 159.801 518.206 160.884 518.052C162.005 517.858 163.127 517.762 164.248 517.762C165.756 517.762 167.167 517.955 168.482 518.342C169.797 518.69 170.918 519.231 171.846 519.966C172.813 520.7 173.567 521.628 174.108 522.75C174.649 523.832 174.92 525.108 174.92 526.578C174.92 528.163 174.901 529.516 174.862 530.638C174.862 531.759 174.843 532.803 174.804 533.77C174.765 534.736 174.727 535.684 174.688 536.612C174.688 537.501 174.688 538.506 174.688 539.628C174.765 540.517 174.862 541.155 174.978 541.542C175.094 541.928 175.287 542.238 175.558 542.47C175.867 542.779 176.331 542.972 176.95 543.05C177.607 543.088 178.207 543.108 178.748 543.108L178.922 543.34L179.038 545.312L178.98 545.544C178.323 545.466 177.569 545.408 176.718 545.37C175.867 545.331 175.075 545.312 174.34 545.312C173.257 545.312 172.175 545.312 171.092 545.312C170.009 545.35 168.985 545.408 168.018 545.486L167.67 544.906ZM167.67 538.642C167.786 538.448 167.902 538.216 168.018 537.946C168.173 537.675 168.269 537.346 168.308 536.96L168.598 532.03H168.076C166.877 532.03 165.698 532.107 164.538 532.262C163.378 532.416 162.334 532.706 161.406 533.132C160.478 533.557 159.724 534.156 159.144 534.93C158.564 535.703 158.274 536.708 158.274 537.946C158.274 538.99 158.525 539.821 159.028 540.44C159.569 541.058 160.285 541.368 161.174 541.368C161.831 541.368 162.489 541.29 163.146 541.136C163.842 540.942 164.48 540.71 165.06 540.44C165.64 540.169 166.162 539.879 166.626 539.57C167.09 539.222 167.438 538.912 167.67 538.642Z" fill="url(#paint10_linear_4184_2338)"/>
<path d="M120.548 514.224L120.722 513.702C121.224 512.812 121.862 511.962 122.636 511.15C123.448 510.299 124.376 509.545 125.42 508.888C126.502 508.23 127.72 507.708 129.074 507.322C130.466 506.935 132.032 506.742 133.772 506.742C137.832 506.742 140.751 507.65 142.53 509.468C144.308 511.246 145.198 513.663 145.198 516.718C145.198 518.535 144.753 520.198 143.864 521.706C143.013 523.214 141.95 524.838 140.674 526.578C139.707 527.854 138.566 529.246 137.252 530.754C135.937 532.223 134.68 533.634 133.482 534.988C132.322 536.302 131.316 537.482 130.466 538.526C129.654 539.531 129.248 540.227 129.248 540.614L129.364 540.788H132.728C134.932 540.788 136.691 540.768 138.006 540.73C139.32 540.652 140.345 540.498 141.08 540.266C141.853 539.995 142.394 539.589 142.704 539.048C143.052 538.506 143.361 537.752 143.632 536.786L143.922 536.438H146.648L145.604 545.08L145.082 545.66C144.811 545.66 144.134 545.64 143.052 545.602C141.969 545.563 140.79 545.524 139.514 545.486C138.238 545.447 137 545.408 135.802 545.37C134.603 545.331 133.733 545.312 133.192 545.312H127.45C126.328 545.312 125.072 545.35 123.68 545.428C122.288 545.505 120.973 545.582 119.736 545.66L119.156 544.442V543.108C119.968 542.064 121.07 540.749 122.462 539.164C123.854 537.54 125.323 535.838 126.87 534.06C128.455 532.242 130.002 530.425 131.51 528.608C133.056 526.79 134.39 525.147 135.512 523.678C136.517 522.324 137.29 521.068 137.832 519.908C138.373 518.709 138.644 517.414 138.644 516.022C138.644 514.63 138.122 513.547 137.078 512.774C136.072 511.962 134.854 511.556 133.424 511.556C130.717 511.556 128.513 512.213 126.812 513.528C125.11 514.804 124.182 516.737 124.028 519.328L123.796 519.56H121.244L120.548 514.224Z" fill="url(#paint11_linear_4184_2338)"/>
<path d="M115.159 522.111H108.779C108.779 524.354 108.76 526.442 108.721 528.375C108.721 530.27 108.721 531.933 108.721 533.363C108.721 534.755 108.702 535.896 108.663 536.785C108.663 537.675 108.663 538.216 108.663 538.41C108.663 539.917 108.953 540.923 109.533 541.425C110.113 541.928 110.79 542.18 111.563 542.18C112.143 542.18 112.8 542.122 113.535 542.006C114.27 541.889 114.888 541.735 115.391 541.542L115.739 542.18L115.159 544.094C114.115 544.674 113.032 545.118 111.911 545.428C110.828 545.776 109.823 545.95 108.895 545.95C106.536 545.95 104.854 545.408 103.849 544.326C102.844 543.243 102.341 541.851 102.341 540.15C102.341 539.802 102.36 539.125 102.399 538.119C102.438 537.075 102.476 535.78 102.515 534.234C102.554 532.648 102.592 530.831 102.631 528.781C102.67 526.732 102.689 524.509 102.689 522.111H99.6729L99.4409 521.821V519.269L99.6729 519.037L102.689 518.225C102.689 516.988 102.65 515.731 102.573 514.455C102.534 513.141 102.476 511.865 102.399 510.627L102.805 510.279L103.617 510.221C103.888 510.221 104.255 510.202 104.719 510.163C105.222 510.125 105.744 510.086 106.285 510.047C106.826 509.97 107.329 509.893 107.793 509.815C108.296 509.738 108.663 509.661 108.895 509.583L109.417 509.815C109.224 510.782 109.069 512.077 108.953 513.701C108.837 515.287 108.779 516.795 108.779 518.225L115.159 517.877L115.449 518.109V521.821L115.159 522.111Z" fill="url(#paint12_linear_4184_2338)"/>
<path d="M95.1003 530.522L93.7083 531.566C91.6203 531.566 89.5517 531.585 87.5023 531.624C85.4917 531.662 83.423 531.682 81.2963 531.682H76.5403C76.5017 531.952 76.4823 532.223 76.4823 532.494C76.4823 532.726 76.4823 532.958 76.4823 533.19C76.4823 534.195 76.6563 535.2 77.0043 536.206C77.3523 537.211 77.8937 538.12 78.6283 538.932C79.4017 539.705 80.3683 540.343 81.5283 540.846C82.6883 541.31 84.0997 541.542 85.7623 541.542C86.961 541.542 88.2177 541.387 89.5323 541.078C90.8857 540.73 92.1423 540.285 93.3023 539.744L94.2883 540.15V542.238L93.7083 542.876C92.7803 543.61 91.4077 544.306 89.5903 544.964C87.8117 545.621 85.8783 545.95 83.7903 545.95C81.741 545.95 79.8657 545.621 78.1643 544.964C76.5017 544.268 75.0517 543.301 73.8143 542.064C72.6157 540.826 71.6683 539.357 70.9723 537.656C70.315 535.954 69.9863 534.06 69.9863 531.972C69.9863 529.845 70.3343 527.912 71.0303 526.172C71.7263 524.432 72.6737 522.943 73.8723 521.706C75.1097 520.468 76.5403 519.502 78.1643 518.806C79.827 518.11 81.6057 517.762 83.5003 517.762C84.5057 517.762 85.627 517.897 86.8643 518.168C88.1403 518.438 89.3583 518.96 90.5183 519.734C91.6783 520.468 92.7223 521.532 93.6503 522.924C94.5783 524.277 95.2163 526.075 95.5643 528.318L95.1003 530.522ZM83.5583 522.112C81.6637 522.112 80.1363 522.692 78.9763 523.852C77.855 524.973 77.1397 526.288 76.8303 527.796H79.7303C81.0837 527.796 82.4177 527.776 83.7323 527.738C85.047 527.66 86.381 527.622 87.7343 527.622C88.237 527.622 88.6043 527.486 88.8363 527.216C89.0683 526.906 89.1843 526.597 89.1843 526.288C89.1843 525.128 88.6237 524.142 87.5023 523.33C86.381 522.518 85.0663 522.112 83.5583 522.112Z" fill="url(#paint13_linear_4184_2338)"/>
<path d="M67.4511 545.66C67.1804 545.66 66.7358 545.64 66.1171 545.602C65.4984 545.563 64.8604 545.524 64.2031 545.486C63.5458 545.447 62.9077 545.408 62.2891 545.37C61.6704 545.331 61.2257 545.312 60.9551 545.312H57.5331C57.2624 545.312 56.8177 545.331 56.1991 545.37C55.5804 545.408 54.9424 545.447 54.2851 545.486C53.6277 545.524 52.9897 545.563 52.3711 545.602C51.7524 545.64 51.3078 545.66 51.0371 545.66L50.8631 545.428L51.0371 543.224L51.2691 542.992H51.9071C53.0284 542.992 53.8984 542.818 54.5171 542.47C55.1744 542.083 55.5031 541.329 55.5031 540.208L54.2271 521.242C54.1497 520.352 54.0918 519.579 54.0531 518.922C54.0531 518.264 53.9757 517.549 53.8211 516.776C53.5891 517.472 53.2218 518.458 52.7191 519.734C52.2164 521.01 51.6364 522.479 50.9791 524.142C50.3604 525.766 49.6838 527.506 48.9491 529.362C48.2144 531.218 47.4797 533.074 46.7451 534.93C46.0104 536.747 45.3144 538.506 44.6571 540.208C44.0384 541.87 43.4971 543.32 43.0331 544.558H38.2771L28.1271 516.95C28.1271 517.878 28.0884 518.651 28.0111 519.27C27.9337 519.85 27.8564 520.604 27.7791 521.532L27.0831 531.044C27.0057 532.32 26.9284 533.383 26.8511 534.234C26.8124 535.046 26.7738 535.742 26.7351 536.322C26.7351 536.902 26.7351 537.404 26.7351 537.83C26.7351 538.255 26.7351 538.68 26.7351 539.106C26.7351 540.227 26.8511 541 27.0831 541.426C27.3538 541.851 27.6437 542.18 27.9531 542.412C28.2624 542.721 28.6104 542.895 28.9971 542.934C29.4224 542.972 29.9444 542.992 30.5631 542.992L30.7951 543.224L30.9691 545.428L30.8531 545.66C30.5824 545.66 30.1764 545.64 29.6351 545.602C29.1324 545.563 28.6104 545.524 28.0691 545.486C27.5278 545.447 26.9864 545.408 26.4451 545.37C25.9424 545.331 25.5557 545.312 25.2851 545.312H21.8631C21.5924 545.312 21.1477 545.331 20.5291 545.37C19.9491 545.408 19.3111 545.447 18.6151 545.486C17.9577 545.524 17.3197 545.563 16.7011 545.602C16.1211 545.64 15.6957 545.66 15.4251 545.66L15.3091 545.428L15.4831 543.224L15.8311 542.992C16.4111 542.992 16.9717 542.972 17.5131 542.934C18.0544 542.856 18.5184 542.682 18.9051 542.412C19.2144 542.141 19.5237 541.793 19.8331 541.368C20.1424 540.942 20.3937 540.188 20.5871 539.106C20.6644 538.642 20.7611 538.004 20.8771 537.192C20.9931 536.38 21.1284 535.007 21.2831 533.074L22.0951 522.46C22.2111 521.106 22.2884 519.966 22.3271 519.038C22.4044 518.11 22.4431 517.317 22.4431 516.66C22.4817 516.002 22.5011 515.442 22.5011 514.978C22.5397 514.514 22.5591 514.05 22.5591 513.586C22.5591 512.464 22.3851 511.691 22.0371 511.266C21.7278 510.84 21.4184 510.512 21.1091 510.28C20.7611 509.97 20.3164 509.796 19.7751 509.758C19.2337 509.719 18.6537 509.7 18.0351 509.7L17.7451 509.468L17.5711 507.264L17.6871 507.032C17.9577 507.032 18.4024 507.051 19.0211 507.09C19.6397 507.128 20.2777 507.167 20.9351 507.206C21.5924 507.244 22.2304 507.283 22.8491 507.322C23.4677 507.36 23.9124 507.38 24.1831 507.38H28.6491C28.9198 507.38 29.2677 507.36 29.6931 507.322C30.1571 507.283 30.5824 507.225 30.9691 507.148L31.2591 507.322C31.2977 507.863 31.4331 508.617 31.6651 509.584C31.9357 510.55 32.2451 511.614 32.5931 512.774C32.9797 513.934 33.4051 515.171 33.8691 516.486C34.3331 517.762 34.7971 519.018 35.2611 520.256L38.9151 529.652C39.3404 530.696 39.7657 531.798 40.1911 532.958C40.6164 534.118 41.0031 535.22 41.3511 536.264C41.4671 536.109 41.7764 535.432 42.2791 534.234C42.7817 533.035 43.3811 531.546 44.0771 529.768C44.7731 527.989 45.5078 526.036 46.2811 523.91C47.0931 521.744 47.8471 519.618 48.5431 517.53C49.2777 515.442 49.8964 513.508 50.3991 511.73C50.9404 509.912 51.2884 508.462 51.4431 507.38L51.7331 507.148C52.0424 507.225 52.3711 507.283 52.7191 507.322C53.0671 507.36 53.3958 507.38 53.7051 507.38H58.6931C58.9637 507.38 59.4084 507.36 60.0271 507.322C60.6457 507.283 61.2837 507.244 61.9411 507.206C62.5984 507.167 63.2364 507.128 63.8551 507.09C64.4737 507.051 64.9184 507.032 65.1891 507.032L65.3051 507.264L65.1311 509.468L64.8411 509.7C64.2611 509.7 63.6811 509.738 63.1011 509.816C62.5597 509.854 62.1151 510.009 61.7671 510.28C61.4578 510.512 61.1291 510.86 60.7811 511.324C60.4718 511.788 60.3171 512.542 60.3171 513.586C60.3171 514.127 60.3171 514.63 60.3171 515.094C60.3171 515.558 60.3364 516.099 60.3751 516.718C60.4137 517.336 60.4524 518.09 60.4911 518.98C60.5684 519.869 60.6651 521.01 60.7811 522.402L61.4771 530.754C61.5931 532.146 61.6898 533.286 61.7671 534.176C61.8444 535.026 61.9024 535.742 61.9411 536.322C62.0184 536.902 62.0764 537.404 62.1151 537.83C62.1538 538.216 62.2118 538.642 62.2891 539.106C62.4437 540.227 62.6758 541 62.9851 541.426C63.2944 541.851 63.6037 542.18 63.9131 542.412C64.2611 542.721 64.7058 542.895 65.2471 542.934C65.8271 542.972 66.4264 542.992 67.0451 542.992L67.3351 543.224L67.5091 545.428L67.4511 545.66Z" fill="url(#paint14_linear_4184_2338)"/>
<defs>
<linearGradient id="paint0_linear_4184_2338" x1="170.297" y1="456.392" x2="170.297" y2="0.220947" gradientUnits="userSpaceOnUse">
<stop stop-color="#5995DD"/>
<stop offset="0.390503" stop-color="#305077"/>
</linearGradient>
<linearGradient id="paint1_linear_4184_2338" x1="257.41" y1="0.220457" x2="308.708" y2="327.739" gradientUnits="userSpaceOnUse">
<stop stop-color="#0C2E6B"/>
<stop offset="1" stop-color="#4A96F3"/>
</linearGradient>
<linearGradient id="paint2_linear_4184_2338" x1="257.41" y1="655.153" x2="257.41" y2="0.220459" gradientUnits="userSpaceOnUse">
<stop stop-color="#5995DD"/>
<stop offset="0.390503" stop-color="#305077"/>
</linearGradient>
<linearGradient id="paint3_linear_4184_2338" x1="169.071" y1="196.245" x2="169.071" y2="392.27" gradientUnits="userSpaceOnUse">
<stop stop-color="#0F3270"/>
<stop offset="1" stop-color="#4A96F3"/>
</linearGradient>
<linearGradient id="paint4_linear_4184_2338" x1="169.072" y1="392.27" x2="169.072" y2="196.245" gradientUnits="userSpaceOnUse">
<stop stop-color="#5995DD"/>
<stop offset="1" stop-color="#305077"/>
</linearGradient>
<linearGradient id="paint5_linear_4184_2338" x1="297.386" y1="531.856" x2="325.284" y2="531.856" gradientUnits="userSpaceOnUse">
<stop stop-color="#113573"/>
<stop offset="1" stop-color="#4B97F4"/>
</linearGradient>
<linearGradient id="paint6_linear_4184_2338" x1="272.239" y1="531.653" x2="295.323" y2="531.653" gradientUnits="userSpaceOnUse">
<stop stop-color="#113573"/>
<stop offset="1" stop-color="#4B97F4"/>
</linearGradient>
<linearGradient id="paint7_linear_4184_2338" x1="242.218" y1="531.856" x2="270.116" y2="531.856" gradientUnits="userSpaceOnUse">
<stop stop-color="#113573"/>
<stop offset="1" stop-color="#4B97F4"/>
</linearGradient>
<linearGradient id="paint8_linear_4184_2338" x1="204.927" y1="523.968" x2="240.133" y2="523.968" gradientUnits="userSpaceOnUse">
<stop stop-color="#113573"/>
<stop offset="1" stop-color="#4B97F4"/>
</linearGradient>
<linearGradient id="paint9_linear_4184_2338" x1="182.031" y1="531.856" x2="202.331" y2="531.856" gradientUnits="userSpaceOnUse">
<stop stop-color="#113573"/>
<stop offset="1" stop-color="#4B97F4"/>
</linearGradient>
<linearGradient id="paint10_linear_4184_2338" x1="151.14" y1="531.856" x2="179.038" y2="531.856" gradientUnits="userSpaceOnUse">
<stop stop-color="#113573"/>
<stop offset="1" stop-color="#4B97F4"/>
</linearGradient>
<linearGradient id="paint11_linear_4184_2338" x1="119.156" y1="526.201" x2="146.648" y2="526.201" gradientUnits="userSpaceOnUse">
<stop stop-color="#113573"/>
<stop offset="1" stop-color="#4B97F4"/>
</linearGradient>
<linearGradient id="paint12_linear_4184_2338" x1="99.4409" y1="527.766" x2="115.739" y2="527.766" gradientUnits="userSpaceOnUse">
<stop stop-color="#113573"/>
<stop offset="1" stop-color="#4B97F4"/>
</linearGradient>
<linearGradient id="paint13_linear_4184_2338" x1="69.9863" y1="531.856" x2="95.5643" y2="531.856" gradientUnits="userSpaceOnUse">
<stop stop-color="#113573"/>
<stop offset="1" stop-color="#4B97F4"/>
</linearGradient>
<linearGradient id="paint14_linear_4184_2338" x1="15.3091" y1="526.346" x2="67.5091" y2="526.346" gradientUnits="userSpaceOnUse">
<stop stop-color="#113573"/>
<stop offset="1" stop-color="#4B97F4"/>
</linearGradient>
</defs>
</svg>
