<svg width="229" height="78" viewBox="0 0 229 78" fill="none" xmlns="http://www.w3.org/2000/svg">
<path d="M63.3573 40.7306L58.132 43.6879L53.4453 39.0306L58.1693 34.3359L63.3573 37.2719C63.6635 37.4451 63.9182 37.6964 64.0955 38.0002C64.2727 38.3041 64.3661 38.6495 64.3661 39.0012C64.3661 39.353 64.2727 39.6984 64.0955 40.0023C63.9182 40.3061 63.6635 40.5574 63.3573 40.7306ZM35.7826 24.2319C35.6837 24.4721 35.6329 24.7295 35.6333 24.9892V53.0119C35.6333 53.3012 35.6933 53.5706 35.7986 53.8119L50.672 39.0292L35.7826 24.2319ZM52.0586 37.6519L56.4026 33.3346L38.6 23.2599C38.2184 23.0406 37.774 22.9565 37.3386 23.0212L52.0586 37.6519ZM52.0586 40.4079L37.392 54.9852C37.7893 55.0332 38.208 54.9639 38.6 54.7412L56.3653 44.6879L52.0586 40.4079Z" fill="#E8E9F8"/>
<path d="M80.358 26.555C80.16 26.1737 79.885 25.8877 79.533 25.697C79.181 25.499 78.774 25.4 78.312 25.4C77.806 25.4 77.355 25.5137 76.959 25.741C76.563 25.9683 76.2513 26.291 76.024 26.709C75.804 27.127 75.694 27.611 75.694 28.161C75.694 28.711 75.804 29.1987 76.024 29.624C76.2513 30.042 76.563 30.3647 76.959 30.592C77.355 30.8193 77.806 30.933 78.312 30.933C78.994 30.933 79.5477 30.7423 79.973 30.361C80.3983 29.9797 80.6587 29.4627 80.754 28.81H77.883V27.809H82.096V28.788C82.0153 29.382 81.8027 29.9283 81.458 30.427C81.1207 30.9257 80.677 31.3253 80.127 31.626C79.5843 31.9193 78.9793 32.066 78.312 32.066C77.5933 32.066 76.937 31.901 76.343 31.571C75.749 31.2337 75.276 30.768 74.924 30.174C74.5793 29.58 74.407 28.909 74.407 28.161C74.407 27.413 74.5793 26.742 74.924 26.148C75.276 25.554 75.749 25.092 76.343 24.762C76.9443 24.4247 77.6007 24.256 78.312 24.256C79.126 24.256 79.8483 24.4577 80.479 24.861C81.117 25.257 81.579 25.8217 81.865 26.555H80.358ZM84.5868 25.367V27.611H87.2268V28.634H84.5868V30.977H87.5568V32H83.3328V24.344H87.5568V25.367H84.5868ZM94.0404 24.355V25.378H92.0054V32H90.7514V25.378H88.7054V24.355H94.0404ZM99.4218 24.355V32H98.1678V24.355H99.4218ZM106.007 24.355V25.378H103.972V32H102.718V25.378H100.672V24.355H106.007ZM113.622 32.077C112.91 32.077 112.254 31.912 111.653 31.582C111.059 31.2447 110.586 30.779 110.234 30.185C109.889 29.5837 109.717 28.909 109.717 28.161C109.717 27.413 109.889 26.742 110.234 26.148C110.586 25.554 111.059 25.092 111.653 24.762C112.254 24.4247 112.91 24.256 113.622 24.256C114.34 24.256 114.997 24.4247 115.591 24.762C116.192 25.092 116.665 25.554 117.01 26.148C117.354 26.742 117.527 27.413 117.527 28.161C117.527 28.909 117.354 29.5837 117.01 30.185C116.665 30.779 116.192 31.2447 115.591 31.582C114.997 31.912 114.34 32.077 113.622 32.077ZM113.622 30.988C114.128 30.988 114.579 30.8743 114.975 30.647C115.371 30.4123 115.679 30.0823 115.899 29.657C116.126 29.2243 116.24 28.7257 116.24 28.161C116.24 27.5963 116.126 27.1013 115.899 26.676C115.679 26.2507 115.371 25.9243 114.975 25.697C114.579 25.4697 114.128 25.356 113.622 25.356C113.116 25.356 112.665 25.4697 112.269 25.697C111.873 25.9243 111.561 26.2507 111.334 26.676C111.114 27.1013 111.004 27.5963 111.004 28.161C111.004 28.7257 111.114 29.2243 111.334 29.657C111.561 30.0823 111.873 30.4123 112.269 30.647C112.665 30.8743 113.116 30.988 113.622 30.988ZM125.042 32H123.788L120.015 26.291V32H118.761V24.344H120.015L123.788 30.042V24.344H125.042V32Z" fill="#E8E9F8"/>
<path d="M85.3559 42.24C85.0359 41.6533 84.5959 41.2067 84.0359 40.9C83.4759 40.5933 82.8225 40.44 82.0759 40.44C81.2492 40.44 80.5159 40.6267 79.8759 41C79.2359 41.3733 78.7359 41.9067 78.3759 42.6C78.0159 43.2933 77.8359 44.0933 77.8359 45C77.8359 45.9333 78.0159 46.7467 78.3759 47.44C78.7492 48.1333 79.2625 48.6667 79.9159 49.04C80.5692 49.4133 81.3292 49.6 82.1959 49.6C83.2625 49.6 84.1359 49.32 84.8159 48.76C85.4959 48.1867 85.9425 47.3933 86.1559 46.38H81.3559V44.24H88.9159V46.68C88.7292 47.6533 88.3292 48.5533 87.7159 49.38C87.1025 50.2067 86.3092 50.8733 85.3359 51.38C84.3759 51.8733 83.2959 52.12 82.0959 52.12C80.7492 52.12 79.5292 51.82 78.4359 51.22C77.3559 50.6067 76.5025 49.76 75.8759 48.68C75.2625 47.6 74.9559 46.3733 74.9559 45C74.9559 43.6267 75.2625 42.4 75.8759 41.32C76.5025 40.2267 77.3559 39.38 78.4359 38.78C79.5292 38.1667 80.7425 37.86 82.0759 37.86C83.6492 37.86 85.0159 38.2467 86.1759 39.02C87.3359 39.78 88.1359 40.8533 88.5759 42.24H85.3559ZM95.9074 52.18C94.8408 52.18 93.8808 51.9467 93.0274 51.48C92.1741 51 91.5008 50.3267 91.0074 49.46C90.5274 48.5933 90.2874 47.5933 90.2874 46.46C90.2874 45.3267 90.5341 44.3267 91.0274 43.46C91.5341 42.5933 92.2208 41.9267 93.0874 41.46C93.9541 40.98 94.9208 40.74 95.9874 40.74C97.0541 40.74 98.0208 40.98 98.8874 41.46C99.7541 41.9267 100.434 42.5933 100.927 43.46C101.434 44.3267 101.687 45.3267 101.687 46.46C101.687 47.5933 101.427 48.5933 100.907 49.46C100.401 50.3267 99.7074 51 98.8274 51.48C97.9608 51.9467 96.9874 52.18 95.9074 52.18ZM95.9074 49.74C96.4141 49.74 96.8874 49.62 97.3274 49.38C97.7808 49.1267 98.1408 48.7533 98.4074 48.26C98.6741 47.7667 98.8074 47.1667 98.8074 46.46C98.8074 45.4067 98.5274 44.6 97.9674 44.04C97.4208 43.4667 96.7474 43.18 95.9474 43.18C95.1474 43.18 94.4741 43.4667 93.9274 44.04C93.3941 44.6 93.1274 45.4067 93.1274 46.46C93.1274 47.5133 93.3874 48.3267 93.9074 48.9C94.4408 49.46 95.1074 49.74 95.9074 49.74ZM108.661 52.18C107.595 52.18 106.635 51.9467 105.781 51.48C104.928 51 104.255 50.3267 103.761 49.46C103.281 48.5933 103.041 47.5933 103.041 46.46C103.041 45.3267 103.288 44.3267 103.781 43.46C104.288 42.5933 104.975 41.9267 105.841 41.46C106.708 40.98 107.675 40.74 108.741 40.74C109.808 40.74 110.775 40.98 111.641 41.46C112.508 41.9267 113.188 42.5933 113.681 43.46C114.188 44.3267 114.441 45.3267 114.441 46.46C114.441 47.5933 114.181 48.5933 113.661 49.46C113.155 50.3267 112.461 51 111.581 51.48C110.715 51.9467 109.741 52.18 108.661 52.18ZM108.661 49.74C109.168 49.74 109.641 49.62 110.081 49.38C110.535 49.1267 110.895 48.7533 111.161 48.26C111.428 47.7667 111.561 47.1667 111.561 46.46C111.561 45.4067 111.281 44.6 110.721 44.04C110.175 43.4667 109.501 43.18 108.701 43.18C107.901 43.18 107.228 43.4667 106.681 44.04C106.148 44.6 105.881 45.4067 105.881 46.46C105.881 47.5133 106.141 48.3267 106.661 48.9C107.195 49.46 107.861 49.74 108.661 49.74ZM120.835 40.74C121.662 40.74 122.389 40.9067 123.015 41.24C123.642 41.56 124.135 41.98 124.495 42.5V40.92H127.315V52.08C127.315 53.1067 127.109 54.02 126.695 54.82C126.282 55.6333 125.662 56.2733 124.835 56.74C124.009 57.22 123.009 57.46 121.835 57.46C120.262 57.46 118.969 57.0933 117.955 56.36C116.955 55.6267 116.389 54.6267 116.255 53.36H119.035C119.182 53.8667 119.495 54.2667 119.975 54.56C120.469 54.8667 121.062 55.02 121.755 55.02C122.569 55.02 123.229 54.7733 123.735 54.28C124.242 53.8 124.495 53.0667 124.495 52.08V50.36C124.135 50.88 123.635 51.3133 122.995 51.66C122.369 52.0067 121.649 52.18 120.835 52.18C119.902 52.18 119.049 51.94 118.275 51.46C117.502 50.98 116.889 50.3067 116.435 49.44C115.995 48.56 115.775 47.5533 115.775 46.42C115.775 45.3 115.995 44.3067 116.435 43.44C116.889 42.5733 117.495 41.9067 118.255 41.44C119.029 40.9733 119.889 40.74 120.835 40.74ZM124.495 46.46C124.495 45.78 124.362 45.2 124.095 44.72C123.829 44.2267 123.469 43.8533 123.015 43.6C122.562 43.3333 122.075 43.2 121.555 43.2C121.035 43.2 120.555 43.3267 120.115 43.58C119.675 43.8333 119.315 44.2067 119.035 44.7C118.769 45.18 118.635 45.7533 118.635 46.42C118.635 47.0867 118.769 47.6733 119.035 48.18C119.315 48.6733 119.675 49.0533 120.115 49.32C120.569 49.5867 121.049 49.72 121.555 49.72C122.075 49.72 122.562 49.5933 123.015 49.34C123.469 49.0733 123.829 48.7 124.095 48.22C124.362 47.7267 124.495 47.14 124.495 46.46ZM132.85 37.2V52H130.05V37.2H132.85ZM145.916 46.22C145.916 46.62 145.89 46.98 145.836 47.3H137.736C137.803 48.1 138.083 48.7267 138.576 49.18C139.07 49.6333 139.676 49.86 140.396 49.86C141.436 49.86 142.176 49.4133 142.616 48.52H145.636C145.316 49.5867 144.703 50.4667 143.796 51.16C142.89 51.84 141.776 52.18 140.456 52.18C139.39 52.18 138.43 51.9467 137.576 51.48C136.736 51 136.076 50.3267 135.596 49.46C135.13 48.5933 134.896 47.5933 134.896 46.46C134.896 45.3133 135.13 44.3067 135.596 43.44C136.063 42.5733 136.716 41.9067 137.556 41.44C138.396 40.9733 139.363 40.74 140.456 40.74C141.51 40.74 142.45 40.9667 143.276 41.42C144.116 41.8733 144.763 42.52 145.216 43.36C145.683 44.1867 145.916 45.14 145.916 46.22ZM143.016 45.42C143.003 44.7 142.743 44.1267 142.236 43.7C141.73 43.26 141.11 43.04 140.376 43.04C139.683 43.04 139.096 43.2533 138.616 43.68C138.15 44.0933 137.863 44.6733 137.756 45.42H143.016ZM162.906 42.36C162.906 43.1067 162.726 43.8067 162.366 44.46C162.019 45.1133 161.466 45.64 160.706 46.04C159.959 46.44 159.012 46.64 157.866 46.64H155.526V52H152.726V38.04H157.866C158.946 38.04 159.866 38.2267 160.626 38.6C161.386 38.9733 161.952 39.4867 162.326 40.14C162.712 40.7933 162.906 41.5333 162.906 42.36ZM157.746 44.38C158.519 44.38 159.092 44.2067 159.466 43.86C159.839 43.5 160.026 43 160.026 42.36C160.026 41 159.266 40.32 157.746 40.32H155.526V44.38H157.746ZM167.694 37.2V52H164.894V37.2H167.694ZM169.74 46.42C169.74 45.3 169.96 44.3067 170.4 43.44C170.853 42.5733 171.46 41.9067 172.22 41.44C172.993 40.9733 173.853 40.74 174.8 40.74C175.627 40.74 176.347 40.9067 176.96 41.24C177.587 41.5733 178.087 41.9933 178.46 42.5V40.92H181.28V52H178.46V50.38C178.1 50.9 177.6 51.3333 176.96 51.68C176.333 52.0133 175.607 52.18 174.78 52.18C173.847 52.18 172.993 51.94 172.22 51.46C171.46 50.98 170.853 50.3067 170.4 49.44C169.96 48.56 169.74 47.5533 169.74 46.42ZM178.46 46.46C178.46 45.78 178.327 45.2 178.06 44.72C177.793 44.2267 177.433 43.8533 176.98 43.6C176.527 43.3333 176.04 43.2 175.52 43.2C175 43.2 174.52 43.3267 174.08 43.58C173.64 43.8333 173.28 44.2067 173 44.7C172.733 45.18 172.6 45.7533 172.6 46.42C172.6 47.0867 172.733 47.6733 173 48.18C173.28 48.6733 173.64 49.0533 174.08 49.32C174.533 49.5867 175.013 49.72 175.52 49.72C176.04 49.72 176.527 49.5933 176.98 49.34C177.433 49.0733 177.793 48.7 178.06 48.22C178.327 47.7267 178.46 47.14 178.46 46.46ZM194.615 40.92L187.755 57.24H184.775L187.175 51.72L182.735 40.92H185.875L188.735 48.66L191.635 40.92H194.615Z" fill="#E8E9F8"/>
</svg>
