<svg width="48" height="66" viewBox="0 0 48 66" fill="none" xmlns="http://www.w3.org/2000/svg">
<mask id="mask0_5572_19643" style="mask-type:alpha" maskUnits="userSpaceOnUse" x="0" y="0" width="49" height="67">
<mask id="path-1-inside-1_5572_19643" fill="white">
<path fill-rule="evenodd" clip-rule="evenodd" d="M32.1575 0.488659C30.4147 -0.523392 28.2262 0.0872136 27.2695 1.85249L18.9803 17.1469C18.9597 17.1515 18.9391 17.1561 18.9186 17.1607L22.5631 5.645C23.1531 3.78085 22.1242 1.7681 20.265 1.14941C18.4057 0.530722 16.4202 1.54037 15.8303 3.40453L10.2574 21.013C10.251 21.0332 10.2448 21.0533 10.2388 21.0735C10.1693 21.1236 10.1 21.1741 10.031 21.2249L11.2057 8.99555C11.3814 7.16571 10.0413 5.53174 8.21244 5.34596C6.38356 5.16019 4.75848 6.49297 4.58272 8.32281L2.46117 30.4105C0.394831 34.7335 -0.410502 39.6154 0.197938 44.4566C0.996535 50.8108 4.16823 56.598 9.04375 60.597C13.9193 64.5961 20.1173 66.4941 26.3299 65.8906C32.5425 65.2871 38.2838 62.2293 42.3423 57.3625C45.5022 53.5732 47.4496 48.918 47.9794 44.0239C48.2303 41.7063 46.1927 39.9224 43.866 40.0667C41.5498 40.2103 39.8412 42.2274 39.389 44.5036C38.8624 47.1546 37.6872 49.6493 35.9447 51.7388C33.3066 54.9023 29.5748 56.8899 25.5366 57.2821C21.4984 57.6744 17.4697 56.4407 14.3006 53.8413C11.1315 51.242 9.06991 47.4803 8.55082 43.35C8.03173 39.2197 9.09576 35.044 11.5184 31.7038C13.941 28.3637 17.5327 26.1205 21.5356 25.4475C25.5385 24.7745 29.6396 25.7243 32.9733 28.0967C35.1563 29.65 36.8984 31.7338 38.0632 34.134C39.0868 36.2433 41.2786 37.7799 43.5758 37.3109C45.8405 36.8485 47.344 34.6291 46.5366 32.4633C44.8168 27.8504 41.7761 23.8399 37.771 20.9899C34.6642 18.7791 31.1243 17.3712 27.4472 16.8349L33.5809 5.51745C34.5377 3.75218 33.9004 1.50071 32.1575 0.488659Z"/>
</mask>
<path fill-rule="evenodd" clip-rule="evenodd" d="M32.1575 0.488659C30.4147 -0.523392 28.2262 0.0872136 27.2695 1.85249L18.9803 17.1469C18.9597 17.1515 18.9391 17.1561 18.9186 17.1607L22.5631 5.645C23.1531 3.78085 22.1242 1.7681 20.265 1.14941C18.4057 0.530722 16.4202 1.54037 15.8303 3.40453L10.2574 21.013C10.251 21.0332 10.2448 21.0533 10.2388 21.0735C10.1693 21.1236 10.1 21.1741 10.031 21.2249L11.2057 8.99555C11.3814 7.16571 10.0413 5.53174 8.21244 5.34596C6.38356 5.16019 4.75848 6.49297 4.58272 8.32281L2.46117 30.4105C0.394831 34.7335 -0.410502 39.6154 0.197938 44.4566C0.996535 50.8108 4.16823 56.598 9.04375 60.597C13.9193 64.5961 20.1173 66.4941 26.3299 65.8906C32.5425 65.2871 38.2838 62.2293 42.3423 57.3625C45.5022 53.5732 47.4496 48.918 47.9794 44.0239C48.2303 41.7063 46.1927 39.9224 43.866 40.0667C41.5498 40.2103 39.8412 42.2274 39.389 44.5036C38.8624 47.1546 37.6872 49.6493 35.9447 51.7388C33.3066 54.9023 29.5748 56.8899 25.5366 57.2821C21.4984 57.6744 17.4697 56.4407 14.3006 53.8413C11.1315 51.242 9.06991 47.4803 8.55082 43.35C8.03173 39.2197 9.09576 35.044 11.5184 31.7038C13.941 28.3637 17.5327 26.1205 21.5356 25.4475C25.5385 24.7745 29.6396 25.7243 32.9733 28.0967C35.1563 29.65 36.8984 31.7338 38.0632 34.134C39.0868 36.2433 41.2786 37.7799 43.5758 37.3109C45.8405 36.8485 47.344 34.6291 46.5366 32.4633C44.8168 27.8504 41.7761 23.8399 37.771 20.9899C34.6642 18.7791 31.1243 17.3712 27.4472 16.8349L33.5809 5.51745C34.5377 3.75218 33.9004 1.50071 32.1575 0.488659Z" fill="#0B7BFF"/>
<path d="M27.2695 1.85249L26.3903 1.37599V1.376L27.2695 1.85249ZM18.9803 17.1469L19.1969 18.1232L19.6422 18.0244L19.8595 17.6234L18.9803 17.1469ZM18.9186 17.1607L17.9652 16.8589L17.4402 18.5177L19.1377 18.1364L18.9186 17.1607ZM22.5631 5.645L23.5165 5.94674L23.5165 5.94674L22.5631 5.645ZM20.265 1.14941L20.5807 0.200566V0.200566L20.265 1.14941ZM15.8303 3.40453L14.8769 3.1028L15.8303 3.40453ZM10.2574 21.013L11.2108 21.3148L11.2108 21.3148L10.2574 21.013ZM10.2388 21.0735L10.8234 21.8848L11.1002 21.6854L11.1974 21.3584L10.2388 21.0735ZM10.031 21.2249L9.03562 21.1293L8.8215 23.3585L10.6243 22.0299L10.031 21.2249ZM11.2057 8.99555L10.2103 8.89994L11.2057 8.99555ZM8.21244 5.34596L8.11138 6.34085H8.11138L8.21244 5.34596ZM4.58272 8.32281L3.5873 8.2272L4.58272 8.32281ZM2.46117 30.4105L3.3634 30.8418L3.43968 30.6822L3.45659 30.5061L2.46117 30.4105ZM0.197938 44.4566L-0.794256 44.5813L0.197938 44.4566ZM26.3299 65.8906L26.4266 66.8859H26.4266L26.3299 65.8906ZM42.3423 57.3625L41.5743 56.722L42.3423 57.3625ZM47.9794 44.0239L46.9852 43.9163V43.9163L47.9794 44.0239ZM43.866 40.0667L43.8041 39.0686H43.8041L43.866 40.0667ZM39.389 44.5036L38.4082 44.3088L39.389 44.5036ZM35.9447 51.7388L36.7127 52.3793L35.9447 51.7388ZM14.3006 53.8413L13.6664 54.6145L14.3006 53.8413ZM11.5184 31.7038L12.3279 32.291L11.5184 31.7038ZM21.5356 25.4475L21.3698 24.4613L21.5356 25.4475ZM32.9733 28.0967L33.5531 27.2819L32.9733 28.0967ZM38.0632 34.134L37.1635 34.5706V34.5706L38.0632 34.134ZM43.5758 37.3109L43.7758 38.2907H43.7758L43.5758 37.3109ZM46.5366 32.4633L45.5996 32.8127L46.5366 32.4633ZM37.771 20.9899L38.3508 20.1751L37.771 20.9899ZM27.4472 16.8349L26.568 16.3584L25.8855 17.6177L27.3028 17.8244L27.4472 16.8349ZM33.5809 5.51745L32.7017 5.04096V5.04096L33.5809 5.51745ZM28.1487 2.32898C28.835 1.06264 30.3969 0.622654 31.6554 1.35343L32.6597 -0.376115C30.4324 -1.66944 27.6174 -0.888212 26.3903 1.37599L28.1487 2.32898ZM19.8595 17.6234L28.1487 2.32898L26.3903 1.376L18.1011 16.6704L19.8595 17.6234ZM18.7637 16.1706C18.7422 16.1754 18.7208 16.1802 18.6994 16.185L19.1377 18.1364C19.1575 18.1319 19.1772 18.1275 19.1969 18.1232L18.7637 16.1706ZM19.8719 17.4624L23.5165 5.94674L21.6097 5.34327L17.9652 16.8589L19.8719 17.4624ZM23.5165 5.94674C24.272 3.55964 22.9566 0.9912 20.5807 0.200566L19.9492 2.09826C21.2917 2.545 22.0342 4.00205 21.6097 5.34327L23.5165 5.94674ZM20.5807 0.200566C18.1939 -0.593672 15.6359 0.704643 14.8769 3.1028L16.7836 3.70627C17.2046 2.37611 18.6175 1.65512 19.9492 2.09826L20.5807 0.200566ZM14.8769 3.1028L9.30398 20.7113L11.2108 21.3148L16.7836 3.70627L14.8769 3.1028ZM9.30398 20.7113C9.29583 20.737 9.28793 20.7628 9.28027 20.7885L11.1974 21.3584C11.2017 21.3439 11.2062 21.3293 11.2108 21.3148L9.30398 20.7113ZM9.65418 20.2622C9.58179 20.3144 9.50966 20.3669 9.43779 20.4199L10.6243 22.0299C10.6904 21.9812 10.7568 21.9328 10.8234 21.8848L9.65418 20.2622ZM11.0265 21.3205L12.2011 9.09116L10.2103 8.89994L9.03562 21.1293L11.0265 21.3205ZM12.2011 9.09116C12.4295 6.71368 10.6897 4.59245 8.31349 4.35108L8.11138 6.34085C9.39294 6.47102 10.3334 7.61774 10.2103 8.89994L12.2011 9.09116ZM8.3135 4.35108C5.93305 4.10929 3.81607 5.84546 3.5873 8.2272L5.57814 8.41842C5.70089 7.14048 6.83407 6.2111 8.11138 6.34085L8.3135 4.35108ZM3.5873 8.2272L1.46575 30.3149L3.45659 30.5061L5.57814 8.41842L3.5873 8.2272ZM1.55894 29.9793C-0.589856 34.4748 -1.42664 39.5495 -0.794256 44.5813L1.19013 44.3319C0.605636 39.6812 1.37952 34.9923 3.3634 30.8418L1.55894 29.9793ZM-0.794256 44.5813C0.0357104 51.1851 3.33268 57.2061 8.40956 61.3702L9.67793 59.8239C5.00378 55.99 1.95736 50.4365 1.19013 44.3319L-0.794256 44.5813ZM8.40956 61.3702C13.4874 65.5352 19.9475 67.5153 26.4266 66.8859L26.2332 64.8953C20.287 65.4729 14.3512 63.657 9.67793 59.8239L8.40956 61.3702ZM26.4266 66.8859C32.9053 66.2566 38.8863 63.0683 43.1103 58.0029L41.5743 56.722C37.6813 61.3904 32.1796 64.3177 26.2332 64.8953L26.4266 66.8859ZM43.1103 58.0029C46.3988 54.0595 48.4229 49.2181 48.9736 44.1316L46.9852 43.9163C46.4762 48.6179 44.6057 53.0869 41.5743 56.722L43.1103 58.0029ZM48.9736 44.1316C49.3036 41.0827 46.6281 38.8934 43.8041 39.0686L43.9279 41.0648C45.7572 40.9513 47.1569 42.33 46.9852 43.9163L48.9736 44.1316ZM43.8041 39.0686C40.8951 39.249 38.9182 41.7412 38.4082 44.3088L40.3699 44.6984C40.7642 42.7136 42.2044 41.1717 43.9279 41.0648L43.8041 39.0686ZM38.4082 44.3088C37.9135 46.7989 36.8101 49.1396 35.1766 51.0984L36.7127 52.3793C38.5643 50.1589 39.8113 47.5103 40.3699 44.6984L38.4082 44.3088ZM35.1766 51.0984C32.7042 54.0633 29.2119 55.9204 25.4399 56.2868L25.6333 58.2774C29.9376 57.8593 33.9091 55.7412 36.7127 52.3793L35.1766 51.0984ZM25.4399 56.2868C21.6681 56.6532 17.9016 55.5016 14.9348 53.0681L13.6664 54.6145C17.0378 57.3798 21.3286 58.6956 25.6333 58.2774L25.4399 56.2868ZM14.9348 53.0681C11.9671 50.6339 10.0307 47.106 9.54301 43.2253L7.55862 43.4747C8.10908 47.8546 10.296 51.85 13.6664 54.6145L14.9348 53.0681ZM9.54301 43.2253C9.05527 39.3444 10.0558 35.4236 12.3279 32.291L10.7089 31.1167C8.13576 34.6644 7.00819 39.0951 7.55862 43.4747L9.54301 43.2253ZM12.3279 32.291C14.5994 29.1592 17.9618 27.0623 21.7014 26.4336L21.3698 24.4613C17.1036 25.1786 13.2826 27.5683 10.7089 31.1167L12.3279 32.291ZM21.7014 26.4336C25.4406 25.805 29.2738 26.6914 32.3935 28.9114L33.5531 27.2819C30.0053 24.7573 25.6365 23.7439 21.3698 24.4613L21.7014 26.4336ZM32.3935 28.9114C34.4368 30.3655 36.0704 32.3179 37.1635 34.5706L38.9629 33.6974C37.7265 31.1496 35.8757 28.9346 33.5531 27.2819L32.3935 28.9114ZM37.1635 34.5706C38.3163 36.9461 40.8906 38.8798 43.7758 38.2907L43.3757 36.3311C41.6666 36.6801 39.8573 35.5406 38.9629 33.6974L37.1635 34.5706ZM43.7758 38.2907C46.5245 37.7295 48.5355 34.9622 47.4736 32.114L45.5996 32.8127C46.1526 34.296 45.1564 35.9675 43.3757 36.3311L43.7758 38.2907ZM47.4736 32.114C45.6855 27.3178 42.5224 23.1437 38.3508 20.1751L37.1912 21.8046C41.0299 24.5362 43.9481 28.383 45.5996 32.8127L47.4736 32.114ZM38.3508 20.1751C35.1147 17.8723 31.4255 16.4046 27.5915 15.8454L27.3028 17.8244C30.8231 18.3379 34.2137 19.6859 37.1912 21.8046L38.3508 20.1751ZM32.7017 5.04096L26.568 16.3584L28.3263 17.3114L34.4601 5.99394L32.7017 5.04096ZM31.6554 1.35343C32.9334 2.0956 33.3992 3.75413 32.7017 5.04096L34.4601 5.99394C35.6761 3.75022 34.8673 0.90582 32.6597 -0.376115L31.6554 1.35343Z" fill="url(#paint0_linear_5572_19643)" mask="url(#path-1-inside-1_5572_19643)"/>
</mask>
<g mask="url(#mask0_5572_19643)">
<rect x="-17.4058" y="0.507492" width="107.354" height="93.748" fill="url(#paint1_linear_5572_19643)" stroke="url(#paint2_linear_5572_19643)"/>
</g>
<defs>
<linearGradient id="paint0_linear_5572_19643" x1="24.0002" y1="66.0005" x2="24.0002" y2="0" gradientUnits="userSpaceOnUse">
<stop stop-color="#5995DD"/>
<stop offset="0.390503" stop-color="#305077"/>
</linearGradient>
<linearGradient id="paint1_linear_5572_19643" x1="36.2714" y1="0.00749173" x2="43.8809" y2="47.3278" gradientUnits="userSpaceOnUse">
<stop stop-color="#0C2E6B"/>
<stop offset="1" stop-color="#4A96F3"/>
</linearGradient>
<linearGradient id="paint2_linear_5572_19643" x1="36.2714" y1="94.7554" x2="36.2714" y2="0.00749207" gradientUnits="userSpaceOnUse">
<stop stop-color="#5995DD"/>
<stop offset="0.390503" stop-color="#305077"/>
</linearGradient>
</defs>
</svg>
