<svg width="295" height="297" viewBox="0 0 295 297" fill="none" xmlns="http://www.w3.org/2000/svg">
<path d="M27.0869 208.755H264.886" stroke="#2B3E48" stroke-miterlimit="10"/>
<path d="M27.0869 163.433H264.886" stroke="#2B3E48" stroke-miterlimit="10"/>
<path d="M27.0869 118.105H264.886" stroke="#2B3E48" stroke-miterlimit="10"/>
<path d="M27.0869 72.777H264.886" stroke="#2B3E48" stroke-miterlimit="10"/>
<path d="M81.1548 47.0389V208.868" stroke="#2B3E48" stroke-miterlimit="10"/>
<path d="M224.088 47.0389V208.868" stroke="#2B3E48" stroke-miterlimit="10"/>
<path d="M86.4589 107.027L84.6948 108.904" stroke="#2B3E48" stroke-miterlimit="10"/>
<path d="M116.602 75.0222L88.5947 104.764" stroke="#2B3E48" stroke-miterlimit="10"/>
<path d="M230.201 107.027L228.437 108.904" stroke="#2B3E48" stroke-miterlimit="10"/>
<path d="M260.344 75.0222L232.336 104.764" stroke="#2B3E48" stroke-miterlimit="10"/>
<path d="M23.5175 198.562L21.7534 200.439" stroke="#2B3E48" stroke-miterlimit="10"/>
<path d="M55.4072 171.393L39.6719 187.674" stroke="#2B3E48" stroke-miterlimit="10"/>
<path d="M76.8242 36.2935L48.8169 66.035" stroke="#2B3E48" stroke-miterlimit="10"/>
<path d="M177.667 68.3041L175.897 70.1811" stroke="#2B3E48" stroke-miterlimit="10"/>
<path d="M209.556 41.1345L193.821 57.4161" stroke="#2B3E48" stroke-miterlimit="10"/>
<path d="M137.164 154.113L135.399 155.99" stroke="#2B3E48" stroke-miterlimit="10"/>
<path d="M167.307 122.109L139.299 151.85" stroke="#2B3E48" stroke-miterlimit="10"/>
<path d="M169.053 126.95L153.317 143.231" stroke="#2B3E48" stroke-miterlimit="10"/>
<path d="M120.879 93.068H153.884C156.779 93.068 159.555 94.2258 161.602 96.2866C163.649 98.3474 164.799 101.143 164.799 104.057V199.994H109.964V104.051C109.966 101.138 111.117 98.3441 113.163 96.2845C115.21 94.2249 117.986 93.068 120.879 93.068Z" fill="#2B3E48" stroke="#2B3E48" stroke-linecap="round" stroke-linejoin="round"/>
<path d="M171.265 256.133L142.302 247.555V238.01H140.668V202.768H135.523V238.01H133.889V247.3L104.926 256.133V257.529H105.315C105.092 257.94 104.976 258.402 104.979 258.871C104.977 259.364 105.103 259.849 105.344 260.278C105.584 260.707 105.932 261.066 106.352 261.319C106.773 261.572 107.251 261.71 107.741 261.72C108.23 261.73 108.714 261.612 109.144 261.377C109.575 261.142 109.937 260.798 110.195 260.379C110.453 259.96 110.599 259.481 110.617 258.989C110.636 258.496 110.526 258.007 110.3 257.57C110.074 257.133 109.739 256.762 109.327 256.495L109.386 256.436L135.936 253.222V257.071C135.596 257.487 135.381 257.991 135.315 258.525C135.249 259.059 135.335 259.601 135.563 260.088C135.791 260.575 136.152 260.986 136.604 261.274C137.055 261.562 137.579 261.715 138.113 261.715C138.648 261.715 139.172 261.562 139.623 261.274C140.075 260.986 140.436 260.575 140.664 260.088C140.892 259.601 140.978 259.059 140.912 258.525C140.846 257.991 140.63 257.487 140.29 257.071V253.222L166.781 256.43C166.305 256.712 165.922 257.13 165.679 257.63C165.436 258.13 165.345 258.691 165.417 259.243C165.488 259.795 165.719 260.314 166.081 260.735C166.443 261.155 166.92 261.46 167.453 261.61C167.985 261.76 168.55 261.749 169.076 261.579C169.602 261.409 170.067 261.087 170.413 260.652C170.759 260.218 170.971 259.691 171.022 259.137C171.072 258.582 170.96 258.025 170.699 257.535H171.289L171.265 256.133Z" fill="#2B3E48" stroke="#2B3E48" stroke-linecap="round" stroke-linejoin="round"/>
<path d="M163.099 199.934H112.678C110.306 199.934 108.383 201.871 108.383 204.259V208.613C108.383 211.001 110.306 212.937 112.678 212.937H163.099C165.472 212.937 167.395 211.001 167.395 208.613V204.259C167.395 201.871 165.472 199.934 163.099 199.934Z" fill="white" stroke="#2B3E48" stroke-linecap="round" stroke-linejoin="round"/>
<path d="M158.875 178.848H117.888V201.794H158.875V178.848Z" fill="white" stroke="#2B3E48" stroke-linecap="round" stroke-linejoin="round"/>
<path d="M134.626 112.807L128.349 115.284C128.349 115.284 130.62 129.486 133.659 136.816C136.697 144.146 147.766 155.783 147.766 155.783C147.766 155.783 153.5 147.354 155.5 140.665C157.501 133.977 155.412 115.189 155.412 115.189C153.981 114.35 152.406 113.79 150.769 113.537C147.919 113.08 134.626 112.807 134.626 112.807Z" fill="white" stroke="#2B3E48" stroke-linecap="round" stroke-linejoin="round"/>
<path d="M140.727 122.798L143.629 128.411L138.815 139.109L146.55 150.834L151.282 140.113L145.547 128.203L148.55 122.976L144.272 118.669L140.727 122.798Z" fill="#2B3E48" stroke="#2B3E48" stroke-linecap="round" stroke-linejoin="round"/>
<path d="M135.541 112.165L133.535 112.717L131.623 116.103L136.343 129.575L144.084 121.515L152.544 130.217C152.544 130.217 153.547 116.656 153.547 115.099C153.547 113.543 152.185 112.991 151.187 112.723C150.19 112.456 135.541 112.165 135.541 112.165Z" fill="white" stroke="#2B3E48" stroke-linecap="round" stroke-linejoin="round"/>
<path d="M133.535 112.718C133.535 112.718 134.402 124.9 139.435 135.622C142.036 141.146 146.898 148.91 146.898 148.637C146.898 148.363 151.718 133.977 151.901 129.118C152.084 124.259 152.993 113.906 152.993 113.906C152.993 113.906 162.327 117.648 164.557 118.949C168.014 120.962 172.38 121.42 172.292 123.802C172.256 124.669 172.846 130.336 173.596 137.244C173.714 138.343 179.572 147.769 179.696 148.91C180.953 160.416 176.687 165.263 176.475 165.316C176.115 165.405 168.557 165.316 168.557 165.316C168.557 165.316 172.657 184.099 173.277 185.108L173.914 186.112H141.399L140.042 181.99L138.833 186.112H105.409L109.87 165.679H104.955C104.955 165.679 103.681 163.112 105.409 153.49C107.138 143.867 112.967 119.768 112.967 118.949C112.967 118.129 131.623 114.731 133.535 112.718Z" fill="#044CA0" stroke="#2B3E48" stroke-linecap="round" stroke-linejoin="round"/>
<path d="M140.485 160.327L140.042 181.99" stroke="#2B3E48" stroke-linecap="round" stroke-linejoin="round"/>
<path d="M153.011 152.118C158.385 147.08 160.751 137 160.751 137L155.925 134.892L160.568 132.599L156.556 115.373C154.285 113.401 152.952 113.454 153.016 113.888C153.016 113.888 152.108 124.241 151.925 129.1C151.742 133.959 146.91 148.363 146.91 148.637C146.91 148.91 141.559 141.354 139.446 135.622C134.526 122.281 133.582 114.238 133.44 112.7C133.439 112.674 133.43 112.65 133.416 112.628C133.402 112.607 133.382 112.59 133.359 112.58C133.337 112.569 133.311 112.564 133.286 112.566C133.261 112.569 133.237 112.578 133.216 112.593C132.538 112.997 130.856 113.329 129.676 114.375C129.346 116.751 128.921 120.196 128.626 123.986C128.083 131.042 128.083 134.155 128.083 134.155L134.361 135.717L129.9 138.283C129.9 138.283 134.815 143.32 138.91 147.08C143.004 150.84 145.73 152.207 145.73 152.207L140.485 160.327C140.485 160.327 147.642 157.161 153.011 152.118Z" fill="#044CA0" stroke="#2B3E48" stroke-linecap="round" stroke-linejoin="round"/>
<path d="M134.626 106.118V114.001C134.626 114.001 136.632 120.594 143.73 121.051C151.193 121.538 152.468 114.274 152.468 114.274V107.306C152.468 107.306 138.65 110.698 134.626 106.118Z" fill="white" stroke="#2B3E48" stroke-linecap="round" stroke-linejoin="round"/>
<path d="M154.197 95.4855C154.197 95.4855 154.468 91.9215 156.651 91.9215C158.834 91.9215 158.84 96.0439 158.291 97.6952C157.742 99.3465 154.922 100.535 154.014 99.2515" fill="white"/>
<path d="M154.197 95.4855C154.197 95.4855 154.468 91.9215 156.651 91.9215C158.834 91.9215 158.84 96.0439 158.291 97.6952C157.742 99.3465 154.922 100.535 154.014 99.2515" stroke="#2B3E48" stroke-linecap="round" stroke-linejoin="round"/>
<path d="M145.14 77.6477C145.14 77.6477 137.098 77.3507 134.319 79.4297C131.54 81.5087 132.124 87.0864 132.124 88.8506C132.124 90.6147 133.44 105.78 134.319 107.989C135.198 110.199 141.6 113.561 147.181 112.266C152.763 110.971 154.491 106.968 154.78 104.906C155.07 102.845 155.075 87.0864 154.78 82.9759C154.485 78.8654 149.081 78.0873 145.14 77.6477Z" fill="white" stroke="#2B3E48" stroke-linecap="round" stroke-linejoin="round"/>
<path d="M154.863 84.5856C154.863 83.9322 154.816 83.3976 154.78 82.9462C154.491 78.8238 149.081 78.0873 145.134 77.6477C145.134 77.6477 137.092 77.3507 134.313 79.4297C131.534 81.5087 132.119 87.0864 132.119 88.8506C132.119 89.5574 132.331 92.4146 132.644 95.7172C132.784 95.7971 132.942 95.8428 133.103 95.8508C133.265 95.8587 133.426 95.8286 133.573 95.7628C133.721 95.6971 133.852 95.5975 133.955 95.472C134.057 95.3465 134.13 95.1986 134.166 95.04C134.756 93.4184 133.877 91.9512 134.608 89.8901C135.34 87.8289 135.629 86.5043 137.387 85.4707C138.489 84.8349 139.667 84.3419 140.892 84.0035C140.892 84.0035 137.24 88.2684 145.281 88.1199C150.503 88.0011 153.447 86.9082 154.863 84.5856Z" fill="#2B3E48" stroke="#2B3E48" stroke-linecap="round" stroke-linejoin="round"/>
<path d="M139.635 99.1505C139.635 99.1505 139.358 102.18 145.459 101.717" stroke="#2B3E48" stroke-linecap="round" stroke-linejoin="round"/>
<path d="M141.547 92.2364C141.547 92.866 141.281 93.3828 140.957 93.3828C140.632 93.3828 140.367 92.866 140.367 92.2364C140.367 91.6067 140.632 91.09 140.957 91.09C141.281 91.09 141.547 91.6008 141.547 92.2364Z" fill="#2B3E48"/>
<path d="M150.692 92.2364C150.692 92.866 150.426 93.3828 150.102 93.3828C149.777 93.3828 149.512 92.866 149.512 92.2364C149.512 91.6067 149.777 91.09 150.102 91.09C150.426 91.09 150.692 91.6008 150.692 92.2364Z" fill="#2B3E48"/>
<path d="M133.263 95.4855C133.263 95.4855 132.992 91.9215 130.803 91.9215C128.614 91.9215 128.62 96.0439 129.169 97.6952C129.718 99.3465 132.532 100.535 133.446 99.2515" fill="white"/>
<path d="M133.263 95.4855C133.263 95.4855 132.992 91.9215 130.803 91.9215C128.614 91.9215 128.62 96.0439 129.169 97.6952C129.718 99.3465 132.532 100.535 133.446 99.2515" stroke="#2B3E48" stroke-linecap="round" stroke-linejoin="round"/>
<path d="M156.834 141.212C155.603 140.042 154.103 139.199 152.468 138.758C151.939 138.575 151.373 138.53 150.822 138.628C150.09 138.628 146.462 137.309 145.553 137.036C144.644 136.763 144.096 137.677 144.373 138.687C144.65 139.697 146.591 140.552 147.323 140.737C148.055 140.921 147.742 140.938 147.742 140.938C147.742 140.938 148.922 143.873 148.379 144.972C147.836 146.071 145.919 148.536 146.556 150.288C147.193 152.04 148.196 152.943 150.196 152.943C152.196 152.943 153.382 153.032 153.837 152.943C154.291 152.854 162.392 156.881 161.507 156.976C160.622 157.071 161.141 148.821 161.141 148.821L156.834 141.212Z" fill="white" stroke="#2B3E48" stroke-linecap="round" stroke-linejoin="round"/>
<path d="M138.449 146.071C138.449 146.071 142.727 143.962 144.821 141.853C146.916 139.744 147.641 139.198 148.361 139.014C149.081 138.83 152.002 138.004 152.727 137.363C153.453 136.721 154.002 137.915 152.91 138.83C152.112 139.483 151.259 140.065 150.361 140.57C149.907 140.849 149.453 142.132 149.453 142.132C149.453 142.132 153.913 140.208 155.459 140.665C157.005 141.123 158.539 142.512 158.444 143.332C158.35 144.152 158.067 143.76 157.064 143.665C156.061 143.57 154.639 143.136 153.524 143.594C152.409 144.051 151.164 145.156 151.164 145.613C151.164 146.071 152.438 146.344 153.441 146.255C154.444 146.166 155.17 145.886 156.167 146.071C157.164 146.255 157.99 146.801 158.079 147.354C158.167 147.906 157.719 147.9 156.621 147.995C155.524 148.09 153.618 148.179 152.981 148.637C152.344 149.094 149.069 150.65 149.618 151.203C150.167 151.755 150.491 151.755 151.583 151.755C152.674 151.755 153.842 150.912 154.48 150.959C155.335 151.025 155.795 151.09 155.795 151.09C155.795 151.09 157.312 151.155 157.176 151.755C156.963 152.717 156.456 152.747 154.255 152.848C152.533 152.931 152.072 152.759 150.527 153.127C149.201 153.557 147.823 153.803 146.432 153.858C143.789 154.042 139.057 152.759 139.057 152.759L138.449 146.071Z" fill="white" stroke="#2B3E48" stroke-linecap="round" stroke-linejoin="round"/>
<path d="M155.624 140.089C155.624 140.089 153.783 138.36 152.727 138.307C151.671 138.254 148.45 141.093 148.007 142.156C147.565 143.219 148.597 142.815 149.453 142.554C150.308 142.293 152.615 141.224 153.406 140.897C154.052 140.576 154.79 140.499 155.489 140.677" fill="white"/>
<path d="M155.624 140.089C155.624 140.089 153.783 138.36 152.727 138.307C151.671 138.254 148.45 141.093 148.007 142.156C147.565 143.219 148.597 142.815 149.453 142.554C150.308 142.293 152.615 141.224 153.406 140.897C154.052 140.576 154.79 140.499 155.489 140.677" stroke="#2B3E48" stroke-linecap="round" stroke-linejoin="round"/>
<path d="M157.996 143.867C157.996 143.867 155.365 142.542 153.719 143.273C152.073 144.003 150.031 145.465 150.031 146.124C150.031 146.783 150.362 146.659 151.801 146.587C153.241 146.516 155.843 146.094 156.191 146.076C156.712 146.137 157.227 146.242 157.731 146.391" fill="white"/>
<path d="M157.996 143.867C157.996 143.867 155.365 142.542 153.719 143.273C152.073 144.003 150.031 145.465 150.031 146.124C150.031 146.783 150.362 146.659 151.801 146.587C153.241 146.516 155.843 146.094 156.191 146.076C156.712 146.137 157.227 146.242 157.731 146.391" stroke="#2B3E48" stroke-linecap="round" stroke-linejoin="round"/>
<path d="M121.068 135.901L118.791 148.179C118.791 148.179 138.544 144.235 139.269 144.788C139.995 145.34 140.656 159.911 140.656 159.911C140.656 159.911 115.15 164.395 112.147 165.405C109.144 166.415 106.047 166.593 104.955 165.678C103.864 164.764 103.775 162.471 104.589 157.956C105.403 153.442 113.239 120.665 113.239 120.665" fill="#044CA0"/>
<path d="M121.068 135.901L118.791 148.179C118.791 148.179 138.544 144.235 139.269 144.788C139.995 145.34 140.656 159.911 140.656 159.911C140.656 159.911 115.15 164.395 112.147 165.405C109.144 166.415 106.047 166.593 104.955 165.678C103.864 164.764 103.775 162.471 104.589 157.956C105.403 153.442 113.239 120.665 113.239 120.665" stroke="#2B3E48" stroke-linecap="round" stroke-linejoin="round"/>
<path d="M166.846 135.076L167.666 149.094L161.111 148.821L160.48 160.439C160.48 160.439 178.546 164.675 179.549 165.191C180.552 165.708 180.369 164.645 181.549 162.899C182.729 161.152 183.738 157.404 183.643 155.771C183.549 154.137 179.82 148.643 179.732 148.898" fill="#044CA0"/>
<path d="M166.846 135.076L167.666 149.094L161.111 148.821L160.48 160.439C160.48 160.439 178.546 164.675 179.549 165.191C180.552 165.708 180.369 164.645 181.549 162.899C182.729 161.152 183.738 157.404 183.643 155.771C183.549 154.137 179.82 148.643 179.732 148.898" stroke="#2B3E48" stroke-linecap="round" stroke-linejoin="round"/>
<path d="M167.666 149.094H173.767" stroke="#2B3E48" stroke-linecap="round" stroke-linejoin="round"/>
<path d="M118.791 148.179L110.69 151.019" stroke="#2B3E48" stroke-linecap="round" stroke-linejoin="round"/>
<path d="M120.726 247.526C120.726 247.526 119.404 253.246 117.558 255.248C115.711 257.25 114.018 258.574 114.124 260.166L114.254 261.764H133.263V256.964C133.263 254.173 132.083 249.242 132.083 247.264C132.083 245.286 120.201 247.395 120.201 247.395" fill="#2B3E48"/>
<path d="M120.726 247.526C120.726 247.526 119.404 253.246 117.558 255.248C115.711 257.25 114.018 258.574 114.124 260.166L114.254 261.764H133.263V256.964C133.263 254.173 132.083 249.242 132.083 247.264C132.083 245.286 120.201 247.395 120.201 247.395" stroke="#2B3E48" stroke-linecap="round" stroke-linejoin="round"/>
<path d="M114.578 258.562C114.255 259.027 114.095 259.587 114.124 260.154L114.254 261.752H133.263V258.562H114.578Z" fill="#586166" stroke="#2B3E48" stroke-linecap="round" stroke-linejoin="round"/>
<path d="M137.228 196.757C137.228 196.757 139.075 184.93 135.907 179.483C132.738 174.036 121.646 173.9 115.445 177.618C109.244 181.336 106.831 187.437 109.073 195.278C111.315 203.118 116.501 203.273 116.501 203.273C116.501 203.273 115.18 214.036 115.18 218.289C115.18 222.542 119.67 248.993 119.67 248.993H132.75C132.75 248.993 136.963 202.34 137.228 196.757Z" fill="#586166" stroke="#2B3E48" stroke-linecap="round" stroke-linejoin="round"/>
<path d="M116.501 203.273L117.817 192.373" stroke="#2B3E48" stroke-linecap="round" stroke-linejoin="round"/>
<path d="M159.152 247.526C159.152 247.526 160.474 253.246 162.321 255.248C164.167 257.25 165.861 258.574 165.754 260.166L165.625 261.764H146.615V256.964C146.615 254.173 147.795 249.242 147.795 247.264C147.795 245.286 159.677 247.395 159.677 247.395" fill="#2B3E48"/>
<path d="M159.152 247.526C159.152 247.526 160.474 253.246 162.321 255.248C164.167 257.25 165.861 258.574 165.754 260.166L165.625 261.764H146.615V256.964C146.615 254.173 147.795 249.242 147.795 247.264C147.795 245.286 159.677 247.395 159.677 247.395" stroke="#2B3E48" stroke-linecap="round" stroke-linejoin="round"/>
<path d="M165.294 258.562C165.619 259.027 165.781 259.587 165.754 260.154L165.625 261.752H146.615V258.562H165.294Z" fill="#586166" stroke="#2B3E48" stroke-linecap="round" stroke-linejoin="round"/>
<path d="M142.65 196.757C142.65 196.757 140.804 184.93 143.972 179.483C147.14 174.036 158.232 173.9 164.433 177.618C170.634 181.336 173.1 187.437 170.852 195.278C168.604 203.118 163.377 203.273 163.377 203.273C163.377 203.273 164.699 214.036 164.699 218.289C164.699 222.542 160.209 248.993 160.209 248.993H147.14C147.14 248.993 142.916 202.34 142.65 196.757Z" fill="#586166" stroke="#2B3E48" stroke-linecap="round" stroke-linejoin="round"/>
<path d="M163.377 203.273L162.055 192.373" stroke="#2B3E48" stroke-linecap="round" stroke-linejoin="round"/>
<path d="M169.696 55.937H195.809C196.548 55.937 197.256 56.2324 197.778 56.7582C198.301 57.284 198.594 57.9971 198.594 58.7407V70.9415C198.594 71.685 198.301 72.3982 197.778 72.924C197.256 73.4497 196.548 73.7451 195.809 73.7451H187.968L190.016 79.3287L183.567 73.7451H169.696C169.33 73.7451 168.968 73.6726 168.63 73.5317C168.292 73.3908 167.985 73.1843 167.727 72.924C167.468 72.6636 167.263 72.3545 167.123 72.0144C166.983 71.6742 166.911 71.3096 166.911 70.9415V58.7407C166.911 58.3725 166.983 58.0079 167.123 57.6678C167.263 57.3276 167.468 57.0185 167.727 56.7582C167.985 56.4978 168.292 56.2913 168.63 56.1504C168.968 56.0095 169.33 55.937 169.696 55.937Z" fill="#2B3E48" stroke="#2B3E48" stroke-linecap="round" stroke-linejoin="round"/>
<path d="M189.29 66.035C190.127 66.035 190.806 65.3515 190.806 64.5084C190.806 63.6653 190.127 62.9818 189.29 62.9818C188.452 62.9818 187.773 63.6653 187.773 64.5084C187.773 65.3515 188.452 66.035 189.29 66.035Z" fill="#044CA0"/>
<path d="M182.027 66.035C182.864 66.035 183.543 65.3515 183.543 64.5084C183.543 63.6653 182.864 62.9818 182.027 62.9818C181.19 62.9818 180.511 63.6653 180.511 64.5084C180.511 65.3515 181.19 66.035 182.027 66.035Z" fill="#044CA0"/>
<path d="M174.77 66.035C175.608 66.035 176.287 65.3515 176.287 64.5084C176.287 63.6653 175.608 62.9818 174.77 62.9818C173.933 62.9818 173.254 63.6653 173.254 64.5084C173.254 65.3515 173.933 66.035 174.77 66.035Z" fill="#044CA0"/>
<path d="M68.2454 155.212L63.6611 164.96H76.6588L81.2431 155.687L68.2454 155.212Z" fill="#2B3E48" stroke="#2B3E48" stroke-linecap="round" stroke-linejoin="round"/>
<path d="M96.7839 155.212H68.2456L72.8358 164.96H101.368L96.7839 155.212Z" fill="white" stroke="#2B3E48" stroke-linecap="round" stroke-linejoin="round"/>
<path d="M46.0672 178.384H39.6362V261.716H46.0672V178.384Z" fill="#A3A3A3" stroke="#2B3E48" stroke-linecap="round" stroke-linejoin="round"/>
<path d="M251.918 178.598H245.487V261.93H251.918V178.598Z" fill="#A3A3A3" stroke="#2B3E48" stroke-linecap="round" stroke-linejoin="round"/>
<path d="M254.745 164.693H38.2383V245.007H254.745V164.693Z" fill="#A3A3A3" stroke="#2B3E48" stroke-linecap="round" stroke-linejoin="round"/>
<path d="M254.745 164.693H38.2383V173.05H254.745V164.693Z" fill="#2B3E48" stroke="#2B3E48" stroke-linecap="round" stroke-linejoin="round"/>
<path d="M260.261 164.693H32.7275V169.676H260.261V164.693Z" fill="white" stroke="#2B3E48" stroke-linecap="round" stroke-linejoin="round"/>
<path d="M13.5698 261.93H271.595" stroke="#2B3E48" stroke-linecap="round" stroke-linejoin="round"/>
</svg>
