<svg width="674" height="503" viewBox="0 0 674 503" fill="none" xmlns="http://www.w3.org/2000/svg">
<path d="M0 442.029H674V442.366H0V442.029Z" fill="#EBEBEB"/>
<path d="M67.5349 463.752H112.181V464.089H67.5349V463.752Z" fill="#EBEBEB"/>
<path d="M227.515 467.424H239.229V467.762H227.515V467.424Z" fill="#EBEBEB"/>
<path d="M113.528 451.223H139.396V451.56H113.528V451.223Z" fill="#EBEBEB"/>
<path d="M545.064 453.491H603.284V453.829H545.064V453.491Z" fill="#EBEBEB"/>
<path d="M524.52 453.491H533.053V453.829H524.52V453.491Z" fill="#EBEBEB"/>
<path d="M370.498 459.188H496.778V459.526H370.498V459.188Z" fill="#EBEBEB"/>
<path d="M354.524 381.813H614.81C616.849 381.81 618.803 380.996 620.244 379.551C621.684 378.105 622.493 376.146 622.493 374.104V7.64167C622.475 5.61112 621.658 3.66959 620.22 2.23879C618.781 0.807989 616.837 0.00347843 614.81 0H354.524C352.483 0 350.525 0.812214 349.082 2.25797C347.638 3.70372 346.827 5.66457 346.827 7.70917V374.104C346.827 376.149 347.638 378.11 349.082 379.555C350.525 381.001 352.483 381.813 354.524 381.813ZM614.81 0.270025C616.759 0.273601 618.628 1.05183 620.005 2.43389C621.383 3.81596 622.156 5.68892 622.156 7.64167V374.104C622.156 376.057 621.383 377.93 620.005 379.312C618.628 380.694 616.759 381.472 614.81 381.476H354.524C352.573 381.472 350.703 380.694 349.324 379.313C347.944 377.931 347.168 376.058 347.164 374.104V7.64167C347.168 5.68768 347.944 3.81475 349.324 2.43307C350.703 1.05139 352.573 0.273594 354.524 0.270025H614.81Z" fill="#EBEBEB"/>
<path d="M62.9382 381.813H323.237C325.277 381.81 327.233 380.996 328.676 379.551C330.118 378.107 330.931 376.148 330.934 374.104V7.64167C330.913 5.60989 330.093 3.66837 328.652 2.23795C327.211 0.807517 325.266 0.00344049 323.237 0H62.9382C60.9131 0.00702668 58.9724 0.813107 57.5366 2.24353C56.1009 3.67395 55.2858 5.61346 55.2681 7.64167V374.104C55.2681 376.144 56.0753 378.101 57.513 379.546C58.9506 380.991 60.9015 381.806 62.9382 381.813ZM323.237 0.270025C325.188 0.273594 327.058 1.05139 328.437 2.43307C329.817 3.81475 330.594 5.68768 330.597 7.64167V374.104C330.594 376.058 329.817 377.931 328.437 379.313C327.058 380.694 325.188 381.472 323.237 381.476H62.9382C60.9873 381.472 59.1173 380.694 57.7378 379.313C56.3583 377.931 55.5817 376.058 55.5782 374.104V7.64167C55.5817 5.68768 56.3583 3.81475 57.7378 2.43307C59.1173 1.05139 60.9873 0.273594 62.9382 0.270025H323.237Z" fill="#EBEBEB"/>
<path d="M256.807 434.158H285.264L270.301 312.147C269.942 309.599 268.692 307.261 266.775 305.548C264.857 303.835 262.395 302.858 259.827 302.791H135.676L153.874 434.158H256.807Z" fill="#F5F5F5"/>
<path d="M166.572 434.157H138.116L123.153 312.147C122.969 310.974 123.045 309.775 123.375 308.634C123.705 307.493 124.281 306.439 125.063 305.547C125.845 304.654 126.814 303.944 127.9 303.468C128.986 302.992 130.164 302.761 131.349 302.791H141.122C143.693 302.855 146.158 303.831 148.078 305.544C149.998 307.257 151.25 309.597 151.609 312.147L166.572 434.157Z" fill="#F0F0F0"/>
<path d="M177.046 434.022L171.897 374.995C171.779 373.722 171.231 372.526 170.344 371.606C169.457 370.686 168.284 370.096 167.017 369.932L164.887 369.662C163.193 369.447 161.622 368.662 160.432 367.436C159.242 366.209 158.503 364.614 158.336 362.912L157.406 352.111C157.314 351.069 157.44 350.019 157.775 349.029C158.11 348.038 158.647 347.128 159.351 346.356C160.056 345.584 160.913 344.968 161.869 344.545C162.824 344.123 163.856 343.904 164.901 343.902H117.357C116.311 343.902 115.277 344.119 114.32 344.541C113.364 344.963 112.505 345.579 111.799 346.351C111.092 347.123 110.554 348.034 110.219 349.026C109.883 350.017 109.757 351.068 109.848 352.111L110.792 362.912C110.956 364.615 111.695 366.211 112.885 367.438C114.076 368.665 115.648 369.449 117.343 369.662L119.46 369.932C120.73 370.097 121.907 370.691 122.795 371.617C123.682 372.542 124.227 373.744 124.339 375.022L129.502 434.049C129.684 436.123 130.635 438.053 132.167 439.46C133.698 440.867 135.701 441.649 137.779 441.651H185.336C183.252 441.648 181.245 440.863 179.71 439.451C178.175 438.039 177.225 436.102 177.046 434.022Z" fill="#E6E6E6"/>
<path d="M307.91 360.225C308.301 355.754 310.351 351.593 313.655 348.561C316.959 345.529 321.277 343.848 325.758 343.848H284.361C279.88 343.848 275.562 345.529 272.258 348.561C268.954 351.593 266.904 355.754 266.513 360.225L262.469 407.007H303.826L307.91 360.225Z" fill="#E6E6E6"/>
<path d="M344.144 343.848H325.758C321.277 343.848 316.959 345.529 313.655 348.561C310.351 351.593 308.301 355.754 307.91 360.225L303.866 407.006H205.273L201.229 360.225C200.834 355.746 198.776 351.579 195.462 348.546C192.147 345.514 187.817 343.837 183.328 343.848H164.928C163.883 343.85 162.851 344.069 161.896 344.491C160.94 344.913 160.083 345.53 159.378 346.302C158.674 347.074 158.137 347.984 157.802 348.975C157.467 349.965 157.341 351.015 157.433 352.057L158.363 362.858C158.53 364.56 159.269 366.155 160.459 367.381C161.649 368.608 163.22 369.393 164.914 369.608L167.044 369.878C168.315 370.043 169.491 370.637 170.379 371.562C171.266 372.488 171.811 373.69 171.924 374.968L177.073 433.995C177.258 436.07 178.212 438.001 179.746 439.407C181.28 440.814 183.284 441.595 185.363 441.596H323.722C325.8 441.594 327.803 440.813 329.335 439.406C330.866 437.999 331.817 436.069 331.999 433.995L337.162 374.968C337.274 373.69 337.819 372.488 338.707 371.562C339.594 370.637 340.771 370.043 342.041 369.878L344.158 369.608C345.853 369.395 347.425 368.611 348.616 367.384C349.806 366.157 350.545 364.561 350.709 362.858L351.653 352.057C351.744 351.014 351.618 349.963 351.282 348.971C350.947 347.98 350.409 347.069 349.703 346.297C348.996 345.525 348.138 344.908 347.181 344.487C346.224 344.065 345.19 343.848 344.144 343.848Z" fill="#F0F0F0"/>
<path d="M549.296 103.082C549.296 103.082 550.873 92.6451 543.284 85.9621C535.695 79.279 536.356 75.2961 538.526 74.7696C540.696 74.243 542.691 80.9396 546.034 82.7758C546.034 82.7758 546.142 73.2439 542.745 69.7336C539.348 66.2233 537.569 57.1775 540.804 57.029C544.039 56.8805 544.363 62.4295 545.037 66.3178C545.711 70.2062 549.296 75.7687 549.296 75.7687C549.296 75.7687 549.997 67.2494 552.195 63.7256C554.392 60.2018 548.541 52.1956 550.847 48.6853C553.152 45.175 557.047 51.8446 556.724 59.4052C556.4 66.9659 551.332 74.9586 552.545 82.8163C552.545 82.8163 554.756 77.3078 556.737 76.8083C558.719 76.3087 560.781 72.6499 562.062 71.2998C563.342 69.9497 565.068 74.6346 562.062 78.9819C559.056 83.3293 551.332 94.9133 552.545 104.31L549.296 103.082Z" fill="#E6E6E6"/>
<path d="M544.754 98.3291L542.26 113.963C542.081 115.1 542.15 116.261 542.461 117.368C542.773 118.475 543.321 119.501 544.066 120.376C544.812 121.251 545.738 121.954 546.78 122.437C547.823 122.919 548.957 123.17 550.105 123.171H552.801C553.949 123.17 555.084 122.92 556.126 122.437C557.168 121.954 558.093 121.251 558.837 120.376C559.582 119.501 560.128 118.474 560.438 117.367C560.748 116.26 560.815 115.099 560.633 113.963L558.072 98.3291H544.754Z" fill="#E6E6E6"/>
<path d="M582.377 126.452L406.543 126.452V117.406L582.377 117.406V126.452Z" fill="#E0E0E0"/>
<path d="M422.396 117.393H414.645V84.0449H422.396V117.393Z" fill="#EBEBEB"/>
<path d="M459.843 117.393H452.092V84.0449H459.843V117.393Z" fill="#EBEBEB"/>
<path d="M508.025 116.079L500.386 117.398L494.73 84.5349L502.369 83.2162L508.025 116.079Z" fill="#EBEBEB"/>
<path d="M431.994 117.406H424.243V88.4462H431.994V117.406Z" fill="#EBEBEB"/>
<path d="M449.801 117.406H442.05V88.4462H449.801V117.406Z" fill="#EBEBEB"/>
<path d="M494.73 117.406H486.979V88.4462H494.73V117.406Z" fill="#EBEBEB"/>
<path d="M476.277 115.696L468.711 117.381L462.438 89.1103L470.004 87.4261L476.277 115.696Z" fill="#EBEBEB"/>
<path d="M438.68 117.406H434.811V82.3977H438.68V117.406Z" fill="#EBEBEB"/>
<path d="M484.754 117.406H480.886V82.3977H484.754V117.406Z" fill="#EBEBEB"/>
<path d="M406.543 184.939H582.376V193.985H406.543V184.939Z" fill="#E0E0E0"/>
<path d="M566.538 151.591H574.289V184.939H566.538V151.591Z" fill="#EBEBEB"/>
<path d="M529.077 151.591H536.828V184.939H529.077V151.591Z" fill="#EBEBEB"/>
<path d="M486.56 150.754L494.198 152.073L488.542 184.936L480.904 183.618L486.56 150.754Z" fill="#EBEBEB"/>
<path d="M556.94 155.993H564.691V184.953H556.94V155.993Z" fill="#EBEBEB"/>
<path d="M539.133 155.993H546.884V184.953H539.133V155.993Z" fill="#EBEBEB"/>
<path d="M494.19 155.993H501.941V184.953H494.19V155.993Z" fill="#EBEBEB"/>
<path d="M518.897 154.988L526.464 156.673L520.191 184.943L512.624 183.259L518.897 154.988Z" fill="#EBEBEB"/>
<path d="M550.24 149.931H554.109V184.939H550.24V149.931Z" fill="#EBEBEB"/>
<path d="M504.165 149.931H508.034V184.939H504.165V149.931Z" fill="#EBEBEB"/>
<path d="M423.42 158.544H461.164V184.642H423.42V158.544Z" fill="#EBEBEB"/>
<path d="M120.875 93.4417H272.107V260.964H120.875V93.4417Z" fill="#E0E0E0"/>
<path d="M116.05 93.4417H272.903V260.964H116.05V93.4417Z" fill="#F0F0F0"/>
<path d="M122.682 98.7881H266.513V253.269H122.682V98.7881Z" fill="white"/>
<path d="M122.681 98.7881H126.847V253.269H122.681V98.7881Z" fill="#E0E0E0"/>
<path d="M266.891 209.862V214.034H126.402V209.862H266.891Z" fill="#E0E0E0"/>
<path d="M122.682 202.882H268.751V209.876H122.682V202.882Z" fill="#F0F0F0"/>
<path d="M337 503C192.652 503 75.6358 496.157 75.6358 487.717C75.6358 479.276 192.652 472.433 337 472.433C481.347 472.433 598.363 479.276 598.363 487.717C598.363 496.157 481.347 503 337 503Z" fill="#F5F5F5"/>
<path d="M232.974 465.453C232.783 465.04 232.693 464.588 232.712 464.133C232.73 463.678 232.857 463.234 233.081 462.838C233.305 462.442 233.62 462.105 234 461.856C234.38 461.606 234.814 461.451 235.266 461.403C234.858 460.214 234.825 458.928 235.172 457.721C235.52 456.513 236.23 455.441 237.207 454.652C237.437 454.438 237.731 454.306 238.043 454.274C238.38 454.309 238.696 454.451 238.946 454.679L244.338 458.514C244.765 458.779 245.125 459.139 245.39 459.567C246.481 461.686 242.559 464.4 244.176 466.142C244.635 466.641 245.376 466.749 245.956 467.114C247.236 467.91 247.385 469.652 247.978 471.029C248.571 472.406 250.674 473.486 251.429 472.204C250.849 470.854 252.601 469.747 254.044 469.585C255.486 469.422 256.969 469.328 257.764 467.991C259.8 469.76 264.356 464.792 264.248 462.793C265.052 462.938 265.791 463.331 266.361 463.917C266.931 464.503 267.305 465.252 267.429 466.061C267.664 467.715 267.722 469.389 267.605 471.056C267.605 474.296 268.697 477.469 268.643 480.709C268.643 483.234 267.618 486.042 265.313 487.055C264.164 487.461 262.943 487.627 261.727 487.541L235.455 487.366C234.825 487.412 234.192 487.311 233.608 487.069C232.422 486.447 232.179 484.881 232.071 483.545L230.656 466.398L232.974 465.453Z" fill="#407BFF"/>
<path opacity="0.3" d="M232.974 465.453C232.783 465.04 232.693 464.588 232.712 464.133C232.73 463.678 232.857 463.234 233.081 462.838C233.305 462.442 233.62 462.105 234 461.856C234.38 461.606 234.814 461.451 235.266 461.403C234.858 460.214 234.825 458.928 235.172 457.721C235.52 456.513 236.23 455.441 237.207 454.652C237.437 454.438 237.731 454.306 238.043 454.274C238.38 454.309 238.696 454.451 238.946 454.679L244.338 458.514C244.765 458.779 245.125 459.139 245.39 459.567C246.481 461.686 242.559 464.4 244.176 466.142C244.635 466.641 245.376 466.749 245.956 467.114C247.236 467.91 247.385 469.652 247.978 471.029C248.571 472.406 250.674 473.486 251.429 472.204C250.849 470.854 252.601 469.747 254.044 469.585C255.486 469.422 256.969 469.328 257.764 467.991C259.8 469.76 264.356 464.792 264.248 462.793C265.052 462.938 265.791 463.331 266.361 463.917C266.931 464.503 267.305 465.252 267.429 466.061C267.664 467.715 267.722 469.389 267.605 471.056C267.605 474.296 268.697 477.469 268.643 480.709C268.643 483.234 267.618 486.042 265.313 487.055C264.164 487.461 262.943 487.627 261.727 487.541L235.455 487.366C234.825 487.412 234.192 487.311 233.608 487.069C232.422 486.447 232.179 484.881 232.071 483.545L230.656 466.398L232.974 465.453Z" fill="white"/>
<path d="M231.451 437.641H272.215L271.878 441.772L271.635 444.715L271.015 452.37L270.665 456.785L270.193 462.645L269.991 465.156L269.923 465.899L269.681 468.855L269.357 472.906L269.155 475.417L268.953 477.969L268.71 480.925L268.521 483.167L268.319 485.678L268.238 486.771H230.831L230.737 485.678L230.535 483.167L230.359 480.912L230.117 477.955L229.901 475.417L229.699 472.906L229.375 468.855L229.133 465.912V465.17L228.931 462.658L228.459 456.799L228.095 452.397L227.488 444.729L227.246 441.785L226.909 437.654L231.451 437.641ZM228.998 440.341L229.78 439.558H228.931L228.998 440.341ZM229.16 442.839L229.227 443.838L232.88 447.483L237.072 443.298L233.325 439.544H232.435L229.16 442.839ZM230.211 455.908L232.907 458.608L237.099 454.409L232.907 450.237L230.022 453.126L230.211 455.908ZM269.007 453.099L266.108 450.21L261.93 454.382L266.108 458.581L268.804 455.881L269.007 453.099ZM234.228 448.847L238.42 453.032L242.599 448.847L238.42 444.648L234.228 448.847ZM240.806 439.544H236.021L238.42 441.948L240.806 439.544ZM239.782 454.396L243.961 458.594L248.14 454.396L243.961 450.224L239.782 454.396ZM253.68 459.945L249.488 455.759L245.309 459.945L249.488 464.143L253.68 459.945ZM250.849 465.494L255.041 469.679L259.207 465.494L255.028 461.308L250.849 465.494ZM243.961 461.308L239.782 465.494L243.961 469.679L248.14 465.494L243.961 461.308ZM249.488 453.045L253.68 448.86L249.488 444.661L245.309 448.86L249.488 453.045ZM250.836 454.396L255.014 458.594L259.193 454.396L255.014 450.224L250.836 454.396ZM260.555 453.045L264.733 448.86L260.555 444.661L256.376 448.86L260.555 453.045ZM260.555 455.746L256.376 459.931L260.555 464.13L264.733 459.931L260.555 455.746ZM256.376 471.029L260.555 475.214L264.733 471.029L260.555 466.844L256.376 471.029ZM255.028 472.379L250.836 476.578L255.014 480.763L259.193 476.578L255.028 472.379ZM253.68 471.029L249.488 466.844L245.309 471.029L249.488 475.214L253.68 471.029ZM243.961 472.379L239.782 476.578L243.961 480.763L248.14 476.578L243.961 472.379ZM238.461 477.942L234.269 482.141L236.965 484.841H239.944L242.64 482.141L238.461 477.942ZM242.64 471.043L238.461 466.857L234.269 471.043L238.461 475.241L242.64 471.043ZM242.64 459.945L238.461 455.759L234.269 459.945L238.461 464.143L242.64 459.945ZM239.822 443.311L244.001 447.497L248.18 443.311L244.433 439.558H243.556L239.822 443.311ZM249.528 441.961L251.927 439.558H247.142L249.528 441.961ZM250.876 443.311L255.055 447.497L259.234 443.311L255.5 439.558H254.61L250.876 443.311ZM258.209 439.558L260.595 441.961L262.981 439.558H258.209ZM265.691 439.558L261.957 443.311L266.135 447.497L269.775 443.851L269.856 442.852L266.58 439.558H265.691ZM269.276 439.558L270.058 440.341V439.558H269.276ZM269.532 446.808L267.483 448.86L269.236 450.602L269.532 446.808ZM268.4 460.863L268.562 458.878L267.483 459.958L268.4 460.876V460.863ZM268.198 463.374L266.135 461.308L261.957 465.494L266.135 469.679L267.82 467.991L268.198 463.374ZM267.578 471.137V470.948L267.483 471.043L267.578 471.137ZM266.85 480.061L267.376 473.635L266.135 472.393L261.957 476.592L266.135 480.777L266.85 480.061ZM266.459 484.854L266.54 483.896L266.135 483.491L264.787 484.841L266.459 484.854ZM264.774 482.154L260.595 477.955L256.416 482.154L259.112 484.854H262.064L264.774 482.154ZM256.416 484.854L255.068 483.504L253.72 484.854H256.416ZM251.024 484.854L253.72 482.154L249.528 477.955L245.349 482.154L248.045 484.854H251.024ZM245.363 484.854L244.015 483.504L242.667 484.854H245.363ZM232.611 484.854H234.282L232.934 483.504L232.53 483.909L232.611 484.854ZM232.22 480.061L232.934 480.777L237.113 476.592L232.921 472.393L231.68 473.635L232.22 480.061ZM231.478 470.935V471.137L231.559 471.043L231.451 470.935H231.478ZM231.236 467.991L232.934 469.679L237.126 465.494L232.934 461.308L230.872 463.374L231.236 467.991ZM230.669 460.863L231.586 459.945L230.508 458.878L230.669 460.863ZM229.524 446.794L229.834 450.615L231.586 448.86L229.524 446.794Z" fill="#407BFF"/>
<g opacity="0.6">
<path d="M231.451 437.641H272.215L271.878 441.772L271.635 444.715L271.015 452.37L270.665 456.785L270.193 462.645L269.991 465.156L269.923 465.899L269.681 468.855L269.357 472.906L269.155 475.417L268.953 477.969L268.71 480.925L268.521 483.167L268.319 485.678L268.238 486.771H230.831L230.737 485.678L230.535 483.167L230.359 480.912L230.117 477.955L229.901 475.417L229.699 472.906L229.375 468.855L229.133 465.912V465.17L228.931 462.658L228.459 456.799L228.095 452.397L227.488 444.729L227.246 441.785L226.909 437.654L231.451 437.641ZM228.998 440.341L229.78 439.558H228.931L228.998 440.341ZM229.16 442.839L229.227 443.838L232.88 447.483L237.072 443.298L233.325 439.544H232.435L229.16 442.839ZM230.211 455.908L232.907 458.608L237.099 454.409L232.907 450.237L230.022 453.126L230.211 455.908ZM269.007 453.099L266.108 450.21L261.93 454.382L266.108 458.581L268.804 455.881L269.007 453.099ZM234.228 448.847L238.42 453.032L242.599 448.847L238.42 444.648L234.228 448.847ZM240.806 439.544H236.021L238.42 441.948L240.806 439.544ZM239.782 454.396L243.961 458.594L248.14 454.396L243.961 450.224L239.782 454.396ZM253.68 459.945L249.488 455.759L245.309 459.945L249.488 464.143L253.68 459.945ZM250.849 465.494L255.041 469.679L259.207 465.494L255.028 461.308L250.849 465.494ZM243.961 461.308L239.782 465.494L243.961 469.679L248.14 465.494L243.961 461.308ZM249.488 453.045L253.68 448.86L249.488 444.661L245.309 448.86L249.488 453.045ZM250.836 454.396L255.014 458.594L259.193 454.396L255.014 450.224L250.836 454.396ZM260.555 453.045L264.733 448.86L260.555 444.661L256.376 448.86L260.555 453.045ZM260.555 455.746L256.376 459.931L260.555 464.13L264.733 459.931L260.555 455.746ZM256.376 471.029L260.555 475.214L264.733 471.029L260.555 466.844L256.376 471.029ZM255.028 472.379L250.836 476.578L255.014 480.763L259.193 476.578L255.028 472.379ZM253.68 471.029L249.488 466.844L245.309 471.029L249.488 475.214L253.68 471.029ZM243.961 472.379L239.782 476.578L243.961 480.763L248.14 476.578L243.961 472.379ZM238.461 477.942L234.269 482.141L236.965 484.841H239.944L242.64 482.141L238.461 477.942ZM242.64 471.043L238.461 466.857L234.269 471.043L238.461 475.241L242.64 471.043ZM242.64 459.945L238.461 455.759L234.269 459.945L238.461 464.143L242.64 459.945ZM239.822 443.311L244.001 447.497L248.18 443.311L244.433 439.558H243.556L239.822 443.311ZM249.528 441.961L251.927 439.558H247.142L249.528 441.961ZM250.876 443.311L255.055 447.497L259.234 443.311L255.5 439.558H254.61L250.876 443.311ZM258.209 439.558L260.595 441.961L262.981 439.558H258.209ZM265.691 439.558L261.957 443.311L266.135 447.497L269.775 443.851L269.856 442.852L266.58 439.558H265.691ZM269.276 439.558L270.058 440.341V439.558H269.276ZM269.532 446.808L267.483 448.86L269.236 450.602L269.532 446.808ZM268.4 460.863L268.562 458.878L267.483 459.958L268.4 460.876V460.863ZM268.198 463.374L266.135 461.308L261.957 465.494L266.135 469.679L267.82 467.991L268.198 463.374ZM267.578 471.137V470.948L267.483 471.043L267.578 471.137ZM266.85 480.061L267.376 473.635L266.135 472.393L261.957 476.592L266.135 480.777L266.85 480.061ZM266.459 484.854L266.54 483.896L266.135 483.491L264.787 484.841L266.459 484.854ZM264.774 482.154L260.595 477.955L256.416 482.154L259.112 484.854H262.064L264.774 482.154ZM256.416 484.854L255.068 483.504L253.72 484.854H256.416ZM251.024 484.854L253.72 482.154L249.528 477.955L245.349 482.154L248.045 484.854H251.024ZM245.363 484.854L244.015 483.504L242.667 484.854H245.363ZM232.611 484.854H234.282L232.934 483.504L232.53 483.909L232.611 484.854ZM232.22 480.061L232.934 480.777L237.113 476.592L232.921 472.393L231.68 473.635L232.22 480.061ZM231.478 470.935V471.137L231.559 471.043L231.451 470.935H231.478ZM231.236 467.991L232.934 469.679L237.126 465.494L232.934 461.308L230.872 463.374L231.236 467.991ZM230.669 460.863L231.586 459.945L230.508 458.878L230.669 460.863ZM229.524 446.794L229.834 450.615L231.586 448.86L229.524 446.794Z" fill="white"/>
</g>
<path d="M272.619 441.272H226.464C225.243 441.272 224.253 440.281 224.253 439.058V438.14C224.253 436.917 225.243 435.926 226.464 435.926H272.619C273.84 435.926 274.83 436.917 274.83 438.14V439.058C274.83 440.281 273.84 441.272 272.619 441.272Z" fill="#407BFF"/>
<path d="M230.104 483.896H268.967C270.187 483.896 271.177 484.887 271.177 486.11V487.028C271.177 488.251 270.187 489.242 268.967 489.242H230.104C228.883 489.242 227.893 488.251 227.893 487.028V486.11C227.893 484.887 228.883 483.896 230.104 483.896Z" fill="#407BFF"/>
<path d="M95.1411 51.9932H429.526C432.601 51.9932 435.093 54.4896 435.093 57.5691V299.173C435.093 302.252 432.601 304.749 429.526 304.749H95.1411C92.0664 304.749 89.5739 302.252 89.5739 299.173V57.5691C89.5739 54.4896 92.0664 51.9932 95.1411 51.9932Z" fill="#407BFF"/>
<path opacity="0.4" d="M89.5739 65.6562H435.093V293.799H89.5739V65.6562Z" fill="black"/>
<path d="M97.662 61.9031C95.8678 61.9031 94.4133 60.4463 94.4133 58.6493C94.4133 56.8523 95.8678 55.3955 97.662 55.3955C99.4562 55.3955 100.911 56.8523 100.911 58.6493C100.911 60.4463 99.4562 61.9031 97.662 61.9031Z" fill="white"/>
<path d="M108.621 61.9031C106.827 61.9031 105.372 60.4463 105.372 58.6493C105.372 56.8523 106.827 55.3955 108.621 55.3955C110.415 55.3955 111.87 56.8523 111.87 58.6493C111.87 60.4463 110.415 61.9031 108.621 61.9031Z" fill="white"/>
<path d="M119.58 61.9031C117.786 61.9031 116.332 60.4463 116.332 58.6493C116.332 56.8523 117.786 55.3955 119.58 55.3955C121.375 55.3955 122.829 56.8523 122.829 58.6493C122.829 60.4463 121.375 61.9031 119.58 61.9031Z" fill="white"/>
<path d="M321.538 184.224H433.812V282.755H321.538V184.224Z" fill="#263238"/>
<path d="M321.538 83.5183H433.812V182.05H321.538V83.5183Z" fill="#263238"/>
<path d="M206.688 83.5183H318.963V182.05H206.688V83.5183Z" fill="#407BFF"/>
<path d="M91.8252 83.5183H204.1V182.05H91.8252V83.5183Z" fill="white"/>
<path d="M206.688 184.224H318.963V282.755H206.688V184.224Z" fill="#263238"/>
<path d="M91.8252 184.224H204.1V282.755H91.8252V184.224Z" fill="#407BFF"/>
<path d="M111.061 182.05L108.513 160.556C108.174 157.78 108.875 154.977 110.482 152.69C112.088 150.402 114.485 148.794 117.208 148.176C146.352 141.682 163.741 148.108 163.741 148.108C170.263 158.681 175.302 170.102 178.717 182.05H111.061Z" fill="#263238"/>
<path d="M132.103 147.244C129.605 146.969 127.088 146.92 124.581 147.096C130.917 141.79 127.776 128.315 125.202 120.998L144.788 132.082C144.561 133.02 144.399 133.971 144.303 134.931C144.056 136.646 144.261 138.396 144.896 140.007C146.051 142.077 147.637 143.872 149.546 145.273L141.701 148.77L132.103 147.244Z" fill="#E4897B"/>
<path opacity="0.2" d="M129.69 128.045C130.472 137.037 140.124 139.508 144.855 140.007C144.22 138.396 144.016 136.646 144.262 134.931L129.69 128.045Z" fill="black"/>
<path d="M155.451 100.84C155.451 100.84 156.988 113.626 149.574 119.013C142.16 124.4 143.764 93.1582 143.764 93.1582L155.451 100.84Z" fill="#263238"/>
<path d="M126.711 127.856C127.1 128.647 127.55 129.406 128.059 130.125C129.504 132.27 131.571 133.92 133.982 134.852C136.392 135.784 139.03 135.953 141.539 135.336C141.895 135.258 142.246 135.159 142.591 135.039C145.897 134.003 148.702 131.776 150.463 128.788C150.463 128.694 150.584 128.572 150.652 128.478C150.894 128.045 151.11 127.6 151.326 127.127C151.741 126.134 152.105 125.12 152.418 124.09C155.114 115.408 154.79 100.895 146.742 95.9126C140.339 91.8623 130.216 93.2124 126.185 99.6525C125.026 101.475 126.32 106.241 126.118 108.388C125.161 117.109 124.19 122.658 126.711 127.856Z" fill="#E4897B"/>
<path d="M140.677 113.734C140.488 114.517 140.852 115.26 141.391 115.354C141.931 115.449 142.456 114.855 142.591 114.004C142.726 113.154 142.416 112.465 141.89 112.384C141.364 112.303 140.825 112.924 140.677 113.734Z" fill="#263238"/>
<path d="M149.789 115.287C149.601 116.083 149.978 116.826 150.504 116.907C151.03 116.988 151.555 116.407 151.704 115.557C151.852 114.706 151.515 114.018 151.003 113.937C150.49 113.856 149.924 114.531 149.789 115.287Z" fill="#263238"/>
<path d="M146.824 115.192C147.368 117.825 148.276 120.37 149.52 122.753C148.892 123.06 148.204 123.225 147.505 123.237C146.806 123.249 146.113 123.106 145.476 122.82L146.824 115.192Z" fill="#DE5753"/>
<path d="M138.358 110.291C138.443 110.318 138.534 110.323 138.622 110.304C138.709 110.285 138.79 110.243 138.857 110.183C139.286 109.764 139.806 109.449 140.377 109.264C140.947 109.079 141.553 109.029 142.146 109.117C142.269 109.145 142.399 109.125 142.507 109.059C142.615 108.994 142.694 108.888 142.725 108.766C142.741 108.705 142.745 108.642 142.736 108.581C142.727 108.519 142.705 108.46 142.672 108.407C142.639 108.353 142.596 108.308 142.545 108.272C142.494 108.236 142.436 108.211 142.375 108.199C141.621 108.069 140.848 108.124 140.12 108.359C139.392 108.594 138.732 109.002 138.196 109.549C138.109 109.639 138.06 109.76 138.06 109.886C138.06 110.012 138.109 110.133 138.196 110.224C138.246 110.255 138.301 110.277 138.358 110.291Z" fill="#263238"/>
<path d="M154.238 112.816C154.324 112.866 154.422 112.889 154.521 112.884C154.581 112.867 154.638 112.838 154.687 112.798C154.737 112.759 154.778 112.71 154.808 112.655C154.838 112.6 154.857 112.539 154.863 112.476C154.869 112.413 154.863 112.35 154.844 112.29C154.649 111.55 154.279 110.868 153.765 110.301C153.251 109.735 152.609 109.301 151.892 109.036C151.771 109.002 151.641 109.017 151.53 109.077C151.419 109.138 151.337 109.239 151.299 109.36C151.265 109.481 151.28 109.612 151.341 109.722C151.401 109.833 151.502 109.916 151.623 109.954C152.18 110.181 152.677 110.534 153.075 110.986C153.473 111.438 153.76 111.977 153.914 112.56C153.947 112.622 153.993 112.678 154.049 112.722C154.105 112.766 154.169 112.798 154.238 112.816Z" fill="#263238"/>
<path d="M122.344 102.245C122.344 101.975 122.236 101.705 122.196 101.408C120.848 91.8352 134.854 86.2052 147.498 87.3933C153.011 87.9199 151.744 97.3572 151.744 97.3572C151.744 97.3572 154.871 97.3572 156.287 99.2609C158.78 102.636 154.939 110.062 154.939 110.062C156.866 99.2609 151.286 98.6668 151.286 98.6668C151.286 98.6668 149.938 102.852 147.444 102.474C144.95 102.096 138.641 95.9801 135.541 96.7091C134.562 96.917 133.656 97.3796 132.913 98.0505C132.169 98.7213 131.616 99.5766 131.308 100.53C131.263 101.488 131.423 102.445 131.776 103.337C132.129 104.228 132.668 105.034 133.357 105.701C136.053 108.685 131.524 115.057 128.41 117.001C128.41 117.001 128.518 115.395 127.129 115.651C125.741 115.908 125.081 124.265 127.237 128.572C127.237 128.572 123.692 124.522 122.506 115.449C121.835 111.077 121.781 106.632 122.344 102.245Z" fill="#263238"/>
<path d="M143.48 126.776C142.3 126.75 141.143 126.441 140.106 125.875C139.069 125.309 138.183 124.502 137.522 123.522C137.503 123.495 137.49 123.463 137.483 123.43C137.477 123.396 137.477 123.362 137.485 123.329C137.493 123.296 137.507 123.265 137.527 123.238C137.548 123.211 137.573 123.188 137.603 123.171C137.63 123.154 137.659 123.141 137.691 123.135C137.722 123.129 137.754 123.129 137.786 123.135C137.817 123.141 137.847 123.154 137.873 123.172C137.9 123.189 137.922 123.212 137.94 123.239C138.571 124.135 139.4 124.873 140.364 125.393C141.328 125.913 142.4 126.202 143.494 126.236C143.56 126.236 143.623 126.261 143.67 126.306C143.718 126.352 143.747 126.414 143.75 126.479C143.75 126.545 143.725 126.608 143.68 126.656C143.635 126.704 143.573 126.732 143.507 126.736L143.48 126.776Z" fill="#263238"/>
<path d="M120.43 115.786C121.147 118.213 122.795 120.257 125.013 121.47C127.965 123.063 130.162 120.593 129.974 117.42C129.758 114.598 128.019 110.278 124.743 110.035C121.468 109.792 119.594 112.789 120.43 115.786Z" fill="#E4897B"/>
<path opacity="0.1" d="M141.54 135.336C141.896 135.258 142.247 135.158 142.591 135.039C145.897 134.003 148.702 131.776 150.463 128.788C148.118 128.531 143.225 128.045 142.227 128.477C141.23 128.909 141.405 133.338 141.54 135.336Z" fill="black"/>
<path d="M156.34 182.05H149.776L142.631 155.669L136.134 148.77H147.511L144.855 155.412L156.34 182.05Z" fill="#407BFF"/>
<path d="M180.51 177.122L180.928 182.05H170.265C161.139 160.354 152.66 144.625 152.66 144.625L163.741 148.108C189.353 155.615 191.51 172.41 187.142 176.704C182.775 180.997 180.51 177.122 180.51 177.122Z" fill="#407BFF"/>
<path opacity="0.5" d="M180.51 177.122L180.928 182.05H170.265C161.139 160.354 152.66 144.625 152.66 144.625L163.741 148.108C189.353 155.615 191.51 172.41 187.142 176.704C182.775 180.997 180.51 177.122 180.51 177.122Z" fill="white"/>
<path d="M172.543 182.05H170.063C161.759 164.134 147.969 143.113 147.969 143.113C153.622 143.099 159.223 144.196 164.455 146.339L161.611 154.278L168.473 155.628L172.543 182.05Z" fill="#407BFF"/>
<path opacity="0.4" d="M172.543 182.05H170.063C161.759 164.134 147.969 143.113 147.969 143.113C153.622 143.099 159.223 144.196 164.455 146.339L161.611 154.278L168.473 155.628L172.543 182.05Z" fill="white"/>
<path opacity="0.2" d="M175.428 182.05C174.017 179.011 173.263 175.708 173.218 172.356L180.51 177.122L180.928 182.05H175.428Z" fill="black"/>
<path d="M151.582 145.732L146.338 140.979L141.661 147.366L126.833 140.979L123.112 147.001L137.482 154.143L142.254 149.539L147.511 152.861L151.582 145.732Z" fill="#263238"/>
<path opacity="0.2" d="M151.582 145.732L146.338 140.979L141.661 147.366L126.833 140.979L123.112 147.001L137.482 154.143L142.254 149.539L147.511 152.861L151.582 145.732Z" fill="white"/>
<path d="M168.499 161.596L152.674 144.625C150.629 144.588 148.664 143.822 147.133 142.465C144.788 140.25 141.593 130.449 142.375 129.814C143.157 129.179 152.593 128.396 153.483 129.503C154.372 130.611 158.281 140.52 158.281 140.52L175.239 153.806L168.499 161.596Z" fill="#E4897B"/>
<path d="M166.747 146.758L163.62 143.99L156.125 149.809L159.522 154.332L166.747 146.758Z" fill="#263238"/>
<path opacity="0.2" d="M166.747 146.758L163.62 143.99L156.125 149.809L159.522 154.332L166.747 146.758Z" fill="white"/>
<path d="M165.898 144.989L156.92 152.104C156.92 152.104 177.787 185.209 185.376 178.216C192.966 171.222 189.083 160.273 165.898 144.989Z" fill="#407BFF"/>
<path opacity="0.6" d="M165.898 144.989L156.92 152.104C156.92 152.104 177.787 185.209 185.376 178.216C192.966 171.222 189.083 160.273 165.898 144.989Z" fill="white"/>
<path d="M108.338 182.05L106.99 158.315C106.886 156.014 107.51 153.738 108.774 151.813C110.038 149.888 111.876 148.412 114.027 147.595L125.849 143.113C125.849 143.113 125.35 160.934 123.975 182.01L108.338 182.05Z" fill="#407BFF"/>
<path opacity="0.5" d="M108.338 182.05L106.99 158.315C106.886 156.014 107.51 153.738 108.774 151.813C110.038 149.888 111.876 148.412 114.027 147.595L125.849 143.113C125.849 143.113 125.35 160.934 123.975 182.01L108.338 182.05Z" fill="white"/>
<path d="M119.135 182.05L114.781 169.805L121.319 163.837L113.838 161.596C118.596 146.907 126.307 141.911 126.307 141.911C128.221 151.362 126.307 170.007 124.784 182.05H119.135Z" fill="#407BFF"/>
<path opacity="0.4" d="M119.135 182.05L114.781 169.805L121.319 163.837L113.838 161.596C118.596 146.907 126.307 141.911 126.307 141.911C128.221 151.362 126.307 170.007 124.784 182.05H119.135Z" fill="white"/>
<path d="M178.636 179.161C177.288 179.674 166.707 180.376 166.707 180.376L164.24 182.05H147.012L164.536 173.774C165.196 171.837 166.519 170.197 168.27 169.143C171.101 167.577 181.4 167.536 181.75 168.468C182.101 169.399 179.971 178.634 178.636 179.161Z" fill="#E4897B"/>
<path d="M152.431 182.05L150.841 179.188L157.392 176.312L159.724 182.05H152.431Z" fill="#263238"/>
<path opacity="0.2" d="M152.431 182.05L150.841 179.188L157.392 176.312L159.724 182.05H152.431Z" fill="white"/>
<path d="M116.804 182.05C108.985 169.805 103.486 154.899 109.875 150.565C109.875 150.565 114.782 149.215 135.042 180.173C135.042 180.173 137.266 184.953 153.914 177.473L156.084 182.064L116.804 182.05Z" fill="#407BFF"/>
<path opacity="0.6" d="M116.804 182.05C108.985 169.805 103.486 154.899 109.875 150.565C109.875 150.565 114.782 149.215 135.042 180.173C135.042 180.173 137.266 184.953 153.914 177.473L156.084 182.064L116.804 182.05Z" fill="white"/>
<path opacity="0.3" d="M206.688 184.224H318.963V282.755H206.688V184.224Z" fill="white"/>
<path d="M414.496 182.05C411.8 175.016 395.961 161.312 395.961 161.312V147.163C404.049 148.675 423.851 165.741 424.363 182.01L414.496 182.05Z" fill="#407BFF"/>
<path opacity="0.6" d="M414.496 182.05C413.148 178.702 408.956 173.855 404.871 169.683C400.328 165.093 395.961 161.326 395.961 161.326V147.163C404.049 148.675 423.865 165.741 424.363 182.01L414.496 182.05Z" fill="white"/>
<path opacity="0.2" d="M404.871 169.683C400.328 165.093 395.961 161.326 395.961 161.326V157.208C395.961 157.208 403.752 161.083 404.871 169.683Z" fill="black"/>
<path d="M338.914 182.05C336.892 169.602 334.87 159.341 333.993 154.697C333.849 153.983 333.99 153.241 334.385 152.63C334.781 152.019 335.4 151.588 336.11 151.43C339.008 150.795 342.001 150.255 345.007 149.796C358.604 147.887 372.323 146.984 386.053 147.096C392.146 147.096 395.961 147.271 395.961 147.271C398.738 157.235 400.396 169.643 401.353 182.118L338.914 182.05Z" fill="#407BFF"/>
<path opacity="0.7" d="M338.9 182.05L338.739 181.011C336.784 169.035 334.897 159.206 334.007 154.697C333.966 154.451 333.966 154.2 334.007 153.954C334.033 153.355 334.258 152.781 334.647 152.324C335.035 151.867 335.564 151.552 336.15 151.43C339.062 150.795 342.041 150.255 345.047 149.796C358.644 147.887 372.364 146.984 386.094 147.096C392.187 147.096 396.002 147.271 396.002 147.271C398.778 157.235 400.436 169.643 401.394 182.118L338.9 182.05Z" fill="white"/>
<path d="M374.043 163.068C356.519 164.931 344.778 149.971 344.778 149.971L345.007 149.796C358.604 147.887 372.323 146.984 386.053 147.096C386.053 147.096 390.529 161.312 374.043 163.068Z" fill="#407BFF"/>
<path d="M354.631 148.419C359.565 152.915 371.656 151.254 371.656 151.254C371.656 151.254 379.205 149.188 377.628 146.826C373.18 146.083 371.023 144.004 370.133 141.344C369.648 139.699 369.496 137.973 369.688 136.268C369.756 135.312 369.878 134.361 370.052 133.419L355.103 122.334C357.058 129.612 359.457 143.113 354.631 148.419Z" fill="#E4897B"/>
<path opacity="0.2" d="M358.567 129.382C359.16 138.36 366.534 140.845 370.146 141.344C369.661 139.699 369.51 137.973 369.702 136.268L358.567 129.382Z" fill="black"/>
<path d="M356.828 142.721L371.117 149.175L371.966 144.004L377.21 145.813C378.128 146.136 378.911 146.759 379.432 147.582C379.953 148.405 380.182 149.38 380.081 150.349L379.488 156.02L372.236 152.05L368.623 157.167L351.45 148.891L356.828 142.721Z" fill="#407BFF"/>
<path opacity="0.3" d="M356.828 142.721L371.117 149.175L371.966 144.004L377.21 145.813C378.128 146.136 378.911 146.759 379.432 147.582C379.953 148.405 380.182 149.38 380.081 150.349L379.488 156.02L372.236 152.05L368.623 157.167L351.45 148.891L356.828 142.721Z" fill="white"/>
<path d="M381.375 99.7874C381.375 99.7874 385.419 113.802 378.585 120.309C371.751 126.817 368.219 100.192 368.219 100.192L381.375 99.7874Z" fill="#263238"/>
<path opacity="0.2" d="M381.375 99.7874C381.375 99.7874 385.419 113.802 378.585 120.309C371.751 126.817 368.219 100.192 368.219 100.192L381.375 99.7874Z" fill="white"/>
<path d="M381.483 128.37C381.335 128.869 381.173 129.369 380.985 129.841C379.606 133.285 376.976 136.078 373.625 137.658C370.618 139.104 367.181 139.374 363.986 138.414C361.71 137.697 359.67 136.377 358.082 134.594C353.041 129.112 353.405 122.996 353.189 112.627C353.094 110.205 353.621 107.798 354.72 105.638C355.819 103.478 357.452 101.636 359.464 100.288C361.477 98.9405 363.8 98.1322 366.213 97.9406C368.626 97.749 371.048 98.1803 373.247 99.1935C383.222 103.689 384.058 119.135 381.483 128.37Z" fill="#E4897B"/>
<path d="M368.772 116.11C368.691 116.934 369.163 117.65 369.715 117.663C370.268 117.677 370.74 117.015 370.78 116.178C370.821 115.341 370.376 114.625 369.837 114.612C369.297 114.598 368.812 115.26 368.772 116.11Z" fill="#263238"/>
<path d="M378.302 116.475C378.208 117.312 378.693 118.027 379.246 118.041C379.798 118.054 380.257 117.393 380.297 116.542C380.338 115.692 379.906 115.003 379.354 114.99C378.801 114.976 378.329 115.678 378.302 116.475Z" fill="#263238"/>
<path d="M375.256 116.785C376.162 119.405 377.428 121.886 379.017 124.157C378.425 124.541 377.757 124.793 377.059 124.896C376.361 124.998 375.65 124.949 374.973 124.751L375.256 116.785Z" fill="#DE5753"/>
<path d="M381.982 112.532C381.906 112.582 381.817 112.608 381.726 112.608C381.635 112.608 381.546 112.582 381.47 112.532C380.963 112.175 380.381 111.94 379.768 111.844C379.156 111.748 378.53 111.794 377.938 111.979C377.879 112.006 377.815 112.02 377.75 112.022C377.685 112.023 377.621 112.011 377.561 111.988C377.5 111.964 377.445 111.928 377.399 111.882C377.353 111.837 377.316 111.782 377.291 111.722C377.241 111.602 377.24 111.467 377.288 111.346C377.336 111.225 377.429 111.128 377.547 111.074C378.288 110.818 379.079 110.741 379.855 110.852C380.631 110.962 381.369 111.256 382.009 111.709C382.12 111.781 382.197 111.894 382.225 112.023C382.253 112.152 382.229 112.286 382.157 112.397C382.11 112.455 382.05 112.501 381.982 112.532Z" fill="#263238"/>
<path d="M367.033 112.236C366.935 112.226 366.841 112.188 366.763 112.128C366.674 112.032 366.624 111.907 366.624 111.777C366.624 111.646 366.674 111.521 366.763 111.426C367.369 110.922 368.087 110.572 368.857 110.405C369.627 110.239 370.425 110.26 371.185 110.467C371.307 110.51 371.407 110.599 371.465 110.715C371.523 110.831 371.533 110.964 371.495 111.088C371.449 111.211 371.358 111.312 371.24 111.37C371.122 111.428 370.986 111.438 370.861 111.399C370.257 111.26 369.629 111.262 369.026 111.405C368.423 111.547 367.861 111.827 367.383 112.222C367.271 112.266 367.148 112.27 367.033 112.236Z" fill="#263238"/>
<path d="M361.264 99.99L361.87 104.553C361.099 104.926 360.498 105.578 360.188 106.377C359.878 107.176 359.881 108.064 360.199 108.86C361.708 112.695 359.592 118.676 356.667 121.079C356.667 121.079 356.559 119.418 355.157 119.823C353.755 120.228 354.24 128.91 357.017 133.014C357.017 133.014 352.839 129.315 350.412 120.228C348.161 111.831 347.824 104.81 349.522 101.543L361.264 99.99Z" fill="#263238"/>
<path d="M373.395 130.192C373.457 130.212 373.523 130.212 373.584 130.192C373.657 130.14 373.708 130.062 373.725 129.975C373.743 129.887 373.726 129.795 373.679 129.72C372.584 128.091 370.936 126.915 369.041 126.412C368.997 126.402 368.951 126.401 368.907 126.41C368.862 126.418 368.82 126.435 368.782 126.46C368.744 126.486 368.712 126.518 368.687 126.556C368.662 126.594 368.645 126.637 368.637 126.682C368.621 126.768 368.639 126.856 368.686 126.929C368.734 127.002 368.808 127.054 368.893 127.073C370.613 127.548 372.109 128.62 373.112 130.098C373.15 130.133 373.194 130.16 373.243 130.177C373.292 130.193 373.344 130.198 373.395 130.192Z" fill="#263238"/>
<path opacity="0.1" d="M378.073 134.418C376.813 135.775 375.302 136.876 373.624 137.658C370.618 139.104 367.181 139.374 363.986 138.414C365.406 137.137 367.135 136.253 369.001 135.849C371.967 135.059 375.007 134.579 378.073 134.418Z" fill="black"/>
<path opacity="0.2" d="M361.264 99.99L361.87 104.553C361.099 104.926 360.498 105.578 360.188 106.377C359.878 107.176 359.881 108.064 360.199 108.86C361.708 112.695 359.592 118.676 356.667 121.079C356.667 121.079 356.559 119.418 355.157 119.823C353.755 120.228 354.24 128.91 357.017 133.014C357.017 133.014 352.839 129.315 350.412 120.228C348.161 111.831 347.824 104.81 349.522 101.543L361.264 99.99Z" fill="white"/>
<path d="M348.808 103.635C348.808 103.635 347.689 97.6408 357.111 92.9559C366.534 88.2709 376.86 93.6174 383.155 89.5806C389.45 85.5437 389.679 102.137 376.226 104C367.109 105.059 357.894 104.936 348.808 103.635Z" fill="#263238"/>
<path opacity="0.3" d="M348.808 103.635C348.808 103.635 347.689 97.6408 357.111 92.9559C366.534 88.2709 376.86 93.6174 383.155 89.5806C389.45 85.5437 389.679 102.137 376.226 104C367.109 105.059 357.894 104.936 348.808 103.635Z" fill="white"/>
<path d="M348.349 120.957C349.393 123.334 351.331 125.202 353.741 126.155C356.977 127.37 358.891 124.549 358.271 121.335C357.677 118.473 355.305 114.301 351.922 114.49C348.538 114.679 347.082 118.001 348.349 120.957Z" fill="#E4897B"/>
<path d="M364.351 154.373L365.779 146.758C365.779 146.758 362.814 143.95 363.164 141.358C363.515 138.765 376.644 134.472 379.017 134.297C381.389 134.121 380.459 143.626 379.745 145.368C379.03 147.109 371.117 149.188 371.117 149.188L370.133 157.222L364.351 154.373Z" fill="#E4897B"/>
<path opacity="0.2" d="M340.679 182.05C339.992 181.713 339.331 181.362 338.738 181.01C336.784 169.035 334.896 159.206 334.007 154.697C333.966 154.451 333.966 154.2 334.007 153.954C342.526 162.649 355.79 177.19 354.227 182.05H340.679Z" fill="black"/>
<path d="M345.303 182.05C335.503 173.247 326.984 161.11 333.009 152.915C338.293 145.705 351.881 171.816 356.02 173.612C360.158 175.408 363.744 151.457 363.744 151.457L371.832 153.86C371.832 153.86 370.349 171.114 366.197 182.05H345.303Z" fill="#407BFF"/>
<path opacity="0.6" d="M345.303 182.05C335.503 173.247 326.984 161.11 333.009 152.915C338.293 145.705 351.881 171.816 356.02 173.612C360.158 175.408 363.744 151.457 363.744 151.457L371.832 153.86C371.832 153.86 370.349 171.114 366.197 182.05H345.303Z" fill="white"/>
<path d="M284.211 182.05C281.367 179.174 279.52 177.149 279.52 177.149L281.084 153.211C285.586 155.615 299.08 173.652 306.17 182.05H284.211Z" fill="#407BFF"/>
<path opacity="0.5" d="M284.211 182.05C281.367 179.174 279.52 177.149 279.52 177.149L281.084 153.211C285.586 155.615 299.08 173.652 306.17 182.05H284.211Z" fill="white"/>
<path opacity="0.2" d="M284.225 182.05C281.367 179.174 279.521 177.149 279.521 177.149L279.885 171.465L281.731 165.957C285.883 170.272 288.161 176.058 288.067 182.05H284.225Z" fill="black"/>
<path d="M236.964 182.05C236.304 179.674 235.616 177.149 234.7 174.395C233.783 171.641 232.961 168.873 231.936 165.781C231.172 163.45 230.332 160.975 229.415 158.355C234.887 156.604 240.478 155.251 246.144 154.305C252.112 153.24 258.149 152.604 264.207 152.401C272.039 152.401 281.057 153.211 281.057 153.211C281.057 153.211 282.405 153.522 283.147 161.852C283.538 166.051 283.929 172.532 283.956 182.104L236.964 182.05Z" fill="#407BFF"/>
<path opacity="0.5" d="M236.964 182.05C236.304 179.674 235.616 177.149 234.7 174.395C233.783 171.641 232.961 168.873 231.936 165.781C231.172 163.45 230.332 160.975 229.415 158.355C234.887 156.604 240.478 155.251 246.144 154.305C252.112 153.24 258.149 152.604 264.207 152.401C272.039 152.401 281.057 153.211 281.057 153.211C281.057 153.211 282.405 153.522 283.147 161.852C283.538 166.051 283.929 172.532 283.956 182.104L236.964 182.05Z" fill="white"/>
<path d="M262.01 182.05L250.956 162.23L263.735 169.399L271.149 160.083L268.44 182.05H262.01Z" fill="#263238"/>
<path d="M250.525 151.794C243.219 153.522 241.008 159.381 241.817 164.714L247.142 162.932C253.278 165.157 259.035 168.317 264.207 172.302C264.207 172.302 268.251 164.876 272.107 162.446L277.58 163.094C277.58 163.094 269.047 147.446 250.525 151.794Z" fill="#263238"/>
<path opacity="0.1" d="M250.525 151.794C243.219 153.522 241.008 159.381 241.817 164.714L247.142 162.932C253.278 165.157 259.035 168.317 264.207 172.302C264.207 172.302 268.251 164.876 272.107 162.446L277.58 163.094C277.58 163.094 269.047 147.446 250.525 151.794Z" fill="white"/>
<path d="M263.776 154.13C263.382 153.92 262.972 153.744 262.549 153.603C261.619 152.874 260.487 151.092 260.541 146.853C260.583 145.161 260.741 143.474 261.012 141.803L249.056 139.575C249.056 139.575 253.1 147.676 249.73 153.603C248.57 154.13 247.869 154.872 247.991 155.844C248.894 162.757 263.735 169.454 263.735 169.454C263.735 169.454 270.947 158.099 263.776 154.13Z" fill="#EEC1BB"/>
<path opacity="0.2" d="M261.013 141.763C260.741 143.433 260.584 145.12 260.541 146.812C252.453 146.812 249.056 139.535 249.056 139.535L261.013 141.763Z" fill="black"/>
<path d="M255.675 102.258C255.675 102.258 269.694 100.476 272.282 111.709C273.021 114.916 272.838 118.267 271.752 121.374C270.666 124.481 268.723 127.215 266.149 129.261L255.675 102.258Z" fill="#263238"/>
<path d="M254.408 108.28C264.801 107.713 268.44 113.1 269.788 123.779C271.473 137.132 269.033 146.812 255.877 144.665C238.029 141.763 237.153 109.225 254.408 108.28Z" fill="#EEC1BB"/>
<path d="M263.048 123.563C263.961 125.07 265.052 126.462 266.297 127.708C266.018 128.162 265.617 128.529 265.141 128.768C264.665 129.006 264.131 129.107 263.601 129.058L263.048 123.563Z" fill="#D4827D"/>
<path d="M256.631 123.063C256.699 123.914 256.294 124.643 255.728 124.683C255.162 124.724 254.65 124.076 254.582 123.225C254.515 122.375 254.919 121.646 255.486 121.592C256.052 121.538 256.564 122.213 256.631 123.063Z" fill="#263238"/>
<path d="M255.256 121.659L257.049 120.782C257.049 120.782 256.254 122.415 255.256 121.659Z" fill="#263238"/>
<path d="M267.227 122.051C267.227 122.901 266.876 123.63 266.31 123.684C265.744 123.738 265.232 123.063 265.164 122.213C265.097 121.362 265.501 120.633 266.067 120.593C266.633 120.552 267.159 121.2 267.227 122.051Z" fill="#263238"/>
<path d="M265.838 120.647L267.631 119.769C267.631 119.769 266.836 121.416 265.838 120.647Z" fill="#263238"/>
<path d="M251.725 118.162C251.796 118.162 251.866 118.145 251.93 118.112C251.993 118.08 252.048 118.032 252.089 117.973C252.596 117.413 253.223 116.975 253.924 116.692C254.624 116.409 255.379 116.289 256.133 116.34C256.253 116.344 256.37 116.304 256.462 116.227C256.555 116.149 256.615 116.04 256.631 115.921C256.639 115.798 256.598 115.677 256.517 115.583C256.437 115.49 256.323 115.432 256.2 115.422C255.295 115.357 254.387 115.505 253.549 115.855C252.711 116.204 251.967 116.745 251.374 117.433C251.303 117.533 251.274 117.656 251.291 117.776C251.309 117.897 251.372 118.007 251.469 118.081C251.546 118.129 251.634 118.156 251.725 118.162Z" fill="#263238"/>
<path d="M267.86 116.11C267.94 116.109 268.017 116.088 268.086 116.047C268.154 116.007 268.211 115.95 268.251 115.881C268.283 115.829 268.304 115.771 268.312 115.71C268.321 115.65 268.318 115.589 268.303 115.53C268.288 115.471 268.261 115.415 268.225 115.366C268.188 115.318 268.142 115.277 268.089 115.246C267.419 114.798 266.657 114.506 265.859 114.391C265.061 114.277 264.248 114.343 263.479 114.585C263.424 114.61 263.375 114.645 263.334 114.689C263.292 114.733 263.26 114.785 263.239 114.841C263.218 114.897 263.208 114.957 263.21 115.018C263.211 115.078 263.225 115.137 263.25 115.192C263.271 115.249 263.303 115.301 263.344 115.345C263.386 115.389 263.437 115.423 263.493 115.446C263.549 115.469 263.609 115.48 263.669 115.478C263.729 115.476 263.789 115.462 263.843 115.435C264.478 115.249 265.146 115.207 265.799 115.312C266.452 115.417 267.073 115.667 267.618 116.043C267.692 116.084 267.775 116.107 267.86 116.11Z" fill="#263238"/>
<path d="M243.987 126.439C243.987 126.439 248.368 117.622 247.276 111.061C247.276 111.061 267.402 101.502 269.572 122.388C269.572 122.388 270.556 103.689 252.682 104.256C234.807 104.823 236.304 130.989 245.942 138.279C245.982 138.279 241.291 131.947 243.987 126.439Z" fill="#263238"/>
<path d="M257.467 101.448C257.467 101.448 266 99.3418 268.426 101.61C270.853 103.878 253.598 119.85 244.567 121.457C244.567 121.457 241.507 131.461 243.933 136.146C243.933 136.146 233.769 132.595 233.297 117.096C232.826 101.596 249.069 95.8585 257.467 101.448Z" fill="#263238"/>
<path d="M245.82 128.545C245.739 127.951 245.542 127.379 245.24 126.861C244.938 126.343 244.537 125.89 244.06 125.528C243.583 125.166 243.039 124.901 242.46 124.749C241.881 124.597 241.278 124.561 240.685 124.643C237.49 125.17 236.317 131.88 244.419 133.027C245.578 133.189 246.157 132.028 245.82 128.545Z" fill="#EEC1BB"/>
<path d="M241.292 107.578C241.292 107.578 237.746 98.5453 228.243 99.1799C218.739 99.8144 217.284 114.679 222.285 125.656C227.286 136.632 223.889 140.183 223.889 140.183C223.889 140.183 229.213 139.535 229.213 129.693C229.505 131.776 229.613 133.881 229.537 135.984C229.537 135.984 233.082 130.975 229.699 121.457C226.315 111.938 237.113 116.299 237.113 116.299L241.292 107.578Z" fill="#263238"/>
<path d="M251.01 121.754C251.059 121.766 251.11 121.766 251.159 121.754C263.291 117.379 267.995 102.731 268.049 102.582C268.083 102.464 268.069 102.337 268.012 102.229C267.954 102.121 267.856 102.039 267.739 102.002C267.681 101.983 267.621 101.975 267.56 101.98C267.5 101.985 267.441 102.002 267.387 102.029C267.333 102.057 267.286 102.095 267.246 102.141C267.207 102.187 267.178 102.241 267.159 102.299C267.159 102.447 262.576 116.664 250.849 120.89C250.734 120.932 250.64 121.018 250.587 121.129C250.534 121.24 250.526 121.367 250.566 121.484C250.604 121.569 250.667 121.64 250.746 121.688C250.825 121.736 250.918 121.759 251.01 121.754Z" fill="#263238"/>
<path d="M261.161 135.646H261.511C261.572 135.647 261.632 135.634 261.688 135.61C261.744 135.586 261.794 135.551 261.836 135.507C261.878 135.462 261.91 135.41 261.93 135.353C261.951 135.295 261.96 135.235 261.956 135.174C261.949 135.051 261.895 134.936 261.804 134.852C261.713 134.769 261.594 134.725 261.471 134.728C259.377 134.723 257.367 133.905 255.863 132.447C255.777 132.361 255.661 132.313 255.54 132.313C255.418 132.313 255.302 132.361 255.216 132.447C255.131 132.533 255.083 132.649 255.083 132.771C255.083 132.892 255.131 133.009 255.216 133.095C256.806 134.665 258.929 135.577 261.161 135.646Z" fill="#263238"/>
<path d="M259.665 127.357C260.235 127.4 260.805 127.27 261.301 126.984C261.796 126.698 262.194 126.269 262.442 125.753C262.691 125.237 262.778 124.658 262.693 124.092C262.608 123.525 262.354 122.998 261.965 122.578C261.575 122.158 261.069 121.865 260.511 121.738C259.953 121.611 259.37 121.656 258.838 121.866C258.306 122.075 257.849 122.441 257.528 122.915C257.206 123.389 257.035 123.949 257.036 124.522C257.018 124.882 257.072 125.242 257.195 125.581C257.318 125.92 257.508 126.23 257.753 126.495C257.998 126.759 258.293 126.971 258.622 127.119C258.95 127.268 259.305 127.348 259.665 127.357ZM259.665 122.361C260.101 122.318 260.54 122.407 260.925 122.619C261.309 122.83 261.621 123.153 261.818 123.546C262.016 123.938 262.09 124.381 262.031 124.816C261.972 125.251 261.783 125.658 261.488 125.984C261.194 126.309 260.808 126.538 260.381 126.639C259.954 126.741 259.507 126.71 259.098 126.552C258.689 126.393 258.337 126.115 258.09 125.752C257.842 125.39 257.709 124.961 257.71 124.522C257.684 123.976 257.876 123.442 258.242 123.037C258.608 122.632 259.12 122.389 259.665 122.361Z" fill="#263238"/>
<path d="M267.806 126.911C268.374 126.941 268.938 126.799 269.425 126.505C269.912 126.21 270.299 125.777 270.537 125.259C270.776 124.742 270.853 124.165 270.761 123.603C270.669 123.041 270.41 122.52 270.019 122.107C269.628 121.693 269.122 121.407 268.566 121.284C268.011 121.162 267.432 121.209 266.903 121.419C266.375 121.63 265.921 121.994 265.602 122.465C265.282 122.937 265.111 123.493 265.11 124.062C265.09 124.429 265.145 124.796 265.271 125.141C265.398 125.486 265.593 125.802 265.846 126.069C266.098 126.335 266.402 126.547 266.739 126.692C267.076 126.837 267.439 126.912 267.806 126.911ZM267.806 121.902C268.242 121.861 268.681 121.954 269.064 122.167C269.446 122.38 269.756 122.704 269.951 123.097C270.146 123.49 270.218 123.933 270.158 124.367C270.097 124.802 269.907 125.208 269.612 125.532C269.316 125.856 268.93 126.083 268.504 126.183C268.077 126.283 267.63 126.251 267.222 126.092C266.814 125.933 266.463 125.654 266.216 125.292C265.969 124.93 265.837 124.501 265.838 124.062C265.827 123.524 266.027 123.002 266.394 122.608C266.762 122.215 267.269 121.981 267.806 121.956V121.902Z" fill="#263238"/>
<path d="M261.956 124.859C262.021 124.862 262.085 124.846 262.14 124.812C262.196 124.779 262.239 124.729 262.266 124.67C262.386 124.417 262.557 124.192 262.768 124.008C262.979 123.824 263.226 123.687 263.493 123.604C263.829 123.584 264.165 123.643 264.474 123.777C264.783 123.91 265.056 124.115 265.272 124.373C265.338 124.436 265.425 124.471 265.515 124.471C265.605 124.471 265.692 124.436 265.758 124.373C265.819 124.31 265.854 124.225 265.854 124.137C265.854 124.048 265.819 123.964 265.758 123.901C265.464 123.568 265.096 123.31 264.684 123.148C264.271 122.986 263.826 122.924 263.385 122.969C263.013 123.073 262.668 123.256 262.372 123.505C262.077 123.754 261.839 124.064 261.673 124.414C261.653 124.453 261.641 124.497 261.639 124.541C261.636 124.585 261.642 124.63 261.657 124.672C261.673 124.713 261.696 124.752 261.727 124.784C261.757 124.816 261.794 124.842 261.835 124.859H261.956Z" fill="#263238"/>
<path d="M257.373 124.859C257.46 124.859 257.544 124.825 257.607 124.765C257.669 124.704 257.706 124.622 257.71 124.535C257.71 124.446 257.677 124.361 257.617 124.296C257.557 124.231 257.475 124.191 257.386 124.184C256.847 124.184 244.459 123.792 242.936 123.86C242.845 123.867 242.761 123.909 242.701 123.977C242.64 124.045 242.609 124.133 242.612 124.224C242.619 124.312 242.66 124.393 242.725 124.451C242.79 124.508 242.876 124.539 242.963 124.535C244.473 124.467 257.225 124.859 257.36 124.859H257.373Z" fill="#263238"/>
<path d="M219.481 182.05C224.387 169.143 229.416 158.355 229.416 158.355C229.416 158.355 237.625 170.318 238.366 182.05H219.481Z" fill="#407BFF"/>
<path opacity="0.5" d="M219.481 182.05C224.387 169.143 229.416 158.355 229.416 158.355C229.416 158.355 237.625 170.318 238.366 182.05H219.481Z" fill="white"/>
<path d="M216.407 282.769C219.103 275.37 221.799 269.105 221.799 269.105L233.068 278.988L231.1 282.769H216.407Z" fill="#E4897B"/>
<path d="M295.98 282.769C293.284 279.502 291.383 277.098 291.383 277.098L302.396 267.945C302.396 267.945 307.788 276.275 312.183 282.796L295.98 282.769Z" fill="#E4897B"/>
<path d="M293.284 282.769L286.746 278.178L289.28 247.693C297.611 249.043 309.716 273.345 309.716 273.345L300.28 282.796L293.284 282.769Z" fill="#407BFF"/>
<path opacity="0.2" d="M300.266 282.769H293.284L288.593 279.475L286.746 278.124L289.28 247.625C297.611 249.056 309.716 273.277 309.716 273.277L301.385 281.554L300.266 282.769Z" fill="white"/>
<path d="M298.217 282.769L309.716 270.685L311.697 274.007L302.49 282.769H298.217Z" fill="#407BFF"/>
<path opacity="0.2" d="M293.284 282.769L288.593 279.474L290.817 266.257C290.817 266.257 299.525 271.765 301.385 281.648L300.266 282.769H293.284Z" fill="black"/>
<path d="M232.34 282.769C229.563 265.595 226.854 252.526 226.854 252.526C253.531 246.073 289.347 247.693 289.347 247.693C292.151 257.711 293.809 270.199 294.739 282.796L232.34 282.769Z" fill="#407BFF"/>
<path opacity="0.2" d="M232.34 282.769C232.152 281.567 231.963 280.379 231.774 279.218C229.2 263.827 226.854 252.526 226.854 252.526C253.531 246.073 289.347 247.693 289.347 247.693C292.151 257.711 293.796 270.199 294.739 282.796L232.34 282.769Z" fill="white"/>
<path opacity="0.2" d="M232.341 282.769C232.152 281.567 231.963 280.379 231.775 279.218L235.711 275.519C236.664 277.834 237.273 280.276 237.517 282.769H232.341Z" fill="black"/>
<path d="M274.156 282.769H269.923C269.461 275.041 268.366 267.365 266.647 259.817L259.166 253.687L265.057 251.784L270.449 252.081L269.006 259.169C269.006 259.169 271.568 270.024 274.156 282.769Z" fill="#263238"/>
<path d="M248.031 248.908C252.965 253.404 265.07 251.743 265.07 251.743C265.07 251.743 272.619 249.664 271.028 247.301C266.58 246.572 264.423 244.493 263.547 241.901C263.057 240.252 262.901 238.521 263.089 236.811C263.16 235.859 263.287 234.913 263.466 233.975L248.503 222.877C250.458 230.128 252.857 243.602 248.031 248.908Z" fill="#E4897B"/>
<path opacity="0.2" d="M251.954 229.858C252.547 238.849 259.921 241.32 263.533 241.833C263.043 240.184 262.887 238.454 263.075 236.743L251.954 229.858Z" fill="black"/>
<path d="M250.229 243.197L264.517 249.664L265.353 244.479L270.61 246.329C271.527 246.652 272.309 247.276 272.827 248.099C273.346 248.923 273.572 249.897 273.468 250.865L272.875 256.549L265.623 252.499L262.01 257.616L244.85 249.34L250.229 243.197Z" fill="#407BFF"/>
<path opacity="0.3" d="M250.229 243.197L264.517 249.664L265.353 244.479L270.61 246.329C271.527 246.652 272.309 247.276 272.827 248.099C273.346 248.923 273.572 249.897 273.468 250.865L272.875 256.549L265.623 252.499L262.01 257.616L244.85 249.34L250.229 243.197Z" fill="white"/>
<path d="M279.157 202.005C279.157 202.005 281.381 216.424 273.765 222C266.148 227.576 266.054 200.722 266.054 200.722L279.157 202.005Z" fill="#263238"/>
<path d="M251.59 233.57C253.201 235.94 255.543 237.716 258.258 238.626C260.972 239.535 263.91 239.529 266.62 238.606C270.137 237.487 273.099 235.075 274.911 231.856C275.162 231.418 275.392 230.967 275.598 230.506C279.332 221.676 280.491 206.204 271.163 200.506C269.107 199.24 266.762 198.52 264.35 198.414C261.939 198.308 259.54 198.82 257.381 199.901C255.222 200.983 253.374 202.597 252.012 204.593C250.649 206.589 249.818 208.9 249.595 211.307C248.436 221.419 247.29 227.441 251.59 233.57Z" fill="#E4897B"/>
<path d="M264.571 216.586C264.369 217.409 264.746 218.166 265.299 218.26C265.852 218.355 266.391 217.747 266.539 216.91C266.687 216.073 266.35 215.33 265.811 215.249C265.272 215.168 264.719 215.749 264.571 216.586Z" fill="#263238"/>
<path d="M273.967 218.166C273.764 218.989 274.155 219.745 274.695 219.84C275.234 219.934 275.8 219.313 275.935 218.49C276.07 217.666 275.746 216.91 275.207 216.816C274.668 216.721 274.101 217.369 273.967 218.166Z" fill="#263238"/>
<path d="M270.947 218.071C271.511 220.783 272.446 223.405 273.724 225.861C273.095 226.164 272.408 226.327 271.711 226.341C271.013 226.355 270.321 226.219 269.68 225.942L270.947 218.071Z" fill="#DE5753"/>
<path d="M278.118 214.736C278.034 214.762 277.944 214.766 277.858 214.75C277.771 214.733 277.689 214.696 277.62 214.642C277.162 214.222 276.613 213.914 276.017 213.741C275.421 213.567 274.793 213.534 274.182 213.643C274.119 213.661 274.054 213.666 273.989 213.659C273.924 213.651 273.861 213.63 273.804 213.597C273.748 213.564 273.698 213.52 273.659 213.468C273.62 213.415 273.591 213.355 273.576 213.292C273.542 213.166 273.559 213.033 273.621 212.92C273.684 212.806 273.789 212.722 273.913 212.684C274.682 212.524 275.478 212.549 276.235 212.758C276.992 212.967 277.688 213.354 278.267 213.886C278.359 213.979 278.411 214.105 278.411 214.237C278.411 214.368 278.359 214.494 278.267 214.588C278.227 214.646 278.177 214.697 278.118 214.736Z" fill="#263238"/>
<path d="M263.331 212.509C263.235 212.488 263.146 212.442 263.075 212.374C263.008 212.26 262.988 212.125 263.018 211.997C263.048 211.869 263.127 211.757 263.237 211.685C263.901 211.264 264.658 211.01 265.442 210.944C266.225 210.879 267.013 211.003 267.739 211.307C267.856 211.365 267.946 211.467 267.989 211.591C268.031 211.715 268.024 211.85 267.968 211.969C267.908 212.083 267.805 212.17 267.682 212.211C267.558 212.251 267.424 212.242 267.307 212.185C266.726 211.968 266.103 211.888 265.486 211.951C264.869 212.014 264.274 212.219 263.749 212.549C263.681 212.574 263.608 212.583 263.535 212.576C263.463 212.569 263.393 212.546 263.331 212.509Z" fill="#263238"/>
<path d="M259.179 199.628V204.232C258.37 204.505 257.693 205.074 257.283 205.825C256.873 206.575 256.761 207.453 256.969 208.283C257.98 212.266 255.108 217.936 251.914 219.948C251.914 219.948 252.008 218.274 250.566 218.503C249.123 218.733 248.476 227.387 250.714 231.829C250.714 231.829 247.047 227.616 245.794 218.328C244.648 209.7 245.2 202.707 247.303 199.682L259.179 199.628Z" fill="#263238"/>
<path d="M243.677 218.719C244.423 221.224 246.129 223.331 248.422 224.579C251.469 226.212 253.747 223.647 253.531 220.38C253.302 217.477 251.482 213.035 248.139 212.779C244.796 212.522 242.801 215.681 243.677 218.719Z" fill="#E4897B"/>
<path d="M268.494 228.467C267.773 229.566 267.133 230.717 266.58 231.91L265.906 231.721C262.886 230.843 261.781 229.426 261.471 228.143C261.327 227.508 261.327 226.848 261.471 226.212C261.557 225.853 261.693 225.508 261.875 225.186C263.493 226.563 265.387 227.576 267.429 228.157C268.09 228.373 268.494 228.467 268.494 228.467Z" fill="#263238"/>
<path d="M267.469 228.17L266.876 229.169C264.032 228.332 262.158 227.36 261.484 226.226C261.57 225.867 261.707 225.521 261.888 225.2C263.514 226.58 265.418 227.593 267.469 228.17Z" fill="white"/>
<path d="M265.906 231.721C262.886 230.843 261.781 229.426 261.471 228.143C262.613 228.496 263.682 229.054 264.625 229.79C265.243 230.284 265.69 230.959 265.906 231.721Z" fill="#DE5753"/>
<path d="M253.032 216.437L254.38 215.641C254.38 215.641 253.531 221.163 255.283 222.715C255.283 222.715 261.349 223.364 263.466 223.931C264.917 224.496 266.118 225.564 266.849 226.941C266.849 226.941 271.608 225.929 273.67 229.507C275.382 227.976 276.736 226.086 277.633 223.971C277.633 223.971 277.472 234.07 271.823 239.443C266.175 244.817 256.995 242.144 252.682 237.945C248.368 233.746 253.032 216.437 253.032 216.437ZM257.076 232.355C257.44 232.896 257.939 233.332 258.523 233.621C259.108 233.909 259.757 234.039 260.407 233.998C261.057 233.957 261.685 233.746 262.229 233.387C262.772 233.028 263.213 232.533 263.506 231.95L265.393 232.99C265.393 232.99 263.318 234.745 264.895 236.365C266.472 237.985 271.352 237.405 271.85 232.747C272.349 228.089 266.458 227.562 266.458 227.562C265.724 226.82 264.848 226.232 263.882 225.836C262.916 225.439 261.881 225.241 260.837 225.254C260.025 225.287 259.236 225.531 258.547 225.963C257.858 226.394 257.293 226.998 256.908 227.715C256.523 228.432 256.331 229.237 256.351 230.05C256.371 230.864 256.603 231.658 257.022 232.355H257.076Z" fill="#263238"/>
<path d="M259.193 204.232C259.193 204.232 282.109 212.063 279.413 196.591C279.413 196.591 267.052 189.3 256.281 191.339C245.511 193.377 246.346 204.57 246.346 204.57L259.193 204.232Z" fill="#263238"/>
<path d="M213.455 282.769C214.803 278.367 222.365 254.875 226.854 252.526C229.506 255.031 231.636 258.036 233.122 261.369C236.182 267.607 236.843 280.109 236.843 280.109L234.861 282.809L213.455 282.769Z" fill="#407BFF"/>
<path opacity="0.2" d="M213.455 282.769C214.803 278.367 222.365 254.875 226.854 252.526C229.506 255.031 231.636 258.036 233.122 261.369C236.182 267.607 236.843 280.109 236.843 280.109L234.861 282.809L213.455 282.769Z" fill="white"/>
<path opacity="0.6" d="M91.8252 184.224H204.1V282.755H91.8252V184.224Z" fill="white"/>
<path d="M175.927 282.769C171.681 278.637 168.715 275.37 168.715 275.37L170.279 251.446C175.293 254.146 191.51 276.261 197.535 282.769H175.927Z" fill="#263238"/>
<path opacity="0.3" d="M175.927 282.769C171.681 278.637 168.715 275.37 168.715 275.37L170.279 251.446C175.293 254.146 191.51 276.261 197.535 282.769H175.927Z" fill="white"/>
<path opacity="0.2" d="M175.927 282.769C171.681 278.651 168.715 275.37 168.715 275.37L169.079 269.7L170.872 264.178C173.217 266.621 174.986 269.559 176.052 272.775C177.118 275.992 177.453 279.406 177.032 282.769H175.927Z" fill="black"/>
<path d="M125.094 220.366C126.253 224.822 119.89 237.135 122.465 259.52C125.04 281.905 149.573 280.555 160.6 273.021C171.627 265.487 169.712 225.038 165.925 217.045C162.137 209.052 125.094 220.366 125.094 220.366Z" fill="#263238"/>
<path d="M126.833 282.769C126.024 279.704 125.053 276.342 123.894 272.616C123.067 269.916 122.146 267.049 121.131 264.016C120.358 261.721 119.522 259.223 118.623 256.523C124.097 254.778 129.687 253.424 135.352 252.472C141.331 251.42 147.376 250.784 153.442 250.569C161.274 250.569 170.292 251.392 170.292 251.392C170.292 251.392 171.573 251.689 172.368 260.019C172.8 264.583 173.231 271.819 173.177 282.715L126.833 282.769Z" fill="#263238"/>
<path opacity="0.3" d="M126.833 282.769C126.024 279.704 125.053 276.342 123.894 272.616C123.067 269.916 122.146 267.049 121.131 264.016C120.358 261.721 119.522 259.223 118.623 256.523C124.097 254.778 129.687 253.424 135.352 252.472C141.331 251.42 147.376 250.784 153.442 250.569C161.274 250.569 170.292 251.392 170.292 251.392C170.292 251.392 171.573 251.689 172.368 260.019C172.8 264.583 173.231 271.819 173.177 282.715L126.833 282.769Z" fill="white"/>
<path d="M146.19 249.461C141.351 249.758 133.613 249.704 128.666 257.454H137.832L132.845 263.557C132.845 263.557 148.899 267.391 153.914 277.935C153.914 277.935 161.112 265.433 165.021 262.531C162.637 260.153 159.911 258.146 156.933 256.576C159.528 255.467 162.242 254.66 165.021 254.173C165.021 254.173 152.728 249.07 146.19 249.461Z" fill="white"/>
<path d="M137.185 254.011C137.185 254.011 149.614 268.052 153.456 274.83C155.202 267.415 155.021 259.675 152.93 252.351L137.185 254.011Z" fill="#407BFF"/>
<path opacity="0.6" d="M137.185 254.011C137.185 254.011 149.614 268.052 153.456 274.83C155.202 267.415 155.021 259.675 152.93 252.351L137.185 254.011Z" fill="white"/>
<path d="M150.099 259.533C140.164 258.264 137.185 254.011 137.185 254.011C143.494 248.057 138.25 237.81 138.25 237.81L150.207 240.051C149.935 241.717 149.777 243.399 149.735 245.087C149.654 252.351 152.93 252.418 152.93 252.418C155.019 256.293 150.099 259.533 150.099 259.533Z" fill="#EEC1BB"/>
<path opacity="0.2" d="M150.207 239.984C149.935 241.65 149.777 243.332 149.735 245.02C141.647 245.02 138.25 237.742 138.25 237.742L150.207 239.984Z" fill="black"/>
<path d="M143.602 206.568C153.995 206.001 157.635 211.388 158.983 222.068C160.668 235.42 158.228 245.101 145.071 242.954C127.224 239.97 126.347 207.446 143.602 206.568Z" fill="#EEC1BB"/>
<path d="M152.243 221.784C153.153 223.297 154.244 224.694 155.491 225.942C155.212 226.397 154.812 226.764 154.335 227.002C153.859 227.241 153.326 227.341 152.795 227.292L152.243 221.784Z" fill="#D4827D"/>
<path d="M145.826 221.284C145.893 222.148 145.489 222.864 144.923 222.918C144.356 222.972 143.844 222.297 143.777 221.446C143.709 220.596 144.114 219.867 144.68 219.826C145.246 219.786 145.758 220.434 145.826 221.284Z" fill="#263238"/>
<path d="M144.451 219.88L146.244 219.016C146.244 219.016 145.448 220.65 144.451 219.88Z" fill="#263238"/>
<path d="M156.367 220.285C156.435 221.136 156.03 221.865 155.464 221.906C154.898 221.946 154.386 221.298 154.318 220.447C154.251 219.597 154.655 218.854 155.221 218.814C155.788 218.773 156.367 219.421 156.367 220.285Z" fill="#263238"/>
<path d="M155.019 218.881L156.812 218.004C156.812 218.004 156.03 219.637 155.019 218.881Z" fill="#263238"/>
<path d="M140.906 216.397C140.981 216.399 141.055 216.381 141.121 216.346C141.187 216.31 141.243 216.258 141.283 216.194C141.789 215.633 142.416 215.195 143.117 214.915C143.818 214.634 144.574 214.517 145.327 214.574C145.449 214.578 145.568 214.536 145.661 214.456C145.753 214.376 145.812 214.264 145.826 214.142C145.833 214.019 145.792 213.898 145.712 213.804C145.631 213.711 145.517 213.653 145.394 213.643C144.489 213.579 143.582 213.728 142.744 214.077C141.906 214.426 141.162 214.966 140.569 215.654C140.498 215.754 140.468 215.877 140.486 215.997C140.503 216.118 140.567 216.228 140.663 216.302C140.734 216.355 140.818 216.387 140.906 216.397Z" fill="#263238"/>
<path d="M157.055 214.345C157.134 214.344 157.212 214.322 157.28 214.282C157.349 214.242 157.406 214.184 157.445 214.115C157.477 214.063 157.498 214.005 157.507 213.945C157.516 213.885 157.513 213.823 157.497 213.764C157.482 213.705 157.456 213.65 157.419 213.601C157.382 213.552 157.336 213.511 157.284 213.481C156.617 213.025 155.854 212.73 155.054 212.618C154.255 212.505 153.44 212.579 152.674 212.833C152.563 212.883 152.475 212.974 152.43 213.088C152.385 213.201 152.385 213.327 152.431 213.44C152.481 213.551 152.572 213.639 152.685 213.684C152.798 213.729 152.925 213.729 153.038 213.683C153.67 213.489 154.339 213.442 154.993 213.545C155.647 213.648 156.269 213.898 156.812 214.277C156.887 214.318 156.97 214.341 157.055 214.345Z" fill="#263238"/>
<path d="M151.528 231.451C151.105 232.649 150.767 233.877 150.517 235.123C150.292 235.137 150.067 235.137 149.843 235.123C146.796 234.988 145.435 233.922 144.842 232.774C144.574 232.204 144.44 231.581 144.451 230.951C144.449 230.596 144.495 230.242 144.586 229.898C146.422 230.821 148.436 231.337 150.49 231.41L151.528 231.451Z" fill="#263238"/>
<path d="M150.49 231.383L150.167 232.463C147.309 232.315 145.3 231.842 144.451 230.924C144.45 230.569 144.495 230.215 144.586 229.871C146.423 230.794 148.437 231.31 150.49 231.383Z" fill="white"/>
<path d="M149.843 235.096C146.796 234.961 145.435 233.895 144.842 232.747C146 232.82 147.137 233.099 148.198 233.571C148.892 233.894 149.468 234.428 149.843 235.096Z" fill="#DE5753"/>
<path d="M133.195 224.66C133.195 224.66 137.589 215.843 136.498 209.282C136.498 209.282 156.623 199.736 158.78 220.609C158.78 220.609 159.777 201.91 141.903 202.477C124.029 203.044 125.525 229.21 135.163 236.5C135.176 236.5 130.485 230.182 133.195 224.66Z" fill="#263238"/>
<path d="M135.015 226.82C134.934 226.226 134.736 225.654 134.434 225.136C134.132 224.618 133.731 224.165 133.254 223.803C132.777 223.441 132.234 223.176 131.654 223.024C131.075 222.872 130.472 222.836 129.879 222.918C126.684 223.445 125.511 230.155 133.613 231.302C134.799 231.424 135.352 230.263 135.015 226.82Z" fill="#EEC1BB"/>
<path d="M139.261 208.256C139.966 216.862 137.84 225.463 133.209 232.747C127.358 241.59 134.071 249.326 134.071 249.326C134.071 249.326 120.201 244.533 126.253 224.822C126.253 224.822 119.729 207.203 132.562 202.464C132.562 202.464 132.629 197.063 144.235 198.116C155.842 199.169 165.17 209.093 166.949 221.784C168.729 234.475 162.11 248.638 162.11 248.638C162.11 248.638 169.133 203.652 139.261 208.256Z" fill="#263238"/>
<path d="M138.614 208.458C139.378 211.473 139.669 214.589 139.477 217.693C139.294 220.837 138.793 223.953 137.98 226.995C137.172 230.059 136 233.014 134.489 235.798C133.009 238.607 131.015 241.112 128.612 243.183C131.101 241.182 133.195 238.732 134.786 235.96C136.409 233.198 137.699 230.252 138.627 227.184C139.573 224.107 140.196 220.94 140.488 217.734C140.804 214.483 140.609 211.202 139.908 208.013L138.614 208.458Z" fill="#263238"/>
<path opacity="0.2" d="M126.832 282.769C126.657 282.121 126.482 281.419 126.293 280.798C127.547 276.396 128.841 279.839 128.841 279.839C129.05 280.806 129.203 281.784 129.299 282.769H126.832Z" fill="black"/>
<path d="M109.295 282.769C113.986 270.24 118.623 256.522 118.623 256.522C128.248 260.33 128.774 280.055 128.774 280.055L127.264 282.755L109.295 282.769Z" fill="#263238"/>
<path opacity="0.3" d="M109.295 282.769C113.986 270.24 118.623 256.522 118.623 256.522C128.248 260.33 128.774 280.055 128.774 280.055L127.264 282.755L109.295 282.769Z" fill="white"/>
<path opacity="0.5" d="M321.538 184.224H433.812V282.755H321.538V184.224Z" fill="white"/>
<path d="M376.132 200.25L387.401 211.55H389.733V200.25H376.132Z" fill="white"/>
<path d="M373.773 203.625V211.55H381.686L373.773 203.625Z" fill="white"/>
<path d="M368.084 210.457L372.357 209.106V202.869L368.084 201.519V210.457Z" fill="white"/>
<path d="M378.909 221.905C382.608 221.906 386.193 220.622 389.053 218.272C391.913 215.922 393.87 212.651 394.592 209.018C395.314 205.384 394.755 201.612 393.011 198.344C391.268 195.077 388.446 192.516 385.029 191.099C381.611 189.681 377.808 189.495 374.268 190.571C370.729 191.647 367.671 193.92 365.617 197.001C363.562 200.082 362.638 203.781 363.002 207.468C363.366 211.155 364.996 214.602 367.612 217.22C369.093 218.71 370.853 219.891 372.792 220.696C374.731 221.5 376.81 221.911 378.909 221.905ZM378.909 191.244C381.317 191.242 383.689 191.836 385.814 192.972C387.939 194.108 389.751 195.752 391.09 197.757C392.428 199.763 393.252 202.068 393.489 204.469C393.725 206.87 393.366 209.292 392.444 211.52C391.521 213.749 390.064 215.715 388.202 217.245C386.339 218.774 384.128 219.82 381.766 220.289C379.403 220.758 376.961 220.636 374.657 219.933C372.353 219.231 370.257 217.97 368.556 216.262C366.513 214.211 365.122 211.599 364.56 208.757C363.998 205.915 364.289 202.969 365.396 200.293C366.504 197.616 368.378 195.328 370.783 193.718C373.188 192.107 376.016 191.246 378.909 191.244Z" fill="white"/>
<path d="M368.561 194.592L390.208 216.273L389.254 217.228L367.608 195.547L368.561 194.592Z" fill="white"/>
<path d="M561.105 462.821L527.702 459.54V412.515H514.464V459.526L480.913 462.821C479.305 462.981 477.814 463.735 476.731 464.935C475.647 466.135 475.048 467.696 475.049 469.315V474.337H566.982V469.315C566.98 467.695 566.378 466.134 565.292 464.934C564.206 463.734 562.714 462.981 561.105 462.821Z" fill="#263238"/>
<path opacity="0.3" d="M561.105 462.821L527.702 459.54V412.515H514.464V459.526L480.913 462.821C479.305 462.981 477.814 463.735 476.731 464.935C475.647 466.135 475.048 467.696 475.049 469.315V474.337H566.982V469.315C566.98 467.695 566.378 466.134 565.292 464.934C564.206 463.734 562.714 462.981 561.105 462.821Z" fill="white"/>
<path d="M487.235 480.561C487.235 482.275 486.727 483.951 485.776 485.377C484.825 486.802 483.474 487.913 481.893 488.569C480.311 489.225 478.571 489.397 476.892 489.062C475.214 488.728 473.672 487.902 472.461 486.69C471.251 485.478 470.427 483.933 470.093 482.252C469.759 480.571 469.93 478.828 470.585 477.244C471.24 475.66 472.35 474.307 473.773 473.354C475.196 472.402 476.869 471.893 478.581 471.893C480.876 471.893 483.077 472.807 484.7 474.432C486.323 476.058 487.235 478.262 487.235 480.561Z" fill="#407BFF"/>
<path d="M554.783 480.561C554.78 482.278 555.286 483.957 556.236 485.386C557.186 486.816 558.538 487.93 560.121 488.59C561.704 489.249 563.446 489.424 565.128 489.092C566.81 488.759 568.356 487.935 569.57 486.723C570.784 485.51 571.612 483.965 571.949 482.281C572.286 480.598 572.117 478.852 571.464 477.265C570.81 475.678 569.701 474.32 568.277 473.364C566.853 472.408 565.178 471.896 563.464 471.893C562.326 471.892 561.198 472.114 560.146 472.549C559.094 472.984 558.137 473.622 557.331 474.426C556.525 475.231 555.885 476.187 555.448 477.24C555.011 478.293 554.785 479.421 554.783 480.561Z" fill="#407BFF"/>
<path d="M517.781 422.614H524.44C525.916 422.614 527.332 422.026 528.376 420.981C529.42 419.935 530.007 418.517 530.007 417.038V380.76H512.173V417.038C512.173 417.774 512.318 418.502 512.6 419.181C512.883 419.86 513.296 420.477 513.818 420.995C514.339 421.513 514.957 421.923 515.638 422.201C516.318 422.479 517.046 422.619 517.781 422.614Z" fill="#263238"/>
<path opacity="0.5" d="M517.781 422.614H524.44C525.916 422.614 527.332 422.026 528.376 420.981C529.42 419.935 530.007 418.517 530.007 417.038V380.76H512.173V417.038C512.173 417.774 512.318 418.502 512.6 419.181C512.883 419.86 513.296 420.477 513.818 420.995C514.339 421.513 514.957 421.923 515.638 422.201C516.318 422.479 517.046 422.619 517.781 422.614Z" fill="white"/>
<path d="M552.68 307.219C552.68 307.219 555.255 369.932 537.852 380.733H557.722C557.722 380.733 573.143 359.374 568.789 307.219H552.68Z" fill="#263238"/>
<path opacity="0.5" d="M552.68 307.219C552.68 307.219 555.255 369.932 537.852 380.733H557.722C557.722 380.733 573.143 359.374 568.789 307.219H552.68Z" fill="white"/>
<path d="M557.762 371.958H482.045C480.257 371.958 478.543 372.669 477.279 373.935C476.015 375.201 475.305 376.918 475.305 378.708V385.54H564.502V378.708C564.502 376.918 563.792 375.201 562.528 373.935C561.264 372.669 559.55 371.958 557.762 371.958Z" fill="#407BFF"/>
<path d="M474.307 378.749H565.513C567.01 378.749 568.223 379.964 568.223 381.462V382.826C568.223 384.325 567.01 385.54 565.513 385.54H474.307C472.811 385.54 471.598 384.325 471.598 382.826V381.462C471.598 379.964 472.811 378.749 474.307 378.749Z" fill="#407BFF"/>
<path opacity="0.6" d="M474.307 378.749H565.513C567.01 378.749 568.223 379.964 568.223 381.462V382.826C568.223 384.325 567.01 385.54 565.513 385.54H474.307C472.811 385.54 471.598 384.325 471.598 382.826V381.462C471.598 379.964 472.811 378.749 474.307 378.749Z" fill="white"/>
<path d="M570.932 319.965H544.538C533.684 319.965 524.884 311.151 524.884 300.28V293.286C524.884 282.415 533.684 273.602 544.538 273.602H570.932C581.786 273.602 590.586 282.415 590.586 293.286V300.28C590.586 311.151 581.786 319.965 570.932 319.965Z" fill="#407BFF"/>
<path d="M487.113 263.975C483.541 265.447 463.281 291.328 462.755 296.783C462.095 303.399 468.794 304.654 476.087 302.94C483.379 301.225 477.853 294.056 477.853 294.056L489.082 278.313L487.113 263.975Z" fill="#263238"/>
<path d="M490.348 328.43H515.96C515.96 328.43 511.027 294.542 510.218 294.056C509.409 293.57 491.508 292.368 491.508 292.368V311.27L490.348 328.43Z" fill="#263238"/>
<path d="M519.546 254.781C518.616 254.592 508.843 250.541 503.532 254.632C498.221 258.723 492.236 272.346 501.753 277.287C511.269 282.229 523.415 279.65 524.871 272.211C526.327 264.772 519.546 254.781 519.546 254.781Z" fill="#263238"/>
<path d="M527.163 224.228C527.163 224.228 533.579 239.079 529.09 244.587C524.602 250.096 495.323 254.47 490.241 249.299C485.159 244.128 491.818 223.647 491.818 223.647L527.163 224.228Z" fill="#263238"/>
<path d="M412.07 442.002L419.7 443.838L423.555 433.293L427.06 423.707L418.379 419.995L415.036 431.633L412.07 442.002Z" fill="#E4897B"/>
<path opacity="0.2" d="M415.036 431.633L423.555 433.293L427.06 423.707L418.379 419.995L415.036 431.633Z" fill="black"/>
<path d="M415.804 426.07L426.373 429.999C426.373 429.999 454.586 359.361 460.383 359.118C466.179 358.875 525.221 386.039 540.009 370.972C554.797 355.905 533.417 319.586 533.417 319.586C533.417 319.586 497.83 314.51 495.148 322.557C494.485 324.928 493.98 327.341 493.638 329.78C493.233 332.237 492.964 334.303 492.964 334.303C491.858 334.033 456.136 324.852 442.063 334.303C427.734 343.997 415.804 426.07 415.804 426.07Z" fill="#263238"/>
<path opacity="0.2" d="M415.804 426.07L426.373 429.999C426.373 429.999 454.586 359.361 460.383 359.118C466.179 358.875 525.221 386.039 540.009 370.972C554.797 355.905 533.417 319.586 533.417 319.586C533.417 319.586 497.83 314.51 495.148 322.557C494.485 324.928 493.98 327.341 493.638 329.78C493.233 332.237 492.964 334.303 492.964 334.303C491.858 334.033 456.136 324.852 442.063 334.303C427.734 343.997 415.804 426.07 415.804 426.07Z" fill="white"/>
<path d="M476.626 472.136L484.229 470.179L482.759 459.27L481.411 449.252L472.016 450.102L474.456 461.767L476.626 472.136Z" fill="#E4897B"/>
<path opacity="0.2" d="M474.51 461.997L482.813 459.472L481.439 449.36L472.029 450.156L474.51 461.997Z" fill="black"/>
<path d="M430.74 426.084L415.346 420.845L414.686 427.164L426.359 431.295L430.74 426.084Z" fill="#263238"/>
<path d="M514.451 374.59C514.451 374.59 512.051 374.658 474.725 372.916C474.725 372.916 480.292 419.644 483.339 454.639L472.177 456.542C472.177 456.542 445.514 381.624 445.797 369.716C446.08 357.808 459.668 354.325 459.668 354.325C459.668 354.325 486.304 369.716 514.451 374.59Z" fill="#263238"/>
<path opacity="0.1" d="M514.451 374.59C514.451 374.59 512.051 374.658 474.725 372.916C474.725 372.916 480.292 419.644 483.339 454.639L472.177 456.542C472.177 456.542 445.514 381.624 445.797 369.716C446.08 357.808 459.668 354.325 459.668 354.325C459.668 354.325 486.304 369.716 514.451 374.59Z" fill="white"/>
<path d="M484.97 451.25L469.63 452.992L472.596 459.013L485.011 457.42L484.97 451.25Z" fill="#263238"/>
<path opacity="0.3" d="M492.964 334.303L513.777 338.65C513.777 338.65 502.265 332.291 493.638 329.78C493.233 332.237 492.964 334.303 492.964 334.303Z" fill="black"/>
<path d="M532.555 314.051L533.417 319.6L495.148 322.557L494.137 315.995L532.555 314.051Z" fill="#263238"/>
<path opacity="0.2" d="M532.555 314.051L533.417 319.6L495.148 322.557L494.137 315.995L532.555 314.051Z" fill="black"/>
<path d="M519.501 313.684L521.392 313.49L522.382 323.133L520.491 323.327L519.501 313.684Z" fill="#263238"/>
<path d="M503.114 315.999L511.495 315.459L511.904 321.832L503.524 322.372L503.114 315.999Z" fill="white"/>
<path d="M495.993 314.722L497.883 314.527L498.873 324.17L496.982 324.365L495.993 314.722Z" fill="#263238"/>
<path opacity="0.2" d="M519.501 313.684L521.392 313.49L522.382 323.133L520.491 323.327L519.501 313.684Z" fill="white"/>
<path opacity="0.2" d="M495.993 314.722L497.883 314.527L498.873 324.17L496.982 324.365L495.993 314.722Z" fill="white"/>
<path d="M489.621 263.138C496.012 259.066 503.331 256.688 510.892 256.225C523.172 255.591 534.212 262.368 534.212 262.368L532.581 314.051L494.163 315.995C494.163 315.995 482.018 281.513 489.621 263.138Z" fill="#407BFF"/>
<path d="M491.494 228.602C491.494 228.602 485.954 203.638 509.018 206.109C537.96 209.214 526.974 245.262 512.617 243.008C498.261 240.753 491.494 228.602 491.494 228.602Z" fill="#263238"/>
<path opacity="0.2" d="M496.253 262.044L495.565 272.926L503.896 265.447C503.896 265.447 504.462 270.847 506.39 279.826C506.996 275.151 508.314 270.598 510.299 266.324L518.171 274.344L523.321 262.044C523.321 262.044 507.549 250.595 496.253 262.044Z" fill="black"/>
<path d="M506.754 270.874L510.892 260.64L518.535 257.211C511.795 252.54 515.179 242.09 515.179 242.09L504.273 245.937C504.777 247.46 505.169 249.016 505.446 250.595C506.578 257.346 503.518 257.94 503.518 257.94L505.621 260.991L506.754 270.874Z" fill="#E4897B"/>
<path opacity="0.2" d="M504.287 245.937C504.79 247.46 505.182 249.016 505.46 250.595C510.677 248.503 515.192 242.09 515.192 242.09L504.287 245.937Z" fill="black"/>
<path d="M503.91 213.319C494.056 214.169 491.346 219.718 491.495 229.939C491.683 242.724 495.269 251.541 507.347 247.733C523.752 242.616 520.261 211.969 503.91 213.319Z" fill="#E4897B"/>
<path d="M497.816 228.845C497.152 230.385 496.306 231.84 495.296 233.179C495.618 233.564 496.041 233.851 496.517 234.009C496.993 234.166 497.504 234.187 497.992 234.07L497.816 228.845Z" fill="#DE5753"/>
<path d="M503.775 227.522C503.775 228.332 504.301 228.967 504.84 228.872C505.379 228.778 505.783 228.157 505.73 227.346C505.676 226.536 505.204 225.902 504.665 225.929C504.125 225.956 503.721 226.712 503.775 227.522Z" fill="#263238"/>
<path d="M504.88 226.01L503.074 225.429C503.074 225.429 504.044 226.82 504.88 226.01Z" fill="#263238"/>
<path d="M493.678 227.981C493.678 228.791 494.218 229.426 494.757 229.331C495.296 229.237 495.687 228.615 495.647 227.805C495.606 226.995 495.107 226.361 494.568 226.388C494.029 226.415 493.638 227.171 493.678 227.981Z" fill="#263238"/>
<path d="M494.797 226.469L492.991 225.888C492.991 225.888 493.961 227.319 494.797 226.469Z" fill="#263238"/>
<path d="M507.684 222.31C507.746 222.311 507.808 222.3 507.866 222.277C507.924 222.254 507.976 222.219 508.021 222.175C508.068 222.131 508.105 222.078 508.131 222.019C508.156 221.96 508.169 221.896 508.169 221.831C508.169 221.767 508.156 221.703 508.131 221.644C508.105 221.584 508.068 221.531 508.021 221.487C507.367 220.911 506.587 220.496 505.745 220.276C504.902 220.055 504.02 220.035 503.168 220.218C503.042 220.247 502.933 220.324 502.862 220.432C502.792 220.54 502.766 220.671 502.791 220.798C502.803 220.862 502.829 220.922 502.865 220.975C502.901 221.028 502.947 221.074 503.001 221.109C503.055 221.144 503.116 221.168 503.179 221.18C503.242 221.191 503.307 221.19 503.37 221.176C504.06 221.035 504.773 221.05 505.457 221.221C506.14 221.391 506.777 221.713 507.32 222.162C507.368 222.209 507.425 222.247 507.487 222.273C507.549 222.298 507.616 222.311 507.684 222.31Z" fill="#263238"/>
<path d="M492.236 222.54C492.348 222.537 492.456 222.499 492.546 222.432C493.001 222.009 493.545 221.694 494.137 221.509C494.73 221.325 495.356 221.276 495.97 221.365C496.093 221.399 496.225 221.382 496.336 221.319C496.447 221.255 496.528 221.151 496.563 221.028C496.597 220.903 496.58 220.769 496.517 220.656C496.454 220.542 496.35 220.458 496.226 220.42C495.464 220.289 494.683 220.333 493.94 220.548C493.198 220.763 492.514 221.144 491.939 221.662C491.888 221.702 491.846 221.751 491.814 221.807C491.783 221.864 491.762 221.926 491.755 221.99C491.747 222.054 491.753 222.119 491.77 222.181C491.788 222.243 491.818 222.301 491.859 222.351C491.902 222.41 491.959 222.457 492.025 222.49C492.09 222.523 492.163 222.54 492.236 222.54Z" fill="#263238"/>
<path d="M516.095 229.007C516.095 229.007 510.798 221.311 510.96 214.993C510.96 214.993 490.74 208.688 491.494 228.602C491.494 228.602 488.084 211.159 504.974 209.309C521.865 207.459 523.927 232.261 515.758 240.362C515.812 240.416 519.385 233.841 516.095 229.007Z" fill="#263238"/>
<path d="M514.666 231.235C514.657 230.66 514.762 230.09 514.975 229.557C515.187 229.023 515.503 228.537 515.904 228.126C516.305 227.716 516.784 227.389 517.312 227.165C517.839 226.941 518.407 226.823 518.98 226.82C522.053 226.901 524.048 233.044 516.594 235.204C515.516 235.569 514.815 234.556 514.666 231.235Z" fill="#E4897B"/>
<path d="M497.412 238.093C498.004 239.15 498.522 240.246 498.962 241.374L499.582 241.239C502.413 240.604 503.505 239.389 503.869 238.215C504.041 237.641 504.069 237.033 503.95 236.446C503.897 236.114 503.797 235.791 503.653 235.488C502.083 236.65 500.28 237.461 498.369 237.864C497.816 238.026 497.412 238.093 497.412 238.093Z" fill="#263238"/>
<path d="M498.396 237.864L498.882 238.822C501.578 238.228 503.33 237.472 503.977 236.446C503.924 236.114 503.824 235.791 503.68 235.488C502.11 236.65 500.308 237.461 498.396 237.864Z" fill="white"/>
<path d="M499.609 241.239C502.44 240.605 503.532 239.389 503.896 238.215C502.827 238.486 501.815 238.943 500.903 239.565C500.313 239.979 499.861 240.563 499.609 241.239Z" fill="#DE5753"/>
<path d="M504.152 214.048C504.152 214.048 509.544 229.925 519.694 228.899C529.845 227.873 512.375 208.647 512.375 208.647C512.375 208.647 495.174 203.787 487.72 213.346C480.265 222.904 491.467 228.683 491.467 228.683C491.467 228.683 489.796 216.086 504.152 214.048Z" fill="#263238"/>
<path d="M512.334 227.603C512.402 227.602 512.467 227.581 512.522 227.543C512.578 227.504 512.62 227.45 512.644 227.387C512.675 227.301 512.671 227.206 512.634 227.123C512.596 227.04 512.527 226.975 512.442 226.941C504.354 223.877 504.516 212.995 504.516 212.887C504.516 212.797 504.48 212.711 504.417 212.648C504.354 212.585 504.268 212.549 504.179 212.549C504.135 212.547 504.092 212.554 504.051 212.57C504.01 212.585 503.973 212.609 503.941 212.639C503.91 212.669 503.885 212.706 503.868 212.746C503.851 212.786 503.842 212.829 503.842 212.873C503.842 212.981 503.68 224.336 512.213 227.576L512.334 227.603Z" fill="#263238"/>
<path d="M515.597 253.215L510.906 260.64L516.783 270.874L521.042 257.737L515.597 253.215Z" fill="#407BFF"/>
<path d="M505.635 254.632V260.991L498.693 268.674L500.957 257.643L505.635 254.632Z" fill="#407BFF"/>
<path d="M399.453 456.826C400.608 456.294 401.851 455.979 403.12 455.894C403.12 455.894 407.527 453.302 411.895 443.217H416.802C417.631 443.225 418.439 443.488 419.114 443.971C419.789 444.454 420.3 445.133 420.576 445.917C420.654 446.134 420.7 446.362 420.711 446.592C420.659 447.782 420.533 448.968 420.333 450.143C419.61 454.05 418.651 457.909 417.462 461.7L416.64 461.497L418.15 454.153C418.648 451.669 416.033 454.072 414.82 456.583C413.607 459.094 411.747 461.632 406.328 460.39C400.006 458.878 397.471 457.974 399.453 456.826Z" fill="#263238"/>
<path d="M412.785 440.571C412.785 440.571 406.651 453.41 403.12 455.894C403.12 455.894 407.851 458.716 412.785 452.425C419.161 444.324 420.711 446.565 420.711 446.565C420.582 445.163 420.325 443.775 419.943 442.42C418.985 439.801 412.785 440.571 412.785 440.571Z" fill="#E4897B"/>
<path d="M466.961 487.393C467.958 486.601 469.091 485.997 470.304 485.61C470.304 485.61 473.97 482.046 475.831 471.205L480.589 470.017C481.396 469.829 482.242 469.894 483.011 470.203C483.78 470.512 484.436 471.05 484.889 471.745C485.023 471.938 485.123 472.153 485.186 472.379C485.417 473.543 485.575 474.72 485.657 475.903C485.901 479.873 485.901 483.855 485.657 487.825H484.808L484.539 480.345C484.431 477.807 482.463 480.763 481.843 483.491C481.223 486.218 480.05 489.121 474.496 489.202C467.985 489.296 465.303 489.013 466.961 487.393Z" fill="#263238"/>
<path d="M476.06 468.491C476.06 468.491 473.148 482.438 470.304 485.678C470.304 485.678 475.575 487.298 478.877 480.021C483.137 470.57 485.186 472.447 485.186 472.447C484.732 471.113 484.155 469.825 483.461 468.599C481.91 466.25 476.06 468.491 476.06 468.491Z" fill="#E4897B"/>
<path d="M522.283 257.13C522.283 257.13 510.326 292.705 527.176 333.101L543.541 330.968L533.417 308.016L535.628 261.788L522.283 257.13Z" fill="#263238"/>
<path d="M499.609 258.399C499.609 258.399 494.136 267.229 494.797 294.056L491.494 332.035L488.313 329.78L490.915 311.256C490.915 311.256 484 278.651 487.113 264.002L499.609 258.399Z" fill="#263238"/>
<path d="M503.532 254.632C503.532 254.632 494.245 259.52 489.5 266.203L492.964 269.403L488.313 276.153L494.797 293.988C494.797 293.988 498.315 260.573 503.532 254.632Z" fill="#263238"/>
<path opacity="0.2" d="M503.532 254.632C503.532 254.632 494.245 259.52 489.5 266.203L492.964 269.403L488.313 276.153L494.797 293.988C494.797 293.988 498.315 260.573 503.532 254.632Z" fill="white"/>
<path d="M519.546 254.781C519.546 254.781 515.287 279.083 518.549 295.973L528.74 272.845L522.903 267.229L530.681 261.666C527.568 258.518 523.751 256.158 519.546 254.781Z" fill="#263238"/>
<path opacity="0.2" d="M519.546 254.781C519.546 254.781 515.287 279.083 518.549 295.973L528.74 272.845L522.903 267.229L530.681 261.666C527.568 258.518 523.751 256.158 519.546 254.781Z" fill="white"/>
<path d="M507.482 297.607L493.692 298.579C492.576 297.841 491.359 297.268 490.079 296.878C488.394 296.472 478.594 295.406 476.815 296.094C475.036 296.783 473.445 302.602 473.607 303.804C473.768 305.005 488.583 305.41 489.055 305.451C489.527 305.491 491.212 303.925 491.212 303.925L507.482 303.777V297.607Z" fill="#E4897B"/>
<path d="M535.628 261.734C544.606 267.134 549.499 296.229 543.541 300.779C537.583 305.329 496.644 305.451 496.644 305.451L495.296 296.783C495.296 296.783 530.465 293.259 532.258 289.843C534.051 286.428 533.417 272.926 533.417 272.926L535.628 261.734Z" fill="#263238"/>
<path d="M376.846 489.242H369.742L356.977 311.256H366.399L376.846 489.242Z" fill="#263238"/>
<path opacity="0.7" d="M376.846 489.242H369.742L357.597 320.1L356.977 311.553H366.399L366.911 320.1L376.846 489.242Z" fill="white"/>
<path opacity="0.2" d="M366.912 319.681H357.597L356.977 311.553H366.399L366.912 319.681Z" fill="black"/>
<path d="M428.974 489.242H421.87L420.71 311.256H430.133L428.974 489.242Z" fill="#263238"/>
<path opacity="0.7" d="M430.146 311.553L429.957 340.257L428.987 489.242H421.869L420.899 340.257L420.71 311.553H430.146Z" fill="white"/>
<path opacity="0.2" d="M430.146 311.553L429.957 340.581H420.899L420.71 311.553H430.146Z" fill="black"/>
<path d="M504.394 489.242H497.29L484.525 311.256H493.947L504.394 489.242Z" fill="#263238"/>
<path opacity="0.7" d="M504.394 489.242H497.29L485.145 320.1L484.525 311.553H493.947L494.459 320.1L504.394 489.242Z" fill="white"/>
<path opacity="0.2" d="M494.459 319.681H485.144L484.524 311.553H493.947L494.459 319.681Z" fill="black"/>
<path d="M295.575 489.242H288.471L298.918 311.256H308.341L295.575 489.242Z" fill="#263238"/>
<path opacity="0.7" d="M308.341 311.553L307.721 320.1L295.575 489.242H288.485L298.406 320.1L298.918 311.553H308.341Z" fill="white"/>
<path opacity="0.2" d="M298.918 311.553H308.341L307.721 319.681H298.406L298.918 311.553Z" fill="black"/>
<path d="M294.362 315.725H498.503C499.275 315.725 500.016 315.418 500.562 314.871C501.108 314.324 501.415 313.582 501.415 312.809V306.815H291.41V312.809C291.41 313.195 291.486 313.578 291.635 313.934C291.784 314.291 292.002 314.614 292.277 314.886C292.551 315.157 292.877 315.371 293.235 315.515C293.593 315.659 293.976 315.731 294.362 315.725Z" fill="#407BFF"/>
<path opacity="0.6" d="M294.362 315.725H498.503C499.275 315.725 500.016 315.418 500.562 314.871C501.108 314.324 501.415 313.582 501.415 312.809V306.815H291.41V312.809C291.41 313.195 291.486 313.578 291.635 313.934C291.784 314.291 292.002 314.614 292.277 314.886C292.551 315.157 292.877 315.371 293.235 315.515C293.593 315.659 293.976 315.731 294.362 315.725Z" fill="white"/>
<path opacity="0.2" d="M501.415 311.27H291.437V306.814H501.415V311.27Z" fill="black"/>
<path d="M505.823 307.962H287.042C286.377 307.962 285.74 307.698 285.27 307.227C284.799 306.756 284.535 306.117 284.535 305.451C284.539 304.786 284.804 304.149 285.273 303.679C285.743 303.209 286.379 302.943 287.042 302.94H505.823C506.488 302.94 507.126 303.204 507.596 303.675C508.066 304.146 508.33 304.785 508.33 305.451C508.33 306.117 508.066 306.756 507.596 307.227C507.126 307.698 506.488 307.962 505.823 307.962Z" fill="#407BFF"/>
<path opacity="0.6" d="M505.823 307.962H287.042C286.377 307.962 285.74 307.698 285.27 307.227C284.799 306.756 284.535 306.117 284.535 305.451C284.539 304.786 284.804 304.149 285.273 303.679C285.743 303.209 286.379 302.943 287.042 302.94H505.823C506.488 302.94 507.126 303.204 507.596 303.675C508.066 304.146 508.33 304.785 508.33 305.451C508.33 306.117 508.066 306.756 507.596 307.227C507.126 307.698 506.488 307.962 505.823 307.962Z" fill="white"/>
<path d="M376.765 302.94L377.911 298.619H424.929L446.578 300.779L447.414 302.94H376.765Z" fill="#263238"/>
<path opacity="0.4" d="M424.929 298.619V302.94H376.765L377.911 298.619H424.929Z" fill="black"/>
<path d="M415.48 277.881C415.544 278.407 415.494 278.94 415.335 279.444C415.175 279.949 414.909 280.413 414.556 280.806C414.202 281.199 413.768 281.511 413.283 281.721C412.798 281.932 412.274 282.036 411.746 282.026H339.695C338.568 282.003 337.488 281.57 336.657 280.807C335.826 280.044 335.301 279.004 335.18 277.881L330.906 231.694C330.847 231.169 330.9 230.638 331.061 230.136C331.222 229.633 331.488 229.171 331.841 228.779C332.194 228.387 332.626 228.075 333.109 227.863C333.591 227.651 334.113 227.544 334.64 227.549H406.691C407.82 227.566 408.903 227.998 409.735 228.762C410.568 229.526 411.091 230.569 411.207 231.694L415.48 277.881Z" fill="#263238"/>
<path opacity="0.4" d="M411.503 282.026H339.695C338.568 282.003 337.488 281.57 336.657 280.807C335.826 280.044 335.3 279.004 335.179 277.881L330.906 231.694C330.854 231.242 330.886 230.784 331 230.344H402.795C403.922 230.367 405.002 230.8 405.833 231.563C406.665 232.326 407.19 233.366 407.311 234.489L411.584 280.676C411.633 281.128 411.605 281.584 411.503 282.026Z" fill="black"/>
<path d="M362.005 253.701H376.914L372.937 296.432L396.5 299.969V302.939H346.88V299.969L357.044 296.432L362.005 253.701Z" fill="#263238"/>
<path opacity="0.1" d="M376.914 253.701L365.873 302.264L357.044 302.008L362.005 253.701H376.914Z" fill="white"/>
<path d="M368.96 224.403H371.832V229.412H368.96V224.403Z" fill="#263238"/>
<path d="M371.831 224.214H375.296C375.648 223.507 375.82 222.723 375.795 221.933C375.833 221.145 375.661 220.362 375.296 219.664H371.831V224.214Z" fill="#263238"/>
<path d="M365.914 221.744C365.914 222.571 366.159 223.38 366.618 224.069C367.077 224.757 367.73 225.293 368.494 225.61C369.257 225.927 370.097 226.01 370.908 225.848C371.719 225.687 372.463 225.288 373.048 224.703C373.632 224.118 374.03 223.372 374.191 222.56C374.352 221.748 374.27 220.907 373.953 220.142C373.637 219.377 373.101 218.723 372.414 218.263C371.727 217.804 370.919 217.558 370.093 217.558C369.543 217.556 368.999 217.663 368.491 217.873C367.984 218.083 367.522 218.391 367.134 218.78C366.745 219.169 366.438 219.631 366.228 220.14C366.019 220.648 365.912 221.193 365.914 221.744Z" fill="#263238"/>
<path opacity="0.1" d="M365.914 221.744C365.914 222.571 366.159 223.38 366.618 224.069C367.077 224.757 367.73 225.293 368.494 225.61C369.257 225.927 370.097 226.01 370.908 225.848C371.719 225.687 372.463 225.288 373.048 224.703C373.632 224.118 374.03 223.372 374.191 222.56C374.352 221.748 374.27 220.907 373.953 220.142C373.637 219.377 373.101 218.723 372.414 218.263C371.727 217.804 370.919 217.558 370.093 217.558C369.543 217.556 368.999 217.663 368.491 217.873C367.984 218.083 367.522 218.391 367.134 218.78C366.745 219.169 366.438 219.631 366.228 220.14C366.019 220.648 365.912 221.193 365.914 221.744Z" fill="white"/>
<path d="M319.165 270.685V302.94H335.22C335.109 291.734 333.537 280.591 330.542 269.794C330.348 269.106 329.935 268.5 329.366 268.069C328.796 267.637 328.102 267.404 327.388 267.405H322.441C322.011 267.405 321.585 267.489 321.187 267.654C320.79 267.819 320.429 268.061 320.124 268.365C319.82 268.67 319.579 269.032 319.414 269.43C319.25 269.828 319.165 270.254 319.165 270.685Z" fill="#263238"/>
<path opacity="0.4" d="M319.165 270.685V302.94H327.253V271.887C327.253 270.702 326.783 269.565 325.947 268.727C325.11 267.889 323.975 267.418 322.792 267.418H322.495C322.061 267.411 321.631 267.49 321.228 267.651C320.825 267.812 320.458 268.051 320.149 268.355C319.839 268.659 319.592 269.021 319.424 269.421C319.255 269.821 319.167 270.251 319.165 270.685Z" fill="black"/>
<path d="M421.613 270.685V302.94H437.668C437.558 291.734 435.985 280.591 432.99 269.794C432.797 269.106 432.383 268.5 431.814 268.069C431.245 267.637 430.55 267.404 429.836 267.405H424.889C424.459 267.405 424.033 267.489 423.635 267.654C423.238 267.819 422.877 268.061 422.573 268.365C422.269 268.67 422.027 269.032 421.863 269.43C421.698 269.828 421.613 270.254 421.613 270.685Z" fill="#263238"/>
<path opacity="0.4" d="M421.613 270.685V302.94H429.701V271.887C429.701 270.702 429.231 269.565 428.394 268.727C427.558 267.889 426.423 267.418 425.239 267.418H424.943C424.509 267.411 424.079 267.49 423.676 267.651C423.273 267.812 422.906 268.051 422.596 268.355C422.287 268.659 422.04 269.021 421.871 269.421C421.703 269.821 421.615 270.251 421.613 270.685Z" fill="black"/>
</svg>
