<svg width="621" height="621" viewBox="0 0 621 621" fill="none" xmlns="http://www.w3.org/2000/svg">
<path d="M502.762 445.356C468.669 470.01 181.655 458.298 115.158 339.526C47.109 218.008 178.935 286.728 176.774 242.14C174.613 197.553 153.064 75.7124 279.487 153.176C405.91 230.639 443.394 237.744 493.956 214.543C562.266 183.245 559.36 259.516 506.984 335.278C481.66 371.905 550.206 411.102 502.762 445.356Z" fill="#407BFF"/>
<path opacity="0.9" d="M502.762 445.356C468.669 470.01 181.655 458.298 115.158 339.526C47.109 218.008 178.935 286.728 176.774 242.14C174.613 197.553 153.064 75.7124 279.487 153.176C405.91 230.639 443.394 237.744 493.956 214.543C562.266 183.245 559.36 259.516 506.984 335.278C481.66 371.905 550.206 411.102 502.762 445.356Z" fill="white"/>
<path d="M308.091 531.03C441.087 531.03 548.902 524.735 548.902 516.97C548.902 509.205 441.087 502.911 308.091 502.911C175.094 502.911 67.2793 509.205 67.2793 516.97C67.2793 524.735 175.094 531.03 308.091 531.03Z" fill="#F5F5F5"/>
<path d="M119.356 154.455H153.809C157.944 154.465 161.908 156.111 164.833 159.034C167.758 161.957 169.408 165.919 169.421 170.055V201.999H121.629C117.493 201.986 113.531 200.336 110.608 197.411C107.685 194.486 106.039 190.522 106.029 186.387V167.757C106.036 164.227 107.443 160.843 109.941 158.35C112.44 155.856 115.826 154.455 119.356 154.455Z" fill="#407BFF"/>
<path d="M169.421 197.441V211.103L155.138 196.82L169.421 197.441Z" fill="#407BFF"/>
<g opacity="0.6">
<path d="M119.356 154.455H153.809C157.944 154.465 161.908 156.111 164.833 159.034C167.758 161.957 169.408 165.919 169.421 170.055V201.999H121.629C117.493 201.986 113.531 200.336 110.608 197.411C107.685 194.486 106.039 190.522 106.029 186.387V167.757C106.036 164.227 107.443 160.843 109.941 158.35C112.44 155.856 115.826 154.455 119.356 154.455Z" fill="white"/>
<path d="M169.421 197.441V211.103L155.138 196.82L169.421 197.441Z" fill="white"/>
</g>
<path d="M148.282 169.657C143.414 165.31 137.725 171.21 137.725 171.21C137.725 171.21 132.037 165.31 127.168 169.657C120.226 175.867 130.323 187.045 137.725 189.206C145.128 186.983 155.25 175.867 148.282 169.657Z" fill="white"/>
<path d="M504.475 179.469C495.551 179.469 486.827 176.823 479.407 171.865C471.987 166.907 466.203 159.86 462.788 151.615C459.373 143.37 458.48 134.297 460.221 125.544C461.962 116.792 466.259 108.752 472.569 102.441C478.88 96.1308 486.92 91.8334 495.673 90.0924C504.425 88.3513 513.498 89.2449 521.743 92.6601C529.988 96.0752 537.035 101.859 541.993 109.279C546.951 116.699 549.597 125.423 549.597 134.347C549.584 146.31 544.826 157.78 536.367 166.239C527.908 174.698 516.438 179.456 504.475 179.469ZM504.475 95.4478C496.779 95.4478 489.255 97.7302 482.856 102.006C476.457 106.283 471.469 112.361 468.524 119.472C465.58 126.583 464.81 134.407 466.312 141.956C467.815 149.504 471.522 156.437 476.965 161.879C482.408 167.32 489.343 171.025 496.892 172.525C504.441 174.025 512.265 173.253 519.375 170.306C526.485 167.359 532.561 162.37 536.835 155.969C541.11 149.568 543.39 142.044 543.387 134.347C543.374 124.032 539.27 114.144 531.975 106.851C524.68 99.5587 514.79 95.4576 504.475 95.4478Z" fill="#407BFF"/>
<path d="M505.047 161.473L481.871 139.179L486.168 134.707L503.904 151.76L526.881 116.015L532.11 119.369L505.047 161.473Z" fill="#407BFF"/>
<g opacity="0.8">
<path d="M504.475 179.469C495.551 179.469 486.827 176.823 479.407 171.865C471.987 166.907 466.203 159.86 462.788 151.615C459.373 143.37 458.48 134.297 460.221 125.544C461.962 116.792 466.259 108.752 472.569 102.441C478.88 96.1308 486.92 91.8334 495.673 90.0924C504.425 88.3513 513.498 89.2449 521.743 92.6601C529.988 96.0752 537.035 101.859 541.993 109.279C546.951 116.699 549.597 125.423 549.597 134.347C549.584 146.31 544.826 157.78 536.367 166.239C527.908 174.698 516.438 179.456 504.475 179.469ZM504.475 95.4478C496.779 95.4478 489.255 97.7302 482.856 102.006C476.457 106.283 471.469 112.361 468.524 119.472C465.58 126.583 464.81 134.407 466.312 141.956C467.815 149.504 471.522 156.437 476.965 161.879C482.408 167.32 489.343 171.025 496.892 172.525C504.441 174.025 512.265 173.253 519.375 170.306C526.485 167.359 532.561 162.37 536.835 155.969C541.11 149.568 543.39 142.044 543.387 134.347C543.374 124.032 539.27 114.144 531.975 106.851C524.68 99.5587 514.79 95.4576 504.475 95.4478Z" fill="white"/>
</g>
<g opacity="0.5">
<path d="M505.047 161.473L481.871 139.179L486.168 134.707L503.904 151.76L526.881 116.015L532.11 119.369L505.047 161.473Z" fill="white"/>
</g>
<path d="M430.863 126.274L263.192 126.411C258.252 126.411 253.513 128.374 250.019 131.867C246.525 135.361 244.562 140.1 244.562 145.041L244.861 494.714C244.861 499.654 246.823 504.393 250.317 507.887C253.811 511.381 258.55 513.344 263.491 513.344L431.161 513.194C436.102 513.194 440.84 511.232 444.334 507.738C447.828 504.244 449.791 499.505 449.791 494.564L449.505 144.892C449.503 142.445 449.02 140.023 448.082 137.763C447.144 135.504 445.771 133.451 444.04 131.722C442.308 129.993 440.254 128.622 437.993 127.688C435.732 126.753 433.309 126.273 430.863 126.274Z" fill="#263238"/>
<path d="M430.353 497.794L264.397 497.93C262.75 497.93 261.17 497.276 260.006 496.111C258.841 494.947 258.187 493.367 258.187 491.72L257.889 145.947C257.889 144.3 258.543 142.721 259.708 141.556C260.872 140.392 262.452 139.737 264.099 139.737L430.042 139.601C431.689 139.601 433.269 140.255 434.433 141.42C435.598 142.584 436.252 144.164 436.252 145.811L436.538 491.584C436.538 493.226 435.887 494.802 434.728 495.966C433.569 497.13 431.995 497.787 430.353 497.794Z" fill="#407BFF"/>
<path opacity="0.1" d="M362.292 473.811H332.422C328.992 473.811 326.212 476.591 326.212 480.021V481.809C326.212 485.239 328.992 488.019 332.422 488.019H362.292C365.722 488.019 368.502 485.239 368.502 481.809V480.021C368.502 476.591 365.722 473.811 362.292 473.811Z" fill="black"/>
<path opacity="0.1" d="M362.217 369.619H332.347C328.917 369.619 326.137 372.399 326.137 375.829V399.738C326.137 403.167 328.917 405.948 332.347 405.948H362.217C365.647 405.948 368.427 403.167 368.427 399.738V375.829C368.427 372.399 365.647 369.619 362.217 369.619Z" fill="black"/>
<path opacity="0.1" d="M309.568 369.669H279.698C276.269 369.669 273.488 372.449 273.488 375.879V399.787C273.488 403.217 276.269 405.997 279.698 405.997H309.568C312.998 405.997 315.778 403.217 315.778 399.787V375.879C315.778 372.449 312.998 369.669 309.568 369.669Z" fill="black"/>
<path opacity="0.1" d="M414.865 369.582H384.995C381.565 369.582 378.785 372.362 378.785 375.792V399.701C378.785 403.13 381.565 405.911 384.995 405.911H414.865C418.295 405.911 421.075 403.13 421.075 399.701V375.792C421.075 372.362 418.295 369.582 414.865 369.582Z" fill="black"/>
<path opacity="0.1" d="M362.254 416.368H332.384C328.954 416.368 326.174 419.148 326.174 422.578V446.487C326.174 449.916 328.954 452.697 332.384 452.697H362.254C365.684 452.697 368.464 449.916 368.464 446.487V422.578C368.464 419.148 365.684 416.368 362.254 416.368Z" fill="black"/>
<path opacity="0.1" d="M309.606 416.405H279.736C276.307 416.405 273.526 419.186 273.526 422.615V446.524C273.526 449.953 276.307 452.734 279.736 452.734H309.606C313.036 452.734 315.816 449.953 315.816 446.524V422.615C315.816 419.186 313.036 416.405 309.606 416.405Z" fill="black"/>
<path opacity="0.1" d="M414.902 416.318H385.032C381.603 416.318 378.822 419.099 378.822 422.528V446.437C378.822 449.867 381.603 452.647 385.032 452.647H414.902C418.332 452.647 421.112 449.867 421.112 446.437V422.528C421.112 419.099 418.332 416.318 414.902 416.318Z" fill="black"/>
<path opacity="0.1" d="M436.488 407.202L436.377 286.977C391.081 338.967 306.774 436.588 258.336 492.801C258.59 494.237 259.341 495.539 260.459 496.477C261.576 497.415 262.988 497.929 264.447 497.93L357.907 497.856L436.488 407.202Z" fill="white"/>
<path opacity="0.1" d="M258.038 319.89L414.381 139.626H341.202C321.84 161.771 288.777 199.975 257.988 235.632L258.038 319.89Z" fill="white"/>
<path opacity="0.1" d="M258.101 395.179L436.303 189.728L436.266 145.786L258.063 351.238L258.101 395.179Z" fill="white"/>
<path opacity="0.2" d="M264.099 139.675H430.055C431.702 139.675 433.281 140.33 434.446 141.494C435.61 142.659 436.265 144.238 436.265 145.885V153.71H257.889V145.885C257.889 144.238 258.543 142.659 259.708 141.494C260.872 140.33 262.452 139.675 264.099 139.675Z" fill="black"/>
<path opacity="0.6" d="M410.742 150.158L410.22 149.636L410.108 149.512H410.046C409.987 149.433 409.933 149.35 409.885 149.264C409.62 148.798 409.483 148.271 409.487 147.736C409.487 147.736 409.487 146.233 409.487 146.171C409.482 145.59 409.303 145.024 408.974 144.546C408.644 144.068 408.178 143.699 407.637 143.488C407.637 143.488 407.637 143.488 407.637 143.389C407.637 143.389 407.637 143.327 407.637 143.29V143.19C407.653 143.041 407.638 142.89 407.592 142.748C407.546 142.605 407.47 142.473 407.37 142.362C407.27 142.25 407.147 142.161 407.01 142.1C406.873 142.039 406.725 142.007 406.575 142.007C406.425 142.007 406.277 142.039 406.14 142.1C406.003 142.161 405.88 142.25 405.78 142.362C405.68 142.473 405.604 142.605 405.558 142.748C405.512 142.89 405.497 143.041 405.513 143.19V143.29C405.513 143.29 405.513 143.364 405.513 143.389C405.513 143.389 405.513 143.389 405.513 143.476C404.97 143.688 404.503 144.058 404.173 144.539C403.843 145.019 403.665 145.588 403.663 146.171V147.674C403.672 148.231 403.53 148.78 403.253 149.264C403.19 149.372 403.119 149.476 403.042 149.574L402.93 149.686L402.408 150.208C402.347 150.27 402.305 150.349 402.288 150.435C402.27 150.521 402.277 150.61 402.309 150.692C402.343 150.773 402.4 150.841 402.473 150.89C402.545 150.939 402.631 150.965 402.719 150.965H405.625C405.717 151.128 405.85 151.263 406.012 151.358C406.173 151.452 406.357 151.501 406.544 151.501C406.731 151.501 406.915 151.452 407.076 151.358C407.237 151.263 407.371 151.128 407.463 150.965H410.369C410.456 150.963 410.54 150.936 410.612 150.886C410.683 150.837 410.739 150.768 410.772 150.688C410.805 150.607 410.814 150.519 410.797 150.434C410.781 150.349 410.74 150.27 410.68 150.208L410.742 150.158Z" fill="white"/>
<g opacity="0.6">
<path opacity="0.6" d="M277.187 149.98L279.882 149.978L279.879 146.376L277.184 146.378L277.187 149.98Z" fill="white"/>
<path opacity="0.6" d="M272.778 150.001L275.474 149.999L275.469 145.192L272.774 145.194L272.778 150.001Z" fill="white"/>
<path opacity="0.6" d="M268.396 149.985L271.091 149.982L271.086 143.983L268.39 143.986L268.396 149.985Z" fill="white"/>
<path opacity="0.6" d="M263.975 150.006L266.67 150.003L266.664 142.8L263.968 142.802L263.975 150.006Z" fill="white"/>
</g>
<path opacity="0.6" d="M418.442 144.941H416.84V148.543H418.442V144.941Z" fill="white"/>
<path opacity="0.6" d="M418.429 149.876L431.185 149.865L431.179 143.642L418.424 143.653L418.429 149.876Z" fill="white"/>
<path d="M356.367 139.675C356.369 141.516 355.826 143.316 354.805 144.847C353.784 146.378 352.332 147.573 350.633 148.279C348.933 148.985 347.062 149.171 345.257 148.813C343.452 148.456 341.793 147.571 340.491 146.27C339.189 144.97 338.301 143.312 337.941 141.507C337.581 139.702 337.765 137.831 338.469 136.131C339.172 134.43 340.365 132.977 341.895 131.954C343.425 130.931 345.224 130.385 347.064 130.385C349.529 130.385 351.894 131.364 353.638 133.106C355.382 134.847 356.364 137.21 356.367 139.675Z" fill="#263238"/>
<path opacity="0.1" d="M351.871 139.675C351.873 140.627 351.594 141.557 351.067 142.349C350.54 143.141 349.79 143.759 348.912 144.125C348.034 144.491 347.067 144.588 346.134 144.404C345.201 144.22 344.343 143.763 343.67 143.091C342.997 142.419 342.538 141.563 342.351 140.63C342.165 139.697 342.259 138.73 342.623 137.851C342.986 136.972 343.602 136.221 344.393 135.692C345.183 135.164 346.113 134.881 347.064 134.881C348.337 134.881 349.558 135.386 350.459 136.285C351.36 137.183 351.868 138.403 351.871 139.675Z" fill="#E0E0E0"/>
<path d="M352.965 146.991C352.965 146.991 360.491 139.663 374.551 139.65L352.952 138.408L352.965 146.991Z" fill="#263238"/>
<path d="M341.203 147.003C341.203 147.003 333.651 139.688 319.592 139.7L341.19 138.458L341.203 147.003Z" fill="#263238"/>
<path opacity="0.3" d="M413.587 195.156H294.752C287.893 195.156 282.332 200.716 282.332 207.576V390.733C282.332 397.593 287.893 403.153 294.752 403.153H413.587C420.446 403.153 426.007 397.593 426.007 390.733V207.576C426.007 200.716 420.446 195.156 413.587 195.156Z" fill="black"/>
<path d="M409.401 186.312H290.566C283.707 186.312 278.146 191.873 278.146 198.733V381.89C278.146 388.75 283.707 394.31 290.566 394.31H409.401C416.26 394.31 421.821 388.75 421.821 381.89V198.733C421.821 191.873 416.26 186.312 409.401 186.312Z" fill="white"/>
<path d="M401.228 212.158C399.464 212.158 397.74 211.635 396.274 210.655C394.807 209.676 393.664 208.283 392.989 206.653C392.314 205.024 392.138 203.231 392.482 201.501C392.826 199.771 393.675 198.182 394.922 196.935C396.17 195.688 397.759 194.839 399.488 194.495C401.218 194.151 403.011 194.327 404.641 195.002C406.27 195.677 407.663 196.82 408.643 198.286C409.623 199.753 410.146 201.477 410.146 203.241C410.142 205.605 409.202 207.871 407.53 209.543C405.859 211.215 403.592 212.155 401.228 212.158ZM401.228 196.012C399.786 196.012 398.377 196.44 397.178 197.241C395.979 198.042 395.044 199.181 394.493 200.513C393.941 201.845 393.796 203.311 394.078 204.725C394.359 206.139 395.053 207.438 396.073 208.458C397.093 209.478 398.392 210.172 399.806 210.453C401.22 210.735 402.686 210.59 404.018 210.038C405.35 209.487 406.489 208.552 407.29 207.353C408.091 206.154 408.519 204.745 408.519 203.303C408.527 202.34 408.344 201.386 407.982 200.494C407.619 199.602 407.083 198.791 406.405 198.108C405.728 197.424 404.921 196.881 404.032 196.511C403.144 196.141 402.191 195.95 401.228 195.95V196.012Z" fill="#E0E0E0"/>
<path d="M403.953 199.377L397.366 205.964L398.508 207.105L405.095 200.519L403.953 199.377Z" fill="#E0E0E0"/>
<path d="M398.508 199.389L397.366 200.531L403.953 207.118L405.095 205.976L398.508 199.389Z" fill="#E0E0E0"/>
<path d="M380.86 388.746H320.437C317.143 388.746 313.984 387.437 311.654 385.108C309.325 382.779 308.017 379.62 308.017 376.326C308.017 373.032 309.325 369.873 311.654 367.544C313.984 365.215 317.143 363.906 320.437 363.906H380.86C384.154 363.906 387.313 365.215 389.642 367.544C391.971 369.873 393.28 373.032 393.28 376.326C393.28 379.62 391.971 382.779 389.642 385.108C387.313 387.437 384.154 388.746 380.86 388.746Z" fill="#E0E0E0"/>
<path d="M379.531 386.473H319.108C315.814 386.473 312.654 385.165 310.325 382.836C307.996 380.506 306.688 377.347 306.688 374.053C306.688 370.759 307.996 367.6 310.325 365.271C312.654 362.942 315.814 361.633 319.108 361.633H379.531C382.825 361.633 385.984 362.942 388.313 365.271C390.642 367.6 391.951 370.759 391.951 374.053C391.951 377.347 390.642 380.506 388.313 382.836C385.984 385.165 382.825 386.473 379.531 386.473Z" fill="#407BFF"/>
<path d="M323.479 376.322H321.667L324.429 368.322H326.608L329.366 376.322H327.554L325.55 370.15H325.487L323.479 376.322ZM323.366 373.177H327.647V374.498H323.366V373.177ZM337.012 371.123H335.301C335.27 370.901 335.206 370.705 335.109 370.533C335.013 370.358 334.889 370.21 334.738 370.088C334.587 369.965 334.413 369.872 334.215 369.806C334.02 369.741 333.807 369.709 333.578 369.709C333.164 369.709 332.803 369.812 332.496 370.017C332.189 370.22 331.951 370.517 331.781 370.908C331.612 371.296 331.527 371.767 331.527 372.322C331.527 372.892 331.612 373.372 331.781 373.76C331.953 374.148 332.193 374.441 332.5 374.638C332.807 374.836 333.163 374.935 333.566 374.935C333.793 374.935 334.003 374.905 334.195 374.845C334.391 374.786 334.564 374.698 334.715 374.584C334.866 374.467 334.991 374.325 335.09 374.158C335.191 373.991 335.262 373.801 335.301 373.588L337.012 373.595C336.967 373.963 336.857 374.317 336.68 374.658C336.505 374.997 336.27 375.3 335.973 375.568C335.678 375.834 335.327 376.045 334.918 376.201C334.512 376.355 334.052 376.431 333.539 376.431C332.826 376.431 332.188 376.27 331.625 375.947C331.065 375.624 330.622 375.157 330.297 374.545C329.974 373.933 329.813 373.192 329.813 372.322C329.813 371.45 329.977 370.707 330.305 370.095C330.633 369.483 331.078 369.017 331.641 368.697C332.203 368.374 332.836 368.213 333.539 368.213C334.003 368.213 334.432 368.278 334.828 368.408C335.227 368.538 335.579 368.728 335.887 368.978C336.194 369.226 336.444 369.529 336.637 369.888C336.832 370.248 336.957 370.659 337.012 371.123ZM345.283 371.123H343.572C343.541 370.901 343.477 370.705 343.381 370.533C343.285 370.358 343.161 370.21 343.01 370.088C342.859 369.965 342.684 369.872 342.486 369.806C342.291 369.741 342.079 369.709 341.85 369.709C341.436 369.709 341.075 369.812 340.768 370.017C340.46 370.22 340.222 370.517 340.053 370.908C339.883 371.296 339.799 371.767 339.799 372.322C339.799 372.892 339.883 373.372 340.053 373.76C340.225 374.148 340.464 374.441 340.771 374.638C341.079 374.836 341.434 374.935 341.838 374.935C342.064 374.935 342.274 374.905 342.467 374.845C342.662 374.786 342.835 374.698 342.986 374.584C343.137 374.467 343.262 374.325 343.361 374.158C343.463 373.991 343.533 373.801 343.572 373.588L345.283 373.595C345.239 373.963 345.128 374.317 344.951 374.658C344.777 374.997 344.541 375.3 344.244 375.568C343.95 375.834 343.598 376.045 343.189 376.201C342.783 376.355 342.324 376.431 341.811 376.431C341.097 376.431 340.459 376.27 339.896 375.947C339.337 375.624 338.894 375.157 338.568 374.545C338.245 373.933 338.084 373.192 338.084 372.322C338.084 371.45 338.248 370.707 338.576 370.095C338.904 369.483 339.35 369.017 339.912 368.697C340.475 368.374 341.107 368.213 341.811 368.213C342.274 368.213 342.704 368.278 343.1 368.408C343.498 368.538 343.851 368.728 344.158 368.978C344.465 369.226 344.715 369.529 344.908 369.888C345.104 370.248 345.229 370.659 345.283 371.123ZM346.496 376.322V368.322H351.887V369.717H348.188V371.623H351.609V373.017H348.188V374.927H351.902V376.322H346.496ZM353.231 376.322V368.322H356.388C356.994 368.322 357.511 368.438 357.938 368.67C358.366 368.899 358.691 369.218 358.915 369.627C359.142 370.033 359.255 370.502 359.255 371.033C359.255 371.564 359.14 372.033 358.911 372.439C358.682 372.845 358.35 373.162 357.915 373.388C357.483 373.615 356.959 373.728 356.345 373.728H354.333V372.373H356.071C356.397 372.373 356.665 372.317 356.876 372.205C357.09 372.09 357.248 371.933 357.353 371.732C357.459 371.529 357.513 371.296 357.513 371.033C357.513 370.767 357.459 370.536 357.353 370.338C357.248 370.137 357.09 369.982 356.876 369.873C356.662 369.761 356.392 369.705 356.063 369.705H354.923V376.322H353.231ZM360.049 369.717V368.322H366.619V369.717H364.17V376.322H362.498V369.717H360.049Z" fill="white"/>
<path d="M381.618 319.952H312.823V323.678H381.618V319.952Z" fill="#E0E0E0"/>
<path d="M381.58 345.475H312.785V349.201H381.58V345.475Z" fill="#F5F5F5"/>
<path d="M395.652 329.068H298.801V335.278H395.652V329.068Z" fill="#E0E0E0"/>
<path d="M347.226 313.642C376.831 313.642 400.831 289.643 400.831 260.038C400.831 230.432 376.831 206.433 347.226 206.433C317.621 206.433 293.621 230.432 293.621 260.038C293.621 289.643 317.621 313.642 347.226 313.642Z" fill="#407BFF"/>
<path opacity="0.6" d="M347.226 313.642C376.831 313.642 400.831 289.643 400.831 260.038C400.831 230.432 376.831 206.433 347.226 206.433C317.621 206.433 293.621 230.432 293.621 260.038C293.621 289.643 317.621 313.642 347.226 313.642Z" fill="white"/>
<path d="M285.287 281.574C285.287 281.574 282.393 280.146 281.04 280.643C279.686 281.139 271.104 290.429 271.104 291.659C271.104 292.889 276.643 293.46 278.406 292.901C280.17 292.342 286.318 285.238 286.616 284.518L285.287 281.574Z" fill="#FFC3BD"/>
<path d="M281.723 285.002C281.723 285.002 278.643 283.623 278.369 282.332C278.183 281.425 275.302 282.332 274.556 281.748C273.811 281.164 274.047 280.891 274.047 280.891C277.686 280.233 280.667 278.196 285.387 281.45L281.723 285.002Z" fill="#FFC3BD"/>
<path d="M286.207 286.828C295.134 287.435 304.098 287.214 312.984 286.169C321.032 284.816 325.777 265.577 325.777 265.577C325.777 265.577 345.475 227.522 325.205 241.072C321.703 242.973 315.145 254.983 312.438 264.385C309.73 273.787 309.382 275.078 306.774 275.724C305.644 276.01 287.163 279.04 284.033 279.636L286.207 286.828Z" fill="#407BFF"/>
<g opacity="0.3">
<path d="M286.207 286.828C295.134 287.435 304.098 287.214 312.984 286.169C321.032 284.816 325.777 265.577 325.777 265.577C325.777 265.577 345.475 227.522 325.205 241.072C321.703 242.973 315.145 254.983 312.438 264.385C309.73 273.787 309.382 275.078 306.774 275.724C305.644 276.01 287.163 279.04 284.033 279.636L286.207 286.828Z" fill="black"/>
</g>
<path opacity="0.5" d="M321.106 278.059C323.09 274.092 324.655 269.93 325.776 265.639L326.012 265.192L322.361 258.845L321.106 278.059Z" fill="black"/>
<path d="M371.706 307.718C370.004 292.715 365.632 253.753 365.123 244.662C364.477 233.36 357.671 232.354 343.264 234.192C328.857 236.03 324.982 241.991 322.001 250.449C319.12 258.597 327.081 276.531 330.36 310.922C337.119 313.162 344.256 314.033 351.355 313.483C358.454 312.932 365.373 310.973 371.706 307.718Z" fill="#407BFF"/>
<path opacity="0.3" d="M371.706 307.718C370.004 292.715 365.632 253.753 365.123 244.662C364.477 233.36 357.671 232.354 343.264 234.192C328.857 236.03 324.982 241.991 322.001 250.449C319.12 258.597 327.081 276.531 330.36 310.922C337.119 313.162 344.256 314.033 351.355 313.483C358.454 312.932 365.373 310.973 371.706 307.718Z" fill="black"/>
<path d="M343.413 217.35C343.413 223.125 343.835 231.496 348.381 234.266C348.381 234.266 349.237 239.967 334.954 249.804C327.875 243.06 331.365 238.39 331.365 238.39C337.202 235.434 336.557 232.962 334.694 228.913L343.413 217.35Z" fill="#FFC3BD"/>
<path opacity="0.2" d="M339.848 221.97L334.731 228.864C335.178 229.804 335.544 230.78 335.824 231.782C338.097 230.888 341.376 227.982 341.389 225.299C341.166 224.077 340.636 222.931 339.848 221.97Z" fill="black"/>
<path d="M348.753 206.085C348.008 215.748 347.884 219.847 343.04 224.926C335.762 232.577 324.41 230.056 322.286 220.505C320.423 211.885 321.963 197.478 331.253 193.429C332.779 192.713 334.435 192.318 336.119 192.27C337.804 192.222 339.48 192.521 341.044 193.149C342.608 193.777 344.025 194.72 345.209 195.92C346.392 197.12 347.315 198.551 347.921 200.124C348.652 202.021 348.937 204.061 348.753 206.085Z" fill="#FFC3BD"/>
<path d="M333.701 209.041C333.701 209.824 333.266 210.469 332.769 210.494C332.272 210.519 331.875 209.873 331.875 209.091C331.875 208.308 332.322 207.65 332.806 207.638C333.291 207.625 333.676 208.296 333.701 209.041Z" fill="#263238"/>
<path d="M325.044 209.302C325.044 210.097 324.609 210.743 324.112 210.755C323.615 210.767 323.218 210.134 323.218 209.352C323.218 208.569 323.665 207.923 324.162 207.911C324.659 207.898 325.056 208.519 325.044 209.302Z" fill="#263238"/>
<path d="M327.689 210.643C326.965 212.458 326.014 214.173 324.857 215.748C325.252 216.019 325.701 216.199 326.174 216.277C326.646 216.354 327.13 216.326 327.59 216.195L327.689 210.643Z" fill="#ED893E"/>
<path d="M331.7 219.139C331.328 219.211 330.95 219.253 330.57 219.263C330.541 219.264 330.513 219.26 330.486 219.25C330.459 219.241 330.434 219.225 330.413 219.205C330.392 219.186 330.375 219.162 330.364 219.135C330.352 219.109 330.347 219.08 330.347 219.052C330.352 218.991 330.379 218.934 330.422 218.891C330.465 218.848 330.522 218.821 330.583 218.816C331.552 218.796 332.504 218.554 333.366 218.108C334.227 217.663 334.975 217.025 335.551 216.245C335.565 216.218 335.584 216.194 335.608 216.176C335.632 216.157 335.659 216.144 335.689 216.136C335.718 216.129 335.749 216.129 335.779 216.135C335.808 216.14 335.837 216.153 335.861 216.17C335.887 216.185 335.909 216.206 335.927 216.23C335.944 216.254 335.956 216.282 335.962 216.311C335.968 216.341 335.968 216.371 335.961 216.4C335.954 216.429 335.941 216.457 335.923 216.481C334.92 217.887 333.403 218.842 331.7 219.139Z" fill="#263238"/>
<path d="M337.216 207.153C337.122 207.173 337.024 207.161 336.938 207.118C336.852 207.075 336.784 207.004 336.744 206.917C336.347 206.311 335.822 205.799 335.206 205.417C334.59 205.035 333.898 204.793 333.179 204.706C333.059 204.688 332.951 204.623 332.879 204.525C332.807 204.427 332.776 204.305 332.794 204.185C332.812 204.066 332.875 203.959 332.97 203.885C333.065 203.811 333.184 203.776 333.303 203.787C334.17 203.888 335.003 204.183 335.739 204.652C336.474 205.121 337.094 205.751 337.551 206.495C337.599 206.604 337.604 206.728 337.565 206.841C337.526 206.954 337.445 207.048 337.34 207.103C337.303 207.131 337.261 207.148 337.216 207.153Z" fill="#263238"/>
<path d="M322.522 205.278C322.443 205.295 322.361 205.29 322.284 205.263C322.208 205.237 322.14 205.191 322.088 205.129C322.017 205.029 321.986 204.907 321.999 204.785C322.013 204.664 322.071 204.552 322.162 204.471C322.697 203.968 323.348 203.606 324.056 203.415C324.764 203.224 325.509 203.212 326.224 203.378C326.279 203.392 326.331 203.417 326.376 203.452C326.421 203.487 326.459 203.531 326.487 203.581C326.515 203.631 326.532 203.686 326.538 203.743C326.544 203.8 326.539 203.857 326.522 203.912C326.487 204.026 326.409 204.122 326.305 204.18C326.201 204.238 326.078 204.253 325.963 204.222C325.401 204.12 324.823 204.149 324.274 204.306C323.724 204.464 323.219 204.745 322.796 205.129C322.723 205.207 322.627 205.259 322.522 205.278Z" fill="#263238"/>
<path opacity="0.5" d="M365.235 246.301L361.049 244.786L357.323 248.649L367.259 266.819C366.303 258.162 365.545 250.536 365.235 246.301Z" fill="black"/>
<path d="M375.407 291.796L372.749 297.745C372.749 297.745 366.539 300.825 365.744 302.936C364.949 305.048 361.583 309.792 365.359 310.947C367.063 311.551 368.921 311.552 370.626 310.951C372.33 310.35 373.776 309.182 374.724 307.644C376.686 304.464 377.456 302.477 377.357 300.974L381.617 293.323L375.407 291.796Z" fill="#FFC3BD"/>
<path d="M330.471 190.349C327.49 191.367 317.641 196.447 323.988 202.409C323.988 202.409 330.807 199.925 335.352 202.409C335.352 202.409 334.595 197.64 338.047 196.708C338.047 196.708 334.321 202.918 340.283 207.265C346.245 211.612 342.767 215.226 342.767 215.226C342.767 215.226 345.251 215.711 346.282 211.612C346.282 211.612 348.431 214.841 348.84 214.158C365.471 186.3 338.706 187.542 330.471 190.349Z" fill="#263238"/>
<path d="M351.175 213.438C350.558 215.173 349.313 216.613 347.685 217.474C345.512 218.567 344.071 216.742 344.369 214.431C344.655 212.357 346.12 209.277 348.443 209.103C348.842 209.088 349.24 209.154 349.612 209.299C349.984 209.443 350.323 209.663 350.607 209.943C350.891 210.224 351.114 210.56 351.263 210.93C351.412 211.3 351.484 211.697 351.473 212.096C351.474 212.56 351.372 213.018 351.175 213.438Z" fill="#FFC3BD"/>
<path d="M355.684 233.633C355.684 233.633 365.98 233.72 380.586 258.224C395.192 282.729 380.586 296.838 380.586 296.838L373.966 292.491C373.966 292.491 378.387 280.928 376.363 275.352C374.338 269.775 365.346 258.336 365.346 258.336C365.346 258.336 343.388 235.26 355.684 233.633Z" fill="#407BFF"/>
<g opacity="0.3">
<path d="M355.684 233.633C355.684 233.633 365.98 233.72 380.586 258.224C395.192 282.729 380.586 296.838 380.586 296.838L373.966 292.491C373.966 292.491 378.387 280.928 376.363 275.352C374.338 269.775 365.346 258.336 365.346 258.336C365.346 258.336 343.388 235.26 355.684 233.633Z" fill="black"/>
</g>
<path d="M248.089 253.989L250.175 249.096L254.907 250.449L251.964 257.02L248.089 253.989Z" fill="#E4897B"/>
<path d="M253.592 251.58C253.592 251.58 256.634 250.474 257.206 249.158C257.777 247.841 258.56 238.887 257.64 238.067C256.721 237.247 251.43 238.638 250.598 240.278C249.766 241.917 249.518 249.456 249.841 250.214L253.592 251.58Z" fill="#E4897B"/>
<path d="M198.956 195.565C198.956 195.565 205.166 187.579 216.27 191.666C227.373 195.752 228.441 212.581 227.05 221.25C225.659 229.919 224.367 243.73 226.168 245.121C226.168 245.121 217.549 247.469 212.196 243.718C206.843 239.967 207.104 224.38 207.104 224.38L209.215 216.307L198.956 195.565Z" fill="#263238"/>
<path d="M217.089 489.174L216.791 505.805L225.547 505.271L226.615 490.218L217.089 489.174Z" fill="#FFB573"/>
<path d="M227.124 504.252L216.083 504.053C215.881 504.048 215.684 504.111 215.524 504.233C215.363 504.355 215.249 504.528 215.201 504.724L213.04 513.679C212.946 514.059 213.007 514.461 213.21 514.797C213.413 515.132 213.74 515.373 214.121 515.467H214.431C218.405 515.467 221.958 515.306 226.851 515.405C232.701 515.517 231.198 516.188 238.029 516.411C242.165 516.535 242.997 511.841 241.258 511.58C233.235 510.425 232.44 507.978 229.397 505.047C228.757 504.523 227.952 504.241 227.124 504.252Z" fill="#263238"/>
<path opacity="0.2" d="M217.04 491.795L216.928 498.03L226.044 498.315L226.392 493.31L217.04 491.795Z" fill="black"/>
<path d="M178.065 486.256L175.904 502.737L184.648 503.196L187.418 488.355L178.065 486.256Z" fill="#FFB573"/>
<path d="M186.3 502.327L175.345 500.899C175.146 500.87 174.943 500.911 174.771 501.016C174.599 501.12 174.468 501.28 174.401 501.47L171.247 510.164C171.11 510.533 171.124 510.941 171.287 511.3C171.45 511.658 171.748 511.937 172.116 512.077C172.216 512.115 172.32 512.14 172.426 512.151C176.376 512.598 179.878 512.847 184.846 513.493C190.647 514.263 189.082 514.735 195.888 515.753C199.986 516.349 201.353 511.779 199.614 511.319C191.777 509.27 191.268 506.749 188.56 503.495C187.977 502.84 187.171 502.424 186.3 502.327Z" fill="#263238"/>
<path opacity="0.2" d="M177.717 488.851L176.91 495.036L185.927 496.341L186.846 491.41L177.717 488.851Z" fill="black"/>
<path d="M229 301.52C229 301.52 238.626 379.58 236.7 394.981C234.775 410.382 227.721 495.719 227.721 495.719H215.524C215.524 495.719 211.252 422.143 215.524 393.279C215.524 393.279 204.185 326.969 205.477 310.289C206.768 293.609 228.242 295.981 229 301.52Z" fill="#263238"/>
<path opacity="0.3" d="M213.71 382.263C216.405 356.181 210.742 326.547 210.742 326.547L206.842 333.428C208.655 349.884 211.748 370.116 213.71 382.263Z" fill="black"/>
<path d="M211.624 337.824C211.624 360.975 211.401 388.597 209.376 396.906C205.65 411.972 187.629 493.422 187.629 493.422L175.52 492.018C175.52 492.018 180.984 420.815 188.548 392.658C188.548 392.658 186.946 366.005 186.784 341.389C186.784 341.389 179.519 321.517 188.747 296.677C188.747 296.677 209.339 290.839 215.885 299.161C215.885 299.036 211.612 327.888 211.624 337.824Z" fill="#263238"/>
<path d="M221.075 241.569C221.075 241.569 229.633 242.289 234.327 257.131C239.022 271.973 237.817 269.75 237.817 269.75L247.753 251.89L254.137 255.032C254.137 255.032 244.412 285.312 238.786 290.715C233.16 296.118 224.677 284.505 224.354 282.418C224.031 280.332 222.317 254.883 222.317 254.883L221.075 241.569Z" fill="#407BFF"/>
<path opacity="0.1" d="M221.075 241.569C221.075 241.569 229.633 242.289 234.327 257.131C239.022 271.973 237.817 269.75 237.817 269.75L247.753 251.89L254.137 255.032C254.137 255.032 244.412 285.312 238.786 290.715C233.16 296.118 224.677 284.505 224.354 282.418C224.031 280.332 222.317 254.883 222.317 254.883L221.075 241.569Z" fill="black"/>
<path d="M198.956 196.236C198.956 196.236 191.504 194.448 189.566 212.966C187.368 233.658 193.863 247.493 206.346 247.369C206.346 247.369 204.371 231.41 205.352 226.591C206.333 221.772 203.452 200.906 203.452 200.906L198.956 196.236Z" fill="#263238"/>
<path d="M229.77 310.5L185.381 308.848C185.555 297.472 188.66 269.738 187.604 264C187.045 260.932 186.424 257.641 185.716 254.064C185.182 251.381 184.611 248.524 183.965 245.506C189.094 243.877 194.355 242.697 199.689 241.979C205.245 241.148 210.864 240.803 216.48 240.948C217.675 241.01 218.866 241.143 220.045 241.346C224.28 242.066 227.671 245.817 228.739 250.859C229.236 253.082 229.757 255.827 230.205 259.019C231.447 267.49 233.496 278.009 229.77 310.5Z" fill="#407BFF"/>
<g opacity="0.2">
<path d="M229.77 310.5L185.381 308.848C185.555 297.472 188.66 269.738 187.604 264C187.045 260.932 186.424 257.641 185.716 254.064C185.182 251.381 184.611 248.524 183.965 245.506C189.094 243.877 194.355 242.697 199.689 241.979C205.245 241.148 210.864 240.803 216.48 240.948C217.675 241.01 218.866 241.143 220.045 241.346C224.28 242.066 227.671 245.817 228.739 250.859C229.236 253.082 229.757 255.827 230.205 259.019C231.447 267.49 233.496 278.009 229.77 310.5Z" fill="black"/>
</g>
<path d="M212.853 247.32C203.787 245.531 201.303 241.445 201.303 241.445C207.513 236.353 203.302 226.541 203.302 226.541L214.17 229.336C213.816 230.852 213.567 232.392 213.425 233.943C212.891 240.625 215.909 240.899 215.909 240.899C217.598 244.674 212.853 247.32 212.853 247.32Z" fill="#E4897B"/>
<path opacity="0.2" d="M214.17 229.335C213.816 230.852 213.567 232.392 213.425 233.943C205.973 233.446 203.303 226.491 203.303 226.491L214.17 229.335Z" fill="black"/>
<path d="M210.171 198.124C219.784 198.248 222.802 203.44 223.386 213.351C224.106 225.771 221.249 234.465 209.264 231.695C192.994 227.895 194.211 197.925 210.171 198.124Z" fill="#E4897B"/>
<path d="M216.48 212.73C217.227 214.179 218.149 215.53 219.225 216.754C218.943 217.136 218.564 217.435 218.127 217.621C217.69 217.806 217.212 217.872 216.741 217.81L216.48 212.73Z" fill="#DE5753"/>
<path d="M211.289 206.172C210.53 206.068 209.758 206.14 209.032 206.383C208.306 206.627 207.646 207.035 207.104 207.576" stroke="#263238" stroke-width="0.616569" stroke-linecap="round" stroke-linejoin="round"/>
<path d="M217.847 205.626C218.507 205.468 219.194 205.462 219.856 205.608C220.519 205.754 221.14 206.049 221.672 206.47" stroke="#263238" stroke-width="0.616569" stroke-linecap="round" stroke-linejoin="round"/>
<path d="M199.452 214.195C199.452 214.195 206.395 207.24 205.799 201.142C205.799 201.142 222.591 192.709 223.286 212.059C223.286 212.059 225.373 194.919 208.854 194.323C192.336 193.727 192.1 217.921 200.533 225.199C200.533 225.199 196.621 219.089 199.452 214.195Z" fill="#263238"/>
<path d="M201.005 216.232C200.923 215.12 200.403 214.086 199.561 213.356C198.719 212.625 197.622 212.257 196.509 212.332C193.528 212.618 192.038 218.704 199.416 220.269C200.484 220.505 201.092 219.474 201.005 216.232Z" fill="#E4897B"/>
<path d="M219.511 221.076C219.456 222.253 219.485 223.431 219.598 224.603L219.002 224.765C216.282 225.46 214.779 224.877 213.959 224.032C213.558 223.608 213.268 223.092 213.115 222.529C213.011 222.217 212.956 221.89 212.953 221.561C214.825 221.884 216.745 221.795 218.579 221.3C219.151 221.138 219.511 221.076 219.511 221.076Z" fill="#263238"/>
<path d="M218.591 221.25V222.318C216.281 222.964 214.17 223.076 213.164 222.504C213.06 222.191 212.998 221.865 212.978 221.536C214.847 221.858 216.764 221.76 218.591 221.25Z" fill="white"/>
<path d="M219.002 224.715C216.282 225.411 214.779 224.827 213.959 223.982C214.995 223.729 216.069 223.67 217.126 223.809C217.832 223.903 218.489 224.221 219.002 224.715Z" fill="#DE5753"/>
<path d="M221.969 210.556C221.748 210.353 221.483 210.203 221.195 210.119C220.906 210.035 220.602 210.019 220.306 210.072C220.011 210.125 219.731 210.246 219.489 210.424C219.248 210.603 219.051 210.835 218.914 211.103" stroke="#263238" stroke-width="0.425407" stroke-linecap="round" stroke-linejoin="round"/>
<path d="M213.761 211.327C213.408 211.019 212.99 210.797 212.537 210.679C212.084 210.561 211.611 210.549 211.153 210.646C210.695 210.742 210.266 210.944 209.9 211.234C209.533 211.525 209.239 211.896 209.041 212.32" stroke="#263238" stroke-width="0.425407" stroke-linecap="round" stroke-linejoin="round"/>
<path d="M203.451 200.248C203.451 200.248 213.872 204.731 221.448 203.377C229.024 202.024 214.915 195.516 214.915 195.516L207.699 195.031L203.451 200.248Z" fill="#263238"/>
<path d="M205.985 199.354C206.191 199.696 206.342 200.069 206.432 200.459C206.52 200.803 206.591 201.151 206.643 201.502C206.738 202.189 206.771 202.883 206.743 203.576C206.683 204.936 206.458 206.283 206.072 207.588C205.679 208.871 205.176 210.117 204.569 211.314C204.271 211.91 203.923 212.481 203.6 213.078L202.532 214.767L203.489 213.003C203.762 212.407 204.072 211.761 204.321 211.202C204.842 209.998 205.257 208.752 205.563 207.476C205.855 206.206 205.989 204.904 205.96 203.601C205.936 202.959 205.861 202.319 205.737 201.688C205.662 201.378 205.588 201.067 205.488 200.782C205.406 200.527 205.298 200.282 205.165 200.049L205.985 199.354Z" fill="#263238"/>
<path d="M205.004 199.527C205.452 199.875 205.688 200.148 206.023 200.446C206.358 200.745 206.644 201.018 206.967 201.291C207.606 201.838 208.283 202.34 208.991 202.794C210.413 203.736 212.024 204.355 213.711 204.607C211.977 204.525 210.282 204.068 208.743 203.266C207.962 202.871 207.207 202.427 206.482 201.937C206.122 201.688 205.775 201.428 205.427 201.167C205.079 200.906 204.706 200.608 204.458 200.459L205.004 199.527Z" fill="#263238"/>
<path d="M270.234 285.66C270.234 285.66 272.197 283.089 273.637 282.928C275.078 282.766 286.057 284.443 286.629 285.561C287.2 286.679 281.946 291.572 280.133 291.895C278.32 292.218 271.663 291.373 271.079 290.852L270.234 285.66Z" fill="#E4897B"/>
<path d="M274.966 287.175C274.966 287.175 277.326 285.735 276.991 284.455C276.742 283.561 278.829 285.014 279.264 284.194C279.698 283.375 278.332 281.636 278.332 281.636C276.73 281.425 273.203 281.822 270.098 285.623L274.966 287.175Z" fill="#E4897B"/>
<path d="M270.258 285.66L263.415 287.983C263.415 287.983 264.26 293.634 264.657 293.485L273.252 290.02L270.258 285.66Z" fill="#E4897B"/>
<path d="M184.4 245.295C184.4 245.295 178.612 247.928 180.04 256.958C182.338 271.613 219.784 302.266 226.951 302.651C234.117 303.036 268.446 294.255 268.508 293.671C268.57 293.087 266.421 285.673 266.421 285.673C266.421 285.673 232.775 289.113 227.919 286.915C223.063 284.716 198.72 244.215 184.4 245.295Z" fill="#407BFF"/>
<path opacity="0.1" d="M184.4 245.295C184.4 245.295 178.612 247.928 180.04 256.958C182.338 271.613 219.784 302.266 226.951 302.651C234.117 303.036 268.446 294.255 268.508 293.671C268.57 293.087 266.421 285.673 266.421 285.673C266.421 285.673 232.775 289.113 227.919 286.915C223.063 284.716 198.72 244.215 184.4 245.295Z" fill="black"/>
</svg>
