<svg width="86" height="85" viewBox="0 0 86 85" fill="none" xmlns="http://www.w3.org/2000/svg">
<rect x="0.5" width="85" height="85" rx="42.5" fill="#113573"/>
<mask id="mask0_5037_1355" style="mask-type:luminance" maskUnits="userSpaceOnUse" x="23" y="23" width="47" height="39">
<path d="M67.3333 49.6458C67.3333 55.2839 62.6698 59.8542 56.9167 59.8542C55.0521 59.8542 53.3 59.3744 51.7854 58.5322C50.1814 57.6412 48.8471 56.3493 47.9186 54.7882C46.9901 53.2272 46.5006 51.4527 46.5 49.6458C46.5 47.0243 47.5083 44.6335 49.1646 42.8267C50.1405 41.7588 51.3355 40.905 52.6714 40.3209C54.0072 39.7369 55.4539 39.4358 56.9167 39.4375C62.6698 39.4375 67.3333 44.0078 67.3333 49.6458Z" fill="white" stroke="white" stroke-width="4" stroke-linecap="round" stroke-linejoin="round"/>
<path d="M56.9165 30.25V39.4375C55.4537 39.4358 54.0071 39.7369 52.6712 40.3209C51.3353 40.9049 50.1403 41.7588 49.1644 42.8267C47.4455 44.6981 46.4961 47.1279 46.4998 49.6458C46.5005 51.4527 46.99 53.2272 47.9185 54.7882C48.847 56.3493 50.1812 57.6412 51.7853 58.5322C49.0123 59.354 45.3311 59.8542 41.2915 59.8542C32.6623 59.8542 25.6665 57.5685 25.6665 54.75V30.25" stroke="white" stroke-width="4" stroke-linecap="round" stroke-linejoin="round"/>
<path d="M56.9165 30.25C56.9165 33.0686 49.9207 35.3542 41.2915 35.3542C32.6623 35.3542 25.6665 33.0686 25.6665 30.25C25.6665 27.4315 32.6623 25.1459 41.2915 25.1459C49.9207 25.1459 56.9165 27.4315 56.9165 30.25Z" fill="white" stroke="white" stroke-width="4" stroke-linecap="round" stroke-linejoin="round"/>
<path d="M25.6665 46.5834C25.6665 49.4019 32.6623 51.6876 41.2915 51.6876C43.1738 51.6876 44.979 51.5794 46.6498 51.3793M25.6665 38.4167C25.6665 41.2353 32.6623 43.5209 41.2915 43.5209C44.1623 43.5209 46.853 43.2677 49.1644 42.8267" stroke="white" stroke-width="4" stroke-linecap="round" stroke-linejoin="round"/>
<path d="M61.6042 47.6042L55.875 53.2188L52.75 50.1563" stroke="black" stroke-width="4" stroke-linecap="round" stroke-linejoin="round"/>
</mask>
<g mask="url(#mask0_5037_1355)">
<path d="M21.5 18.0001H71.5V67.0001H21.5V18.0001Z" fill="white"/>
</g>
</svg>
