<svg width="86" height="85" viewBox="0 0 86 85" fill="none" xmlns="http://www.w3.org/2000/svg">
<rect x="0.5" width="85" height="85" rx="42.5" fill="#113573"/>
<g clip-path="url(#clip0_5037_1338)">
<path fill-rule="evenodd" clip-rule="evenodd" d="M55.1348 23.1098C55.0724 22.858 54.9441 22.6274 54.7633 22.4414C54.5824 22.2555 54.3554 22.1209 54.1054 22.0515C53.8555 21.9821 53.5916 21.9803 53.3407 22.0464C53.0899 22.1124 52.8611 22.2439 52.6777 22.4275L46.8206 28.2846C46.642 28.4636 46.5128 28.6858 46.4455 28.9296C46.3783 29.1734 46.3753 29.4304 46.437 29.6757L47.4912 33.9045C47.4774 33.918 47.4637 33.9317 47.4502 33.9455L40.448 40.9477C40.0601 41.3641 39.8488 41.9148 39.8589 42.4838C39.8689 43.0529 40.0994 43.5958 40.5019 43.9982C40.9043 44.4006 41.4472 44.6311 42.0162 44.6412C42.5852 44.6512 43.136 44.44 43.5523 44.052L50.5604 37.0527C50.5742 37.0383 50.5879 37.0236 50.6014 37.0088L54.8273 38.066C55.0726 38.1276 55.3296 38.1247 55.5734 38.0575C55.8172 37.9902 56.0394 37.861 56.2184 37.6824L62.0755 31.8252C62.2598 31.642 62.392 31.413 62.4585 31.1617C62.525 30.9105 62.5234 30.6461 62.454 30.3956C62.3845 30.1452 62.2496 29.9178 62.0632 29.7367C61.8768 29.5556 61.6455 29.4274 61.3932 29.3652L56.3882 28.1177L55.1348 23.1098ZM42.9285 24.2227C42.9688 24.8036 42.7767 25.3767 42.3944 25.8161C42.0122 26.2554 41.4712 26.525 40.8902 26.5655C37.8305 26.7776 34.8959 27.8636 32.4352 29.6944C29.9745 31.5253 28.0911 34.0242 27.0089 36.894C25.9266 39.7638 25.691 42.884 26.33 45.8839C26.969 48.8837 28.4557 51.637 30.6135 53.8167C32.7714 55.9963 35.5096 57.5107 38.5028 58.1799C41.4961 58.849 44.6185 58.6448 47.4991 57.5915C50.3796 56.5382 52.8973 54.6801 54.7529 52.238C56.6084 49.7958 57.7239 46.8723 57.9667 43.8148C58.013 43.2338 58.2881 42.695 58.7316 42.3169C59.1751 41.9387 59.7506 41.7523 60.3316 41.7985C60.9125 41.8447 61.4514 42.1198 61.8295 42.5633C62.2076 43.0068 62.3941 43.5823 62.3479 44.1633C62.038 48.0589 60.6163 51.7837 58.2517 54.8952C55.8872 58.0066 52.6792 60.3738 49.0088 61.7157C45.3384 63.0575 41.36 63.3175 37.5463 62.4649C33.7325 61.6122 30.2436 59.6826 27.4942 56.9054C24.7448 54.1283 22.8503 50.6202 22.036 46.7981C21.2216 42.9759 21.5216 39.0003 22.9002 35.3436C24.2789 31.6869 26.6782 28.5028 29.8132 26.1696C32.9482 23.8364 36.6871 22.4522 40.5857 22.1815C41.1666 22.1412 41.7398 22.3333 42.1791 22.7155C42.6184 23.0978 42.888 23.6417 42.9285 24.2227ZM40.9605 33.884C41.0658 34.1527 41.1171 34.4394 41.1115 34.7278C41.1059 35.0163 41.0435 35.3008 40.9279 35.5651C40.8123 35.8295 40.6458 36.0685 40.4378 36.2684C40.2299 36.4684 39.9846 36.6255 39.7159 36.7306C38.7554 37.1073 37.904 37.7175 37.2386 38.5059C36.5731 39.2943 36.1147 40.2361 35.9046 41.2462C35.6945 42.2562 35.7394 43.3027 36.0353 44.2911C36.3312 45.2794 36.8688 46.1785 37.5993 46.9069C38.3299 47.6354 39.2305 48.1703 40.2197 48.4633C41.2089 48.7563 42.2556 48.7982 43.265 48.5852C44.2745 48.3722 45.2149 47.9109 46.0014 47.2432C46.7879 46.5755 47.3955 45.7223 47.7695 44.7607C47.8741 44.4919 48.0306 44.2463 48.2301 44.038C48.4296 43.8297 48.6682 43.6627 48.9323 43.5466C49.1964 43.4304 49.4807 43.3675 49.7691 43.3612C50.0575 43.355 50.3443 43.4056 50.6131 43.5102C50.8819 43.6148 51.1275 43.7714 51.3358 43.9709C51.5442 44.1704 51.7112 44.409 51.8273 44.6731C51.9434 44.9371 52.0064 45.2215 52.0126 45.5099C52.0188 45.7983 51.9682 46.0851 51.8636 46.3539C51.2249 47.9959 50.187 49.4528 48.8438 50.5929C47.5006 51.7331 45.8944 52.5205 44.1705 52.884C42.4465 53.2474 40.6592 53.1755 38.97 52.6747C37.2808 52.174 35.7431 51.2601 34.4958 50.0157C33.2485 48.7714 32.331 47.2358 31.8263 45.5478C31.3215 43.8598 31.2455 42.0726 31.6049 40.3478C31.9643 38.623 32.7479 37.015 33.8849 35.6691C35.0219 34.3232 36.4764 33.2819 38.1169 32.6394C38.6591 32.4278 39.2631 32.44 39.7962 32.6733C40.3294 32.9067 40.7482 33.3421 40.9605 33.884Z" fill="white"/>
</g>
<defs>
<clipPath id="clip0_5037_1338">
<rect width="41" height="41" fill="white" transform="translate(21.5 22)"/>
</clipPath>
</defs>
</svg>
