<svg width="86" height="85" viewBox="0 0 86 85" fill="none" xmlns="http://www.w3.org/2000/svg">
<rect x="0.5" width="85" height="85" rx="42.5" fill="#113573"/>
<path d="M43 35.7812C44.4255 35.7812 45.7927 35.215 46.8007 34.2069C47.8087 33.1989 48.375 31.8318 48.375 30.4062C48.375 28.9807 47.8087 27.6136 46.8007 26.6056C45.7927 25.5975 44.4255 25.0312 43 25.0312C41.5745 25.0312 40.2073 25.5975 39.1993 26.6056C38.1913 27.6136 37.625 28.9807 37.625 30.4062C37.625 31.8318 38.1913 33.1989 39.1993 34.2069C40.2073 35.215 41.5745 35.7812 43 35.7812ZM34.9375 31.0781C34.9375 31.6957 34.8159 32.3073 34.5795 32.8779C34.3431 33.4485 33.9967 33.967 33.56 34.4037C33.1233 34.8405 32.6048 35.1869 32.0342 35.4232C31.4636 35.6596 30.852 35.7812 30.2344 35.7812C29.6168 35.7812 29.0052 35.6596 28.4346 35.4232C27.864 35.1869 27.3455 34.8405 26.9088 34.4037C26.472 33.967 26.1256 33.4485 25.8893 32.8779C25.6529 32.3073 25.5313 31.6957 25.5313 31.0781C25.5313 29.8308 26.0268 28.6345 26.9088 27.7525C27.7908 26.8705 28.987 26.375 30.2344 26.375C31.4817 26.375 32.678 26.8705 33.56 27.7525C34.442 28.6345 34.9375 29.8308 34.9375 31.0781ZM60.4688 31.0781C60.4688 31.6957 60.3471 32.3073 60.1107 32.8779C59.8744 33.4485 59.528 33.967 59.0912 34.4037C58.6545 34.8405 58.136 35.1869 57.5654 35.4232C56.9948 35.6596 56.3832 35.7812 55.7656 35.7812C55.148 35.7812 54.5364 35.6596 53.9658 35.4232C53.3952 35.1869 52.8767 34.8405 52.44 34.4037C52.0033 33.967 51.6569 33.4485 51.4205 32.8779C51.1842 32.3073 51.0625 31.6957 51.0625 31.0781C51.0625 29.8308 51.558 28.6345 52.44 27.7525C53.322 26.8705 54.5183 26.375 55.7656 26.375C57.013 26.375 58.2092 26.8705 59.0912 27.7525C59.9732 28.6345 60.4688 29.8308 60.4688 31.0781ZM34.1003 38.4688C33.3354 39.4211 32.9195 40.6066 32.9219 41.8281V51.9062C32.9219 53.5658 33.3223 55.1313 34.0332 56.5113C33.009 57.0498 31.8632 57.3147 30.7067 57.2803C29.5501 57.2459 28.4221 56.9135 27.4317 56.3151C26.4414 55.7167 25.6224 54.8728 25.054 53.8649C24.4856 52.8571 24.1872 51.7196 24.1875 50.5625V41.8281C24.1875 40.9372 24.5414 40.0827 25.1714 39.4527C25.8014 38.8227 26.6559 38.4688 27.5469 38.4688H34.1003ZM51.9668 56.5113C52.6979 55.0864 53.0788 53.5078 53.0781 51.9062V41.8281C53.0781 40.5569 52.6374 39.3892 51.8997 38.4688H58.4531C59.3441 38.4688 60.1986 38.8227 60.8286 39.4527C61.4586 40.0827 61.8125 40.9372 61.8125 41.8281V50.5625C61.8128 51.7196 61.5144 52.8571 60.946 53.8649C60.3776 54.8728 59.5586 55.7167 58.5683 56.3151C57.5779 56.9135 56.4499 57.2459 55.2933 57.2803C54.1368 57.3147 52.991 57.0498 51.9668 56.5113ZM38.2969 38.4688C37.4059 38.4688 36.5514 38.8227 35.9214 39.4527C35.2914 40.0827 34.9375 40.9372 34.9375 41.8281V51.9062C34.9375 54.0446 35.7869 56.0953 37.299 57.6073C38.811 59.1193 40.8617 59.9688 43 59.9688C45.1383 59.9688 47.189 59.1193 48.701 57.6073C50.2131 56.0953 51.0625 54.0446 51.0625 51.9062V41.8281C51.0625 40.9372 50.7086 40.0827 50.0786 39.4527C49.4486 38.8227 48.5941 38.4688 47.7031 38.4688H38.2969Z" fill="white"/>
</svg>
